<svg xmlns="http://www.w3.org/2000/svg" viewBox="0 0 511.999 511.999"><path d="M434.351 168.441c-1.505-2.22-15.109-21.665-38.262-34.269-13.096-7.128-26.803-10.742-40.74-10.742-10.271 0-20.718 1.987-31.052 5.905-42.371 16.068-59.611 17.803-65.058 17.803-.575 0-.977-.021-1.226-.04-1.788-.754-2.238-.752-4.027 0-.249.02-.651.04-1.228.04-5.444 0-22.681-1.734-65.057-17.803-10.334-3.919-20.782-5.906-31.052-5.906-47.584 0-76.635 41.504-79.006 45.016-30.722 42.1-39.03 99.381-24.02 165.661 12.458 55.01 38.291 105.161 58.313 133.753C132.446 497.148 155.532 512 180.55 512c13.967 0 25.025-4.767 31.844-8.766 9.546-5.599 29.783-8.971 37.381-9.879h12.453c7.591.904 27.807 4.263 37.38 9.881 6.817 3.998 17.875 8.764 31.842 8.765h.004c25.015 0 48.1-14.851 68.611-44.141 20.022-28.592 45.855-78.743 58.312-133.753 15.008-66.284 6.7-123.567-24.026-165.666zm8.073 162.054c-11.934 52.697-36.627 100.664-55.758 127.984-17.272 24.663-35.849 37.168-55.217 37.167-10.839-.001-19.419-4.084-23.569-6.518-14.476-8.493-41.251-11.734-44.257-12.075a8.12 8.12 0 0 0-.923-.052h-13.403a8.15 8.15 0 0 0-.924.052c-3.005.341-29.779 3.583-44.255 12.074-4.151 2.435-12.731 6.519-23.568 6.519-19.37 0-37.948-12.505-55.217-37.167-19.131-27.319-43.825-75.286-55.759-127.984-9.728-42.958-13.918-104.291 21.369-152.53.075-.102.147-.206.217-.312.251-.378 25.547-37.869 65.489-37.869 8.282 0 16.779 1.63 25.254 4.843 43.288 16.416 62.974 18.867 70.855 18.866 1.315 0 2.381-.065 3.239-.159.858.096 1.926.159 3.24.159 7.883 0 27.572-2.451 70.856-18.866 8.475-3.213 16.972-4.842 25.254-4.842 11.175 0 22.251 2.944 32.921 8.751 20.372 11.089 32.456 28.951 32.566 29.116.071.107.143.209.217.312 35.29 48.24 31.101 109.573 21.373 152.531z"/><path d="M164.3 46.012c61.27 0 78.882 42.939 82.867 78.961a8.179 8.179 0 0 0 9.026 7.228 8.178 8.178 0 0 0 7.229-9.027c-1.807-16.332-7.061-39.855-21.828-59.168-17.426-22.792-43.432-34.35-77.294-34.35-4.516 0-8.177 3.66-8.177 8.177s3.661 8.179 8.177 8.179zM288.34 110.627c7.482 2.209 15.306 3.286 23.231 3.285 21.751 0 44.249-8.111 62.444-23.163a105.333 105.333 0 0 0 10.966-10.481 8.18 8.18 0 0 0-.581-11.551c-3.349-3.028-8.521-2.767-11.551.581a88.742 88.742 0 0 1-9.257 8.847c-19.047 15.755-43.488 22.463-65.095 18.157-.137-19.031 8.211-38.853 22.977-54.021a89.927 89.927 0 0 1 7.069-6.516c19.047-15.753 43.491-22.462 65.096-18.155.072 9.363-1.895 19.028-5.787 28.274a8.177 8.177 0 1 0 15.073 6.345c5.738-13.631 8.051-28.122 6.69-41.907a8.179 8.179 0 0 0-5.822-7.039c-28.024-8.272-60.849-.656-85.675 19.879a106.311 106.311 0 0 0-8.361 7.708l-.001.001c-19.56 20.095-29.743 47.277-27.236 72.712a8.174 8.174 0 0 0 5.82 7.044z"/></svg>