<?xml version="1.0" encoding="iso-8859-1"?>
<!-- Generator: Adobe Illustrator 19.0.0, SVG Export Plug-In . SVG Version: 6.00 Build 0)  -->
<svg version="1.1" id="Capa_1" xmlns="http://www.w3.org/2000/svg" xmlns:xlink="http://www.w3.org/1999/xlink" x="0px" y="0px"
	 viewBox="0 0 511.999 511.999" style="enable-background:new 0 0 511.999 511.999;" xml:space="preserve">
<g>
	<g>
		<path d="M468.856,196.498c-3.835-12.312-9.174-23.997-15.869-34.728c-2.189-3.51-6.811-4.583-10.323-2.392
			c-3.512,2.19-4.581,6.811-2.392,10.323c6.017,9.646,10.82,20.161,14.275,31.252c10.06,32.292,13.193,71.338,8.82,109.947
			c-4.599,40.605-16.914,78.22-35.616,108.779c-25.579,41.796-61.787,67.791-104.709,75.177c-8.325,1.434-17.092,2.159-26.04,2.159
			c-0.005,0-0.012,0-0.017,0c-0.127-0.001-12.827-0.146-22.927-6.337c-10.969-6.723-25.144-6.723-36.114,0
			c-10.099,6.191-22.8,6.336-22.907,6.337c-0.006,0-0.011,0-0.017,0c-8.967,0-17.736-0.726-26.061-2.159
			c-25.018-4.304-47.689-14.812-67.388-31.232c-3.178-2.648-7.903-2.221-10.553,0.957c-2.649,3.179-2.221,7.903,0.957,10.553
			c21.749,18.129,46.795,29.735,74.442,34.49c9.162,1.576,18.785,2.376,28.601,2.376c0.006,0,0.013,0,0.019,0
			c0.686,0,16.956-0.098,30.738-8.546c6.21-3.809,14.237-3.809,20.45,0c13.782,8.448,30.052,8.546,30.737,8.546
			c0.007,0,0.012,0,0.019,0c9.816,0,19.44-0.799,28.602-2.376c47.301-8.138,87.049-36.536,114.949-82.123
			c19.837-32.412,32.882-72.151,37.725-114.914C482.86,271.959,479.521,230.731,468.856,196.498z"/>
	</g>
</g>
<g>
	<g>
		<path d="M419.662,124.949c-31.873-24.259-70.728-31.36-109.406-19.999c-19.517,5.734-36.161,15.925-48.22,29.486
			c-0.628-8.66-0.922-21.341,0.729-35.81c4.045-35.449,17.229-64.309,39.184-85.776c2.959-2.893,3.012-7.638,0.119-10.595
			c-2.893-2.959-7.638-3.013-10.595-0.119c-12.104,11.835-21.927,25.975-29.266,41.974c-7.007-17.571-22.624-32.503-50.877-37.402
			c-10.742-1.861-22.463-1.985-34.838-0.368l-18.484,2.418c-4.568,0.598-8.499,3.234-10.786,7.233
			c-2.287,4-2.563,8.724-0.762,12.965l7.293,17.155c4.882,11.484,10.935,21.522,17.99,29.835
			c15.694,18.493,32.988,25.557,49.261,25.557c9.568,0,18.777-2.453,27.106-6.452c-0.097,0.785-0.197,1.568-0.286,2.359
			c-1.729,15.483-1.426,28.921-0.743,38.218c-19.588-21.58-46.5-34.434-75.976-36.237c-29.656-1.815-58.813,7.68-82.106,26.73
			C68,143.292,52.147,167.629,43.153,196.499C31.857,232.758,28.81,276.337,34.57,319.21c6.103,45.42,21.313,86.612,43.985,119.128
			c1.457,2.089,3.785,3.208,6.153,3.208c1.479,0,2.973-0.438,4.279-1.348c3.395-2.367,4.228-7.037,1.86-10.432
			c-21.313-30.567-35.638-69.486-41.426-112.551c-5.476-40.754-2.621-82.042,8.038-116.259c8.116-26.06,22.302-47.926,41.023-63.235
			c20.364-16.653,45.823-24.943,71.705-23.373c26.022,1.59,49.725,13.097,66.746,32.401c6.472,7.341,11.425,11.596,17.552,11.596
			c0.025,0,0.051-0.001,0.076-0.001c6.654-0.038,10.927-4.999,16.338-11.279c0.571-0.663,1.171-1.359,1.803-2.087
			c10.224-11.755,24.67-20.624,41.777-25.649c33.991-9.986,68.122-3.755,96.106,17.545c3.292,2.505,7.993,1.869,10.5-1.425
			C423.592,132.156,422.955,127.456,419.662,124.949z M251.464,75.592c-3.892,2.883-13.918,9.41-26.377,10.694
			c-15.195,1.57-29.307-5.175-41.921-20.036c-6.077-7.161-11.334-15.909-15.625-26.003l-7.097-16.696l17.988-2.353
			c10.876-1.423,21.082-1.331,30.334,0.274c19.207,3.331,32.172,12.066,38.532,25.963C252.513,58.824,251.974,70.777,251.464,75.592
			z"/>
	</g>
</g>
<g>
</g>
<g>
</g>
<g>
</g>
<g>
</g>
<g>
</g>
<g>
</g>
<g>
</g>
<g>
</g>
<g>
</g>
<g>
</g>
<g>
</g>
<g>
</g>
<g>
</g>
<g>
</g>
<g>
</g>
</svg>
