<svg xmlns="http://www.w3.org/2000/svg" viewBox="0 0 511.999 511.999"><path d="M468.856 196.498c-3.835-12.312-9.174-23.997-15.869-34.728a7.493 7.493 0 1 0-12.715 7.931c6.017 9.646 10.82 20.161 14.275 31.252 10.06 32.292 13.193 71.338 8.82 109.947-4.599 40.605-16.914 78.22-35.616 108.779-25.579 41.796-61.787 67.791-104.709 75.177-8.325 1.434-17.092 2.159-26.04 2.159h-.017c-.127-.001-12.827-.146-22.927-6.337-10.969-6.723-25.144-6.723-36.114 0-10.099 6.191-22.8 6.336-22.907 6.337h-.017c-8.967 0-17.736-.726-26.061-2.159-25.018-4.304-47.689-14.812-67.388-31.232a7.494 7.494 0 0 0-9.596 11.51c21.749 18.129 46.795 29.735 74.442 34.49 9.162 1.576 18.785 2.376 28.601 2.376h.019c.686 0 16.956-.098 30.738-8.546 6.21-3.809 14.237-3.809 20.45 0 13.782 8.448 30.052 8.546 30.737 8.546h.019c9.816 0 19.44-.799 28.602-2.376 47.301-8.138 87.049-36.536 114.949-82.123 19.837-32.412 32.882-72.151 37.725-114.914 4.603-40.628 1.264-81.856-9.401-116.089zM419.662 124.949c-31.873-24.259-70.728-31.36-109.406-19.999-19.517 5.734-36.161 15.925-48.22 29.486-.628-8.66-.922-21.341.729-35.81 4.045-35.449 17.229-64.309 39.184-85.776a7.492 7.492 0 0 0 .119-10.595 7.49 7.49 0 0 0-10.595-.119c-12.104 11.835-21.927 25.975-29.266 41.974-7.007-17.571-22.624-32.503-50.877-37.402-10.742-1.861-22.463-1.985-34.838-.368l-18.484 2.418a14.496 14.496 0 0 0-10.786 7.233c-2.287 4-2.563 8.724-.762 12.965l7.293 17.155c4.882 11.484 10.935 21.522 17.99 29.835 15.694 18.493 32.988 25.557 49.261 25.557 9.568 0 18.777-2.453 27.106-6.452-.097.785-.197 1.568-.286 2.359-1.729 15.483-1.426 28.921-.743 38.218-19.588-21.58-46.5-34.434-75.976-36.237-29.656-1.815-58.813 7.68-82.106 26.73C68 143.292 52.147 167.629 43.153 196.499 31.857 232.758 28.81 276.337 34.57 319.21c6.103 45.42 21.313 86.612 43.985 119.128a7.484 7.484 0 0 0 6.153 3.208 7.463 7.463 0 0 0 4.279-1.348 7.491 7.491 0 0 0 1.86-10.432c-21.313-30.567-35.638-69.486-41.426-112.551-5.476-40.754-2.621-82.042 8.038-116.259 8.116-26.06 22.302-47.926 41.023-63.235 20.364-16.653 45.823-24.943 71.705-23.373 26.022 1.59 49.725 13.097 66.746 32.401 6.472 7.341 11.425 11.596 17.552 11.596l.076-.001c6.654-.038 10.927-4.999 16.338-11.279.571-.663 1.171-1.359 1.803-2.087 10.224-11.755 24.67-20.624 41.777-25.649 33.991-9.986 68.122-3.755 96.106 17.545a7.493 7.493 0 0 0 10.5-1.425 7.492 7.492 0 0 0-1.423-10.5zM251.464 75.592c-3.892 2.883-13.918 9.41-26.377 10.694-15.195 1.57-29.307-5.175-41.921-20.036-6.077-7.161-11.334-15.909-15.625-26.003l-7.097-16.696 17.988-2.353c10.876-1.423 21.082-1.331 30.334.274 19.207 3.331 32.172 12.066 38.532 25.963 5.215 11.389 4.676 23.342 4.166 28.157z"/></svg>