<svg xmlns="http://www.w3.org/2000/svg" viewBox="0 0 512 512"><path d="M437.02 74.98C388.667 26.629 324.38 0 256 0S123.333 26.629 74.98 74.98C26.629 123.332 0 187.62 0 256s26.629 132.668 74.98 181.02C123.333 485.371 187.62 512 256 512s132.667-26.629 181.02-74.98C485.371 388.668 512 324.38 512 256s-26.629-132.668-74.98-181.02zM256 497C123.112 497 15 388.888 15 256S123.112 15 256 15s241 108.112 241 241-108.112 241-241 241z"/><path d="M419.803 182.196l-90-90a7.501 7.501 0 0 0-10.606 0l-90 90A7.5 7.5 0 0 0 234.5 195H257v22.5a7.5 7.5 0 0 0 7.5 7.5 7.5 7.5 0 0 0 7.5-7.5v-30a7.5 7.5 0 0 0-7.5-7.5h-11.894l71.894-71.894L396.394 180H384.5a7.5 7.5 0 0 0-7.5 7.5V271c0 74.99-61.009 136-136 136s-136-61.01-136-136v-7.5h15v7.5c0 41.906 34.093 76 76 76s76-34.094 76-76v-23.5a7.5 7.5 0 0 0-7.5-7.5 7.5 7.5 0 0 0-7.5 7.5V271c0 33.636-27.364 61-61 61s-61-27.364-61-61v-15a7.5 7.5 0 0 0-7.5-7.5h-30A7.5 7.5 0 0 0 90 256v15c0 83.262 67.738 151 151 151s151-67.738 151-151v-76h22.5a7.499 7.499 0 0 0 5.303-12.804z"/></svg>