<svg xmlns="http://www.w3.org/2000/svg" viewBox="0 0 512.001 512.001"><path d="M242.083 379.533a7.502 7.502 0 0 0-9.036 5.55c-7.284 30.473-34.277 51.757-65.641 51.757-37.224 0-67.508-30.284-67.508-67.509 0-37.224 30.284-67.508 67.508-67.508 31.364 0 58.357 21.283 65.641 51.756a7.499 7.499 0 0 0 14.586-3.486c-8.905-37.25-41.894-63.266-80.227-63.266-45.492-.002-82.504 37.01-82.504 82.503s37.012 82.505 82.504 82.505c38.331 0 71.322-26.015 80.227-63.266a7.499 7.499 0 0 0-5.55-9.036z"/><path d="M498.879 378.577a116.51 116.51 0 0 0-.472-9.854c-2.223-32.148-15.813-143.41-97.419-231.316-10.271-11.064-24.28-18.609-39.849-21.75 8.324-23.009 23.405-52.05 50.211-73.91 7.05-5.752 6.923-16.569-.255-22.169L390.65 3.622c-8.318-6.492-20.47-3.971-25.518 5.287-7.068 12.967-17.477 34.922-24.836 62.855-12.226-23.186-37.922-54.059-88.907-57.924-8.012-.604-14.578 6.269-13.575 14.245 1.593 12.665 8.041 44.251 33.47 63.967 17.8 13.801 39.58 17.955 61.98 16.604a256.876 256.876 0 0 0-.657 6.218c-17.366 2.505-33.104 10.408-44.358 22.531-11.641 12.54-22.443 26.195-32.242 40.676-9.353-13.852-20.028-27.526-32.235-40.676-28.982-31.22-83.801-31.169-112.735 0C29.44 225.303 15.845 336.56 13.619 368.716 3.406 480.755 149.908 551.869 255.942 487.763c20.231 12.221 43.724 20.118 68.254 22.908a7.498 7.498 0 0 0 1.696-14.9c-19.956-2.269-39.127-8.222-56.078-17.352 29.382-22.464 49.083-54.604 51.597-91.499 2.519-37.658-13.019-123.897-56.536-195.11 10.281-15.84 21.829-30.693 34.369-44.201 22.953-24.725 67.703-24.831 90.754 0 56.114 60.446 86.535 141.264 93.469 222.4 5.884 63.89-49.095 119.507-124.099 126.18a7.499 7.499 0 0 0 1.33 14.937c37.537-3.34 72.282-18.411 97.83-42.437 26.026-24.474 40.36-56.247 40.36-89.533l-.009-.579zm-192.625-8.57c6.332 68.757-58.258 126.837-138.847 126.837-80.141 0-140.169-56.316-139.265-118.068.618-43.281 19.043-150.544 93.888-231.168 23.018-24.795 67.709-24.825 90.755 0 56.12 60.454 86.537 141.289 93.469 222.399zM280.473 80.199c-19.347-15-25.473-39.022-27.379-51.158 54.195 5.408 74.021 45.403 80.455 64.577-21.789 1.521-39.615-2.982-53.076-13.419zm97.826-64.113a2.086 2.086 0 0 1 3.126-.642l19.651 15.333c-22.565 18.66-40.497 44.49-52.381 75.313 4.342-31.922 15.244-63.66 29.604-90.004z"/><path d="M199.363 348.567a7.373 7.373 0 0 0-1.326-2.994 7.524 7.524 0 0 0-6.022-3.035 7.53 7.53 0 0 0-6.023 3.035 7.36 7.36 0 0 0-1.326 2.994 7.334 7.334 0 0 0 0 2.94 7.328 7.328 0 0 0 1.326 2.993c.222.299.461.582.724.836a7.524 7.524 0 0 0 5.299 2.199 7.53 7.53 0 0 0 6.022-3.035 7.338 7.338 0 0 0 1.015-1.88c.131-.365.24-.743.311-1.114a7.332 7.332 0 0 0 0-2.939zM199.363 387.723a7.447 7.447 0 0 0-1.326-2.992 7.524 7.524 0 0 0-6.022-3.035 7.53 7.53 0 0 0-6.023 3.035 7.36 7.36 0 0 0-1.326 2.993 7.334 7.334 0 0 0 0 2.94 7.328 7.328 0 0 0 1.326 2.993c.222.299.461.582.724.836a7.524 7.524 0 0 0 5.299 2.199 7.53 7.53 0 0 0 6.022-3.035 7.338 7.338 0 0 0 1.326-2.995 7.324 7.324 0 0 0 0-2.939zM221.109 367.806a7.345 7.345 0 0 0-1.466-2.929 7.528 7.528 0 0 0-6.157-2.751 7.531 7.531 0 0 0-5.875 3.312 7.439 7.439 0 0 0-1.185 3.052 7.33 7.33 0 0 0-.082 1.476c.023.489.096.977.219 1.461a7.41 7.41 0 0 0 1.464 2.929 7.537 7.537 0 0 0 6.158 2.753 7.528 7.528 0 0 0 5.875-3.313 7.349 7.349 0 0 0 1.186-3.052 7.323 7.323 0 0 0-.137-2.938z"/></svg>