<svg xmlns="http://www.w3.org/2000/svg" viewBox="0 0 512 512"><path d="M511.969 255.6c-.082-54.582-17.102-106.643-49.235-150.577a7.519 7.519 0 0 0-10.509-1.63 7.52 7.52 0 0 0-1.63 10.509 242.366 242.366 0 0 1 18.378 29.301c-9.179 13.404-33.828 26.358-68.7 35.944-40.012 11-91.255 17.057-144.287 17.057-53.03 0-104.271-6.058-144.283-17.055-34.911-9.597-59.578-22.568-68.733-35.988 11.118-20.925 25.411-40.308 42.64-57.537A243.85 243.85 0 0 1 117.865 58.5c5.927 10.179 19.862 18.951 41.176 25.762 26.003 8.309 60.433 12.885 96.945 12.885s70.941-4.576 96.945-12.885c21.292-6.804 35.222-15.564 41.158-25.73a242.352 242.352 0 0 1 26.06 21.097 7.52 7.52 0 0 0 10.249-11.005C382.886 24.38 320.945.014 255.986.014c-68.377 0-132.661 26.627-181.01 74.977C26.627 123.339 0 187.623 0 255.998s26.627 132.66 74.977 181.01c48.349 48.349 112.633 74.976 181.009 74.976s132.661-26.627 181.01-74.976c48.101-48.101 74.692-111.976 74.964-179.96.05-.482.053-.967.009-1.448zM255.986 15.05c44.764 0 87.996 12.307 125.499 35.234-3.765 7.827-19.448 15.279-33.131 19.651-24.564 7.85-57.368 12.172-92.368 12.172s-67.804-4.322-92.368-12.172c-13.709-4.38-29.428-11.852-33.155-19.695 37.422-22.923 80.527-35.19 125.523-35.19zm170.376 411.325c-45.51 45.509-106.017 70.571-170.376 70.571S131.119 471.882 85.61 426.375a245.781 245.781 0 0 1-13.809-15.029c42.743 18.613 109.93 29.878 184.185 29.878 74.254 0 141.44-11.265 184.183-29.877a245.091 245.091 0 0 1-13.807 15.028zM207.166 325.376a816.896 816.896 0 0 0 48.821 1.447c107.495 0 200.374-20.43 240.155-51.247-3.015 37.738-14.727 73.707-34.165 105.57-.031.026-.065.048-.096.074-31.345 26.895-114.088 44.965-205.894 44.965-91.808 0-174.552-18.069-205.895-44.965-.031-.027-.065-.048-.096-.074-19.422-31.836-31.128-67.771-34.156-105.474 10.731 8.344 25.466 15.974 44.069 22.797 27.138 9.953 61.847 17.768 100.375 22.601a7.521 7.521 0 0 0 8.397-6.524 7.52 7.52 0 0 0-6.525-8.397c-73.703-9.245-129.758-29.169-147.092-52.177.276-33.604 7.375-66.125 20.664-95.966 16.443 17.377 47.072 28.794 71.99 35.643 41.273 11.346 93.931 17.594 148.269 17.594 54.342 0 106.999-6.248 148.274-17.595 24.903-6.846 55.509-18.254 71.957-35.612 13.365 29.957 20.422 62.417 20.698 95.915-11.41 15.107-40.846 29.615-81.452 40.043-44.666 11.472-101.302 17.79-159.476 17.79-16.118 0-32.241-.478-47.919-1.42-4.139-.265-7.707 2.909-7.957 7.055a7.519 7.519 0 0 0 7.054 7.957z"/></svg>