<?xml version="1.0" encoding="iso-8859-1"?>
<!-- Generator: Adobe Illustrator 19.0.0, SVG Export Plug-In . SVG Version: 6.00 Build 0)  -->
<svg version="1.1" id="Capa_1" xmlns="http://www.w3.org/2000/svg" xmlns:xlink="http://www.w3.org/1999/xlink" x="0px" y="0px"
	 viewBox="0 0 512 512" style="enable-background:new 0 0 512 512;" xml:space="preserve">
<g>
	<g>
		<path d="M511.969,255.6c-0.082-54.582-17.102-106.643-49.235-150.577c-2.452-3.353-7.156-4.082-10.509-1.63
			c-3.352,2.451-4.082,7.157-1.63,10.509c6.869,9.392,12.997,19.181,18.378,29.301c-9.179,13.404-33.828,26.358-68.7,35.944
			c-40.012,11-91.255,17.057-144.287,17.057c-53.03,0-104.271-6.058-144.283-17.055c-34.911-9.597-59.578-22.568-68.733-35.988
			c11.118-20.925,25.411-40.308,42.64-57.537c10.058-10.058,20.852-19.113,32.255-27.124c5.927,10.179,19.862,18.951,41.176,25.762
			c26.003,8.309,60.433,12.885,96.945,12.885s70.941-4.576,96.945-12.885c21.292-6.804,35.222-15.564,41.158-25.73
			c9.103,6.381,17.814,13.418,26.06,21.097c3.039,2.828,7.796,2.66,10.627-0.378c2.83-3.039,2.661-7.797-0.378-10.627
			c-47.512-44.244-109.453-68.61-174.412-68.61c-68.377,0-132.661,26.627-181.01,74.977C26.627,123.339,0,187.623,0,255.998
			s26.627,132.66,74.977,181.01c48.349,48.349,112.633,74.976,181.009,74.976s132.661-26.627,181.01-74.976
			c48.101-48.101,74.692-111.976,74.964-179.96C512.01,256.566,512.013,256.081,511.969,255.6z M255.986,15.05
			c44.764,0,87.996,12.307,125.499,35.234c-3.765,7.827-19.448,15.279-33.131,19.651c-24.564,7.85-57.368,12.172-92.368,12.172
			s-67.804-4.322-92.368-12.172c-13.709-4.38-29.428-11.852-33.155-19.695C167.885,27.317,210.99,15.05,255.986,15.05z
			 M426.362,426.375c-45.51,45.509-106.017,70.571-170.376,70.571s-124.867-25.064-170.376-70.571
			c-4.841-4.841-9.436-9.862-13.809-15.029c42.743,18.613,109.93,29.878,184.185,29.878c74.254,0,141.44-11.265,184.183-29.877
			C435.798,416.514,431.203,421.534,426.362,426.375z M207.166,325.376c15.978,0.961,32.403,1.447,48.821,1.447
			c107.495,0,200.374-20.43,240.155-51.247c-3.015,37.738-14.727,73.707-34.165,105.57c-0.031,0.026-0.065,0.048-0.096,0.074
			c-31.345,26.895-114.088,44.965-205.894,44.965c-91.808,0-174.552-18.069-205.895-44.965c-0.031-0.027-0.065-0.048-0.096-0.074
			C30.574,349.31,18.868,313.375,15.84,275.672c10.731,8.344,25.466,15.974,44.069,22.797
			c27.138,9.953,61.847,17.768,100.375,22.601c0.318,0.04,0.633,0.06,0.945,0.06c3.736,0,6.974-2.781,7.452-6.584
			c0.516-4.121-2.404-7.88-6.525-8.397c-73.703-9.245-129.758-29.169-147.092-52.177c0.276-33.604,7.375-66.125,20.664-95.966
			c16.443,17.377,47.072,28.794,71.99,35.643c41.273,11.346,93.931,17.594,148.269,17.594c54.342,0,106.999-6.248,148.274-17.595
			c24.903-6.846,55.509-18.254,71.957-35.612c13.365,29.957,20.422,62.417,20.698,95.915c-11.41,15.107-40.846,29.615-81.452,40.043
			c-44.666,11.472-101.302,17.79-159.476,17.79c-16.118,0-32.241-0.478-47.919-1.42c-4.139-0.265-7.707,2.909-7.957,7.055
			C199.863,321.565,203.021,325.127,207.166,325.376z"/>
	</g>
</g>
<g>
</g>
<g>
</g>
<g>
</g>
<g>
</g>
<g>
</g>
<g>
</g>
<g>
</g>
<g>
</g>
<g>
</g>
<g>
</g>
<g>
</g>
<g>
</g>
<g>
</g>
<g>
</g>
<g>
</g>
</svg>
