<svg xmlns="http://www.w3.org/2000/svg" viewBox="0 0 512 512"><path d="M488.853 302.773c-68.406-2.766-137.075-17.367-202.896-45.956a7.502 7.502 0 0 0-5.977 13.761c56.45 24.518 116.466 39.697 178.788 45.267.653 13.811 5.409 26.963 13.637 37.973-34.386 26.673-83.219 42.785-109.521 46.614a563.892 563.892 0 0 1-112.973-68.742c29.874 11.972 74.406 24.5 129.952 24.5a7.501 7.501 0 0 0 0-15.002c-58.859 0-104.713-14.659-132.816-26.957-30.37-13.289-47.146-26.765-47.468-27.026-.054-.044-.111-.08-.166-.122-43.599-43.403-79.123-92.914-105.427-145.508 42.292 44.08 95.507 84 153.276 113.549a7.502 7.502 0 0 0 6.831-13.358C140.628 183.729 79.861 103.279 73.994 95.266a84.664 84.664 0 0 1-.253-.744V46.586c0-13.56-11.033-24.593-24.593-24.593h-7.122c-13.56 0-24.593 11.033-24.593 24.593v47.772c-41.257 107.923-6.123 216.134 72.133 297.654a7.5 7.5 0 0 0 10.606.217 7.5 7.5 0 0 0 .217-10.606C66.553 346.378-2.538 258.186 18.906 143.82h18.418c2.106 12.392 12.163 63.727 42.343 121.394 19.993 38.202 44.706 71.153 73.451 97.941 36.032 33.578 78.484 57.474 126.179 71.026a7.498 7.498 0 0 0 2.054.288 7.502 7.502 0 0 0 2.046-14.719c-82.409-23.416-146.405-77.604-190.211-161.061-27.298-52.006-37.781-99.791-40.605-114.869h25.692c57.831 118.414 160.568 220.803 294.206 277.199a69.023 69.023 0 0 0 .382 41.267c-23.954 8.49-57.164 14.653-101.817 12.175-43.732-2.43-98.166-28.269-145.611-69.119a7.502 7.502 0 0 0-9.789 11.369c49.865 42.933 107.646 70.122 154.567 72.73 47.555 2.644 99.402-3.532 139.771-28.065 17.361-10.552 14.823-36.431-4.176-43.349a601.365 601.365 0 0 1-19.233-7.397c44.058-12.071 89.446-33.359 119.433-67.828 13.304-15.293 3.09-39.21-17.153-40.029zM32.435 46.586c0-5.288 4.303-9.591 9.591-9.591h7.122c5.288 0 9.591 4.303 9.591 9.591v41.637H32.435V46.586zm-10.203 82.231a257.572 257.572 0 0 1 7.89-25.59H60.87c1.858 5.204 5.225 14.035 10.384 25.59H22.232zm378.442 303.308c7.11 2.589 8.256 12.291 1.459 16.466-4.539 2.755-9.711 5.511-15.327 8.071-2.943-9.73-3.039-20.232-.375-29.932 2.624 1.031 10.602 4.077 14.243 5.395zm93.955-99.102c-3.407 3.912-7.028 7.602-10.769 11.08a53.758 53.758 0 0 1-9.987-27.094c4.943.317 10.745.608 14.373.754 7.715.314 11.502 9.401 6.383 15.26z"/></svg>