<svg xmlns="http://www.w3.org/2000/svg" viewBox="0 0 512 512"><path d="M495.432 171.027h-118.96L294.859 29.669c-3.354-5.812-8.771-9.967-15.252-11.703-6.481-1.737-13.25-.845-19.062 2.51a25.318 25.318 0 0 0-4.546 3.38 25.282 25.282 0 0 0-4.546-3.38c-5.81-3.355-12.58-4.247-19.06-2.51-6.481 1.737-11.898 5.893-15.252 11.703l-81.613 141.358H16.568C7.432 171.027 0 178.459 0 187.595v42.756c0 9.136 7.432 16.568 16.568 16.568h1.068l14.94 216.629c1.213 17.581 15.967 31.354 33.591 31.354h379.667c17.623 0 32.378-13.772 33.591-31.354l14.94-216.629h1.068c9.136 0 16.568-7.432 16.568-16.568v-42.756c-.001-9.136-7.433-16.568-16.569-16.568zM264.33 39.875a9.024 9.024 0 0 1 4.233-5.516 9.034 9.034 0 0 1 6.895-.909 9.025 9.025 0 0 1 5.517 4.234l85.511 148.109c2.504 4.34 1.013 9.906-3.325 12.411a9.028 9.028 0 0 1-6.894.909 9.025 9.025 0 0 1-5.517-4.234l-85.511-148.11a9.015 9.015 0 0 1-.909-6.894zM256 62.838l62.463 108.188H193.537L256 62.838zM145.515 185.795l85.511-148.11a9.025 9.025 0 0 1 5.517-4.233 9.023 9.023 0 0 1 6.894.909 9.025 9.025 0 0 1 4.233 5.517 9.023 9.023 0 0 1-.907 6.894l-85.511 148.11a9.021 9.021 0 0 1-5.517 4.233 9.023 9.023 0 0 1-6.894-.909c-4.339-2.505-5.831-8.073-3.326-12.411zm350.452 44.555a.535.535 0 0 1-.534.534h-34.205a8.017 8.017 0 0 0 0 16.034h17.065l-14.864 215.526c-.635 9.21-8.364 16.424-17.595 16.424H66.167c-9.231 0-16.96-7.214-17.595-16.424L33.708 246.918h393.315a8.017 8.017 0 0 0 0-16.034H16.568a.535.535 0 0 1-.534-.534v-42.756c0-.294.239-.534.534-.534h111.915c-1.273 9.766 3.293 19.808 12.34 25.031 3.87 2.235 8.165 3.377 12.518 3.377 2.182 0 4.378-.288 6.543-.868a24.95 24.95 0 0 0 15.252-11.703l9.143-15.837h143.439l9.143 15.837c3.354 5.812 8.771 9.967 15.252 11.703 2.165.58 4.36.868 6.543.868 4.353 0 8.648-1.142 12.519-3.377 9.047-5.224 13.613-15.265 12.34-25.031h111.916c.295 0 .534.24.534.534v42.756z"/><path d="M273.102 324.947a8.017 8.017 0 0 0-8.017 8.017v94.063c0 5.01-4.076 9.086-9.086 9.086s-9.086-4.076-9.086-9.086V298.759c0-5.01 4.076-9.086 9.086-9.086s9.086 4.076 9.086 9.086a8.017 8.017 0 0 0 16.034 0c0-13.851-11.268-25.119-25.119-25.119s-25.119 11.268-25.119 25.119v128.267c0 13.851 11.268 25.119 25.119 25.119s25.119-11.268 25.119-25.119v-94.063a8.017 8.017 0 0 0-8.017-8.016zM341.511 324.947a8.017 8.017 0 0 0-8.017 8.017v94.063c0 5.01-4.076 9.086-9.086 9.086-5.01 0-9.086-4.076-9.086-9.086V298.759c0-5.01 4.076-9.086 9.086-9.086 5.01 0 9.086 4.076 9.086 9.086a8.017 8.017 0 0 0 16.034 0c0-13.851-11.268-25.119-25.119-25.119-13.851 0-25.119 11.268-25.119 25.119v128.267c0 13.851 11.268 25.119 25.119 25.119 13.851 0 25.119-11.268 25.119-25.119v-94.063a8.017 8.017 0 0 0-8.017-8.016zM409.921 324.947a8.017 8.017 0 0 0-8.017 8.017v94.063c0 5.01-4.076 9.086-9.086 9.086-5.01 0-9.086-4.076-9.086-9.086V298.759c0-5.01 4.076-9.086 9.086-9.086 5.01 0 9.086 4.076 9.086 9.086a8.017 8.017 0 0 0 16.034 0c0-13.851-11.268-25.119-25.119-25.119-13.851 0-25.119 11.268-25.119 25.119v128.267c0 13.851 11.268 25.119 25.119 25.119 13.851 0 25.119-11.268 25.119-25.119v-94.063a8.018 8.018 0 0 0-8.017-8.016zM136.284 324.947a8.017 8.017 0 0 0-8.017 8.017v94.063c0 5.01-4.076 9.086-9.086 9.086s-9.086-4.076-9.086-9.086V298.759c0-5.01 4.076-9.086 9.086-9.086s9.086 4.076 9.086 9.086a8.017 8.017 0 0 0 16.034 0c0-13.851-11.268-25.119-25.119-25.119s-25.119 11.268-25.119 25.119v128.267c0 13.851 11.268 25.119 25.119 25.119s25.119-11.268 25.119-25.119v-94.063a8.018 8.018 0 0 0-8.017-8.016zM204.693 324.947a8.017 8.017 0 0 0-8.017 8.017v94.063c0 5.01-4.076 9.086-9.086 9.086s-9.086-4.076-9.086-9.086V298.759c0-5.01 4.076-9.086 9.086-9.086s9.086 4.076 9.086 9.086a8.017 8.017 0 0 0 16.034 0c0-13.851-11.268-25.119-25.119-25.119s-25.119 11.268-25.119 25.119v128.267c0 13.851 11.268 25.119 25.119 25.119s25.119-11.268 25.119-25.119v-94.063a8.018 8.018 0 0 0-8.017-8.016z"/></svg>