<svg xmlns="http://www.w3.org/2000/svg" viewBox="0 0 470 470"><path d="M375.303 160.673h-31.311v-2.5c0-4.142-3.357-7.5-7.5-7.5s-7.5 3.358-7.5 7.5V327.11c0 4.142 3.357 7.5 7.5 7.5s7.5-3.358 7.5-7.5v-2.5h31.311c19.16 0 34.748-15.588 34.748-34.748v-94.441c0-19.16-15.588-34.748-34.748-34.748zm19.748 129.189c0 10.889-8.859 19.748-19.748 19.748h-31.311V175.673h31.311c10.889 0 19.748 8.859 19.748 19.748v94.441z"/><path d="M375.303 120.673h-31.311V87.135a7.5 7.5 0 0 0-7.5-7.5h-3.53c-3.696-28.793-28.344-51.123-58.126-51.123-5.282 0-10.486.702-15.534 2.091C242.709 11.087 218.833 0 192.993 0s-49.716 11.087-66.311 30.604a58.429 58.429 0 0 0-15.534-2.091c-29.782 0-54.43 22.329-58.126 51.123h-3.529a7.5 7.5 0 0 0-7.5 7.5V393.24c-13.375 6.888-22.044 20.802-22.044 36.131 0 22.403 18.226 40.629 40.629 40.629h264.829c22.403 0 40.63-18.226 40.63-40.629 0-15.329-8.669-29.243-22.044-36.131v-28.63h31.311c41.216 0 74.748-33.532 74.748-74.748v-94.441c-.001-41.216-33.533-74.748-74.749-74.748zm-264.155-77.16c5.318 0 10.527.955 15.484 2.838a7.5 7.5 0 0 0 8.659-2.505C149.068 25.514 170.1 15 192.993 15s43.925 10.514 57.702 28.845a7.496 7.496 0 0 0 8.658 2.505 43.448 43.448 0 0 1 15.484-2.838c21.495 0 39.396 15.632 42.964 36.123H68.184c3.568-20.49 21.469-36.122 42.964-36.122zm323.903 246.349c0 32.945-26.803 59.748-59.748 59.748h-38.811a7.5 7.5 0 0 0-7.5 7.5v41.038a7.501 7.501 0 0 0 4.99 7.068c10.2 3.622 17.054 13.329 17.054 24.155 0 14.132-11.497 25.629-25.63 25.629H60.578c-14.132 0-25.629-11.498-25.629-25.629 0-10.826 6.853-20.533 17.054-24.155a7.5 7.5 0 0 0 4.99-7.068V94.635h272v33.538a7.5 7.5 0 0 0 7.5 7.5h38.811c32.945 0 59.748 26.803 59.748 59.748v94.441z"/><path d="M216.493 390.648h-107c-12.407 0-22.5-10.093-22.5-22.5V258.173a7.5 7.5 0 0 0-15 0v109.975c0 20.678 16.822 37.5 37.5 37.5h107a7.5 7.5 0 0 0 0-15z"/><circle cx="268.993" cy="287.187" r="7.5"/><circle cx="268.993" cy="317.187" r="7.5"/><path d="M306.493 109.635a7.5 7.5 0 0 0-7.5 7.5v73.538h-212v-73.538a7.5 7.5 0 0 0-15 0v111.038a7.5 7.5 0 0 0 15 0v-22.5h212v162.475c0 12.407-10.094 22.5-22.5 22.5h-30a7.5 7.5 0 0 0 0 15h30c20.678 0 37.5-16.822 37.5-37.5V117.135a7.5 7.5 0 0 0-7.5-7.5z"/></svg>