<svg xmlns="http://www.w3.org/2000/svg" viewBox="0 0 512.002 512.002"><path d="M488.464 86.197c-11.939-13.871-32.415-30.707-62.158-32.137-4.155-.211-7.654 2.993-7.853 7.132a7.501 7.501 0 0 0 7.132 7.853c24.419 1.174 41.489 15.297 51.509 26.94 3.431 3.986 1.46 10.224-3.64 11.303-21.606 4.572-50.005 17.661-62.605 54.047-5.074 14.654-12.976 24.401-23.483 28.971-17.191 7.476-36.482-.896-36.653-.972a7.508 7.508 0 0 0-5.723-.183c-16.634 6.254-28.819 1.621-35.236-2.305 26.439-32.268 60.859-59.585 100.9-71.93a7.5 7.5 0 0 0 4.958-9.377 7.499 7.499 0 0 0-9.377-4.958c-46.268 14.264-80.804 45.241-102.408 70.039-1.27-33.61 27.198-52.177 28.565-53.047a7.5 7.5 0 0 0 3.383-4.974c7.481-40.06 43.567-39.749 54.447-38.7a7.496 7.496 0 0 0 8.186-6.747 7.501 7.501 0 0 0-6.747-8.186c-32.772-3.161-62.083 12.719-70.005 47.821-24.637 18.254-38.395 47.604-30.682 79.644-13.342 17.593-21.341 32.074-24.125 37.407-.377-.057-.754-.114-1.132-.168 5.559-73.399 18.214-139.23 37.642-195.772a7.5 7.5 0 0 0-14.186-4.876c-19.353 56.318-32.111 121.525-37.977 193.982-3.442-9.301-9.433-23.894-18.503-40.945 14.667-35.231 3.655-71.08-20.294-95.58-1.75-34.01-20.973-50.654-37.061-58.662-14.297-7.117-28.399-8.613-33.439-8.927C100.535-8.564 60.319-2.441 26.973 25.351c-14.178 11.817-10.65 34.511 6.475 41.229 20.015 7.853 45.178 24.911 51.401 61.592 3.819 22.518 13.479 38.911 28.71 48.723 20.106 12.953 43.618 10.129 51.962 8.552 19.288 10.25 39.214 10.319 56.189 1.99 7.582 14.787 12.674 27.383 15.621 35.376-29.895 2.425-57.92 15.482-79.309 37.057-64.281 64.84-40.599 173.845 43.851 206.693 22.084 8.592 28.152 24.884 35.134 38.85 4.394 8.787 16.948 8.788 21.343-.001 7.525-15.05 12.896-30.405 34.159-38.475 39.985-15.171 69.354-49.123 78.56-90.82a7.5 7.5 0 0 0-5.708-8.941c-4.043-.899-8.048 1.661-8.942 5.707-8.112 36.74-33.993 66.657-69.233 80.029-26.172 9.93-34.117 29.513-39.51 40.299-4.987-9.974-13.585-30.21-40.367-40.629-44.274-17.222-72.778-60.731-70.927-108.265 2.275-58.438 51.007-106.906 111.304-106.925 58.022-.018 106.502 43.928 111.037 102.683.318 4.13 3.935 7.227 8.056 6.901a7.5 7.5 0 0 0 6.901-8.056c-2.522-32.693-17.455-62.743-42.044-84.613-14.45-12.852-31.343-22.039-49.507-27.166 3.314-5.949 9.473-16.281 18.401-28.418 8.588 5.668 24.9 12.707 46.961 5.448 31.254 11.246 63.787 1.765 77.531-37.929 10.307-29.764 33.714-40.508 51.536-44.279 7.586-1.605 13.599-6.96 16.087-14.322 2.521-7.459.958-15.475-4.181-21.444zm-265.78 72.271c-19.856-32.603-53.61-75.317-104.337-100.727a7.501 7.501 0 0 0-6.718 13.412c44.198 22.14 78.746 60.674 102.942 103.097-7.72 3.653-24.084 8.384-44.116-3.22a7.499 7.499 0 0 0-5.674-.762c-.24.063-24.199 6.19-43.096-5.984-11.542-7.436-18.959-20.43-22.044-38.621-7.397-43.589-37.098-63.783-60.714-73.048-6.535-2.563-7.746-11.243-2.349-15.74 51.643-43.044 97.873-9.16 103.203-9.071 2.313.04 56.681 1.598 57.733 56.089a7.547 7.547 0 0 0 2.505 5.452c.104.093 10.433 9.46 17.579 24.724 6.859 14.655 8.544 29.529 5.086 44.399z"/></svg>