<svg xmlns="http://www.w3.org/2000/svg" viewBox="0 0 512.001 512.001"><path d="M409.755 209.678c-9.883 0-19.441 1.414-28.486 4.043l-25.554-67.518h21.144a8.119 8.119 0 0 0 8.12-8.12 8.089 8.089 0 0 0-2.447-5.804h25.112c.78 2.773 1.313 6.676.019 10.663-1.983 6.114-7.801 11.292-17.289 15.389a8.121 8.121 0 0 0 6.437 14.91c13.963-6.028 22.812-14.537 26.3-25.288 4.73-14.581-2.729-27.401-3.049-27.94a8.119 8.119 0 0 0-6.981-3.974H364.72a8.119 8.119 0 0 0-8.12 8.12c0 2.276.939 4.331 2.447 5.804h-15.086a8.119 8.119 0 0 0-7.595 10.995l6.728 17.774-155.19 19.081-5.397-17.7a8.18 8.18 0 0 0-.667-1.569l-4.732-15.515 36.706-7.807a8.12 8.12 0 0 0 6.405-7.3c.052-.648.038-1.192.029-1.551l-.004-9.64c0-8.621-4.218-18.897-24.312-18.897h-55.316c-13.405 0-24.309 10.906-24.309 24.31v4.031c0 13.405 10.905 24.31 24.309 24.31.522 0 1.044-.051 1.556-.151l7.111-1.388.134-.027 11.746-2.499 5.621 18.429c.162.533.389 1.025.644 1.496l5.838 19.146-23.063 36.154c-14.311-7.633-30.637-11.968-47.957-11.968C45.867 209.678 0 255.543 0 311.921 0 368.3 45.867 414.168 102.246 414.168c41.601 0 77.474-24.976 93.424-60.72 6.989 9.944 18.54 16.461 31.589 16.461 2.008 0 3.982-.156 5.908-.453l9.784 25.556a8.117 8.117 0 0 0 7.583 5.216h15.992c4.486 0 8.12-3.635 8.12-8.12s-3.635-8.12-8.12-8.12H256.12l-7.795-20.361c10.543-6.897 17.527-18.802 17.527-32.314 0-9.871-3.729-18.883-9.846-25.715l95.304-125.153 14.775 39.038c-34.594 16.408-58.576 51.672-58.576 92.435 0 56.379 45.866 102.247 102.246 102.247 56.379 0 102.246-45.868 102.246-102.247-.001-56.375-45.868-102.24-102.246-102.24zm-263.652-76.659l-6.14 1.197c-4.146-.333-7.418-3.813-7.418-8.044v-4.031c0-4.45 3.62-8.07 8.069-8.07h55.316c6.629 0 7.873 1.239 7.873 1.239l.002.003s.196.355.196 1.416v3.976l-57.898 12.314zm-43.857 264.909c-47.423 0-86.006-38.583-86.006-86.007 0-47.422 38.582-86.004 86.006-86.004a85.438 85.438 0 0 1 39.182 9.483l-7.231 11.336a72.153 72.153 0 0 0-31.951-7.427c-40.039 0-72.613 32.573-72.613 72.611 0 40.038 32.574 72.613 72.613 72.613 25.407 0 49.3-13.559 62.357-35.389a8.12 8.12 0 1 0-13.937-8.335c-10.14 16.953-28.693 27.485-48.419 27.485-31.085 0-56.373-25.288-56.373-56.373 0-31.084 25.288-56.371 56.373-56.371a56.037 56.037 0 0 1 23.145 4.99l-19.662 30.823a20.836 20.836 0 0 0-3.483-.315c-11.511 0-20.875 9.364-20.875 20.874 0 11.511 9.364 20.875 20.875 20.875 7.476 0 14.026-3.963 17.715-9.884l65.628 10.265c-9.489 37.176-43.256 64.75-83.344 64.75zm56.373-86.007c0 .199-.017.398-.019.598l-36.122-5.651a20.77 20.77 0 0 0-3.052-6.779l19.646-30.797c11.958 10.346 19.547 25.613 19.547 42.629zm-51.738.001c0 2.555-2.08 4.635-4.635 4.635s-4.635-2.08-4.635-4.635 2.08-4.634 4.635-4.634 4.635 2.078 4.635 4.634zm81.197 5.207l-13.295-2.08c.044-1.044.076-2.087.076-3.129 0-22.764-10.539-43.105-26.985-56.428l7.232-11.338c20.152 15.754 33.144 40.264 33.144 67.766 0 1.751-.068 3.484-.172 5.209zm-24.196-86.73l15.614-24.476 28.112 92.193a38.691 38.691 0 0 0-3.742 2.529c-3.154-28.611-18.157-53.703-39.984-70.246zm78.393 117.427l-7.433-19.415a8.115 8.115 0 0 0-10.487-4.679 8.118 8.118 0 0 0-4.679 10.487l7.444 19.444c-12.262-.076-22.218-10.068-22.218-22.347 0-12.326 10.029-22.354 22.355-22.354s22.353 10.029 22.353 22.354c.002 6.542-2.841 12.419-7.335 16.51zm29.972-90.358l-3.173-2.286 9.486-12.676 3.282 2.362-9.595 12.6zm-23.019-2.87l-5.634-4.216 21.28-28.438 5.634 4.217-21.28 28.437zm42.457-22.655l-3.392-2.443.083-.112a8.123 8.123 0 0 0-1.637-11.367l-2.815-2.107 4.018-5.369a8.122 8.122 0 0 0-1.636-11.367 8.123 8.123 0 0 0-11.367 1.636l-4.019 5.37-2.818-2.109a8.121 8.121 0 0 0-11.366 1.637l-31.011 41.438a8.121 8.121 0 0 0 1.636 11.366l18.636 13.947a8.117 8.117 0 0 0 11.367-1.636l1.976-2.64 3.063 2.205-19.526 25.641a38.36 38.36 0 0 0-19.865-3.077l-30.302-99.375 141.426-17.388-42.451 55.75zm118.07 165.985c-47.423 0-86.006-38.583-86.006-86.007 0-33.828 19.64-63.145 48.11-77.18l4.755 12.566c-13.37 6.831-24.099 17.442-31.141 30.843-9.021 17.17-10.816 36.827-5.055 55.346 5.762 18.519 18.391 33.688 35.562 42.708 10.569 5.553 22.077 8.368 33.684 8.367 7.25 0 14.541-1.099 21.661-3.314 18.52-5.763 33.689-18.393 42.709-35.564 18.622-35.446 4.937-79.433-30.509-98.055-10.278-5.399-21.81-8.285-33.344-8.343h-.042a8.12 8.12 0 0 0-.04 16.24c9.072.045 17.776 2.227 25.873 6.48 27.517 14.457 38.142 48.607 23.685 76.125-7.003 13.331-18.779 23.136-33.157 27.609-14.379 4.475-29.637 3.08-42.968-3.923-13.33-7.003-23.134-18.778-27.607-33.156-4.474-14.378-3.08-29.638 3.924-42.969 5.183-9.861 12.936-17.768 22.562-23.079l12.951 34.218c-3.984 3.803-6.482 9.151-6.482 15.081 0 11.511 9.364 20.875 20.875 20.875 11.51 0 20.873-9.364 20.873-20.875 0-11.241-8.939-20.412-20.079-20.834l-23.505-62.104a85.75 85.75 0 0 1 22.709-3.066c47.423 0 86.006 38.581 86.006 86.004.001 47.424-38.58 86.007-86.004 86.007zm-4.633-86.007a4.64 4.64 0 0 1 4.635-4.634c2.554 0 4.633 2.079 4.633 4.634s-2.079 4.635-4.633 4.635a4.641 4.641 0 0 1-4.635-4.635z"/></svg>