<svg xmlns="http://www.w3.org/2000/svg" viewBox="0 0 512 512"><path d="M287.804 88.436a7.5 7.5 0 0 0-7.5 7.5v6.974c0 4.142 3.357 7.5 7.5 7.5s7.5-3.358 7.5-7.5v-6.974a7.5 7.5 0 0 0-7.5-7.5z"/><path d="M504.5 469.508h-43.518c23.601-15.88 39.158-42.835 39.158-73.357 0-48.72-39.637-88.357-88.356-88.357a88.038 88.038 0 0 0-26.643 4.108l-6.626-16.06h31.112c15.728 0 28.522-12.795 28.522-28.523 0-15.727-12.795-28.522-28.522-28.522h-10.72c.027-.396.061-.79.061-1.192v-11.724c0-9.523-7.747-17.27-17.27-17.27H352.9l-45.982-25.008-7.613-7.614a7.498 7.498 0 0 0-10.606 0 7.498 7.498 0 0 0-.001 10.606l8.381 8.381a7.493 7.493 0 0 0 1.721 1.286l48.61 26.437a7.5 7.5 0 0 0 3.583.911h30.706a2.273 2.273 0 0 1 2.27 2.27v5.401c-3.797-3.362-8.773-5.421-14.23-5.421-7.556 0-14.201 3.923-18.04 9.831l-58.837-27.084-38.774-31.186a7.5 7.5 0 0 0-10.004.542l-4.362 4.363c-14.299-8.02-23.117-23.025-23.117-39.525 0-3.194.337-6.389 1.002-9.507a14.056 14.056 0 0 1 8.84-3.1c3.773 0 7.304 1.454 9.943 4.093l28.308 28.307a7.5 7.5 0 0 0 10.607-10.606l-2.889-2.888c24.192-1.661 43.372-21.86 43.372-46.467v-34.22c0-24.094-19.158-40.921-46.59-40.921-27.868 0-46.592 16.012-46.592 39.843v1.125h-25.361a7.5 7.5 0 0 0-7.5 7.5 7.5 7.5 0 0 0 7.5 7.5h25.361v19.173c0 4.381.616 8.62 1.753 12.643-6.386.455-12.438 2.979-17.227 7.239-.353.313-97.305 97.235-97.305 97.235-11.331 11.331-11.331 29.769 0 41.1l50.063 50.062-15.96 16.604c-15.19-12.323-34.532-19.719-55.572-19.719C39.637 307.794 0 347.431 0 396.151c0 30.522 15.558 57.477 39.158 73.357H15.047a7.5 7.5 0 0 0-7.5 7.5 7.5 7.5 0 0 0 7.5 7.5H504.5a7.5 7.5 0 0 0 7.5-7.5 7.5 7.5 0 0 0-7.5-7.5zM300.787 102.631c0 17.42-14.171 31.591-31.59 31.591a31.48 31.48 0 0 1-9.471-1.452V83.458h41.061v19.173zm-63.182-35.298c0-5.828 2.278-24.843 31.592-24.843 14.572 0 31.59 6.789 31.59 25.921v.047h-63.182v-1.125zm0 16.125h7.121v38.181a28.068 28.068 0 0 0-1.614-1.212 31.397 31.397 0 0 1-5.507-17.795V83.458zm132.133 157.401c3.593 0 6.516 2.922 6.516 6.515s-2.923 6.516-6.516 6.516a6.523 6.523 0 0 1-6.515-6.516 6.524 6.524 0 0 1 6.515-6.515zm-55.029 1.733c0-2.782-.435-5.464-1.235-7.984l35.04 16.129c1.623 10.268 10.508 18.152 21.225 18.152 9.627 0 17.797-6.357 20.535-15.093h19.354c7.456 0 13.522 6.066 13.522 13.522 0 7.457-6.066 13.523-13.522 13.523H285.023l20.235-17.994a26.368 26.368 0 0 0 9.451-20.255zm-15 0c0 3.41-1.509 6.619-4.141 8.805a7.482 7.482 0 0 0-.19.165l-32.927 29.28h-19.098v-4.412l9.598-9.598a7.5 7.5 0 0 0-5.303-12.803h-4.295v-22.873h44.92c6.306 0 11.436 5.131 11.436 11.436zm-75.165 53.25h21.039l-19.039 16.93v-5.091c-.007-.682-.12-5.761-2-11.839zm15.136 94.965h-6.869c3.367-4.003 8.395-6.562 14.025-6.562 10.132 0 18.375 8.243 18.375 18.375 0 8.575-5.913 15.775-13.87 17.792.534-1.389.839-2.89.839-4.464v-12.64c0-6.894-5.608-12.501-12.5-12.501zm-2.5 15v7.64h-44.295v-7.64h44.295zm-25.636-97.984l.001 80.828H195.32l-5.98-71.975 19.639-19.638c2.346 5.027 2.552 10.358 2.565 10.785zm-17.542-58.566l19.068-19.068h15.283v37.716h-15.704l-18.647-18.648zm55.93-55.929l28.383 22.829h-38.783a7.463 7.463 0 0 0-3.678-.968h-7.783l21.861-21.861zm-48.023-44.45c1.811 18.14 11.661 34.384 26.898 44.359l-45.412 45.414-35.63-35.63 54.144-54.143zm-81.475 101.363c-2.64-2.639-4.093-6.17-4.093-9.943s1.453-7.304 4.093-9.943l16.726-16.726 67.008 67.007-26.67 26.669-57.064-57.064zm50.063 71.277l1.696 1.697a7.448 7.448 0 0 0 2.783 1.753l5.291 63.683h-3.875c-1.635-19.351-9.53-36.943-21.651-50.742l15.756-16.391zm-26.198 27.255c9.328 10.998 15.492 24.761 17.034 39.877h-6.613c-1.489-13.265-6.87-25.368-14.984-35.13l4.563-4.747zm-61.352 49.681c1.365 3.206 4.588 5.197 8.409 5.197h48.246c-3.645 25.018-25.233 44.295-51.246 44.295-28.559 0-51.795-23.235-51.795-51.795s23.235-51.795 51.795-51.795c11.214 0 21.598 3.593 30.085 9.673L85.029 388.79c-2.649 2.755-3.446 6.458-2.082 9.664zm23.022-9.803l23.286-24.226c5.366 6.902 9.03 15.186 10.348 24.226h-33.634zM15 396.151c0-40.449 32.907-73.357 73.356-73.357 17.009 0 32.671 5.835 45.127 15.586l-4.566 4.751c-11.255-8.63-25.315-13.775-40.561-13.775-36.831 0-66.795 29.964-66.795 66.795s29.964 66.795 66.795 66.795c34.295 0 62.623-25.983 66.363-59.295h6.613c-3.768 36.939-35.059 65.857-72.977 65.857C47.907 469.508 15 436.6 15 396.151zm122.518 73.357c21.658-14.564 36.559-38.439 38.875-65.857h1.492v12.296c0 6.893 5.607 12.5 12.5 12.5h35.346a33.196 33.196 0 0 0 21.105 7.546c18.403 0 33.375-14.972 33.375-33.374a33.187 33.187 0 0 0-6.409-19.632l5.566-5.791a7.5 7.5 0 0 0-10.814-10.394l-6.093 6.339a33.17 33.17 0 0 0-15.625-3.896c-7.631 0-14.665 2.581-20.291 6.908l-.001-43.309 41.611-37.002h68.604l-45.138 46.959a7.501 7.501 0 0 0 .21 10.605 7.5 7.5 0 0 0 10.604-.21l55.128-57.354h4.725l8.992 21.798c-28.4 14.711-47.854 44.381-47.854 78.511 0 30.522 15.558 57.477 39.158 73.357H137.518zm200.91-73.357c0-27.881 15.637-52.175 38.6-64.583l2.52 6.107c-20.585 11.393-34.558 33.33-34.558 58.477 0 36.831 29.964 66.795 66.795 66.795s66.795-29.964 66.795-66.795c0-7.79-1.337-15.429-3.973-22.705a7.499 7.499 0 0 0-9.606-4.497 7.5 7.5 0 0 0-4.497 9.606 51.497 51.497 0 0 1 3.076 17.596c0 28.56-23.235 51.795-51.795 51.795s-51.795-23.235-51.795-51.795c0-18.894 10.173-35.449 25.324-44.497l19.537 47.357a7.502 7.502 0 0 0 6.937 4.642c.953 0 1.922-.183 2.857-.569a7.502 7.502 0 0 0 4.074-9.793l-19.544-47.375a51.724 51.724 0 0 1 12.61-1.56c10.77 0 21.102 3.289 29.878 9.511a7.5 7.5 0 0 0 8.676-12.236c-11.325-8.03-24.657-12.275-38.554-12.275-6.372 0-12.532.916-18.373 2.59l-2.518-6.104a73.078 73.078 0 0 1 20.892-3.048c40.449 0 73.356 32.908 73.356 73.357s-32.907 73.357-73.356 73.357-73.358-32.909-73.358-73.358z"/></svg>