<svg xmlns="http://www.w3.org/2000/svg" viewBox="0 0 512.002 512.002"><path d="M273.617 373.032a12.42 12.42 0 0 0-6.982-6.54l-14.874-5.598c-6.451-2.427-13.672.846-16.1 7.297l-.287.763-14.307-5.773c.227-2.391.351-4.811.351-7.261 0-42.586-34.646-77.232-77.232-77.232s-77.231 34.646-77.231 77.232 34.646 77.231 77.231 77.231c23.603 0 44.757-10.651 58.934-27.392l16.012 6.346-.083.221c-2.427 6.451.846 13.673 7.296 16.101l14.874 5.597c1.445.544 2.929.802 4.389.802 5.056 0 9.828-3.092 11.711-8.097l16.611-44.137a12.414 12.414 0 0 0-.313-9.56zm-129.431 45.122c-34.315 0-62.233-27.918-62.233-62.233s27.918-62.233 62.233-62.233 62.233 27.918 62.233 62.233c0 .448-.023.891-.033 1.337l-17.698-7.141c-2.857-22.019-21.717-39.086-44.502-39.086-24.752 0-44.889 20.138-44.889 44.89s20.137 44.889 44.889 44.889c9.594 0 18.483-3.039 25.785-8.188l18.244 7.231c-11.272 11.297-26.847 18.301-44.029 18.301zm-17.583-50.326c2.437 5.871 7.033 10.394 12.942 12.736l11.313 4.484a29.773 29.773 0 0 1-6.673.764c-16.482 0-29.891-13.409-29.891-29.891 0-16.483 13.408-29.892 29.891-29.892 11.871 0 22.142 6.96 26.961 17.011l-14.29-5.766c-11.65-4.703-25.167.861-30.134 12.398-2.513 5.837-2.555 12.285-.119 18.156zm97.81 30.238l-79.342-31.446a8.245 8.245 0 0 1-4.616-4.542 8.25 8.25 0 0 1 .042-6.474c1.772-4.114 6.592-6.097 10.746-4.422l78.834 31.808-5.664 15.076zm19.749 21.042l-10.195-3.837 14.85-39.458 10.195 3.837-14.85 39.458z"/><path d="M497.789 355.3c-3.208-8.395-9.63-16.574-19.632-25.008-6.519-5.495-13.824-9.9-21.313-13.514V210.503a7.5 7.5 0 0 0-15 0V310.55c-6.4-2.286-12.648-4.128-18.362-5.676-2.117-.573-7.892-1.941-16.442-3.892V159.961l22.941-25.131a7.499 7.499 0 1 0-11.076-10.112l-11.864 12.996v-17.376l28.633-47.482c3.634 1.651 6.173 5.302 6.173 9.547v81.271a7.5 7.5 0 0 0 15 0v-81.27c0-9.684-5.434-18.109-13.405-22.425l8.855-14.684c5.526-9.165 5.778-20.25.673-29.656C447.866 6.233 438.435.404 427.742.043l-.833-.028c-10.89-.338-21.115 5.226-26.678 14.598l-53.545 90.202c-5.441 9.165-5.634 20.218-.518 29.568 5.116 9.35 14.529 15.146 25.181 15.506a29.871 29.871 0 0 0 20.696-7.414v11.671l-22.202 24.321h-2.272c-25.65 0-46.518-20.868-46.518-46.518a46.821 46.821 0 0 1 4.355-19.65l15.376-32.992a7.499 7.499 0 1 0-13.595-6.335l-15.376 32.992a61.93 61.93 0 0 0-5.759 25.987c0 33.92 27.596 61.516 61.516 61.516h5.58a7.501 7.501 0 0 0 5.539-2.443l13.354-14.629v121.21c-50.472-11.271-148.927-32.342-214.119-43.697l-40.634-74.036h17.903c12.207 0 22.14-9.932 22.14-22.14v-30.649c0-12.207-9.932-22.14-22.14-22.14H68.078c-12.207 0-22.14 9.932-22.14 22.14v30.649c0 12.207 9.932 22.14 22.14 22.14h9.569l37.071 66.451c-18.418.855-36.333 6.239-52.106 15.727a7.499 7.499 0 1 0 7.731 12.852c14.917-8.974 32.056-13.716 49.564-13.716 39.013.001 281.543 53.263 299.656 58.169 15.33 4.152 34.745 10.452 48.929 22.408 7.899 6.659 13.042 13.015 15.288 18.894 8.213 21.491 5.343 45.616-7.679 64.532-12.505 18.167-32.319 28.587-54.362 28.587H119.905c-53.096 0-96.294-43.198-96.294-96.294 0-18.635 5.329-36.712 15.41-52.277a7.5 7.5 0 1 0-12.589-8.154c-11.658 17.999-17.82 38.896-17.82 60.431 0 53.931 38.562 99.02 89.561 109.157l-9.557 28.948c-1.254 3.798-.603 8 1.74 11.241a12.533 12.533 0 0 0 10.128 5.177h311.048a12.53 12.53 0 0 0 10.128-5.177 12.529 12.529 0 0 0 1.74-11.241l-8.852-26.811h7.187c27.053-.001 51.37-12.787 66.717-35.081 15.823-22.989 19.312-52.293 9.337-78.395zM68.078 164.87c-3.938 0-7.141-3.204-7.141-7.141v-30.65c0-3.937 3.203-7.141 7.141-7.141h87.115c3.938 0 7.141 3.204 7.141 7.141v30.65c0 3.937-3.203 7.141-7.141 7.141H68.078zm64.212 82.161l-37.468-67.162h25.359l38.903 70.883c-10.474-1.669-19.564-2.947-26.794-3.721zm252.784-119.31c-2.778 4.608-7.834 7.386-13.221 7.176-5.3-.179-9.984-3.063-12.529-7.716-2.546-4.652-2.45-10.152.257-14.712l53.545-90.202a14.852 14.852 0 0 1 13.271-7.263l.833.028c5.321.179 10.013 3.08 12.553 7.759 2.54 4.68 2.415 10.197-.335 14.756l-54.374 90.174zm-281.132 369.28l9.32-28.23h285.494l9.32 28.23H103.942z"/></svg>