<svg xmlns="http://www.w3.org/2000/svg" viewBox="0 0 512 512"><path d="M430.048 254.825c-.258-7.312-2.46-51.287-18.898-91.354-13.133-32.011 15.818-120.906 28.081-152.457a8.081 8.081 0 0 0-.863-7.493A8.08 8.08 0 0 0 431.696 0H80.303a8.085 8.085 0 0 0-7.534 11.013c12.263 31.551 41.213 120.446 28.081 152.457-16.438 40.066-18.64 84.041-18.898 91.354-29.928 113.386-7.354 244.933-6.377 250.492a8.084 8.084 0 0 0 7.962 6.683h153.061a8.085 8.085 0 0 0 7.972-6.743L256 437.315l11.43 67.941a8.085 8.085 0 0 0 7.972 6.743h153.061a8.083 8.083 0 0 0 7.962-6.683c.978-5.557 23.55-137.104-6.377-250.491zm-332.232 3.257c.164-.62.254-1.257.269-1.898.011-.46 1.235-46.389 17.721-86.575 7.838-19.107 5.412-52.799-7.212-100.143-5.864-21.991-12.523-41.657-16.685-53.298H420.09c-4.162 11.64-10.821 31.306-16.685 53.297-12.624 47.344-15.052 81.037-7.212 100.143 16.445 40.087 17.711 86.118 17.721 86.575.015.641.106 1.279.271 1.899.055.205.106.412.161.617h-64.147l10.072-14.906a8.086 8.086 0 0 0-13.398-9.052L330.685 258.7H181.891l-16.188-23.959a8.087 8.087 0 0 0-11.225-2.173 8.086 8.086 0 0 0-2.173 11.225l10.072 14.906H97.656c.054-.205.105-.412.16-.617zm323.731 237.75H282.24l-18.267-108.586a8.085 8.085 0 0 0-15.944 0L229.76 495.832H90.45c-3.483-23.622-13.805-106.099-2.399-188.473h53.522a8.082 8.082 0 0 0 8.084-8.084 8.083 8.083 0 0 0-8.084-8.084H90.579a410.046 410.046 0 0 1 3.194-16.323h324.452a411.474 411.474 0 0 1 3.192 16.323H172.829a8.082 8.082 0 0 0-8.084 8.084 8.082 8.082 0 0 0 8.084 8.084h251.115c11.39 82.334 1.081 164.846-2.397 188.473z"/><path d="M256 211.273a8.082 8.082 0 0 0-8.084 8.084v7.545a8.083 8.083 0 0 0 8.084 8.084 8.082 8.082 0 0 0 8.084-8.084v-7.545a8.083 8.083 0 0 0-8.084-8.084zM346.71 152.119a8.086 8.086 0 0 0-11.402.84c-.14.163-14.003 15.897-37.521 16.437-8.583.079-23.907-2.052-33.703-16.59v-33.769a8.083 8.083 0 0 0-8.084-8.084 8.082 8.082 0 0 0-8.084 8.084v33.768c-9.779 14.514-25.066 16.662-33.659 16.593-23.264-.512-37.01-15.804-37.567-16.438a8.085 8.085 0 0 0-12.242 10.562c.687.795 15.285 17.37 40.424 21.252.501.096 3.112.559 7.059.719 1.154.058 2.322.097 3.514.097 7.397 0 14.063-1.069 19.814-3.18a8.073 8.073 0 0 0 1.782-.928c6.495-2.542 13.117-6.573 18.96-12.881 5.843 6.308 12.463 10.338 18.958 12.881a8.05 8.05 0 0 0 1.782.928c5.751 2.111 12.417 3.18 19.814 3.18 1.192 0 2.359-.04 3.515-.098 3.945-.161 6.557-.624 7.058-.719 25.14-3.881 39.738-20.456 40.424-21.252a8.086 8.086 0 0 0-.842-11.402zM196.349 107.623c.606.115 3.673.656 8.289.832 1.259.059 2.532.098 3.83.098 8.505 0 16.156-1.226 22.745-3.642a8.1 8.1 0 0 0 1.905-1.012c7.871-3.06 15.902-8.037 22.883-15.964 6.981 7.928 15.015 12.906 22.887 15.966.574.41 1.207.756 1.901 1.011 6.588 2.417 14.24 3.642 22.743 3.642 1.297 0 2.57-.039 3.829-.098 4.631-.176 7.705-.72 8.298-.833 28.992-4.45 45.804-23.537 46.593-24.452.265-.307.507-.634.722-.977l14.798-23.527a8.086 8.086 0 0 0-2.538-11.148 8.087 8.087 0 0 0-11.148 2.538l-14.421 22.929c-2.459 2.621-17.879 17.956-42.675 19.294-9.852.392-30.335-1.338-42.903-20.341V31.94a8.083 8.083 0 0 0-8.084-8.084 8.083 8.083 0 0 0-8.084 8.084v40.001c-11.816 17.885-30.441 20.509-40.876 20.416-25.771-.584-42.207-16.753-44.714-19.388l-14.408-22.911c-2.376-3.78-7.371-4.918-11.147-2.539a8.081 8.081 0 0 0-2.539 11.146l14.794 23.527c.216.344.457.67.722.978.787.917 17.603 20.006 46.598 24.453z"/></svg>