<?xml version="1.0" encoding="iso-8859-1"?>
<!-- Generator: Adobe Illustrator 19.0.0, SVG Export Plug-In . SVG Version: 6.00 Build 0)  -->
<svg version="1.1" id="Layer_1" xmlns="http://www.w3.org/2000/svg" xmlns:xlink="http://www.w3.org/1999/xlink" x="0px" y="0px"
	 viewBox="0 0 512 512" style="enable-background:new 0 0 512 512;" xml:space="preserve">
<g>
	<g>
		<g>
			<path d="M430.048,254.825c-0.258-7.312-2.46-51.287-18.898-91.354c-13.133-32.011,15.818-120.906,28.081-152.457
				c0.966-2.488,0.645-5.291-0.863-7.493C436.862,1.317,434.365,0,431.696,0H80.303c-2.669,0-5.165,1.317-6.671,3.52
				c-1.507,2.202-1.829,5.007-0.863,7.493c12.263,31.551,41.213,120.446,28.081,152.457c-16.438,40.066-18.64,84.041-18.898,91.354
				c-29.928,113.386-7.354,244.933-6.377,250.492c0.68,3.865,4.038,6.683,7.962,6.683h153.061c3.947,0,7.317-2.851,7.972-6.743
				l11.43-67.941l11.43,67.941c0.655,3.892,4.025,6.743,7.972,6.743h153.061c3.925,0,7.282-2.818,7.962-6.683
				C437.403,499.759,459.975,368.212,430.048,254.825z M97.816,258.082c0.164-0.62,0.254-1.257,0.269-1.898
				c0.011-0.46,1.235-46.389,17.721-86.575c7.838-19.107,5.412-52.799-7.212-100.143c-5.864-21.991-12.523-41.657-16.685-53.298
				h328.181c-4.162,11.64-10.821,31.306-16.685,53.297c-12.624,47.344-15.052,81.037-7.212,100.143
				c16.445,40.087,17.711,86.118,17.721,86.575c0.015,0.641,0.106,1.279,0.271,1.899c0.055,0.205,0.106,0.412,0.161,0.617h-64.147
				l10.072-14.906c2.499-3.7,1.526-8.726-2.173-11.225c-3.7-2.499-8.727-1.525-11.225,2.173L330.685,258.7H181.891l-16.188-23.959
				c-2.501-3.698-7.525-4.672-11.225-2.173c-3.699,2.5-4.672,7.525-2.173,11.225l10.072,14.906H97.656
				C97.71,258.494,97.761,258.287,97.816,258.082z M421.547,495.832H282.24l-18.267-108.586c-0.655-3.892-4.025-6.743-7.972-6.743
				c-3.947,0-7.317,2.851-7.972,6.743l-18.269,108.586H90.45c-3.483-23.622-13.805-106.099-2.399-188.473h53.522
				c4.466,0,8.084-3.618,8.084-8.084c0-4.466-3.619-8.084-8.084-8.084H90.579c0.956-5.465,2.019-10.91,3.194-16.323h324.452
				c1.174,5.412,2.236,10.858,3.192,16.323H172.829c-4.466,0-8.084,3.618-8.084,8.084c0,4.466,3.618,8.084,8.084,8.084h251.115
				C435.334,389.693,425.025,472.205,421.547,495.832z"/>
			<path d="M256,211.273c-4.466,0-8.084,3.618-8.084,8.084v7.545c0,4.466,3.619,8.084,8.084,8.084c4.466,0,8.084-3.618,8.084-8.084
				v-7.545C264.084,214.891,260.465,211.273,256,211.273z"/>
			<path d="M346.71,152.119c-3.379-2.916-8.484-2.54-11.402,0.84c-0.14,0.163-14.003,15.897-37.521,16.437
				c-8.583,0.079-23.907-2.052-33.703-16.59v-33.769c0-4.466-3.619-8.084-8.084-8.084c-4.466,0-8.084,3.618-8.084,8.084v33.768
				c-9.779,14.514-25.066,16.662-33.659,16.593c-23.264-0.512-37.01-15.804-37.567-16.438c-2.917-3.38-8.023-3.758-11.402-0.84
				c-3.38,2.917-3.756,8.021-0.84,11.402c0.687,0.795,15.285,17.37,40.424,21.252c0.501,0.096,3.112,0.559,7.059,0.719
				c1.154,0.058,2.322,0.097,3.514,0.097c7.397,0,14.063-1.069,19.814-3.18c0.647-0.237,1.238-0.556,1.782-0.928
				c6.495-2.542,13.117-6.573,18.96-12.881c5.843,6.308,12.463,10.338,18.958,12.881c0.543,0.372,1.135,0.691,1.782,0.928
				c5.751,2.111,12.417,3.18,19.814,3.18c1.192,0,2.359-0.04,3.515-0.098c3.945-0.161,6.557-0.624,7.058-0.719
				c25.14-3.881,39.738-20.456,40.424-21.252C350.467,160.14,350.09,155.036,346.71,152.119z"/>
			<path d="M196.349,107.623c0.606,0.115,3.673,0.656,8.289,0.832c1.259,0.059,2.532,0.098,3.83,0.098
				c8.505,0,16.156-1.226,22.745-3.642c0.696-0.255,1.329-0.603,1.905-1.012c7.871-3.06,15.902-8.037,22.883-15.964
				c6.981,7.928,15.015,12.906,22.887,15.966c0.574,0.41,1.207,0.756,1.901,1.011c6.588,2.417,14.24,3.642,22.743,3.642
				c1.297,0,2.57-0.039,3.829-0.098c4.631-0.176,7.705-0.72,8.298-0.833c28.992-4.45,45.804-23.537,46.593-24.452
				c0.265-0.307,0.507-0.634,0.722-0.977l14.798-23.527c2.377-3.78,1.24-8.771-2.538-11.148c-3.777-2.376-8.771-1.241-11.148,2.538
				l-14.421,22.929c-2.459,2.621-17.879,17.956-42.675,19.294c-9.852,0.392-30.335-1.338-42.903-20.341V31.94
				c0-4.466-3.619-8.084-8.084-8.084c-4.466,0-8.084,3.619-8.084,8.084v40.001c-11.816,17.885-30.441,20.509-40.876,20.416
				c-25.771-0.584-42.207-16.753-44.714-19.388l-14.408-22.911c-2.376-3.78-7.371-4.918-11.147-2.539
				c-3.78,2.377-4.917,7.367-2.539,11.146l14.794,23.527c0.216,0.344,0.457,0.67,0.722,0.978
				C150.538,84.087,167.354,103.176,196.349,107.623z"/>
		</g>
	</g>
</g>
<g>
</g>
<g>
</g>
<g>
</g>
<g>
</g>
<g>
</g>
<g>
</g>
<g>
</g>
<g>
</g>
<g>
</g>
<g>
</g>
<g>
</g>
<g>
</g>
<g>
</g>
<g>
</g>
<g>
</g>
</svg>
