<svg xmlns="http://www.w3.org/2000/svg" viewBox="0 0 511.999 511.999"><path d="M441.846 188.643h-83.202v-34.036a8.082 8.082 0 0 0-8.084-8.084h-15.18c1.606-9.619 3.821-19.209 6.67-28.857.181-.615.36-1.231.545-1.845.39-1.284.79-2.57 1.202-3.857l.109-.347a279.719 279.719 0 0 1 6.508-18.027c.117-.294.24-.591.36-.886a287.65 287.65 0 0 1 1.37-3.345c.3-.717.608-1.437.915-2.158a319.275 319.275 0 0 1 3.357-7.626c22.486-49.227 15.194-71.899 14.289-74.322A8.086 8.086 0 0 0 363.131 0H77.538a8.081 8.081 0 0 0-7.572 5.254c-.905 2.423-8.197 25.094 14.289 74.321a329.666 329.666 0 0 1 3.205 7.269 268.085 268.085 0 0 1 2.084 4.994c.217.531.435 1.064.648 1.594.46 1.151.911 2.301 1.354 3.449.096.248.194.497.289.745a298.987 298.987 0 0 1 1.544 4.129c.018.052.039.103.057.155a269.994 269.994 0 0 1 2.92 8.453c.041.126.085.251.125.377.35 1.075.684 2.147 1.019 3.22.129.417.265.834.393 1.251.165.54.319 1.079.481 1.618.27.903.542 1.807.802 2.712.002.01.006.017.01.027a242.035 242.035 0 0 1 6.108 26.953h-35.07a8.082 8.082 0 0 0-8.084 8.084v84.241a8.082 8.082 0 0 0 8.084 8.084h28.687c-5.319 19.597-11.49 36.598-18.395 50.629a154.405 154.405 0 0 0-3.411 7.451c-.033.077-.067.153-.098.231-26.683 62.725-12.754 143.315 4.138 200.946a8.085 8.085 0 0 0 7.758 5.811h262.863a8.084 8.084 0 0 0 7.758-5.811c16.893-57.631 30.826-138.218 4.139-200.946a152.576 152.576 0 0 0-3.51-7.683 225.821 225.821 0 0 1-3.96-8.509h85.654a8.082 8.082 0 0 0 8.084-8.084v-84.241a8.083 8.083 0 0 0-8.085-8.081zM98.991 72.926a1.007 1.007 0 0 1-.03-.068C85.257 42.86 83.943 24.543 84.416 16.168H356.27c.453 8.304-.849 26.671-14.561 56.691l-.03.067c-37.154-9.371-78.936-14.313-121.345-14.313-42.409 0-84.19 4.942-121.343 14.313zm121.343 21.388c-37.887 0-75.009 4.526-107.929 13.125-.089-.282-.188-.566-.278-.848-.234-.725-.473-1.451-.715-2.176-.307-.929-.617-1.858-.935-2.787-.18-.525-.365-1.05-.549-1.575-.38-1.091-.764-2.183-1.16-3.275-.15-.413-.304-.826-.456-1.237-.428-1.165-.86-2.33-1.306-3.499-.17-.446-.348-.895-.522-1.342-.351-.905-.694-1.81-1.056-2.718 35.247-8.647 74.756-13.198 114.905-13.198s79.659 4.551 114.907 13.198a295.167 295.167 0 0 0-5.095 13.779 22.99 22.99 0 0 0-.11.314c-.39 1.145-.764 2.291-1.137 3.435-.171.524-.348 1.049-.516 1.573-.039.12-.08.239-.117.359-32.917-8.601-70.044-13.128-107.931-13.128zm103.486 28.688a254.779 254.779 0 0 0-4.817 23.522H121.67a255.725 255.725 0 0 0-4.818-23.523c31.507-8.195 67.088-12.519 103.482-12.519 36.396 0 71.979 4.322 103.486 12.52zM78.308 230.764v-68.072h14.293v26.427a8.082 8.082 0 0 0 8.084 8.084 8.082 8.082 0 0 0 8.084-8.084v-26.427h15.238v13.836a8.082 8.082 0 0 0 8.084 8.084 8.082 8.082 0 0 0 8.084-8.084v-13.836h15.238v26.427a8.082 8.082 0 0 0 8.084 8.084 8.082 8.082 0 0 0 8.084-8.084v-26.427h15.236v13.836c0 4.466 3.619 8.084 8.084 8.084s8.084-3.618 8.084-8.084v-13.836h15.238v26.427a8.082 8.082 0 0 0 8.084 8.084 8.082 8.082 0 0 0 8.084-8.084v-26.427h15.24v13.836a8.082 8.082 0 0 0 8.084 8.084 8.082 8.082 0 0 0 8.084-8.084v-13.836h15.236v26.427a8.082 8.082 0 0 0 8.084 8.084 8.082 8.082 0 0 0 8.084-8.084v-26.427h15.238v13.836a8.083 8.083 0 0 0 8.084 8.084 8.082 8.082 0 0 0 8.084-8.084v-13.836h13.865V230.765H78.308zm26.958 49.731h40.552a8.082 8.082 0 0 0 8.084-8.084 8.082 8.082 0 0 0-8.084-8.084h-35.115a404.522 404.522 0 0 0 4.943-17.393h208.422v-.001a276.548 276.548 0 0 0 5.07 17.393H175.635a8.082 8.082 0 0 0-8.084 8.084 8.082 8.082 0 0 0 8.084 8.084h159.323c.461 1.176.923 2.351 1.401 3.525.23.563.535 1.075.872 1.56 1.911 4.851 4 9.752 6.266 14.618H97.165c2.831-6.115 5.535-12.689 8.101-19.702zm240.407 215.337H228.418v-34.973c0-33.692 19.037-53.889 19.271-54.134a8.084 8.084 0 0 0-11.575-11.288c-.585.598-9.088 9.463-15.779 25.248-6.692-15.785-15.194-24.649-15.779-25.248-3.117-3.181-8.203-3.234-11.397-.132-3.194 3.101-3.267 8.212-.18 11.419.193.201 19.272 20.407 19.272 54.135v34.973H94.993C82.379 450.84 67.674 374.84 89.957 316.364h260.755c22.285 58.478 7.575 134.478-5.039 179.468zm88.089-222.948h-84.056c-3.37-9.242-6.08-18.125-8.215-25.951h9.069a8.082 8.082 0 0 0 8.084-8.084v-34.037h12.741v28.136c0 4.466 3.619 8.084 8.084 8.084s8.084-3.618 8.084-8.084v-28.136h15.238v15.545a8.082 8.082 0 0 0 8.084 8.084 8.082 8.082 0 0 0 8.084-8.084v-15.545h14.802v68.072z"/></svg>