<svg xmlns="http://www.w3.org/2000/svg" viewBox="0 0 512 512"><path d="M447.61 278.713c4.2 0 7.604-3.405 7.604-7.604V46.597C455.214 20.904 434.311 0 408.617 0H109.963C80.642 0 56.786 23.855 56.786 53.177v405.646c0 8.11 1.777 15.892 5.28 23.132C70.896 500.207 89.696 512 109.963 512h298.653c25.694 0 46.597-20.904 46.597-46.597v-38.466a7.604 7.604 0 0 0-15.208 0v38.466c0 17.308-14.082 31.389-31.389 31.389H109.963c-14.473 0-27.9-8.423-34.207-21.46-2.497-5.159-3.762-10.713-3.762-16.509 0-10.134 3.949-19.668 11.112-26.841 7.179-7.17 16.717-11.119 26.857-11.119h298.653c5.936 0 11.711-1.098 17.158-3.262 17.885-7.088 29.439-24.102 29.439-43.345v-77.8a7.604 7.604 0 0 0-15.208 0v77.8c0 12.967-7.786 24.431-19.841 29.209a31.112 31.112 0 0 1-11.548 2.19H109.963c-14.199 0-27.555 5.529-37.611 15.573-.123.124-.237.252-.359.377V53.177c.001-20.936 17.034-37.969 37.97-37.969h8.073v139.071a7.604 7.604 0 0 0 11.863 6.299l38.323-25.914 38.323 25.914a7.605 7.605 0 0 0 11.863-6.299V95.07a7.604 7.604 0 0 0-15.208 0v44.888l-30.719-20.772a7.602 7.602 0 0 0-8.518 0l-30.719 20.772V15.208H203.2v54.513a7.604 7.604 0 0 0 15.208 0V15.208h190.208c17.308 0 31.389 14.081 31.389 31.389v224.512a7.606 7.606 0 0 0 7.605 7.604z"/><path d="M422.969 431.505a7.604 7.604 0 0 0-7.604 7.604v22.422c0 5.246-4.267 9.513-9.512 9.513H100.887a7.604 7.604 0 0 0 0 15.208h304.965c13.63 0 24.72-11.09 24.72-24.721v-22.422a7.602 7.602 0 0 0-7.603-7.604z"/><path d="M396.329 439.276H100.887a7.604 7.604 0 0 0 0 15.208h295.441a7.604 7.604 0 0 0 .001-15.208z"/></svg>