<?xml version="1.0" encoding="iso-8859-1"?>
<!-- Generator: Adobe Illustrator 19.0.0, SVG Export Plug-In . SVG Version: 6.00 Build 0)  -->
<svg version="1.1" id="Layer_1" xmlns="http://www.w3.org/2000/svg" xmlns:xlink="http://www.w3.org/1999/xlink" x="0px" y="0px"
	 viewBox="0 0 512.001 512.001" style="enable-background:new 0 0 512.001 512.001;" xml:space="preserve">
<g>
	<g>
		<path d="M335.028,46.579h-75.305V34.181c0-4.447-3.604-8.052-8.052-8.052H237.57V8.052c0-4.447-3.604-8.052-8.052-8.052
			c-4.448,0-8.052,3.605-8.052,8.052v18.077h-14.103c-4.448,0-8.052,3.605-8.052,8.052v35.117c-0.045,0.044-0.094,0.082-0.138,0.127
			l-70.029,70.944c-3.99,0.479-7.084,3.869-7.084,7.988v40.899c0,4.447,3.604,8.052,8.052,8.052h9.178v30.477h-9.178
			c-4.448,0-8.052,3.605-8.052,8.052v268.113c0,4.448,3.604,8.052,8.052,8.052h198.812c4.448,0,8.052-3.604,8.052-8.052V314.372
			c0-4.448-3.604-8.052-8.052-8.052c-4.448,0-8.052,3.604-8.052,8.052v181.526H138.164V243.887h9.178h164.352h9.18v39.351
			c0,4.447,3.604,8.052,8.052,8.052c4.448,0,8.052-3.605,8.052-8.052v-47.403c0-4.447-3.604-8.052-8.052-8.052h-9.18v-30.477h9.18
			c4.448,0,8.052-3.605,8.052-8.052v-32.897c29.378-1.032,52.964-25.237,52.964-54.863C389.94,71.215,365.307,46.579,335.028,46.579
			z M215.416,42.232h28.203v24.796h-28.203V42.232z M208.27,83.131h37.729l60.276,57.173H151.835L208.27,83.131z M303.642,227.783
			h-0.001H155.393v-30.477h148.248V227.783z M311.692,181.203H147.342h-9.178v-24.796h182.708v24.796H311.692z M335.028,140.304
			h-5.355l-69.951-66.35V62.682h75.305c21.4,0,38.809,17.412,38.809,38.813C373.837,122.894,356.427,140.304,335.028,140.304z"/>
	</g>
</g>
<g>
</g>
<g>
</g>
<g>
</g>
<g>
</g>
<g>
</g>
<g>
</g>
<g>
</g>
<g>
</g>
<g>
</g>
<g>
</g>
<g>
</g>
<g>
</g>
<g>
</g>
<g>
</g>
<g>
</g>
</svg>
