<svg xmlns="http://www.w3.org/2000/svg" viewBox="0 0 512.001 512.001"><path d="M335.028 46.579h-75.305V34.181a8.051 8.051 0 0 0-8.052-8.052H237.57V8.052A8.051 8.051 0 0 0 229.518 0a8.051 8.051 0 0 0-8.052 8.052v18.077h-14.103a8.051 8.051 0 0 0-8.052 8.052v35.117c-.045.044-.094.082-.138.127l-70.029 70.944c-3.99.479-7.084 3.869-7.084 7.988v40.899a8.051 8.051 0 0 0 8.052 8.052h9.178v30.477h-9.178a8.051 8.051 0 0 0-8.052 8.052V503.95a8.05 8.05 0 0 0 8.052 8.052h198.812a8.05 8.05 0 0 0 8.052-8.052V314.372a8.05 8.05 0 0 0-8.052-8.052 8.05 8.05 0 0 0-8.052 8.052v181.526H138.164V243.887h182.71v39.351a8.051 8.051 0 0 0 8.052 8.052 8.051 8.051 0 0 0 8.052-8.052v-47.403a8.051 8.051 0 0 0-8.052-8.052h-9.18v-30.477h9.18a8.051 8.051 0 0 0 8.052-8.052v-32.897c29.378-1.032 52.964-25.237 52.964-54.863-.002-30.279-24.635-54.915-54.914-54.915zm-119.612-4.347h28.203v24.796h-28.203V42.232zm-7.146 40.899h37.729l60.276 57.173h-154.44l56.435-57.173zm95.372 144.652H155.393v-30.477h148.248v30.477zm8.05-46.58H138.164v-24.796h182.708v24.796h-9.18zm23.336-40.899h-5.355l-69.951-66.35V62.682h75.305c21.4 0 38.809 17.412 38.809 38.813.001 21.399-17.409 38.809-38.808 38.809z"/></svg>