<?xml version="1.0" encoding="iso-8859-1"?>
<!-- Generator: Adobe Illustrator 19.0.0, SVG Export Plug-In . SVG Version: 6.00 Build 0)  -->
<svg version="1.1" id="Capa_1" xmlns="http://www.w3.org/2000/svg" xmlns:xlink="http://www.w3.org/1999/xlink" x="0px" y="0px"
	 viewBox="0 0 511.998 511.998" style="enable-background:new 0 0 511.998 511.998;" xml:space="preserve">
<g>
	<g>
		<path d="M389.333,347.053c0-6.385-2.068-12.419-5.979-17.452c-4.628-5.953-7.074-12.712-7.074-19.547
			c0-6.834,2.446-13.594,7.074-19.547c3.912-5.032,5.979-11.067,5.979-17.452c0-6.384-2.068-12.419-5.979-17.451
			c-4.628-5.953-7.074-12.713-7.074-19.547v-46.441v-40.382c0-6.901-5.614-12.515-12.515-12.515h-12.654v-33.541
			c0-6.901-5.614-12.515-12.515-12.515h-41.962V61.204c7.748-6.33,12.706-15.953,12.706-26.715C309.339,15.472,293.868,0,274.85,0
			c-16.437,0-30.217,11.563-33.655,26.979h-67.833c-27.955,0-50.698,22.743-50.698,50.698s22.743,50.698,50.698,50.698h25.228v8.343
			h-12.654c-6.901,0-12.515,5.614-12.515,12.515v40.382v46.505c0,6.834-2.446,13.594-7.073,19.546
			c-3.912,5.032-5.979,11.066-5.979,17.452c0,6.384,2.068,12.419,5.979,17.451c4.628,5.954,7.074,12.714,7.074,19.547
			s-2.446,13.594-7.074,19.547c-3.911,5.032-5.978,11.067-5.978,17.451s2.068,12.419,5.979,17.452
			c4.628,5.953,7.074,12.712,7.074,19.547c0,6.834-2.446,13.594-7.074,19.547c-3.912,5.032-5.979,11.067-5.979,17.451
			c0,6.386,2.068,12.42,5.979,17.452c4.628,5.953,7.074,12.713,7.074,19.547v29.994c0,13.175,10.718,23.893,23.893,23.893h21.64
			c4.147,0,7.509-3.362,7.509-7.509c0-4.147-3.362-7.509-7.509-7.509h-21.64c-4.894,0-8.875-3.982-8.875-8.875v-29.994
			c0-10.202-3.539-20.15-10.234-28.764c-1.844-2.372-2.818-5.219-2.818-8.235c0-3.015,0.975-5.862,2.818-8.235
			c6.695-8.615,10.233-18.561,10.233-28.764c0-10.203-3.539-20.15-10.234-28.763c-1.844-2.372-2.818-5.219-2.818-8.235
			s0.974-5.863,2.817-8.235c6.696-8.615,10.234-18.561,10.234-28.764c0-10.202-3.539-20.15-10.234-28.763
			c-1.844-2.373-2.818-5.22-2.818-8.235c0-3.016,0.974-5.863,2.818-8.236c6.695-8.615,10.234-18.561,10.234-28.763v-38.996h91.923
			c4.147,0,7.509-3.362,7.509-7.509s-3.362-7.509-7.509-7.509h-91.923v-30.37h172.823v30.37h-36.481
			c-4.147,0-7.509,3.362-7.509,7.509s3.362,7.509,7.509,7.509h36.481v38.932c0,10.202,3.539,20.15,10.233,28.763
			c1.844,2.373,2.818,5.22,2.818,8.235c0,3.016-0.975,5.863-2.818,8.236c-6.695,8.615-10.233,18.561-10.233,28.763
			s3.539,20.15,10.233,28.763c1.844,2.373,2.818,5.22,2.818,8.236c0,3.015-0.975,5.862-2.818,8.235
			c-6.695,8.615-10.233,18.561-10.233,28.763s3.539,20.15,10.233,28.763c1.844,2.373,2.818,5.22,2.818,8.236
			c0,3.015-0.975,5.862-2.818,8.235c-6.695,8.615-10.233,18.561-10.233,28.763v30.058c0,4.894-3.982,8.875-8.875,8.875H265.51
			c-4.147,0-7.509,3.362-7.509,7.509c0,4.147,3.362,7.509,7.509,7.509h86.877c13.175,0,23.893-10.719,23.893-23.893v-30.058
			c0-6.834,2.446-13.594,7.074-19.547c3.912-5.032,5.979-11.068,5.979-17.451c0-6.385-2.068-12.419-5.979-17.452
			c-4.628-5.953-7.074-12.712-7.074-19.547c0-6.834,2.446-13.594,7.074-19.547C387.266,359.472,389.333,353.436,389.333,347.053z
			 M274.85,15.018c10.736,0,19.47,8.735,19.47,19.47s-8.735,19.47-19.47,19.47c-10.735,0-19.47-8.735-19.47-19.47
			S264.114,15.018,274.85,15.018z M281.615,68.306v22.355h0h-13.529V68.306c2.189,0.437,4.449,0.67,6.764,0.67
			C277.165,68.976,279.427,68.743,281.615,68.306z M198.59,103.177v10.179h-25.228c-19.674,0-35.68-16.006-35.68-35.68
			c0-19.673,16.005-35.68,35.68-35.68h67.833c1.711,7.674,5.981,14.394,11.872,19.206v29.458h-41.962
			C204.204,90.662,198.59,96.276,198.59,103.177z M336.092,136.051H213.609v-30.37h46.968h28.547h46.968V136.051z"/>
	</g>
</g>
<g>
</g>
<g>
</g>
<g>
</g>
<g>
</g>
<g>
</g>
<g>
</g>
<g>
</g>
<g>
</g>
<g>
</g>
<g>
</g>
<g>
</g>
<g>
</g>
<g>
</g>
<g>
</g>
<g>
</g>
</svg>
