<svg xmlns="http://www.w3.org/2000/svg" viewBox="0 0 511.998 511.998"><path d="M389.333 347.053c0-6.385-2.068-12.419-5.979-17.452-4.628-5.953-7.074-12.712-7.074-19.547 0-6.834 2.446-13.594 7.074-19.547 3.912-5.032 5.979-11.067 5.979-17.452 0-6.384-2.068-12.419-5.979-17.451-4.628-5.953-7.074-12.713-7.074-19.547V149.234c0-6.901-5.614-12.515-12.515-12.515h-12.654v-33.541c0-6.901-5.614-12.515-12.515-12.515h-41.962V61.204c7.748-6.33 12.706-15.953 12.706-26.715C309.339 15.472 293.868 0 274.85 0c-16.437 0-30.217 11.563-33.655 26.979h-67.833c-27.955 0-50.698 22.743-50.698 50.698s22.743 50.698 50.698 50.698h25.228v8.343h-12.654c-6.901 0-12.515 5.614-12.515 12.515v86.887c0 6.834-2.446 13.594-7.073 19.546-3.912 5.032-5.979 11.066-5.979 17.452 0 6.384 2.068 12.419 5.979 17.451 4.628 5.954 7.074 12.714 7.074 19.547s-2.446 13.594-7.074 19.547c-3.911 5.032-5.978 11.067-5.978 17.451s2.068 12.419 5.979 17.452c4.628 5.953 7.074 12.712 7.074 19.547 0 6.834-2.446 13.594-7.074 19.547-3.912 5.032-5.979 11.067-5.979 17.451 0 6.386 2.068 12.42 5.979 17.452 4.628 5.953 7.074 12.713 7.074 19.547v29.994c0 13.175 10.718 23.893 23.893 23.893h21.64a7.51 7.51 0 0 0 0-15.018h-21.64c-4.894 0-8.875-3.982-8.875-8.875V458.11c0-10.202-3.539-20.15-10.234-28.764a13.295 13.295 0 0 1-2.818-8.235c0-3.015.975-5.862 2.818-8.235 6.695-8.615 10.233-18.561 10.233-28.764s-3.539-20.15-10.234-28.763c-1.844-2.372-2.818-5.219-2.818-8.235s.974-5.863 2.817-8.235c6.696-8.615 10.234-18.561 10.234-28.764 0-10.202-3.539-20.15-10.234-28.763a13.3 13.3 0 0 1-2.818-8.235 13.3 13.3 0 0 1 2.818-8.236c6.695-8.615 10.234-18.561 10.234-28.763v-38.996h91.923a7.51 7.51 0 0 0 0-15.018h-91.923v-30.37h172.823v30.37h-36.481a7.51 7.51 0 0 0 0 15.018h36.481v38.932c0 10.202 3.539 20.15 10.233 28.763a13.3 13.3 0 0 1 2.818 8.235c0 3.016-.975 5.863-2.818 8.236-6.695 8.615-10.233 18.561-10.233 28.763s3.539 20.15 10.233 28.763a13.3 13.3 0 0 1 2.818 8.236c0 3.015-.975 5.862-2.818 8.235-6.695 8.615-10.233 18.561-10.233 28.763s3.539 20.15 10.233 28.763a13.3 13.3 0 0 1 2.818 8.236c0 3.015-.975 5.862-2.818 8.235-6.695 8.615-10.233 18.561-10.233 28.763v30.058c0 4.894-3.982 8.875-8.875 8.875H265.51a7.51 7.51 0 0 0 0 15.018h86.877c13.175 0 23.893-10.719 23.893-23.893v-30.058c0-6.834 2.446-13.594 7.074-19.547 3.912-5.032 5.979-11.068 5.979-17.451 0-6.385-2.068-12.419-5.979-17.452-4.628-5.953-7.074-12.712-7.074-19.547 0-6.834 2.446-13.594 7.074-19.547 3.912-5.029 5.979-11.065 5.979-17.448zM274.85 15.018c10.736 0 19.47 8.735 19.47 19.47s-8.735 19.47-19.47 19.47-19.47-8.735-19.47-19.47 8.734-19.47 19.47-19.47zm6.765 53.288v22.355h-13.529V68.306a34.51 34.51 0 0 0 13.529 0zm-83.025 34.871v10.179h-25.228c-19.674 0-35.68-16.006-35.68-35.68 0-19.673 16.005-35.68 35.68-35.68h67.833c1.711 7.674 5.981 14.394 11.872 19.206V90.66h-41.962c-6.901.002-12.515 5.616-12.515 12.517zm137.502 32.874H213.609v-30.37h122.483v30.37z"/></svg>