<svg xmlns="http://www.w3.org/2000/svg" viewBox="0 0 512 512"><path d="M472.667 335.117v-28.616a39.07 39.07 0 0 0 5.116-10.393c4.201-13.178 1.286-27.246-7.797-37.632l-6.533-7.47a38.013 38.013 0 0 0 23.025-12.757 37.74 37.74 0 0 0 8.768-30.222c-8.459-56.748-37.09-108.839-80.62-146.677C370.659 23.133 314.325 2.086 256 2.086S141.341 23.134 97.374 61.352C53.845 99.19 25.213 151.28 16.754 208.029a37.743 37.743 0 0 0 8.767 30.222 38.013 38.013 0 0 0 24.401 12.945l-5.579 5.372c-11.612 11.18-15.135 27.434-9.194 42.421a40.414 40.414 0 0 0 4.184 7.897v28.232C17.112 338.39 0 357.578 0 380.693c0 19.805 12.562 36.729 30.135 43.229v46.373c0 21.847 17.773 39.619 39.62 39.619h238.043c4.127 0 7.471-3.344 7.471-7.471s-3.344-7.471-7.471-7.471H69.755c-13.607 0-24.678-11.07-24.678-24.677v-43.528H466.921v43.528c0 13.607-11.07 24.677-24.678 24.677h-88.125c-4.127 0-7.471 3.344-7.471 7.471s3.344 7.471 7.471 7.471h88.125c21.847 0 39.62-17.773 39.62-39.619v-46.373c17.575-6.5 30.137-23.424 30.137-43.229 0-23.115-17.113-42.303-39.333-45.576zm-9.122-43.546c-2.537 7.961-8.858 13.865-16.906 15.793-3.557.852-7.457 1.266-11.921 1.266-13.122 0-19.327-3.577-26.511-7.719a171.777 171.777 0 0 0-4.229-2.383l30.483-47.072h9.536l14.74 16.856c5.609 6.415 7.407 15.108 4.808 23.259zm-85.888 20.116l-38.808-59.928h77.616l-38.808 59.928zM36.839 228.494a22.802 22.802 0 0 1-5.306-18.263c7.934-53.23 34.799-102.097 75.643-137.602C148.423 36.774 201.277 17.028 256 17.028c54.723 0 107.576 19.746 148.824 55.601 40.844 35.505 67.709 84.372 75.644 137.602a22.813 22.813 0 0 1-5.306 18.263 23.088 23.088 0 0 1-17.499 8.022H54.338a23.092 23.092 0 0 1-17.499-8.022zm17.867 38.836l16.487-15.873h249.661l28.829 44.52c-3.506 1.54-6.541 3.274-9.419 4.935-7.184 4.142-13.387 7.719-26.506 7.719-13.121 0-19.324-3.577-26.508-7.719-7.899-4.554-16.852-9.717-33.971-9.717-17.118 0-26.072 5.163-33.97 9.717-7.183 4.142-13.386 7.719-26.505 7.719s-19.322-3.577-26.505-7.719c-7.898-4.554-16.852-9.717-33.97-9.717-17.116 0-26.068 5.163-33.966 9.717-7.329 4.227-13.662 7.821-27.312 7.714-11.857-.138-19.145-7.913-22.01-15.144-2.872-7.243-2.89-17.915 5.665-26.152zm411.22 144.495H46.074c-17.166 0-31.132-13.966-31.132-31.132 0-16.891 13.524-30.674 30.312-31.111.5.106 1.018.163 1.55.163h110.081a7.47 7.47 0 0 0 7.471-7.471 7.47 7.47 0 0 0-7.471-7.471H54.274v-15.052c5.022 2.408 10.641 3.746 16.591 3.815.329.005.66.007.996.007 17.117 0 26.069-5.163 33.967-9.717 7.181-4.142 13.384-7.719 26.501-7.719 13.119 0 19.322 3.577 26.505 7.719 7.898 4.554 16.852 9.717 33.97 9.717s26.071-5.163 33.97-9.717c7.183-4.142 13.386-7.719 26.506-7.719s19.323 3.577 26.507 7.719c7.899 4.554 16.852 9.717 33.972 9.717 17.118 0 26.072-5.163 33.97-9.717 3.35-1.932 6.499-3.731 10.224-5.11l8.785 13.566c2.297 3.546 6.38 5.664 10.924 5.663 4.542-.001 8.624-2.118 10.919-5.663l7.246-11.19c1.653.858 3.262 1.778 4.92 2.733 7.9 4.554 16.854 9.717 33.974 9.717 5.651 0 10.687-.549 15.401-1.677a38.687 38.687 0 0 0 7.604-2.694v15.601H204.699a7.47 7.47 0 0 0-7.471 7.471 7.47 7.47 0 0 0 7.471 7.471h260.497c.532 0 1.05-.058 1.55-.163 16.788.437 30.313 14.219 30.313 31.111-.001 17.168-13.968 31.133-31.133 31.133z"/><path d="M168.736 76.691a7.469 7.469 0 0 0-9.945-3.566l-17.254 8.146a7.47 7.47 0 0 0-3.566 9.945 7.471 7.471 0 0 0 9.946 3.566l17.254-8.146a7.47 7.47 0 0 0 3.565-9.945zM302.27 40.441a7.472 7.472 0 0 0-10.316 2.283l-10.257 16.089a7.472 7.472 0 0 0 6.292 11.488 7.466 7.466 0 0 0 6.306-3.456l10.257-16.089a7.468 7.468 0 0 0-2.282-10.315zM260.78 108.969l-17.491-7.623a7.471 7.471 0 0 0-5.97 13.697l17.491 7.623a7.465 7.465 0 0 0 9.832-3.863 7.469 7.469 0 0 0-3.862-9.834zM226.086 48.264l-16.652-9.316a7.47 7.47 0 1 0-7.294 13.041l16.652 9.316a7.467 7.467 0 0 0 10.168-2.874 7.473 7.473 0 0 0-2.874-10.167zM360.076 68.194a7.467 7.467 0 0 0-9.733 4.109l-7.182 17.677a7.47 7.47 0 0 0 4.109 9.733c.92.375 1.874.552 2.809.552a7.473 7.473 0 0 0 6.924-4.661l7.182-17.677a7.47 7.47 0 0 0-4.109-9.733z"/></svg>