<svg xmlns="http://www.w3.org/2000/svg" viewBox="0 0 512 512"><path d="M437.02 74.981C388.668 26.628 324.38 0 256 0 193.019 0 132.486 23.08 85.554 64.989a7.5 7.5 0 0 0 9.99 11.189C139.725 36.727 196.709 15 256 15c132.888 0 241 108.112 241 241S388.888 497 256 497 15 388.888 15 256c0-54.884 18.939-108.586 53.33-151.213a7.498 7.498 0 0 0-1.128-10.546 7.498 7.498 0 0 0-10.546 1.127c-17.971 22.274-31.973 47.164-41.616 73.978C5.061 197.093 0 226.248 0 256c0 68.38 26.629 132.668 74.98 181.02C123.333 485.371 187.62 512 256 512s132.668-26.629 181.02-74.98C485.372 388.669 512 324.38 512 256s-26.629-132.667-74.98-181.019z"/><path d="M428.566 110.885a10.523 10.523 0 0 0-7.594-3.758 10.543 10.543 0 0 0-7.93 3.078L281.833 241.414l-.008.008-126.921 126.921a4.272 4.272 0 0 0-.116.117l-44.691 44.691a10.575 10.575 0 0 0-3.077 7.887 10.534 10.534 0 0 0 3.692 7.578C151.244 463.041 202.842 482 256 482a224.469 224.469 0 0 0 147.426-55.213 7.502 7.502 0 0 0-9.852-11.312A209.47 209.47 0 0 1 256 467c-47.982 0-94.6-16.551-131.831-46.71l37.571-37.571c7.039 2.891 14.641 4.426 22.297 4.426h82.455c4.143 0 7.5-3.357 7.5-7.5s-3.357-7.5-7.5-7.5h-82.455c-3.53 0-7.044-.433-10.452-1.271l39.515-39.515h163.968c-1.455 22.735-20.414 40.786-43.511 40.786h-32.565c-4.143 0-7.5 3.357-7.5 7.5s3.357 7.5 7.5 7.5h32.565c31.369 0 57.055-24.776 58.529-55.786h.895c11.641 0 21.11-9.47 21.11-21.11v-4.917c0-7.959-4.431-14.899-10.952-18.496a20.186 20.186 0 0 0 1.604-7.906v-11.599a27.94 27.94 0 0 0-4.083-14.578c7.85-3.08 13.431-10.714 13.431-19.643v-4.917c0-11.64-9.47-21.11-21.11-21.11h-.823v-3.06c0-14.533-3.5-28.78-10.164-41.558l38.161-38.16c29.66 37.264 45.939 83.832 45.939 131.694 0 48.802-16.975 96.391-47.798 133.999a7.502 7.502 0 0 0 11.603 9.509c33.015-40.282 51.196-91.247 51.196-143.507 0-53.014-18.655-104.55-52.529-145.115zm-57.806 62.816a74.94 74.94 0 0 1 6.398 30.323v3.06h-39.781l33.383-33.383zm-80.521 80.52h86.395c7.229 0 13.11 5.881 13.11 13.111v11.599a5.297 5.297 0 0 1-5.291 5.291H260.238l30.001-30.001zm102.743 62.138H228.1l17.138-17.138h147.743a6.117 6.117 0 0 1 6.11 6.11v4.918h.001a6.117 6.117 0 0 1-6.11 6.11zm-.001-94.276a6.117 6.117 0 0 1 6.11 6.11v4.917a6.117 6.117 0 0 1-6.11 6.11h-87.742l17.167-17.167c.194.015.388.03.586.03h69.989z"/><circle cx="224.76" cy="160.53" r="7.5"/><circle cx="224.76" cy="186.87" r="7.5"/><circle cx="195.43" cy="186.87" r="7.5"/><circle cx="287.89" cy="160.53" r="7.5"/><path d="M401.289 83.386C360.757 48.959 309.158 30 256 30c-60.131 0-116.661 23.512-159.177 66.205C54.315 138.89 30.905 195.639 30.905 256c0 53.014 18.655 104.551 52.53 145.116a10.527 10.527 0 0 0 8.062 3.768c2.786 0 5.483-1.111 7.461-3.088l44.473-44.473c.256-.226.499-.464.719-.719l213.13-213.13.037-.037 44.587-44.587a10.58 10.58 0 0 0 3.078-7.888 10.532 10.532 0 0 0-3.693-7.576zM141.473 338.067a43.292 43.292 0 0 1-.949-6.708h7.656l-6.707 6.708zm21.708-21.708h-38.568a6.117 6.117 0 0 1-6.111-6.11v-4.917a6.117 6.117 0 0 1 6.111-6.11h55.705l-17.137 17.137zm32.138-32.137h-62.177a5.297 5.297 0 0 1-5.292-5.291v-11.599c0-7.229 5.881-13.111 13.11-13.111h84.359l-30 30.001zm45-45.001H124.613a6.117 6.117 0 0 1-6.111-6.11v-4.917a6.117 6.117 0 0 1 6.111-6.11h132.844l-17.138 17.137zm110.73-110.729c-14.538-9.439-31.284-14.408-48.832-14.408h-68.476a7.5 7.5 0 0 0-7.5 7.5 7.5 7.5 0 0 0 7.5 7.5h68.476c13.53 0 26.487 3.543 37.94 10.299L324.57 154.97a7.466 7.466 0 0 0-5.016-1.936 7.5 7.5 0 0 0-7.5 7.5c0 1.932.736 3.687 1.936 5.016l-18.979 18.979a7.5 7.5 0 0 0-14.623 2.338 7.5 7.5 0 0 0 5.162 7.123l-13.093 13.093h-132.02v-3.06c0-33.014 21.159-61.777 52.652-71.573a7.5 7.5 0 0 0-4.455-14.323c-17.929 5.577-34.025 16.969-45.325 32.079-11.692 15.634-17.872 34.244-17.872 53.817v3.06h-.823c-11.641 0-21.111 9.47-21.111 21.11v4.917c0 8.929 5.581 16.563 13.431 19.643a27.943 27.943 0 0 0-4.083 14.578v11.599c0 2.803.572 5.475 1.604 7.906-6.521 3.596-10.952 10.536-10.952 18.495v4.917c0 11.641 9.471 21.11 21.111 21.11h.907a58.95 58.95 0 0 0 4.006 18.654l-37.681 37.681C62.185 350.431 45.905 303.862 45.905 256c0-116.346 94.248-211 210.095-211 47.979 0 94.599 16.554 131.831 46.71l-36.782 36.782z"/><circle cx="195.43" cy="160.53" r="7.5"/><circle cx="255.22" cy="160.53" r="7.5"/><circle cx="255.22" cy="186.87" r="7.5"/><circle cx="167.76" cy="186.87" r="7.5"/></svg>