<svg xmlns="http://www.w3.org/2000/svg" viewBox="0 0 512 512"><path d="M489.495 56.465h-67.082v-24.11c0-13.683-11.133-24.816-24.816-24.816H384.7c-13.683 0-24.816 11.133-24.816 24.816v24.109h-72.62V32.355c0-13.683-11.133-24.816-24.816-24.816h-12.897c-13.683 0-24.816 11.133-24.816 24.816v24.109h-72.62V32.355c0-13.683-11.133-24.816-24.816-24.816h-12.897c-13.683 0-24.816 11.133-24.816 24.816v24.109H22.505C10.095 56.465 0 66.56 0 78.97v402.985c0 12.41 10.095 22.505 22.505 22.505h61.456a7.502 7.502 0 0 0 0-15.004H22.505c-4.137 0-7.502-3.366-7.502-7.502V154.072h481.993v72.822a7.502 7.502 0 0 0 15.004 0V78.97c0-12.41-10.095-22.505-22.505-22.505zm-114.607-24.11c0-5.41 4.402-9.812 9.812-9.812h12.897c5.41 0 9.812 4.402 9.812 9.812v56.612c0 5.411-4.402 9.813-9.812 9.813H384.7c-5.41 0-9.812-4.402-9.812-9.813V32.355zm-135.149 0c0-5.41 4.402-9.812 9.812-9.812h12.897c5.41 0 9.812 4.402 9.812 9.812v56.612c0 5.411-4.402 9.813-9.812 9.813h-12.897c-5.41 0-9.812-4.402-9.812-9.813V32.355zm-135.148 0c0-5.41 4.402-9.812 9.812-9.812H127.3c5.41 0 9.812 4.402 9.812 9.812v56.612c0 5.411-4.402 9.813-9.812 9.813h-12.897c-5.41 0-9.812-4.402-9.812-9.813V32.355zm392.406 106.713H15.004V78.97c0-4.137 3.365-7.502 7.502-7.502h67.081v17.499c0 13.684 11.133 24.817 24.816 24.817H127.3c13.683 0 24.816-11.133 24.816-24.817V71.468h72.62v17.499c0 13.684 11.133 24.817 24.816 24.817h12.897c13.683 0 24.816-11.133 24.816-24.817V71.468h72.62v17.499c0 13.684 11.133 24.817 24.816 24.817h12.897c13.683 0 24.816-11.133 24.816-24.817V71.468H489.496c4.137 0 7.502 3.365 7.502 7.502v60.098zM504.498 272.96a7.502 7.502 0 0 0-7.502 7.502v201.494c0 4.137-3.366 7.502-7.502 7.502H138.473a7.502 7.502 0 0 0 0 15.004h351.021c12.41 0 22.505-10.095 22.505-22.505V280.462a7.5 7.5 0 0 0-7.501-7.502z"/><path d="M207.92 191.614h-27.216c-6.895 0-12.503 5.608-12.503 12.503v27.216c0 6.895 5.608 12.503 12.503 12.503h27.216c6.895 0 12.503-5.608 12.503-12.503v-27.216c0-6.894-5.608-12.503-12.503-12.503zm-2.5 37.219h-22.215v-22.215h22.215v22.215zM269.608 191.614h-27.216c-6.895 0-12.503 5.608-12.503 12.503v27.216c0 6.895 5.608 12.503 12.503 12.503h27.216c6.895 0 12.503-5.608 12.503-12.503v-27.216c0-6.894-5.608-12.503-12.503-12.503zm-2.5 37.219h-22.215v-22.215h22.215v22.215zM331.296 191.614H304.08c-6.895 0-12.503 5.608-12.503 12.503v27.216c0 6.895 5.609 12.503 12.503 12.503h27.216c6.895 0 12.503-5.608 12.503-12.503v-27.216c0-6.894-5.608-12.503-12.503-12.503zm-2.501 37.219H306.58v-22.215h22.215v22.215zM392.985 191.614h-27.216c-6.895 0-12.503 5.608-12.503 12.503v27.216c0 6.895 5.608 12.503 12.503 12.503h27.216c6.895 0 12.503-5.608 12.503-12.503v-27.216c0-6.894-5.608-12.503-12.503-12.503zm-2.501 37.219h-22.215v-22.215h22.215v22.215zM454.673 191.614h-27.216c-6.895 0-12.503 5.608-12.503 12.503v27.216c0 6.895 5.608 12.503 12.503 12.503h27.216c6.895 0 12.503-5.608 12.503-12.503v-27.216c0-6.894-5.608-12.503-12.503-12.503zm-2.501 37.219h-22.215v-22.215h22.215v22.215zM84.543 259.672H57.327c-6.895 0-12.503 5.608-12.503 12.503v27.216c0 6.895 5.608 12.503 12.503 12.503h27.216c6.895 0 12.503-5.608 12.503-12.503v-27.216c0-6.895-5.608-12.503-12.503-12.503zm-2.5 37.218H59.828v-22.215h22.215v22.215zM146.231 259.672h-27.216c-6.895 0-12.503 5.608-12.503 12.503v27.216c0 6.895 5.609 12.503 12.503 12.503h27.216c6.895 0 12.503-5.608 12.503-12.503v-27.216c0-6.895-5.608-12.503-12.503-12.503zm-2.5 37.218h-22.215v-22.215h22.215v22.215zM207.92 259.672h-27.216c-6.895 0-12.503 5.608-12.503 12.503v27.216c0 6.895 5.608 12.503 12.503 12.503h27.216c6.895 0 12.503-5.608 12.503-12.503v-27.216c0-6.895-5.608-12.503-12.503-12.503zm-2.5 37.218h-22.215v-22.215h22.215v22.215zM269.608 259.672h-27.216c-6.895 0-12.503 5.608-12.503 12.503v27.216c0 6.895 5.608 12.503 12.503 12.503h27.216c6.895 0 12.503-5.608 12.503-12.503v-27.216c0-6.895-5.608-12.503-12.503-12.503zm-2.5 37.218h-22.215v-22.215h22.215v22.215zM331.296 259.672H304.08c-6.895 0-12.503 5.608-12.503 12.503v27.216c0 6.895 5.608 12.503 12.503 12.503h27.216c6.895 0 12.503-5.608 12.503-12.503v-27.216c0-6.895-5.608-12.503-12.503-12.503zm-2.501 37.218H306.58v-22.215h22.215v22.215zM392.985 259.672h-27.216c-6.895 0-12.503 5.608-12.503 12.503v27.216c0 6.895 5.608 12.503 12.503 12.503h27.216c6.895 0 12.503-5.608 12.503-12.503v-27.216c0-6.895-5.608-12.503-12.503-12.503zm-2.501 37.218h-22.215v-22.215h22.215v22.215zM454.673 259.672h-27.216c-6.895 0-12.503 5.608-12.503 12.503v27.216c0 6.895 5.608 12.503 12.503 12.503h27.216c6.895 0 12.503-5.608 12.503-12.503v-27.216c0-6.895-5.608-12.503-12.503-12.503zm-2.501 37.218h-22.215v-22.215h22.215v22.215zM84.543 327.728H57.327c-6.895 0-12.503 5.608-12.503 12.503v27.216c0 6.895 5.608 12.503 12.503 12.503h27.216c6.895 0 12.503-5.608 12.503-12.503v-27.216c0-6.895-5.608-12.503-12.503-12.503zm-2.5 37.219H59.828v-22.215h22.215v22.215zM146.231 327.728h-27.216c-6.895 0-12.503 5.608-12.503 12.503v27.216c0 6.895 5.608 12.503 12.503 12.503h27.216c6.895 0 12.503-5.608 12.503-12.503v-27.216c0-6.894-5.608-12.503-12.503-12.503zm-2.5 37.219h-22.215v-22.215h22.215v22.215zM207.92 327.728h-27.216c-6.895 0-12.503 5.608-12.503 12.503v27.216c0 6.895 5.608 12.503 12.503 12.503h27.216c6.895 0 12.503-5.608 12.503-12.503v-27.216c0-6.894-5.608-12.503-12.503-12.503zm-2.5 37.219h-22.215v-22.215h22.215v22.215zM269.608 327.728h-27.216c-6.895 0-12.503 5.608-12.503 12.503v27.216c0 6.895 5.608 12.503 12.503 12.503h27.216c6.895 0 12.503-5.608 12.503-12.503v-27.216c0-6.894-5.608-12.503-12.503-12.503zm-2.5 37.219h-22.215v-22.215h22.215v22.215zM331.296 327.728H304.08c-6.895 0-12.503 5.608-12.503 12.503v27.216c0 6.895 5.608 12.503 12.503 12.503h27.216c6.895 0 12.503-5.608 12.503-12.503v-27.216c0-6.894-5.608-12.503-12.503-12.503zm-2.501 37.219H306.58v-22.215h22.215v22.215zM392.985 327.728h-27.216c-6.895 0-12.503 5.608-12.503 12.503v27.216c0 6.895 5.608 12.503 12.503 12.503h27.216c6.895 0 12.503-5.608 12.503-12.503v-27.216c0-6.894-5.608-12.503-12.503-12.503zm-2.501 37.219h-22.215v-22.215h22.215v22.215zM454.673 327.728h-27.216c-6.895 0-12.503 5.608-12.503 12.503v27.216c0 6.895 5.608 12.503 12.503 12.503h27.216c6.895 0 12.503-5.608 12.503-12.503v-27.216c0-6.894-5.608-12.503-12.503-12.503zm-2.501 37.219h-22.215v-22.215h22.215v22.215zM84.543 395.785H57.327c-6.895 0-12.503 5.608-12.503 12.503v27.216c0 6.895 5.608 12.503 12.503 12.503h27.216c6.895 0 12.503-5.608 12.503-12.503v-27.216c0-6.895-5.608-12.503-12.503-12.503zm-2.5 37.219H59.828v-22.215h22.215v22.215zM146.231 395.786h-27.216c-6.895 0-12.503 5.608-12.503 12.503v27.216c0 6.895 5.608 12.503 12.503 12.503h27.216c6.895 0 12.503-5.609 12.503-12.503v-27.216c0-6.895-5.608-12.503-12.503-12.503zm-2.5 37.218h-22.215v-22.215h22.215v22.215zM207.92 395.786h-27.216c-6.895 0-12.503 5.608-12.503 12.503v27.216c0 6.895 5.608 12.503 12.503 12.503h27.216c6.895 0 12.503-5.608 12.503-12.503v-27.216c0-6.895-5.608-12.503-12.503-12.503zm-2.5 37.217h-22.215v-22.215h22.215v22.215zM269.608 395.786h-27.216c-6.895 0-12.503 5.608-12.503 12.503v27.216c0 6.895 5.608 12.503 12.503 12.503h27.216c6.895 0 12.503-5.608 12.503-12.503v-27.216c0-6.895-5.608-12.503-12.503-12.503zm-2.5 37.217h-22.215v-22.215h22.215v22.215z"/></svg>