<svg xmlns="http://www.w3.org/2000/svg" viewBox="0 0 511.999 511.999"><path d="M480.452 80.161h-16.548V63.612c0-8.556-6.96-15.517-15.516-15.517h-16.032c-8.556 0-15.516 6.961-15.516 15.517V80.16H95.161V63.612c0-8.556-6.96-15.517-15.516-15.517H63.613c-8.556 0-15.516 6.961-15.516 15.517V80.16H31.548C14.152 80.161 0 94.313 0 111.71v320.645c0 17.396 14.152 31.549 31.548 31.549h448.903c17.396 0 31.548-14.152 31.548-31.549V111.71c.001-17.397-14.151-31.549-31.547-31.549zm-48.613-16.549c0-.285.231-.516.516-.516h16.032c.285 0 .516.231.516.517v32.064a.517.517 0 0 1-.516.516h-16.032a.516.516 0 0 1-.516-.516V63.612zm-368.742 0c0-.285.231-.516.516-.516h16.032c.285 0 .516.231.516.517v32.064a.517.517 0 0 1-.516.516H63.613a.516.516 0 0 1-.516-.516V63.612zm417.355 385.291H31.548c-9.125 0-16.548-7.424-16.548-16.549V111.71c0-9.125 7.423-16.549 16.548-16.549h16.548v.517c0 8.556 6.96 15.516 15.516 15.516h16.032c8.556 0 15.516-6.96 15.516-15.516v-.517h321.678v.517c0 8.556 6.96 15.516 15.516 15.516h16.032c8.556 0 15.516-6.96 15.516-15.516v-.517h16.548c9.125 0 16.548 7.424 16.548 16.549v320.644H497c0 9.125-7.423 16.549-16.548 16.549z"/><path d="M472.436 128.258H39.564c-4.142 0-7.5 3.357-7.5 7.5s3.358 7.5 7.5 7.5h432.871c4.142 0 7.5-3.357 7.5-7.5s-3.357-7.5-7.499-7.5zM111.71 192.386H63.613c-4.142 0-7.5 3.357-7.5 7.5s3.358 7.5 7.5 7.5h48.097c4.142 0 7.5-3.357 7.5-7.5s-3.358-7.5-7.5-7.5zM223.936 192.386h-48.097c-4.142 0-7.5 3.357-7.5 7.5s3.358 7.5 7.5 7.5h48.097c4.142 0 7.5-3.357 7.5-7.5s-3.358-7.5-7.5-7.5zM448.387 192.386H400.29c-4.142 0-7.5 3.357-7.5 7.5s3.358 7.5 7.5 7.5h48.097c4.142 0 7.5-3.357 7.5-7.5s-3.358-7.5-7.5-7.5zM111.71 256.516H63.613c-4.142 0-7.5 3.357-7.5 7.5s3.358 7.5 7.5 7.5h48.097c4.142 0 7.5-3.357 7.5-7.5s-3.358-7.5-7.5-7.5zM336.161 256.516h-48.097c-4.142 0-7.5 3.357-7.5 7.5s3.358 7.5 7.5 7.5h48.097c4.142 0 7.5-3.357 7.5-7.5s-3.358-7.5-7.5-7.5zM111.71 320.646H63.613c-4.142 0-7.5 3.357-7.5 7.5s3.358 7.5 7.5 7.5h48.097c4.142 0 7.5-3.357 7.5-7.5s-3.358-7.5-7.5-7.5zM223.936 320.646h-48.097c-4.142 0-7.5 3.357-7.5 7.5s3.358 7.5 7.5 7.5h48.097c4.142 0 7.5-3.357 7.5-7.5s-3.358-7.5-7.5-7.5zM448.387 320.646H400.29c-4.142 0-7.5 3.357-7.5 7.5s3.358 7.5 7.5 7.5h48.097c4.142 0 7.5-3.357 7.5-7.5s-3.358-7.5-7.5-7.5zM223.936 384.773h-48.097c-4.142 0-7.5 3.357-7.5 7.5s3.358 7.5 7.5 7.5h48.097c4.142 0 7.5-3.357 7.5-7.5s-3.358-7.5-7.5-7.5zM336.161 384.773h-48.097c-4.142 0-7.5 3.357-7.5 7.5s3.358 7.5 7.5 7.5h48.097c4.142 0 7.5-3.357 7.5-7.5s-3.358-7.5-7.5-7.5zM448.387 384.773H400.29c-4.142 0-7.5 3.357-7.5 7.5s3.358 7.5 7.5 7.5h48.097c4.142 0 7.5-3.357 7.5-7.5s-3.358-7.5-7.5-7.5zM229.238 242.681a7.5 7.5 0 0 0-10.606-.001l-26.761 26.763-10.729-10.729a7.501 7.501 0 0 0-10.606 10.607l16.032 16.032a7.5 7.5 0 0 0 10.606-.001l32.064-32.064a7.5 7.5 0 0 0 0-10.607zM453.69 242.681a7.5 7.5 0 0 0-10.606-.001l-26.761 26.763-10.729-10.729a7.501 7.501 0 0 0-10.606 10.607l16.032 16.032a7.5 7.5 0 0 0 10.606-.001l32.064-32.064a7.5 7.5 0 0 0 0-10.607zM341.464 306.81a7.5 7.5 0 0 0-10.606-.001l-26.761 26.762-10.729-10.729a7.501 7.501 0 0 0-10.606 10.607l16.032 16.032c1.464 1.464 3.384 2.196 5.303 2.196s3.839-.732 5.303-2.196l32.064-32.064a7.5 7.5 0 0 0 0-10.607zM117.012 370.939a7.502 7.502 0 0 0-10.606-.001L79.645 397.7l-10.729-10.729a7.501 7.501 0 0 0-10.606 10.607l16.032 16.032c1.464 1.464 3.384 2.196 5.303 2.196s3.839-.732 5.303-2.196l32.064-32.064a7.5 7.5 0 0 0 0-10.607zM341.464 178.552a7.5 7.5 0 0 0-10.606-.001l-26.761 26.762-10.729-10.729a7.501 7.501 0 0 0-10.606 10.607l16.032 16.032c1.464 1.464 3.384 2.196 5.303 2.196s3.839-.732 5.303-2.196l32.064-32.064a7.5 7.5 0 0 0 0-10.607z"/></svg>