<svg xmlns="http://www.w3.org/2000/svg" viewBox="0 0 511.997 511.997"><path d="M397.755 148.809a7.484 7.484 0 0 0-2.445-5.535l-22.354-32.01c6.724-.208 12.133-5.729 12.133-12.502v-19.17c0-6.905-5.617-12.522-12.522-12.522h-138.51V31.542C234.057 14.15 219.907 0 202.516 0h-11.213C173.91 0 159.76 14.15 159.76 31.542V67.07h-20.33c-6.905 0-12.522 5.617-12.522 12.522v19.169c0 6.773 5.409 12.294 12.133 12.502l-22.357 32.013a7.482 7.482 0 0 0-2.442 5.532c0 .296.022.586.055.873-.033.378-.055.758-.055 1.14v277.425c0 .193.013.384.022.575-.008.144-.022.286-.022.431a7.47 7.47 0 0 0 .685 3.121 12.843 12.843 0 0 0 1.633 3.24l22.481 32.191c-6.724.208-12.133 5.729-12.133 12.502v19.169c0 6.905 5.617 12.522 12.522 12.522h233.136c6.905 0 12.522-5.617 12.522-12.522v-19.169c0-6.773-5.409-12.294-12.133-12.502l22.483-32.195a12.879 12.879 0 0 0 1.63-3.234 7.477 7.477 0 0 0 .686-3.123c0-.146-.014-.288-.022-.431.008-.192.022-.382.022-.575V150.823c0-.383-.022-.762-.055-1.14.033-.287.056-.578.056-.874zM191.302 15.026h11.213c9.107 0 16.516 7.409 16.516 16.516V67.07h-44.244V31.542h-.001c0-9.107 7.409-16.516 16.516-16.516zm-49.367 67.071h228.128v14.161H141.934V82.097zm15.42 29.187H354.64l20.959 30.012H136.396l20.959-30.012zm-28.086 45.038h31.537c-6.653 21.12-18.648 73.176-7.788 150.87.013.095.028.191.046.285.148.829 13.921 78.3 11.632 114.264h-35.427V156.322zm240.794 340.652H141.935v-14.161h228.128v14.161zm12.666-75.233h-57.108a7.513 7.513 0 1 0 0 15.026h50.682l-21.663 31.019H157.355l-21.663-31.019h138.339a7.513 7.513 0 1 0 0-15.026h-31.029c2.803-16.524 5.374-54.029-9.813-117.309-4.395-18.312-7.02-38.51-7.589-58.408a7.502 7.502 0 0 0-7.725-7.295 7.514 7.514 0 0 0-7.295 7.725c.608 21.218 3.299 41.904 7.998 61.485 15.636 65.148 11.57 101.344 9.129 113.802h-47.973c2.035-38.093-10.962-111.785-11.852-116.77-11.307-81.08 3.583-133.563 8.798-148.649h46.054c-3.79 11.066-6.749 23.176-8.817 36.103a7.514 7.514 0 0 0 6.232 8.606 7.508 7.508 0 0 0 8.606-6.232c2.245-14.034 5.604-26.958 9.966-38.477h144.008v265.419z"/><path d="M196.834 20.245c-9.754 0-17.689 7.935-17.689 17.689 0 9.754 7.935 17.689 17.689 17.689 9.754 0 17.689-7.935 17.689-17.689 0-9.754-7.934-17.689-17.689-17.689zm0 20.352a2.667 2.667 0 0 1-2.663-2.663 2.666 2.666 0 0 1 2.663-2.663 2.666 2.666 0 0 1 2.663 2.663 2.667 2.667 0 0 1-2.663 2.663z"/></svg>