<svg xmlns="http://www.w3.org/2000/svg" viewBox="0 0 512 512"><path d="M503.684 298.314H353.846a8.038 8.038 0 0 1-7.227-4.467l-28.339-56.678a8.078 8.078 0 0 0-7.227-4.467h-.036a8.082 8.082 0 0 0-7.224 4.531l-38.145 78.025a8.141 8.141 0 0 1-7.261 4.533 8.028 8.028 0 0 1-7.253-4.518l-53.139-108.176a8.08 8.08 0 0 0-14.329-.337l-49.459 89.759a8.08 8.08 0 0 1-7.076 4.18H82.87a8.27 8.27 0 0 0-.822.041 8.058 8.058 0 0 0-6.658 2.358 8.08 8.08 0 0 0 .095 11.427l137.63 135.437c2.936 2.828 13.706 12.388 29.04 16.677 4.368 1.223 9.421 2.092 14.96 2.092 12.5 0 27.463-4.435 42.535-19.265l137.182-134.993h66.853c4.464 0 8.081-3.617 8.081-8.081s-3.619-8.078-8.082-8.078zM288.311 437.952c-30.308 29.823-58.618 5.543-63.913.441l-123.5-121.533h26.231a24.242 24.242 0 0 0 21.231-12.543l41.971-76.168 46.299 94.248c4.107 8.361 12.444 13.554 21.781 13.554 9.183-.01 17.721-5.345 21.756-13.595l30.968-63.345 21.031 42.062c4.133 8.266 12.441 13.401 21.682 13.401h59.945L288.311 437.952z"/><path d="M512 177.404c0-43.82-21.483-84.971-57.465-110.078a8.08 8.08 0 0 0-9.248 13.253c31.655 22.087 50.553 58.282 50.553 96.824 0 1.224-.026 2.567-.079 4.108-.008.191-.008.38 0 .571 1.128 31.24-10.791 61.728-32.73 83.909h-94.2l-36.255-72.513c-4.133-8.266-12.441-13.401-21.79-13.401-9.288.042-17.593 5.25-21.672 13.595l-30.776 62.952-45.013-91.629c-3.998-8.143-12.117-13.334-21.201-13.548a24.177 24.177 0 0 0-21.788 12.536L112.81 268.377H51.374a8.109 8.109 0 0 0-1.074-1.307c-21.999-21.648-34.027-50.578-33.868-81.461a7.967 7.967 0 0 0-.016-.557 118.867 118.867 0 0 1-.254-7.65c0-65.052 52.923-117.975 117.975-117.975 50.94 0 95.944 32.461 111.986 80.775a8.088 8.088 0 0 0 2 3.213l2.338 2.302a8.083 8.083 0 0 0 11.336.002l1.961-1.93a8.071 8.071 0 0 0 2.009-3.239c15.943-48.523 60.99-81.123 112.098-81.123 15.455 0 30.475 2.94 44.645 8.739a8.081 8.081 0 0 0 6.121-14.957c-16.123-6.597-33.203-9.942-50.767-9.942-52.952 0-100.183 30.78-121.863 77.997-21.688-47.201-68.96-77.997-121.865-77.997C60.173 43.268 0 103.442 0 177.404c0 2.694.091 5.52.269 8.402-.094 30.524 10.242 59.36 29.355 82.573H8.081a8.081 8.081 0 0 0 0 16.161h109.501a8.078 8.078 0 0 0 7.077-4.181l59.828-108.576c1.435-2.604 4.277-4.259 7.267-4.178a8.054 8.054 0 0 1 7.063 4.515l52.284 106.431a8.08 8.08 0 0 0 7.252 4.518h.008a8.086 8.086 0 0 0 7.253-4.531l38.018-77.766c1.36-2.782 4.128-4.518 7.26-4.531 3.08 0 5.85 1.711 7.227 4.467l38.49 76.981a8.08 8.08 0 0 0 7.227 4.467h100.108c1.6 0 3.087-.471 4.341-1.272a8.04 8.04 0 0 0 5.013-2.291c25.781-25.368 39.849-60.636 38.625-96.803.051-1.615.077-3.052.077-4.386z"/></svg>