<svg xmlns="http://www.w3.org/2000/svg" viewBox="0 0 512.002 512.002"><path d="M135.698 403.813c-23.09 0-41.875 18.785-41.875 41.875s18.785 41.875 41.875 41.875 41.874-18.785 41.874-41.875c.001-23.09-18.783-41.875-41.874-41.875zm0 67.558c-14.162 0-25.683-11.521-25.683-25.683s11.521-25.683 25.683-25.683c14.161 0 25.682 11.521 25.682 25.683s-11.521 25.683-25.682 25.683z"/><path d="M465.175 358.436c-21.268-20.105-53.264-22.443-66.532-22.48l-31.112-78.732-.016-.041-20.367-51.538-.019-.051-31.87-80.649a8.045 8.045 0 0 0-.719-1.4c-7.483-11.647-20.222-18.598-34.08-18.598a40.358 40.358 0 0 0-21.847 6.425l-6.968 4.477-8.909-56.745c-.694-4.417-4.84-7.437-9.253-6.742a8.094 8.094 0 0 0-6.742 9.253l10.017 63.801-4.231 2.718-7.746 4.977-17.698-29.821-9.747-59.065 23.47-20.414 2.373 15.114a8.098 8.098 0 0 0 9.253 6.742 8.094 8.094 0 0 0 6.742-9.253l-4.642-29.571a8.1 8.1 0 0 0-5.225-6.351 8.092 8.092 0 0 0-8.086 1.497l-37.923 32.984a8.096 8.096 0 0 0-2.675 7.427l3.947 23.915-30.723-51.107a8.09 8.09 0 0 0-5.938-3.862 8.087 8.087 0 0 0-6.705 2.289l-40.43 40.145a8.099 8.099 0 0 0-.73 10.659l32.37 42.396-37.02-21.429a8.095 8.095 0 0 0-8.733.399l-38.95 27.571a8.097 8.097 0 0 0 .672 13.643l98.558 56.1-4.084 2.624c-18.773 12.063-24.234 37.152-12.176 55.927.285.443.612.856.976 1.236l50.917 52.95-6.595 32.1a8.097 8.097 0 0 0 15.861 3.257l4.354-21.192 23.372 24.305c-30.1 2.236-57.147 19.703-71.586 46.213a66.325 66.325 0 0 0-12.286-1.159c-36.564 0-66.313 29.747-66.313 66.312 0 36.564 29.747 66.313 66.313 66.313 15.709 0 30.149-5.501 41.522-14.663 14.519 9.607 31.296 14.663 48.924 14.663 45.66 0 83.378-34.583 88.381-78.929l59.807 62.197.331.344c2.562 2.61 16.252 15.63 34.208 15.632h.003c7.297 0 14.304-2.125 20.825-6.316 20.805-13.366 20.756-37.42 14.374-54.001l-.119-.307-.059-.145-38.758-98.081c13.101.82 34.653 4.327 48.913 17.807a8.067 8.067 0 0 0 5.56 2.213c2.147 0 4.292-.85 5.884-2.535a8.093 8.093 0 0 0-.315-11.448zM117.226 60.26l28.06-27.863 65.823 109.493-21.171 13.602-72.712-95.232zM67.45 119.242l24.326-17.22 66.087 38.255 18.394 24.008-13.94 8.956-94.867-53.999zm118.312 328.773c-.013.268-.032.534-.049.802a52.537 52.537 0 0 1-.211 2.458c-.049.431-.105.859-.164 1.288-.049.349-.093.697-.149 1.046-.062.383-.135.762-.204 1.142a48.738 48.738 0 0 1-.471 2.267c-.06.259-.116.519-.18.777-.111.446-.234.889-.357 1.332-.077.275-.153.551-.234.825-.125.422-.257.841-.393 1.26-6.552 20.059-25.428 34.595-47.647 34.595-27.64 0-50.124-22.484-50.124-50.12 0-27.636 22.484-50.119 50.12-50.119 5.064 0 9.953.762 14.564 2.164.33.1.657.209.984.316.411.135.822.271 1.227.416a48.751 48.751 0 0 1 2.17.834c.282.115.563.23.842.35.435.188.864.385 1.292.585.261.122.526.237.784.364.485.236.961.486 1.437.737.582.308 1.155.627 1.723.956.174.1.351.199.524.301a52.855 52.855 0 0 1 1.711 1.069c12.16 7.948 20.517 20.995 22.437 35.597.024.187.05.374.071.561a46.745 46.745 0 0 1 .235 2.569c.023.331.046.661.063.993.035.765.058 1.533.058 2.307 0 .782-.024 1.557-.059 2.328zm40.383 47.792c-13.369 0-26.14-3.546-37.392-10.323a65.945 65.945 0 0 0 5.654-8.903 62.243 62.243 0 0 0 31.74 8.716c16.45 0 31.964-6.358 43.682-17.901a8.096 8.096 0 0 0 .085-11.449c-3.138-3.184-8.265-3.225-11.449-.085-8.67 8.54-20.148 13.244-32.319 13.244a46.05 46.05 0 0 1-25.935-8.007 66.183 66.183 0 0 0 1.026-5.285l.022-.15a69.196 69.196 0 0 0 .438-3.596c.066-.697.121-1.397.165-2.1.013-.198.029-.394.04-.591l.028-.548c.049-1.044.08-2.09.08-3.141 0-.902-.024-1.802-.06-2.699-.008-.195-.013-.392-.023-.587-.012-.234-.034-.465-.048-.7l-.008-.11c-.023-.355-.043-.709-.071-1.062-.037-.489-.074-.978-.122-1.464-.017-.177-.041-.352-.059-.528a63.226 63.226 0 0 0-.366-2.867l-.028-.177c-1.919-12.571-7.373-24.206-15.913-33.791 7.883-15.174 23.414-24.73 40.835-24.73 25.4 0 46.065 20.666 46.065 46.066 0 5.197-.856 10.292-2.545 15.143a8.096 8.096 0 0 0 4.984 10.308c4.215 1.467 8.837-.762 10.308-4.984a62.108 62.108 0 0 0 3.446-20.467c0-34.33-27.928-62.258-62.257-62.258-22.214 0-42.144 11.502-53.274 30.025a66.376 66.376 0 0 0-4.245-2.638c-.282-.162-.562-.328-.847-.487a65.978 65.978 0 0 0-1.286-.691c-.452-.24-.909-.473-1.368-.702-.364-.18-.727-.363-1.094-.538-.102-.049-.201-.101-.302-.149 13.047-21.706 36.706-35.331 62.413-35.331 4.305 0 8.516.397 12.618 1.117 2.476.433 4.911.994 7.295 1.674.305.087.612.169.915.26.715.214 1.424.444 2.129.679a70.329 70.329 0 0 1 3.067 1.097l.394.155c24.354 9.555 42.383 31.962 45.748 58.562.384 3.023.604 6.096.604 9.221.001 40.129-32.644 72.772-72.77 72.772zm202.729-39.286l.044.107.063.159c1.512 3.931 8.234 24.069-8.032 34.521-3.923 2.521-7.871 3.746-12.072 3.746h-.002c-11.601-.001-21.349-9.463-22.614-10.742l-49.844-51.836 25.035-16.084a8.095 8.095 0 0 0 2.435-11.187c-2.417-3.762-7.428-4.853-11.187-2.435l-27.722 17.81-10.955-11.392c-5.229-33.301-29-60.514-60.379-70.74l-.253-.086a88.27 88.27 0 0 0-2.505-.758 86.556 86.556 0 0 0-3.618-.972c-.48-.118-.964-.225-1.447-.335-.786-.178-1.572-.359-2.365-.516l-.026-.005-72.55-75.445 47.259-30.363a8.097 8.097 0 0 0-8.753-13.622l-49.946 32.089-15.523-16.143c-6.724-11.19-3.364-25.825 7.692-32.929l15.33-9.849.008-.004 25.463-16.36 34.063-21.884 22.201-14.265 18.689-12.007a24.19 24.19 0 0 1 13.095-3.856c8.073 0 15.515 3.929 20.051 10.547l29.1 73.639-35.526 22.826a8.095 8.095 0 0 0 4.383 14.908 8.059 8.059 0 0 0 4.369-1.286l32.839-21.099 14.318 36.235-71.314 45.819a8.095 8.095 0 0 0 4.383 14.908 8.059 8.059 0 0 0 4.369-1.286l68.627-44.093 72.817 184.265z"/></svg>