<?xml version="1.0" encoding="iso-8859-1"?>
<!-- Generator: Adobe Illustrator 19.0.0, SVG Export Plug-In . SVG Version: 6.00 Build 0)  -->
<svg version="1.1" id="Layer_1" xmlns="http://www.w3.org/2000/svg" xmlns:xlink="http://www.w3.org/1999/xlink" x="0px" y="0px"
	 viewBox="0 0 512.002 512.002" style="enable-background:new 0 0 512.002 512.002;" xml:space="preserve">
<g>
	<g>
		<g>
			<path d="M135.698,403.813c-23.09,0-41.875,18.785-41.875,41.875c0,23.09,18.785,41.875,41.875,41.875
				s41.874-18.785,41.874-41.875C177.573,422.598,158.789,403.813,135.698,403.813z M135.698,471.371
				c-14.162,0-25.683-11.521-25.683-25.683s11.521-25.683,25.683-25.683c14.161,0,25.682,11.521,25.682,25.683
				S149.859,471.371,135.698,471.371z"/>
			<path d="M465.175,358.436c-21.268-20.105-53.264-22.443-66.532-22.48l-31.112-78.732c-0.005-0.014-0.011-0.027-0.016-0.041
				l-20.367-51.538c-0.007-0.017-0.013-0.034-0.019-0.051l-31.87-80.649c-0.194-0.489-0.434-0.959-0.719-1.4
				c-7.483-11.647-20.222-18.598-34.08-18.598c-7.749,0-15.302,2.222-21.847,6.425l-6.968,4.477l-8.909-56.745
				c-0.694-4.417-4.84-7.437-9.253-6.742c-4.417,0.694-7.437,4.836-6.742,9.253l10.017,63.801l-4.231,2.718l-7.746,4.977
				l-17.698-29.821l-9.747-59.065l23.47-20.414l2.373,15.114c0.694,4.417,4.837,7.433,9.253,6.742
				c4.417-0.694,7.437-4.836,6.742-9.253l-4.642-29.571c-0.457-2.909-2.458-5.341-5.225-6.351c-2.768-1.011-5.864-0.435-8.086,1.497
				l-37.923,32.984c-2.12,1.844-3.133,4.656-2.675,7.427l3.947,23.915l-30.723-51.107c-1.281-2.132-3.471-3.556-5.938-3.862
				c-2.467-0.311-4.94,0.537-6.705,2.289L100.774,53.78c-2.885,2.865-3.197,7.427-0.73,10.659l32.37,42.396l-37.02-21.429
				c-2.74-1.586-6.151-1.429-8.733,0.399l-38.95,27.571c-2.259,1.599-3.545,4.242-3.409,7.006c0.136,2.766,1.675,5.269,4.081,6.637
				l98.558,56.1l-4.084,2.624c-18.773,12.063-24.234,37.152-12.176,55.927c0.285,0.443,0.612,0.856,0.976,1.236l50.917,52.95
				l-6.595,32.1c-0.899,4.38,1.922,8.659,6.301,9.559c0.549,0.112,1.098,0.167,1.638,0.167c3.763,0,7.135-2.638,7.922-6.469
				l4.354-21.192l23.372,24.305c-30.1,2.236-57.147,19.703-71.586,46.213c-3.984-0.75-8.086-1.159-12.286-1.159
				c-36.564,0-66.313,29.747-66.313,66.312c0,36.564,29.747,66.313,66.313,66.313c15.709,0,30.149-5.501,41.522-14.663
				c14.519,9.607,31.296,14.663,48.924,14.663c45.66,0,83.378-34.583,88.381-78.929l59.807,62.197l0.331,0.344
				c2.562,2.61,16.252,15.63,34.208,15.632c0.001,0,0.002,0,0.003,0c7.297,0,14.304-2.125,20.825-6.316
				c20.805-13.366,20.756-37.42,14.374-54.001l-0.119-0.307c-0.018-0.044-0.038-0.094-0.059-0.145l-38.758-98.081
				c13.101,0.82,34.653,4.327,48.913,17.807c1.564,1.479,3.564,2.213,5.56,2.213c2.147,0,4.292-0.85,5.884-2.535
				C468.569,366.632,468.424,361.508,465.175,358.436z M117.226,60.26l28.06-27.863l65.823,109.493l-21.171,13.602L117.226,60.26z
				 M67.45,119.242l24.326-17.22l66.087,38.255l18.394,24.008l-13.94,8.956L67.45,119.242z M185.762,448.015
				c-0.013,0.268-0.032,0.534-0.049,0.802c-0.031,0.499-0.068,0.995-0.113,1.491c-0.03,0.323-0.062,0.646-0.098,0.967
				c-0.049,0.431-0.105,0.859-0.164,1.288c-0.049,0.349-0.093,0.697-0.149,1.046c-0.062,0.383-0.135,0.762-0.204,1.142
				c-0.139,0.759-0.296,1.515-0.471,2.267c-0.06,0.259-0.116,0.519-0.18,0.777c-0.111,0.446-0.234,0.889-0.357,1.332
				c-0.077,0.275-0.153,0.551-0.234,0.825c-0.125,0.422-0.257,0.841-0.393,1.26c-6.552,20.059-25.428,34.595-47.647,34.595
				c-27.64,0-50.124-22.484-50.124-50.12c0-27.636,22.484-50.119,50.12-50.119c5.064,0,9.953,0.762,14.564,2.164
				c0.33,0.1,0.657,0.209,0.984,0.316c0.411,0.135,0.822,0.271,1.227,0.416c0.302,0.108,0.602,0.219,0.902,0.333
				c0.425,0.161,0.849,0.328,1.268,0.501c0.282,0.115,0.563,0.23,0.842,0.35c0.435,0.188,0.864,0.385,1.292,0.585
				c0.261,0.122,0.526,0.237,0.784,0.364c0.485,0.236,0.961,0.486,1.437,0.737c0.582,0.308,1.155,0.627,1.723,0.956
				c0.174,0.1,0.351,0.199,0.524,0.301c0.491,0.294,0.976,0.597,1.456,0.906c0.085,0.055,0.169,0.109,0.255,0.163
				c12.16,7.948,20.517,20.995,22.437,35.597c0.024,0.187,0.05,0.374,0.071,0.561c0.055,0.459,0.101,0.92,0.144,1.381
				c0.036,0.395,0.065,0.791,0.091,1.188c0.023,0.331,0.046,0.661,0.063,0.993c0.035,0.765,0.058,1.533,0.058,2.307
				C185.821,446.469,185.797,447.244,185.762,448.015z M226.145,495.807c-13.369,0-26.14-3.546-37.392-10.323
				c2.131-2.828,4.018-5.804,5.654-8.903c9.553,5.666,20.513,8.716,31.74,8.716c16.45,0,31.964-6.358,43.682-17.901
				c3.185-3.137,3.223-8.263,0.085-11.449c-3.138-3.184-8.265-3.225-11.449-0.085c-8.67,8.54-20.148,13.244-32.319,13.244
				c-9.284,0-18.322-2.815-25.935-8.007c0.412-1.741,0.755-3.504,1.026-5.285c0.008-0.05,0.014-0.099,0.022-0.15
				c0.141-0.946,0.262-1.897,0.364-2.852c0.027-0.247,0.051-0.496,0.074-0.744c0.066-0.697,0.121-1.397,0.165-2.1
				c0.013-0.198,0.029-0.394,0.04-0.591c0.01-0.182,0.019-0.365,0.028-0.548c0.049-1.044,0.08-2.09,0.08-3.141
				c0-0.902-0.024-1.802-0.06-2.699c-0.008-0.195-0.013-0.392-0.023-0.587c-0.012-0.234-0.034-0.465-0.048-0.7
				c-0.002-0.037-0.005-0.073-0.008-0.11c-0.023-0.355-0.043-0.709-0.071-1.062c-0.037-0.489-0.074-0.978-0.122-1.464
				c-0.017-0.177-0.041-0.352-0.059-0.528c-0.101-0.961-0.222-1.917-0.366-2.867c-0.009-0.059-0.019-0.118-0.028-0.177
				c-1.919-12.571-7.373-24.206-15.913-33.791c7.883-15.174,23.414-24.73,40.835-24.73c25.4,0,46.065,20.666,46.065,46.066
				c0,5.197-0.856,10.292-2.545,15.143c-1.47,4.222,0.761,8.838,4.984,10.308c4.215,1.467,8.837-0.762,10.308-4.984
				c2.286-6.567,3.446-13.454,3.446-20.467c0-34.33-27.928-62.258-62.257-62.258c-22.214,0-42.144,11.502-53.274,30.025
				c-1.376-0.935-2.797-1.806-4.245-2.638c-0.282-0.162-0.562-0.328-0.847-0.487c-0.425-0.236-0.855-0.464-1.286-0.691
				c-0.452-0.24-0.909-0.473-1.368-0.702c-0.364-0.18-0.727-0.363-1.094-0.538c-0.102-0.049-0.201-0.101-0.302-0.149
				c13.047-21.706,36.706-35.331,62.413-35.331c4.305,0,8.516,0.397,12.618,1.117c2.476,0.433,4.911,0.994,7.295,1.674
				c0.305,0.087,0.612,0.169,0.915,0.26c0.715,0.214,1.424,0.444,2.129,0.679c0.272,0.091,0.543,0.182,0.814,0.276
				c0.756,0.262,1.508,0.534,2.253,0.821c0.132,0.051,0.262,0.104,0.394,0.155c24.354,9.555,42.383,31.962,45.748,58.562
				c0.384,3.023,0.604,6.096,0.604,9.221C298.916,463.164,266.271,495.807,226.145,495.807z M428.874,456.521
				c0.014,0.033,0.029,0.069,0.044,0.107l0.063,0.159c1.512,3.931,8.234,24.069-8.032,34.521c-3.923,2.521-7.871,3.746-12.072,3.746
				c-0.001,0-0.002,0-0.002,0c-11.601-0.001-21.349-9.463-22.614-10.742l-49.844-51.836l25.035-16.084
				c3.762-2.416,4.852-7.426,2.435-11.187c-2.417-3.762-7.428-4.853-11.187-2.435l-27.722,17.81l-10.955-11.392
				c-5.229-33.301-29-60.514-60.379-70.74c-0.084-0.028-0.168-0.058-0.253-0.086c-0.829-0.268-1.666-0.514-2.505-0.758
				c-0.423-0.123-0.847-0.245-1.274-0.363c-0.777-0.213-1.558-0.417-2.344-0.609c-0.48-0.118-0.964-0.225-1.447-0.335
				c-0.786-0.178-1.572-0.359-2.365-0.516c-0.009-0.002-0.017-0.004-0.026-0.005l-72.55-75.445l47.259-30.363
				c3.762-2.416,4.852-7.426,2.435-11.187s-7.426-4.852-11.188-2.435l-49.946,32.089l-15.523-16.143
				c-6.724-11.19-3.364-25.825,7.692-32.929l15.33-9.849c0.002-0.001,0.005-0.002,0.008-0.004l25.463-16.36l34.063-21.884
				l22.201-14.265l18.689-12.007c3.928-2.523,8.456-3.856,13.095-3.856c8.073,0,15.515,3.929,20.051,10.547l29.1,73.639
				l-35.526,22.826c-3.762,2.416-4.852,7.426-2.435,11.187c1.547,2.407,4.155,3.721,6.818,3.721c1.499,0,3.015-0.416,4.369-1.286
				l32.839-21.099l14.318,36.235l-71.314,45.819c-3.762,2.416-4.852,7.426-2.435,11.187c1.547,2.407,4.155,3.721,6.818,3.721
				c1.499,0,3.015-0.416,4.369-1.286l68.627-44.093L428.874,456.521z"/>
		</g>
	</g>
</g>
<g>
</g>
<g>
</g>
<g>
</g>
<g>
</g>
<g>
</g>
<g>
</g>
<g>
</g>
<g>
</g>
<g>
</g>
<g>
</g>
<g>
</g>
<g>
</g>
<g>
</g>
<g>
</g>
<g>
</g>
</svg>
