<svg xmlns="http://www.w3.org/2000/svg" viewBox="0 0 511.998 511.998"><path d="M275.039 279.119h-30.898c-4.143 0-7.5 3.357-7.5 7.5s3.357 7.5 7.5 7.5h30.898c4.143 0 7.5-3.357 7.5-7.5s-3.357-7.5-7.5-7.5zM292.87 373.371h-30.898a7.499 7.499 0 0 0-7.5 7.5c0 4.143 3.357 7.5 7.5 7.5h30.898c4.143 0 7.5-3.357 7.5-7.5a7.499 7.499 0 0 0-7.5-7.5z"/><path d="M364.826 232.53c-5.259-22.444-19.031-42.062-38.527-54.709 18.476-21.158 16.933-35.799 11.896-44.628-.229-.4-.307-.954-.012-1.237 22.937-22.124 27.683-50.275 7.6-76.1a10.56 10.56 0 0 1-2.205-5.94c-.553-10.108-4.612-34.775-30.322-45.487a7.5 7.5 0 1 0-5.771 13.847c17.219 7.175 20.619 23.417 21.112 32.46.287 5.252 2.135 10.209 5.344 14.333 18.414 23.679 6.807 43.572-6.172 56.09-5.207 5.02-6.279 13.023-2.606 19.467 3.773 6.616-.775 17.385-12.505 29.924a87.16 87.16 0 0 0-14.645-4.809c18.082-48.376 3.987-108.373 3.352-111.005a7.498 7.498 0 0 0-9.044-5.533 7.502 7.502 0 0 0-5.539 9.044c.147.613 14.272 60.922-4.021 105.318-2.323-.14-4.648-.205-6.982-.205 10.248-24.872 10.199-51.461-8.708-71.033-2.578-2.669-5.052-3.875-3.768-7.237 6.971-18.209 5.266-37.468-2.803-53.122 4.766-6.373 10.951-11.334 17.756-14.172a7.5 7.5 0 1 0-5.775-13.845c-7.786 3.247-14.927 8.477-20.788 15.111-30.903-35.099-89.16-19.934-91.932 30.859a10.568 10.568 0 0 1-2.205 5.941c-11.644 14.97-15.358 31.288-10.745 47.192 3.731 12.867 12.036 22.821 18.346 28.906.293.283.215.837-.014 1.237-5.604 9.829-6.647 26.356 17.523 50.621-24.263 19.964-36.305 51.018-31.742 82.03 10.095 68.61 34.637 165.899 94.225 239.752 6.894 8.542 19.969 8.531 26.852-.001 34.13-42.3 60.375-96.609 78.007-161.421a7.502 7.502 0 0 0-5.269-9.207c-3.99-1.08-8.118 1.271-9.206 5.269-17.084 62.797-42.387 115.262-75.207 155.94-.886 1.099-2.62 1.095-3.502 0-34.344-42.565-56.646-93.455-71.135-141.77h21.42c4.143 0 7.5-3.357 7.5-7.5s-3.357-7.5-7.5-7.5H181.41c-7.344-27.12-12.304-53.04-15.645-75.745a74.055 74.055 0 0 1-.012-21.337h23.006c4.143 0 7.5-3.357 7.5-7.5s-3.357-7.5-7.5-7.5h-19.222c10.987-29.934 39.396-48.966 70.199-48.966 42.484 0 51.29-1.316 68.978 6.857 17.486 8.049 31.828 22.844 38.898 42.107h-20.826c-4.143 0-7.5 3.357-7.5 7.5s3.357 7.5 7.5 7.5h24.61c1.461 10.163 1.663 19.904-7.524 63.327a7.502 7.502 0 0 0 5.785 8.891c4.052.852 8.032-1.733 8.891-5.785 4.287-20.258 12.585-56.581 6.278-76.229zm-104.234-71.835c-.347.77-1 2.287-1.157 2.662-9.174 0-18.419-.427-28.089.469-24.761-48.077-19.551-109.625-19.473-110.479a7.5 7.5 0 0 0-6.779-8.158c-4.112-.374-7.777 2.655-8.158 6.779-.244 2.647-5.487 63.271 19.009 114.562-6.616 1.775-13.486 4.482-20.71 8.614-14.921-14.409-21.274-27.125-17.058-34.521 3.671-6.438 2.601-14.442-2.603-19.463l-.002-.001c-12.981-12.52-24.59-32.414-6.172-56.094a25.51 25.51 0 0 0 5.342-14.332c.596-10.931 5.215-30.012 29.456-34.991 30.842-6.337 58.27 29.631 45.089 64.006-2.837 7.397-.828 15.865 4.997 21.068 17.385 15.533 15.905 38.575 6.308 59.879z"/></svg>