<svg xmlns="http://www.w3.org/2000/svg" viewBox="0 0 512 512"><path d="M465.319 30.538h-269.53a7.527 7.527 0 0 0 0 15.054h269.53c17.44 0 31.628 14.188 31.628 31.628v262.595c0 17.44-14.188 31.628-31.628 31.628h-71.965a7.528 7.528 0 0 0 0 15.053h71.965c25.74 0 46.681-20.941 46.681-46.681V77.219c0-25.74-20.941-46.681-46.681-46.681z"/><path d="M370.842 230.988h-64.267a7.526 7.526 0 0 0-7.526 7.527 7.526 7.526 0 0 0 7.526 7.526h64.267a7.527 7.527 0 0 0 0-15.053zM370.842 257.08h-64.267a7.526 7.526 0 0 0-7.526 7.527 7.526 7.526 0 0 0 7.526 7.526h64.267a7.527 7.527 0 0 0 0-15.053zM256 112.106c-13.316 0-24.151 10.834-24.151 24.151 0 13.316 10.835 24.15 24.151 24.15 13.316 0 24.151-10.834 24.151-24.15 0-13.316-10.834-24.151-24.151-24.151zm0 33.248c-5.016 0-9.097-4.081-9.097-9.097 0-5.017 4.081-9.098 9.097-9.098s9.097 4.081 9.097 9.098c0 5.016-4.081 9.097-9.097 9.097zM377.177 174.684H134.823a7.526 7.526 0 1 0 0 15.052h242.354a7.527 7.527 0 1 0 0-15.052zM345.671 200.991H166.329a7.527 7.527 0 1 0 0 15.053h179.342a7.526 7.526 0 0 0 7.526-7.527 7.526 7.526 0 0 0-7.526-7.526zM205.425 230.988h-64.267a7.527 7.527 0 0 0 0 15.053h64.267a7.527 7.527 0 1 0 0-15.053zM205.425 257.08h-64.267a7.527 7.527 0 0 0 0 15.053h64.267a7.527 7.527 0 1 0 0-15.053zM296.271 335.497a9.98 9.98 0 0 0-8.103-6.83l-16.01-2.327-7.159-14.507c-1.702-3.451-5.151-5.594-8.998-5.594s-7.296 2.143-8.998 5.593l-7.159 14.507-16.01 2.327a9.97 9.97 0 0 0-8.1 6.829 9.97 9.97 0 0 0 2.54 10.286l11.585 11.293-2.735 15.945a9.973 9.973 0 0 0 3.992 9.814 10.006 10.006 0 0 0 5.888 1.927c1.594 0 3.197-.385 4.678-1.163l14.32-7.528 14.319 7.528a9.975 9.975 0 0 0 10.568-.763 9.973 9.973 0 0 0 3.992-9.814l-2.735-15.945 11.585-11.292a9.975 9.975 0 0 0 2.54-10.286zm-26.525 12.641a10.039 10.039 0 0 0-2.885 8.881l1.462 8.522-7.653-4.023a10.031 10.031 0 0 0-9.339 0l-7.654 4.024 1.462-8.526a10.032 10.032 0 0 0-2.887-8.878l-6.192-6.036 8.556-1.243a10.032 10.032 0 0 0 7.556-5.489l3.827-7.754 3.826 7.753a10.033 10.033 0 0 0 7.555 5.49l8.557 1.244-6.191 6.035z"/><path d="M463.849 111.083c-2.973-2.942-6.923-4.547-11.098-4.495-4.43.008-8.98-1.458-13.249-4.352-3.618-4.361-5.522-9.011-5.658-13.823-.236-8.305-7.279-15.061-15.699-15.061H93.855c-8.421 0-15.464 6.756-15.699 15.061-.136 4.812-2.04 9.463-5.661 13.827-4.203 2.848-8.711 4.35-13.052 4.35l-.195-.001a15.467 15.467 0 0 0-11.097 4.495 15.439 15.439 0 0 0-4.609 11.051v172.768c0 4.184 1.637 8.109 4.61 11.051 2.972 2.942 6.927 4.531 11.097 4.495 4.409-.045 8.98 1.458 13.248 4.351 3.618 4.362 5.522 9.013 5.659 13.824.236 8.305 7.279 15.061 15.699 15.061h89.767c-.015.605-.046 1.206-.046 1.814 0 9.142 1.72 17.885 4.824 25.945H46.681c-17.44 0-31.628-14.188-31.628-31.628V77.22c0-17.44 14.188-31.628 31.628-31.628h102.444a7.526 7.526 0 1 0 0-15.052H46.681C20.941 30.539 0 51.479 0 77.22v262.596c0 25.74 20.941 46.681 46.681 46.681h149.661a73.009 73.009 0 0 0 9.215 10.896v71.509c0 4.467 2.292 8.498 6.132 10.782 3.84 2.283 8.476 2.373 12.402.24L256 462.583l31.909 17.339a12.529 12.529 0 0 0 5.994 1.539c2.21 0 4.416-.594 6.407-1.779 3.84-2.284 6.132-6.315 6.132-10.782v-71.509a73.002 73.002 0 0 0 9.214-10.896h31.916a7.527 7.527 0 0 0 0-15.053h-23.974a72.02 72.02 0 0 0 4.824-25.945c0-.608-.031-1.209-.046-1.814h89.767c8.421 0 15.464-6.756 15.699-15.061.136-4.811 2.04-9.463 5.661-13.827 4.266-2.89 8.814-4.371 13.246-4.349a15.453 15.453 0 0 0 11.097-4.495 15.436 15.436 0 0 0 4.61-11.051V122.133a15.426 15.426 0 0 0-4.607-11.05zm-201.86 337.623a12.502 12.502 0 0 0-11.979 0l-29.401 15.977v-56.028c10.47 5.894 22.542 9.266 35.39 9.266s24.92-3.372 35.39-9.266v56.027l-29.4-15.976zM256 402.868c-31.634 0-57.371-25.736-57.371-57.37 0-31.634 25.736-57.371 57.371-57.371s57.371 25.736 57.371 57.371c0 31.634-25.737 57.37-57.371 57.37zm197.406-107.967h-.001c0 .051 0 .207-.146.352s-.3.141-.352.142c-7.483-.094-15.031 2.322-21.846 6.939a15.069 15.069 0 0 0-3.143 2.853c-5.736 6.914-8.889 14.87-9.12 23.008-.005.171-.287.435-.652.435H326.42c-7.623-31.823-36.293-55.557-70.42-55.557s-62.797 23.733-70.42 55.557H93.855c-.365 0-.647-.264-.652-.435-.231-8.138-3.385-16.094-9.12-23.007a15.031 15.031 0 0 0-3.145-2.854c-6.708-4.545-14.131-6.941-21.494-6.941-.117 0-.235 0-.352.002-.041 0-.207.002-.352-.142-.146-.145-.146-.3-.146-.352V122.133c0-.051 0-.208.146-.352a.456.456 0 0 1 .353-.142c7.476.101 15.032-2.322 21.846-6.94a15.076 15.076 0 0 0 3.143-2.853c5.736-6.914 8.89-14.869 9.121-23.008.005-.171.287-.435.652-.435h324.29c.365 0 .647.264.652.435.231 8.138 3.385 16.094 9.117 23.004a15.056 15.056 0 0 0 3.147 2.857c6.814 4.617 14.341 7.035 21.846 6.939a.464.464 0 0 1 .353.142.47.47 0 0 1 .146.352v172.769z"/></svg>