<svg xmlns="http://www.w3.org/2000/svg" viewBox="0 0 512.001 512.001"><path d="M500.803 434.883c-42.71-1.169-77.731-11.186-106.416-26.241 50.039-25.362 83.695-60.502 103.583-86.477 8.252-10.779-5.753-24.454-16.344-15.999-45.838 36.579-96.1 54.478-149.451 53.265-15.817-17.964-27.862-37.155-36.968-55.201a7.5 7.5 0 1 0-13.391 6.759C320.744 388.132 386.793 437.01 471.594 447.7c-101.602 11.85-200.548-27.255-274.981-126.341-17.065-22.701-21.254-30.653-24.462-37.987-24.778-56.672 10.013-106.891 55.8-74.571 28.856 20.384 33.441 51.355 39.667 69.025 1.378 3.907 5.662 5.961 9.567 4.582a7.5 7.5 0 0 0 4.582-9.567c-2.241-6.362-3.615-11.134-4.249-13.47-.21-.873-.44-1.747-.672-2.613-5.997-22.6-19.111-43.87-36.943-57.765-.056-14.682-6.731-29.199-19.211-38.747-10.957-8.369-18.513-19.684-21.276-31.862-5.966-26.285-2.615-49.123 9.958-67.877 5.679-8.466-5.773-18.068-13.08-10.841-15.345 15.177-40.736 49.042-38.375 105.324.221 5.268-2.03 10.314-4.312 12.596-14.514 17.201-15.367 41.758-2.543 59.81-5.388 23.945.302 50.031 11.871 71.189-11.02-3.344-22.169-4.863-32.832-4.447-9.674-11.375-24.241-17.972-39.669-17.223-13.776.672-26.843-3.105-36.809-10.63-21.512-16.242-33.679-35.857-36.163-58.302-1.13-10.177-16.062-10.045-16.988.155-1.939 21.497.495 63.755 38.594 105.243 5.571 6.069 4.827 13.41 4.827 12.41 0 22.506 15.184 41.825 36.627 47.352 9.684 18.619 26.613 33.289 45.587 42.636 16.763 8.258 50.51 15.731 68.15 18.831a7.5 7.5 0 0 0 8.686-6.09 7.5 7.5 0 0 0-6.09-8.686c-14.941-2.625-48.45-9.794-64.116-17.514-55.362-27.27-61.412-88.015-5.4-92.984 17.12-1.491 35.315 3.316 50.464 11.72 18.375 25.821 39.349 49.667 63.213 70.224-59.148-6.06-88.022-19.658-102.004-30.604a7.501 7.501 0 0 0-9.247 11.813c17.295 13.539 54.306 30.693 132.418 35.569a307.299 307.299 0 0 0 24.358 16.023c-17.964 1.637-36.505 1.699-55.374.172a7.501 7.501 0 1 0-1.209 14.954c26.348 2.131 53.017 1.382 79.429-2.921 61.181 29.268 129.501 35.451 193.59 21.362 13.251-2.911 11.387-22.394-2.174-22.765zm-153.959-60.57c42.534-1.723 83.048-15.006 120.915-39.632-20.638 22.156-49.818 46.693-88.752 64.767-11.377-7.279-22.139-15.692-32.163-25.135zM73.831 353.929c-9.106-6.142-14.934-16.551-14.934-28.226.01-8.311-3.108-16.289-8.781-22.466-15.239-16.596-24.129-33.24-29.15-48.278 6.357 8.421 14.259 16.235 23.616 23.301 12.765 9.637 29.309 14.482 46.577 13.641a33.906 33.906 0 0 1 19.859 5.267c-27.309 8-41.735 30.877-37.187 56.761zm84.505-145.531c-2.998-10.567-.74-22.281 6.79-31.204 5.367-6.346 8.13-14.455 7.777-22.833-.943-22.513 2.996-40.967 8.857-55.698-.571 10.538.429 21.605 3.023 33.041 3.539 15.596 13.057 29.967 26.796 40.462a33.902 33.902 0 0 1 11.783 16.836c-26.341-11.639-51.961-3.055-65.026 19.396z"/><path d="M282.758 360.983c-68.133-60.462-78.342-109.687-78.49-110.444a7.501 7.501 0 0 0-14.753 2.722c.401 2.195 10.667 54.499 83.284 118.943a7.475 7.475 0 0 0 4.977 1.89 7.48 7.48 0 0 0 5.612-2.522 7.5 7.5 0 0 0-.63-10.589z"/></svg>