<?xml version="1.0" encoding="iso-8859-1"?>
<!-- Generator: Adobe Illustrator 19.0.0, SVG Export Plug-In . SVG Version: 6.00 Build 0)  -->
<svg version="1.1" id="Capa_1" xmlns="http://www.w3.org/2000/svg" xmlns:xlink="http://www.w3.org/1999/xlink" x="0px" y="0px"
	 viewBox="0 0 512 512" style="enable-background:new 0 0 512 512;" xml:space="preserve">
<g>
	<g>
		<path d="M196.492,0h-55.745c-12.898,0-23.391,10.493-23.391,23.391v77.305c0,4.165,3.38,7.545,7.545,7.545
			c4.165,0,7.545-3.38,7.545-7.545V23.391c0-4.578,3.722-8.3,8.3-8.3h55.745c4.165,0,7.545-3.38,7.545-7.545
			C204.038,3.38,200.657,0,196.492,0z"/>
	</g>
</g>
<g>
	<g>
		<path d="M387.823,13.541C384.01,5.312,375.68,0,366.605,0H226.674c-4.165,0-7.545,3.38-7.545,7.545
			c0,4.165,3.38,7.545,7.545,7.545h139.932c3.219,0,6.177,1.891,7.535,4.809c0.627,1.111,0.765,3.491,0.765,3.491v157.95
			c0,4.165,3.38,7.545,7.545,7.545c4.165,0,7.545-3.38,7.545-7.545C389.795,13.645,391.085,21.01,387.823,13.541z"/>
	</g>
</g>
<g>
	<g>
		<path d="M219.913,31.52h-42.626c-13.209,0-23.964,10.745-23.964,23.954v47.154c0,13.209,10.755,23.964,23.964,23.964h42.626
			c13.209,0,23.954-10.755,23.954-23.964V55.474C243.867,42.264,233.122,31.52,219.913,31.52z M228.776,102.627
			c0,4.889-3.974,8.873-8.863,8.873h-42.626c-4.889,0-8.873-3.984-8.873-8.873V55.474c0-4.889,3.984-8.863,8.873-8.863h42.626
			c4.889,0,8.863,3.974,8.863,8.863V102.627z"/>
	</g>
</g>
<g>
	<g>
		<path d="M336.056,32.276c-4.032-1.041-8.15,1.388-9.189,5.425c-1.04,4.035,1.388,8.15,5.425,9.189
			c3.913,1.008,6.644,4.54,6.644,8.59v47.149c0,4.89-3.979,8.868-8.869,8.868h-42.621c-4.89,0-8.869-3.978-8.869-8.868v-47.15
			c0-4.891,3.979-8.869,8.869-8.869h16.592c4.167,0,7.545-3.377,7.545-7.545c0-4.168-3.378-7.545-7.545-7.545h-16.592
			c-13.211,0-23.96,10.749-23.96,23.959v47.149c0,13.211,10.749,23.959,23.96,23.959h42.621c13.211,0,23.96-10.749,23.96-23.959
			V55.479C354.026,44.543,346.636,35.002,336.056,32.276z"/>
	</g>
</g>
<g>
	<g>
		<path d="M219.913,147.206h-42.626c-13.209,0-23.964,10.755-23.964,23.964v47.144c0,13.22,10.755,23.964,23.964,23.964h42.626
			c13.209,0,23.954-10.745,23.954-23.964V171.17C243.867,157.96,233.122,147.206,219.913,147.206z M228.776,218.313
			c0,4.899-3.974,8.873-8.863,8.873h-42.626c-4.889,0-8.873-3.974-8.873-8.873V171.17c0-4.889,3.984-8.873,8.873-8.873h42.626
			c4.889,0,8.863,3.984,8.863,8.873V218.313z"/>
	</g>
</g>
<g>
	<g>
		<path d="M330.066,147.206h-42.626c-13.209,0-23.954,10.755-23.954,23.964v47.144c0,13.22,10.745,23.964,23.954,23.964h42.626
			c13.209,0,23.964-10.745,23.964-23.964V171.17C354.03,157.96,343.275,147.206,330.066,147.206z M338.939,218.313
			c0,4.899-3.984,8.873-8.873,8.873h-42.626c-4.889,0-8.863-3.974-8.863-8.873V171.17c0-4.889,3.974-8.873,8.863-8.873h42.626
			c4.889,0,8.873,3.984,8.873,8.873V218.313z"/>
	</g>
</g>
<g>
	<g>
		<path d="M429.504,318.043c-0.704-4.105-4.608-6.871-8.712-6.157c-4.105,0.714-6.861,4.608-6.157,8.723
			c3.804,22.246,3.763,21.558,3.763,22.264c0,2.758-2.755,5.076-5.483,4.235c-16.611-4.73-24.064-18.169-53.452-18.169
			c-36.616,0-37.62,20.121-69.025,20.121c-28.72,0-30.668-15.735-58.22-19.437c-4.135-0.563-7.928,2.344-8.481,6.469
			c-0.553,4.135,2.344,7.928,6.469,8.481c23.061,3.122,26.977,19.578,60.232,19.578c36.616,0,37.62-20.121,69.025-20.121
			c6.308,0,11.248,0.724,15.443,1.911c0,24.188,0,106.23,0,142.668c0,4.578-3.722,8.3-8.3,8.3
			c-242.365,0-226.36,0.145-227.931-0.262c-3.652-0.951-6.227-4.242-6.227-8.038c0-14.833,0-104.68,0-127.074
			c5.443,1.59,11.902,2.616,19.97,2.616c28.213,0,36.432-12.465,51.429-17.546c3.954-1.338,6.066-5.614,4.728-9.568
			c-1.338-3.944-5.624-6.067-9.568-4.728c-18.065,6.137-22.635,16.751-46.59,16.751c-27.489,0-30.25-14.4-55.132-18.944
			c-2.485-0.458-4.121-2.838-3.582-5.302l11.348-51.349c12.191,0,289.789,0,301.474,0l2.988,17.395
			c0.634,3.672,3.823,6.268,7.435,6.268c4.711,0,8.232-4.24,7.445-8.823l-4.075-23.662c-0.624-3.622-3.763-6.268-7.435-6.268
			h-22.888v-46.852c0-4.165-3.38-7.545-7.545-7.545c-4.165,0-7.545,3.38-7.545,7.545v46.852c-10.336,0-233.753,0-242.459,0V130.877
			c0-4.165-3.38-7.545-7.545-7.545c-4.165,0-7.545,3.38-7.545,7.545v127.497h-18.36c-3.541,0-6.6,2.465-7.364,5.916
			c-13.339,61.078-13.119,57.722-13.119,61.48c0,9.417,6.751,17.485,16.057,19.185c9.364,1.712,14.744,5.381,22.787,9.99
			c0,29.672,0,118.927,0,133.664C117.356,501.637,128,512,140.747,512c23.722,0,202.105,0,225.859,0
			c12.898,0,23.391-10.493,23.391-23.391c0-13.339,0-119.055,0-135.646c1.867,0.943,15.062,9.407,24.095,9.407
			c10.694,0,19.397-8.743,19.397-19.497C433.488,340.005,433.166,339.841,429.504,318.043z"/>
	</g>
</g>
<g>
</g>
<g>
</g>
<g>
</g>
<g>
</g>
<g>
</g>
<g>
</g>
<g>
</g>
<g>
</g>
<g>
</g>
<g>
</g>
<g>
</g>
<g>
</g>
<g>
</g>
<g>
</g>
<g>
</g>
</svg>
