<svg xmlns="http://www.w3.org/2000/svg" viewBox="0 0 512 512"><path d="M196.492 0h-55.745c-12.898 0-23.391 10.493-23.391 23.391v77.305a7.548 7.548 0 0 0 7.545 7.545 7.548 7.548 0 0 0 7.545-7.545V23.391c0-4.578 3.722-8.3 8.3-8.3h55.745A7.546 7.546 0 0 0 196.492 0zM387.823 13.541C384.01 5.312 375.68 0 366.605 0H226.674a7.548 7.548 0 0 0-7.545 7.545 7.548 7.548 0 0 0 7.545 7.545h139.932a8.345 8.345 0 0 1 7.535 4.809c.627 1.111.765 3.491.765 3.491v157.95a7.548 7.548 0 0 0 7.545 7.545 7.548 7.548 0 0 0 7.545-7.545c-.201-167.695 1.089-160.33-2.173-167.799z"/><path d="M219.913 31.52h-42.626c-13.209 0-23.964 10.745-23.964 23.954v47.154c0 13.209 10.755 23.964 23.964 23.964h42.626c13.209 0 23.954-10.755 23.954-23.964V55.474c0-13.21-10.745-23.954-23.954-23.954zm8.863 71.107c0 4.889-3.974 8.873-8.863 8.873h-42.626c-4.889 0-8.873-3.984-8.873-8.873V55.474c0-4.889 3.984-8.863 8.873-8.863h42.626c4.889 0 8.863 3.974 8.863 8.863v47.153zM336.056 32.276a7.545 7.545 0 0 0-9.189 5.425 7.544 7.544 0 0 0 5.425 9.189 8.86 8.86 0 0 1 6.644 8.59v47.149c0 4.89-3.979 8.868-8.869 8.868h-42.621c-4.89 0-8.869-3.978-8.869-8.868v-47.15c0-4.891 3.979-8.869 8.869-8.869h16.592a7.544 7.544 0 0 0 7.545-7.545 7.544 7.544 0 0 0-7.545-7.545h-16.592c-13.211 0-23.96 10.749-23.96 23.959v47.149c0 13.211 10.749 23.959 23.96 23.959h42.621c13.211 0 23.96-10.749 23.96-23.959V55.479c-.001-10.936-7.391-20.477-17.971-23.203zM219.913 147.206h-42.626c-13.209 0-23.964 10.755-23.964 23.964v47.144c0 13.22 10.755 23.964 23.964 23.964h42.626c13.209 0 23.954-10.745 23.954-23.964V171.17c0-13.21-10.745-23.964-23.954-23.964zm8.863 71.107c0 4.899-3.974 8.873-8.863 8.873h-42.626c-4.889 0-8.873-3.974-8.873-8.873V171.17c0-4.889 3.984-8.873 8.873-8.873h42.626c4.889 0 8.863 3.984 8.863 8.873v47.143zM330.066 147.206H287.44c-13.209 0-23.954 10.755-23.954 23.964v47.144c0 13.22 10.745 23.964 23.954 23.964h42.626c13.209 0 23.964-10.745 23.964-23.964V171.17c0-13.21-10.755-23.964-23.964-23.964zm8.873 71.107c0 4.899-3.984 8.873-8.873 8.873H287.44c-4.889 0-8.863-3.974-8.863-8.873V171.17c0-4.889 3.974-8.873 8.863-8.873h42.626c4.889 0 8.873 3.984 8.873 8.873v47.143z"/><path d="M429.504 318.043c-.704-4.105-4.608-6.871-8.712-6.157a7.556 7.556 0 0 0-6.157 8.723c3.804 22.246 3.763 21.558 3.763 22.264 0 2.758-2.755 5.076-5.483 4.235-16.611-4.73-24.064-18.169-53.452-18.169-36.616 0-37.62 20.121-69.025 20.121-28.72 0-30.668-15.735-58.22-19.437-4.135-.563-7.928 2.344-8.481 6.469-.553 4.135 2.344 7.928 6.469 8.481 23.061 3.122 26.977 19.578 60.232 19.578 36.616 0 37.62-20.121 69.025-20.121 6.308 0 11.248.724 15.443 1.911v142.668c0 4.578-3.722 8.3-8.3 8.3-242.365 0-226.36.145-227.931-.262a8.312 8.312 0 0 1-6.227-8.038V361.535c5.443 1.59 11.902 2.616 19.97 2.616 28.213 0 36.432-12.465 51.429-17.546a7.538 7.538 0 0 0 4.728-9.568c-1.338-3.944-5.624-6.067-9.568-4.728-18.065 6.137-22.635 16.751-46.59 16.751-27.489 0-30.25-14.4-55.132-18.944-2.485-.458-4.121-2.838-3.582-5.302l11.348-51.349h301.474l2.988 17.395a7.555 7.555 0 0 0 7.435 6.268c4.711 0 8.232-4.24 7.445-8.823l-4.075-23.662a7.547 7.547 0 0 0-7.435-6.268h-22.888v-46.852a7.548 7.548 0 0 0-7.545-7.545 7.548 7.548 0 0 0-7.545 7.545v46.852H132.446V130.877a7.548 7.548 0 0 0-7.545-7.545 7.548 7.548 0 0 0-7.545 7.545v127.497h-18.36a7.545 7.545 0 0 0-7.364 5.916c-13.339 61.078-13.119 57.722-13.119 61.48 0 9.417 6.751 17.485 16.057 19.185 9.364 1.712 14.744 5.381 22.787 9.99v133.664C117.356 501.637 128 512 140.747 512h225.859c12.898 0 23.391-10.493 23.391-23.391V352.963c1.867.943 15.062 9.407 24.095 9.407 10.694 0 19.397-8.743 19.397-19.497-.001-2.868-.323-3.032-3.985-24.83z"/></svg>