<svg xmlns="http://www.w3.org/2000/svg" viewBox="0 0 512 512"><path d="M256 249.571c-34.787 0-63.089 28.301-63.089 63.089 0 34.787 28.301 63.089 63.089 63.089 34.787 0 63.089-28.301 63.089-63.089S290.787 249.571 256 249.571zm0 111.177c-26.516 0-48.088-21.572-48.088-48.088s21.572-48.088 48.088-48.088c26.516 0 48.088 21.572 48.088 48.088S282.516 360.748 256 360.748z"/><path d="M431.945 88.601h-12.624l-13.265-45.697c-1.541-5.309-6.477-9.016-12.004-9.016h-32.999V12.5c0-6.893-5.607-12.5-12.5-12.5h-40.316c-6.893 0-12.5 5.607-12.5 12.5v21.386h-87.403a7.5 7.5 0 0 0 0 15h183.841L403.702 88.6H108.297l11.528-39.713h34.84a7.5 7.5 0 0 0 0-15h-36.717c-5.527 0-10.464 3.708-12.004 9.016L92.678 88.601H80.054c-6.893 0-12.5 5.607-12.5 12.5v40.208c0 6.893 5.607 12.5 12.5 12.5h5.132l6.483 57.706v.002l17.814 158.568 14.695 130.81a12.49 12.49 0 0 0 12.422 11.104h238.799a12.49 12.49 0 0 0 12.422-11.104l14.695-130.81 17.814-158.568v-.002l6.483-57.706h5.132c6.893 0 12.5-5.607 12.5-12.5v-40.208c0-6.893-5.607-12.5-12.5-12.5zm-85.893-54.715h-35.316V15h35.316v18.886zm37.268 372.709l-.061.543h-148.26a7.5 7.5 0 0 0 0 15h146.575L373.164 497h-234.33l-8.41-74.862h50.073a7.5 7.5 0 0 0 0-15H128.74l-.061-.543-21.167-188.414h296.975L383.32 406.595zm22.853-203.414H105.826l-5.546-49.371h311.44l-5.547 49.371zm23.272-64.372H82.554v-35.208h346.89v35.208z"/></svg>