<svg xmlns="http://www.w3.org/2000/svg" viewBox="0 0 512 512"><path d="M504.454 454.542l-2.856-112.695a7.52 7.52 0 0 0-7.516-7.327h-.19c-4.149.101-7.426 3.559-7.326 7.707l2.866 112.745v.381c0 6.344-5.271 11.505-11.766 11.505-6.484 0-11.766-5.161-11.766-11.505 0-.12 0-.241.01-.431l3.748-147.621c.11-4.15-3.177-7.596-7.326-7.707-4.119-.08-7.596 3.177-7.697 7.327l-3.748 147.541c-.01.301-.02.601-.02.892 0 14.633 12.026 26.538 26.798 26.538 14.782 0 26.798-11.906 26.798-26.538a18.79 18.79 0 0 0-.009-.812zM96.326 453.73l-3.448-137.519c-.1-4.159-3.578-7.426-7.707-7.326-4.149.1-7.426 3.548-7.326 7.697l3.448 137.569c.01.19.01.371.01.552 0 9.06-7.376 16.435-16.446 16.435s-16.446-7.375-16.446-16.435c0-.181 0-.361.01-.602l4.911-196.017c.1-4.149-3.177-7.596-7.326-7.697-4.139-.09-7.596 3.177-7.707 7.326l-4.9 195.967c-.02.341-.02.681-.02 1.023 0 17.348 14.121 31.467 31.479 31.467s31.479-14.121 31.479-31.467c-.001-.341-.001-.682-.011-.973zM118.233 42.215c-.231-9.08-6.875-16.386-15.003-16.386h-.15c-9.521 0-17.268 7.747-17.268 17.268-.421 66.685.715 64.197-.661 65.352-1.191 1.065-3.027.167-3.027-1.685V43.098c0-9.521-7.747-17.268-17.268-17.268s-17.268 7.747-17.268 17.268c-.421 66.685.715 64.197-.661 65.352-1.191 1.065-3.027.167-3.027-1.685V43.247c0-9.601-7.817-17.418-17.418-17.418-8.128 0-14.772 7.306-15.003 16.386C-.64 146.241.006 140.158.006 140.991c0 24.062 17.227 44.186 39.997 48.686l-.952 37.982c-.1 4.15 3.177 7.597 7.326 7.698 4.179.08 7.597-3.177 7.707-7.327l.932-37.411h19.683l2.395 95.909a7.52 7.52 0 0 0 7.516 7.327h.19c4.149-.101 7.426-3.548 7.326-7.707l-2.415-96.47c22.77-4.5 39.997-24.624 39.997-48.686 0-.837.648 5.249-11.475-98.777zM80.07 175.585H49.643c-3.207 0-6.304-.44-9.25-1.253-14.482-4.029-25.165-17.248-25.345-32.932C27.55 34.578 26.518 41.596 26.974 40.91a2.396 2.396 0 0 1 1.894 2.335v63.518c0 14.529 16.816 22.586 27.841 13.099a16.85 16.85 0 0 0 5.913-12.808V43.098a2.237 2.237 0 0 1 2.235-2.235 2.237 2.237 0 0 1 2.235 2.235v63.668c0 14.484 16.76 22.608 27.841 13.099a16.85 16.85 0 0 0 5.913-12.808V43.098c0-1.112.812-2.044 1.884-2.216.49.736-.552-6.125 11.936 100.52-.217 18.812-15.587 34.183-34.596 34.183zM504.484 27.122c-27.199 0-47.864 14.291-56.683 39.205-1.393 3.907.661 8.207 4.57 9.591 3.909 1.383 8.208-.661 9.591-4.571 5.843-16.475 18.129-26.468 35.006-28.712V159.36a7.519 7.519 0 0 0 7.516 7.516A7.512 7.512 0 0 0 512 159.36V34.638a7.512 7.512 0 0 0-7.516-7.516z"/><path d="M504.484 181.909a7.512 7.512 0 0 0-7.516 7.516V236.036h-23.582c-.651 0-1.293-.04-1.914-.12-7.386-.842-13.108-6.534-13.108-13.419V98.447c0-4.149-3.367-7.516-7.516-7.516s-7.516 3.367-7.516 7.516v124.05c0 9.67 5.081 18.24 12.848 23.41l-.782 30.958a7.499 7.499 0 0 0 7.316 7.697c4.139.07 7.607-3.167 7.707-7.316l.671-26.267c.752.06 1.523.09 2.295.09h10.864l1.553 61.103c.1 4.079 3.448 7.327 7.506 7.327.07 0 .13 0 .201-.011a7.498 7.498 0 0 0 7.316-7.697l-1.533-60.722h5.191a7.512 7.512 0 0 0 7.516-7.516v-54.128a7.507 7.507 0 0 0-7.517-7.516zM401.49 173.511c-33.232-36.86-80.726-57.996-130.314-57.996-115.91 0-200.547 111.243-168.737 223.376a7.526 7.526 0 0 0 7.226 5.462c.681 0 1.373-.09 2.065-.291a7.51 7.51 0 0 0 5.171-9.28c-29.044-102.377 48.133-204.234 154.276-204.234 45.339 0 88.763 19.332 119.139 53.035 2.786 3.077 7.536 3.327 10.623.551 3.076-2.786 3.327-7.537.551-10.623zM420.321 198.585a7.502 7.502 0 0 0-10.343-2.425 7.513 7.513 0 0 0-2.435 10.343c15.694 25.294 23.982 54.478 23.982 84.394 0 88.412-71.937 160.349-160.349 160.349-61.614 0-116.794-34.375-143.993-89.705a7.512 7.512 0 0 0-10.062-3.428c-3.728 1.824-5.261 6.334-3.427 10.062 29.014 59.007 89.329 98.104 157.483 98.104 96.7 0 175.382-78.671 175.382-175.382-.001-32.722-9.071-64.642-26.238-92.312z"/><path d="M271.175 148.343h-.002c-56.193 0-107.315 33.168-130.229 84.495a7.518 7.518 0 0 0 13.727 6.129c20.501-45.92 66.231-75.591 116.505-75.59 70.316 0 127.521 57.205 127.521 127.52s-57.205 127.52-127.521 127.52c-80.14 0-140.749-73.446-125.084-152.461a7.516 7.516 0 0 0-5.912-8.833 7.51 7.51 0 0 0-8.834 5.911c-17.454 88.031 49.98 170.416 139.83 170.416 78.605 0 142.554-63.949 142.554-142.553s-63.951-142.554-142.555-142.554z"/></svg>