<svg xmlns="http://www.w3.org/2000/svg" viewBox="0 0 470 470"><path d="M253.5 306.444c4.143 0 7.5-3.358 7.5-7.5s-3.357-7.5-7.5-7.5H16.113c-.593 0-1.113-.521-1.113-1.114V16.114c0-.593.521-1.114 1.113-1.114h361.773c.593 0 1.113.521 1.113 1.114v132.001c0 4.142 3.357 7.5 7.5 7.5s7.5-3.358 7.5-7.5V16.114C394 7.229 386.771 0 377.887 0H16.113C7.229 0 0 7.229 0 16.114V290.33c0 8.885 7.229 16.114 16.113 16.114h135.193v45.295h-57.67c-4.143 0-7.5 3.358-7.5 7.5s3.357 7.5 7.5 7.5H253.5c4.143 0 7.5-3.358 7.5-7.5s-3.357-7.5-7.5-7.5h-10.807v-45.295H253.5zm-25.807 45.295h-61.387v-45.295h61.387v45.295z"/><path d="M253.5 240.614h-216c-4.143 0-7.5 3.358-7.5 7.5s3.357 7.5 7.5 7.5h216c4.143 0 7.5-3.358 7.5-7.5s-3.357-7.5-7.5-7.5zM453.887 170.614H292.113c-8.885 0-16.113 7.229-16.113 16.114v267.159c0 8.885 7.229 16.114 16.113 16.114h161.773c8.885 0 16.113-7.229 16.113-16.114V186.728c.001-8.886-7.228-16.114-16.112-16.114zm-162.887 45h164V395H291V215.614zm1.113-30h161.773c.593 0 1.113.521 1.113 1.114v13.886H291v-13.886c0-.594.521-1.114 1.113-1.114zM453.887 455H292.113c-.593 0-1.113-.521-1.113-1.114V410h164v43.886c0 .593-.521 1.114-1.113 1.114z"/><path d="M388 425h-30c-4.143 0-7.5 3.358-7.5 7.5s3.357 7.5 7.5 7.5h30c4.143 0 7.5-3.358 7.5-7.5s-3.357-7.5-7.5-7.5z"/></svg>