<?xml version="1.0" encoding="iso-8859-1"?>
<!-- Generator: Adobe Illustrator 19.0.0, SVG Export Plug-In . SVG Version: 6.00 Build 0)  -->
<svg version="1.1" id="Capa_1" xmlns="http://www.w3.org/2000/svg" xmlns:xlink="http://www.w3.org/1999/xlink" x="0px" y="0px"
	 viewBox="0 0 512 512" style="enable-background:new 0 0 512 512;" xml:space="preserve">
<g>
	<g>
		<path d="M387.994,444.999c-3.759-1.737-8.214-0.102-9.954,3.656c-6.156,13.303-13.548,27.116-21.973,41.054l-6.839,10.775
			c-2.218,3.496-1.184,8.13,2.312,10.349c1.247,0.791,2.636,1.168,4.011,1.168c2.481,0,4.91-1.231,6.338-3.481l6.883-10.845
			c0.029-0.046,0.058-0.092,0.085-0.139c8.726-14.432,16.393-28.759,22.791-42.583C393.389,451.194,391.752,446.737,387.994,444.999
			z"/>
	</g>
</g>
<g>
	<g>
		<path d="M399.454,268.849c-4.989-11.845-10.339-23.181-15.513-34.144c-17.541-37.167-34.111-72.272-31.01-116.824
			c2.456-35.296,13.815-72.215,32.849-106.765c1.998-3.627,0.678-8.187-2.949-10.185c-3.628-1.996-8.187-0.677-10.185,2.949
			c-20.077,36.445-32.067,75.505-34.673,112.961c-3.372,48.456,14.008,85.279,32.409,124.266
			c3.557,7.536,7.192,15.263,10.718,23.154l-165.587-0.004c-4.141,0-7.498,3.357-7.498,7.498s3.357,7.498,7.498,7.498l172.025,0.004
			c4.51,11.073,7.894,20.822,10.404,29.983c-40.882,16.116-88.906,68.208-110.058,91.154c-3.578,3.881-7.273,7.89-8.337,8.829
			c-0.39,0.281-0.753,0.599-1.083,0.95l-22.288,23.712l-22.513-24.925c-0.281-0.311-0.588-0.598-0.917-0.858
			c-0.808-0.759-3.575-3.812-6.254-6.767c-19.424-21.425-69.346-76.492-112.255-92.719c2.493-8.988,5.822-18.538,10.229-29.357
			h45.558c4.141,0,7.498-3.357,7.498-7.498s-3.357-7.498-7.498-7.498h-39.123c3.527-7.892,7.162-15.618,10.719-23.155
			c18.401-38.986,35.781-75.81,32.409-124.266c-2.606-37.455-14.597-76.516-34.673-112.961c-1.998-3.628-6.56-4.947-10.185-2.949
			c-3.627,1.998-4.948,6.558-2.949,10.185c19.034,34.549,30.393,71.468,32.849,106.765c3.1,44.552-13.469,79.657-31.01,116.824
			c-5.175,10.963-10.524,22.299-15.515,34.144c-10.872,25.812-21.603,56.846-18.76,91.314
			c3.583,43.431,19.728,88.366,49.356,137.372c0.028,0.046,0.057,0.093,0.085,0.139l6.883,10.845
			c1.429,2.25,3.856,3.481,6.338,3.481c1.374,0,2.764-0.377,4.011-1.168c3.496-2.219,4.532-6.852,2.312-10.349l-6.837-10.773
			c-28.375-46.95-43.817-89.73-47.203-130.779c-1.012-12.27-0.071-24.173,2.053-35.571c39.132,15.838,87.886,69.613,104.598,88.047
			c4.502,4.966,6.294,6.93,7.515,8.006l23.968,26.537c0.702,0.777,1.503,1.443,2.362,2.013v56.539c0,4.141,3.357,7.498,7.498,7.498
			s7.498-3.357,7.498-7.498v-57.409c0.356-0.302,0.699-0.62,1.021-0.962l23.727-25.248c1.622-1.332,4.012-3.902,9.933-10.326
			c18.368-19.924,65.164-70.684,102.438-86.512c2.035,11.19,2.918,22.863,1.926,34.885c-1.23,14.902-4.15,30.374-8.68,45.985
			c-1.155,3.978,1.134,8.137,5.112,9.29c0.698,0.202,1.401,0.299,2.092,0.299c3.251,0,6.246-2.131,7.197-5.41
			c4.809-16.571,7.912-33.034,9.224-48.932C421.058,325.695,410.327,294.661,399.454,268.849z"/>
	</g>
</g>
<g>
	<g>
		<path d="M132.491,131.397l-35.729-30.326c-3.755-3.187-8.865-3.881-13.335-1.813c-4.471,2.069-7.248,6.415-7.248,11.341v2.265
			H55.364c-6.891,0-12.497,5.605-12.497,12.497v31.126c0,6.891,5.605,12.497,12.497,12.497h20.814v2.265
			c0,4.926,2.777,9.271,7.248,11.341c1.706,0.79,3.503,1.177,5.285,1.177c2.887,0,5.728-1.018,8.052-2.989l35.728-30.327
			c2.802-2.378,4.41-5.851,4.411-9.526C136.901,137.249,135.295,133.776,132.491,131.397z M91.159,165.864
			c-0.325-6.603-5.798-11.875-12.482-11.875H57.863v-26.128h20.814c6.682,0,12.157-5.272,12.482-11.875l29.383,24.939
			L91.159,165.864z"/>
	</g>
</g>
<g>
	<g>
		<path d="M456.634,112.865H435.82V110.6c0-4.926-2.777-9.271-7.248-11.341c-4.47-2.068-9.58-1.374-13.335,1.813l-35.729,30.326
			c-2.803,2.379-4.41,5.852-4.41,9.528c0,3.676,1.608,7.148,4.411,9.526l35.729,30.325c2.323,1.971,5.164,2.989,8.052,2.989
			c1.781,0,3.579-0.387,5.285-1.177c4.471-2.069,7.248-6.415,7.248-11.341v-2.265h20.814c6.891,0,12.497-5.605,12.497-12.497V125.36
			C469.131,118.471,463.525,112.865,456.634,112.865z M454.135,153.989h-20.814c-6.682,0-12.156,5.272-12.482,11.875l-29.383-24.939
			l29.383-24.939c0.325,6.603,5.799,11.875,12.482,11.875h20.814V153.989z"/>
	</g>
</g>
<g>
</g>
<g>
</g>
<g>
</g>
<g>
</g>
<g>
</g>
<g>
</g>
<g>
</g>
<g>
</g>
<g>
</g>
<g>
</g>
<g>
</g>
<g>
</g>
<g>
</g>
<g>
</g>
<g>
</g>
</svg>
