<svg xmlns="http://www.w3.org/2000/svg" viewBox="0 0 512 512"><path d="M387.994 444.999a7.5 7.5 0 0 0-9.954 3.656c-6.156 13.303-13.548 27.116-21.973 41.054l-6.839 10.775a7.5 7.5 0 0 0 6.323 11.517 7.494 7.494 0 0 0 6.338-3.481l6.883-10.845c.029-.046.058-.092.085-.139 8.726-14.432 16.393-28.759 22.791-42.583a7.496 7.496 0 0 0-3.654-9.954zM399.454 268.849c-4.989-11.845-10.339-23.181-15.513-34.144-17.541-37.167-34.111-72.272-31.01-116.824 2.456-35.296 13.815-72.215 32.849-106.765a7.498 7.498 0 1 0-13.134-7.236c-20.077 36.445-32.067 75.505-34.673 112.961-3.372 48.456 14.008 85.279 32.409 124.266 3.557 7.536 7.192 15.263 10.718 23.154l-165.587-.004a7.498 7.498 0 0 0 0 14.996l172.025.004c4.51 11.073 7.894 20.822 10.404 29.983-40.882 16.116-88.906 68.208-110.058 91.154-3.578 3.881-7.273 7.89-8.337 8.829-.39.281-.753.599-1.083.95l-22.288 23.712-22.513-24.925a7.52 7.52 0 0 0-.917-.858c-.808-.759-3.575-3.812-6.254-6.767-19.424-21.425-69.346-76.492-112.255-92.719 2.493-8.988 5.822-18.538 10.229-29.357h45.558a7.498 7.498 0 0 0 0-14.996h-39.123c3.527-7.892 7.162-15.618 10.719-23.155 18.401-38.986 35.781-75.81 32.409-124.266-2.606-37.455-14.597-76.516-34.673-112.961A7.497 7.497 0 0 0 129.171.932a7.497 7.497 0 0 0-2.949 10.185c19.034 34.549 30.393 71.468 32.849 106.765 3.1 44.552-13.469 79.657-31.01 116.824-5.175 10.963-10.524 22.299-15.515 34.144-10.872 25.812-21.603 56.846-18.76 91.314 3.583 43.431 19.728 88.366 49.356 137.372l.085.139 6.883 10.845a7.494 7.494 0 0 0 10.349 2.313 7.498 7.498 0 0 0 2.312-10.349l-6.837-10.773c-28.375-46.95-43.817-89.73-47.203-130.779-1.012-12.27-.071-24.173 2.053-35.571 39.132 15.838 87.886 69.613 104.598 88.047 4.502 4.966 6.294 6.93 7.515 8.006l23.968 26.537a12.426 12.426 0 0 0 2.362 2.013v56.539a7.498 7.498 0 0 0 14.996 0v-57.409c.356-.302.699-.62 1.021-.962l23.727-25.248c1.622-1.332 4.012-3.902 9.933-10.326 18.368-19.924 65.164-70.684 102.438-86.512 2.035 11.19 2.918 22.863 1.926 34.885-1.23 14.902-4.15 30.374-8.68 45.985a7.495 7.495 0 0 0 5.112 9.29 7.517 7.517 0 0 0 2.092.299 7.5 7.5 0 0 0 7.197-5.41c4.809-16.571 7.912-33.034 9.224-48.932 2.845-34.468-7.886-65.502-18.759-91.314z"/><path d="M132.491 131.397l-35.729-30.326c-3.755-3.187-8.865-3.881-13.335-1.813-4.471 2.069-7.248 6.415-7.248 11.341v2.265H55.364c-6.891 0-12.497 5.605-12.497 12.497v31.126c0 6.891 5.605 12.497 12.497 12.497h20.814v2.265c0 4.926 2.777 9.271 7.248 11.341a12.553 12.553 0 0 0 5.285 1.177c2.887 0 5.728-1.018 8.052-2.989l35.728-30.327a12.48 12.48 0 0 0 4.411-9.526 12.477 12.477 0 0 0-4.411-9.528zm-41.332 34.467c-.325-6.603-5.798-11.875-12.482-11.875H57.863v-26.128h20.814c6.682 0 12.157-5.272 12.482-11.875l29.383 24.939-29.383 24.939zM456.634 112.865H435.82V110.6c0-4.926-2.777-9.271-7.248-11.341-4.47-2.068-9.58-1.374-13.335 1.813l-35.729 30.326a12.476 12.476 0 0 0-4.41 9.528c0 3.676 1.608 7.148 4.411 9.526l35.729 30.325c2.323 1.971 5.164 2.989 8.052 2.989 1.781 0 3.579-.387 5.285-1.177 4.471-2.069 7.248-6.415 7.248-11.341v-2.265h20.814c6.891 0 12.497-5.605 12.497-12.497V125.36c-.003-6.889-5.609-12.495-12.5-12.495zm-2.499 41.124h-20.814c-6.682 0-12.156 5.272-12.482 11.875l-29.383-24.939 29.383-24.939c.325 6.603 5.799 11.875 12.482 11.875h20.814v26.128z"/></svg>