<?xml version="1.0" encoding="iso-8859-1"?>
<!-- Generator: Adobe Illustrator 19.0.0, SVG Export Plug-In . SVG Version: 6.00 Build 0)  -->
<svg version="1.1" id="Layer_1" xmlns="http://www.w3.org/2000/svg" xmlns:xlink="http://www.w3.org/1999/xlink" x="0px" y="0px"
	 viewBox="0 0 512 512" style="enable-background:new 0 0 512 512;" xml:space="preserve">
<g>
	<g>
		<g>
			<path d="M248.502,215.528v9.556c0,4.142,3.357,7.498,7.498,7.498c4.142,0,7.498-3.356,7.498-7.498v-9.556
				c0-4.141-3.356-7.498-7.498-7.498C251.859,208.03,248.502,211.387,248.502,215.528z"/>
			<circle cx="302.065" cy="197.827" r="9.191"/>
			<path d="M289.557,156.573c0.131-0.057,13.474-5.427,27.994-1.303c3.979,1.13,8.129-1.181,9.262-5.165
				c1.132-3.983-1.182-8.13-5.165-9.262c-19.787-5.619-37.213,1.611-37.945,1.922c-3.813,1.617-5.593,6.018-3.977,9.831
				C281.342,156.404,285.736,158.19,289.557,156.573z"/>
			<path d="M428.693,431.428c-4.141,0-7.498,3.356-7.498,7.498v52.757c0,2.933-2.385,5.318-5.317,5.318h-37.742v-51.245
				c0-4.142-3.356-7.498-7.498-7.498s-7.498,3.356-7.498,7.498v51.246h-37.892l30.227-75.129c1.197-2.974,0.37-6.381-2.058-8.475
				l-13.951-12.041l8.537-11.026c1.537-1.984,1.979-4.606,1.177-6.984l-9.554-28.343h21.78c32.968,0,59.789,26.821,59.789,59.789
				c0,4.142,3.357,7.498,7.498,7.498c4.142,0,7.498-3.356,7.498-7.498c0-41.237-33.549-74.785-74.785-74.785H330.83l-25.433-11.728
				l-2.446-12.361c33.656-17.091,56.624-51.899,56.624-92.929c24.201-1.078,39.954-26.486,29.678-48.721v-40.858
				c0-36.637-15.318-72.04-42.028-97.133c-3.019-2.836-7.765-2.687-10.599,0.33c-2.836,3.019-2.687,7.764,0.33,10.599
				c24.054,22.597,37.301,53.213,37.301,86.204v24.909c-4.828-2.582-10.419-3.922-14.681-4.028c0-14.698,0.641-16.665-2.401-19.489
				c-7.659-7.131-14.76-17.234-17.493-27.555c-0.614-2.32-2.302-4.207-4.541-5.074c-50.616-19.596-148.392-9.366-160.539,1.375
				c-1.095,0.968-1.898,2.248-2.282,3.699c-3.013,11.379-11.448,22.157-17.313,27.381c-3.295,2.86-2.581,5.175-2.581,19.663
				c-4.342,0.108-9.935,1.486-14.678,4.026v-24.907c0-92.68,102.511-149.478,180.989-100.264c3.509,2.199,8.136,1.14,10.336-2.369
				c2.199-3.508,1.14-8.136-2.369-10.336c-88.475-55.478-203.952,8.543-203.952,112.97v40.849
				c-10.271,22.212,5.447,47.651,29.675,48.73c0,40.626,22.491,75.498,56.63,92.907l-2.482,12.545l-25.083,11.567h-30.894
				c-41.238,0-74.786,33.549-74.786,74.785v76.892c0,11.201,9.113,20.314,20.314,20.314c11.31,0,309.239,0,319.755,0
				c11.2,0,20.313-9.113,20.313-20.314v-52.757C436.191,434.785,432.835,431.428,428.693,431.428z M359.575,169.319
				c5.636,0.479,10.476,3.207,13.832,7.53c9.353,12.168,1.426,29.909-13.832,31.12V169.319z M152.425,207.969
				c-23.171-1.838-24.133-36.599,0-38.65V207.969z M148.863,497.001v-51.245c0-4.142-3.357-7.498-7.498-7.498
				c-4.141,0-7.498,3.356-7.498,7.498v51.246H96.123c-2.932-0.001-5.318-2.385-5.318-5.319v-76.892
				c0-32.967,26.821-59.789,59.79-59.789h22.099l-9.555,28.343c-0.802,2.378-0.36,5.001,1.177,6.985l8.537,11.026l-13.951,12.04
				c-2.427,2.094-3.254,5.501-2.057,8.475l30.228,75.129H148.863z M205.686,497h-2.448v0.001l-30.479-75.754l15.275-13.183
				c3.018-2.603,3.47-7.114,1.03-10.267l-10.429-13.471l10.573-31.366l16.479-7.6C205.686,353.359,205.686,489.374,205.686,497z
				 M173.562,256.038c-7.771-19.693-6.141-26.466-6.141-112.547c4.455-4.497,13.511-14.812,18.19-28.446
				c39.19-12.141,101.547-12.15,140.777-0.001c3.648,10.634,10.567,20.755,18.19,28.447c0,85.424,1.984,93.388-6.957,114.546
				C306.934,330.584,202.701,329.939,173.562,256.038z M220.683,378.439v-30.51l22.111,15.255
				c-15.961,11.011-18.264,12.599-18.416,12.704C224.486,375.815,225.391,375.19,220.683,378.439z M221.497,330.27l1.674-8.459
				c21.628,7.216,44.745,6.965,65.662,0.001l1.674,8.457L256,354.074L221.497,330.27z M291.317,347.929v30.51l-22.112-15.255
				L291.317,347.929z M223.97,497.001h-3.287V396.658l5.086-3.508l11.308,19.317L223.97,497.001z M239.144,497.001l12.175-78.522
				h9.359l12.175,78.522H239.144z M262.804,403.482h-13.611l-11.047-18.872L256,372.293c3.951,2.726,13.786,9.51,17.853,12.316
				L262.804,403.482z M291.637,497.001h-3.608l-13.107-84.534l11.307-19.319l5.408,3.731V497.001z M306.634,497.001L306.634,497.001
				V345.508l16.537,7.627l10.515,31.192l-10.429,13.472c-2.439,3.151-1.987,7.662,1.03,10.265l15.275,13.183l-30.478,75.754H306.634
				z"/>
			<path d="M224.379,375.888C224.368,375.896,224.366,375.897,224.379,375.888L224.379,375.888z"/>
			<path d="M282.378,264.89c3.437-2.311,4.35-6.969,2.04-10.406c-2.31-3.434-6.968-4.349-10.406-2.039
				c-10.266,6.903-25.768,6.888-36.021,0c-3.436-2.31-8.095-1.395-10.405,2.04c-2.309,3.437-1.396,8.097,2.042,10.405
				C244.911,275.162,267.045,275.196,282.378,264.89z"/>
			<circle cx="209.598" cy="197.827" r="9.191"/>
			<path d="M194.118,155.27c15.883-4.512,27.975,1.898,30.917,1.898c8.11,0,10.424-11.226,2.931-14.403
				c-0.733-0.31-18.16-7.538-37.946-1.922c-3.983,1.132-6.295,5.278-5.165,9.262C185.987,154.088,190.135,156.402,194.118,155.27z"
				/>
			<path d="M244.425,197.911c4.332-1.809,12.511-3.795,22.828,0.331c0.222,18.814,15.588,34.054,34.453,34.054
				c19.003,0,34.464-15.46,34.464-34.463c0-19.004-15.461-34.465-34.464-34.465c-13.858,0-25.825,8.227-31.293,20.05
				c-12.169-4.202-22.438-2.587-29.266-0.236c-5.517-11.696-17.419-19.813-31.185-19.813c-19.004,0-34.465,15.461-34.465,34.465
				c0,19.003,15.461,34.463,34.465,34.463C228.94,232.296,244.382,216.879,244.425,197.911z M301.707,178.364
				c10.734,0,19.468,8.733,19.468,19.469c0,10.733-8.733,19.467-19.468,19.467c-10.735,0-19.468-8.733-19.468-19.467
				C282.238,187.097,290.972,178.364,301.707,178.364z M209.964,217.3c-10.735,0-19.469-8.733-19.469-19.467
				c0-10.735,8.734-19.469,19.469-19.469c10.734,0,19.468,8.733,19.468,19.469C229.432,208.566,220.699,217.3,209.964,217.3z"/>
		</g>
	</g>
</g>
<g>
</g>
<g>
</g>
<g>
</g>
<g>
</g>
<g>
</g>
<g>
</g>
<g>
</g>
<g>
</g>
<g>
</g>
<g>
</g>
<g>
</g>
<g>
</g>
<g>
</g>
<g>
</g>
<g>
</g>
</svg>
