<svg xmlns="http://www.w3.org/2000/svg" viewBox="0 0 512 512"><path d="M248.502 215.528v9.556a7.497 7.497 0 0 0 7.498 7.498 7.497 7.497 0 0 0 7.498-7.498v-9.556a7.498 7.498 0 0 0-14.996 0z"/><circle cx="302.065" cy="197.827" r="9.191"/><path d="M289.557 156.573c.131-.057 13.474-5.427 27.994-1.303a7.503 7.503 0 0 0 9.262-5.165 7.5 7.5 0 0 0-5.165-9.262c-19.787-5.619-37.213 1.611-37.945 1.922a7.5 7.5 0 0 0 5.854 13.808z"/><path d="M428.693 431.428a7.497 7.497 0 0 0-7.498 7.498v52.757a5.323 5.323 0 0 1-5.317 5.318h-37.742v-51.245c0-4.142-3.356-7.498-7.498-7.498s-7.498 3.356-7.498 7.498v51.246h-37.892l30.227-75.129a7.496 7.496 0 0 0-2.058-8.475l-13.951-12.041 8.537-11.026a7.494 7.494 0 0 0 1.177-6.984l-9.554-28.343h21.78c32.968 0 59.789 26.821 59.789 59.789a7.497 7.497 0 0 0 7.498 7.498 7.497 7.497 0 0 0 7.498-7.498c0-41.237-33.549-74.785-74.785-74.785H330.83l-25.433-11.728-2.446-12.361c33.656-17.091 56.624-51.899 56.624-92.929 24.201-1.078 39.954-26.486 29.678-48.721v-40.858c0-36.637-15.318-72.04-42.028-97.133a7.499 7.499 0 0 0-10.269 10.929c24.054 22.597 37.301 53.213 37.301 86.204v24.909c-4.828-2.582-10.419-3.922-14.681-4.028 0-14.698.641-16.665-2.401-19.489-7.659-7.131-14.76-17.234-17.493-27.555a7.499 7.499 0 0 0-4.541-5.074c-50.616-19.596-148.392-9.366-160.539 1.375a7.493 7.493 0 0 0-2.282 3.699c-3.013 11.379-11.448 22.157-17.313 27.381-3.295 2.86-2.581 5.175-2.581 19.663-4.342.108-9.935 1.486-14.678 4.026v-24.907c0-92.68 102.511-149.478 180.989-100.264a7.498 7.498 0 0 0 7.967-12.705c-88.475-55.478-203.952 8.543-203.952 112.97v40.849c-10.271 22.212 5.447 47.651 29.675 48.73 0 40.626 22.491 75.498 56.63 92.907l-2.482 12.545-25.083 11.567h-30.894c-41.238 0-74.786 33.549-74.786 74.785v76.892c0 11.201 9.113 20.314 20.314 20.314h319.755c11.2 0 20.313-9.113 20.313-20.314V438.93a7.503 7.503 0 0 0-7.501-7.502zm-69.118-262.109c5.636.479 10.476 3.207 13.832 7.53 9.353 12.168 1.426 29.909-13.832 31.12v-38.65zm-207.15 38.65c-23.171-1.838-24.133-36.599 0-38.65v38.65zm-3.562 289.032v-51.245a7.497 7.497 0 0 0-7.498-7.498 7.497 7.497 0 0 0-7.498 7.498v51.246H96.123a5.325 5.325 0 0 1-5.318-5.319v-76.892c0-32.967 26.821-59.789 59.79-59.789h22.099l-9.555 28.343a7.496 7.496 0 0 0 1.177 6.985l8.537 11.026-13.951 12.04a7.497 7.497 0 0 0-2.057 8.475L187.073 497h-38.21zm56.823-.001h-2.448v.001l-30.479-75.754 15.275-13.183a7.498 7.498 0 0 0 1.03-10.267l-10.429-13.471 10.573-31.366 16.479-7.6-.001 151.64zm-32.124-240.962c-7.771-19.693-6.141-26.466-6.141-112.547 4.455-4.497 13.511-14.812 18.19-28.446 39.19-12.141 101.547-12.15 140.777-.001 3.648 10.634 10.567 20.755 18.19 28.447 0 85.424 1.984 93.388-6.957 114.546-30.687 72.547-134.92 71.902-164.059-1.999zm47.121 122.401v-30.51l22.111 15.255-18.416 12.704c.108-.073 1.013-.698-3.695 2.551zm.814-48.169l1.674-8.459c21.628 7.216 44.745 6.965 65.662.001l1.674 8.457L256 354.074l-34.503-23.804zm69.82 17.659v30.51l-22.112-15.255 22.112-15.255zM223.97 497.001h-3.287V396.658l5.086-3.508 11.308 19.317-13.107 84.534zm15.174 0l12.175-78.522h9.359l12.175 78.522h-33.709zm23.66-93.519h-13.611l-11.047-18.872L256 372.293l17.853 12.316-11.049 18.873zm28.833 93.519h-3.608l-13.107-84.534 11.307-19.319 5.408 3.731v100.122zm14.997 0V345.508l16.537 7.627 10.515 31.192-10.429 13.472a7.498 7.498 0 0 0 1.03 10.265l15.275 13.183-30.478 75.754h-2.45z"/><path d="M224.379 375.888c-.011.008-.013.009 0 0zM282.378 264.89a7.498 7.498 0 1 0-8.366-12.445c-10.266 6.903-25.768 6.888-36.021 0a7.497 7.497 0 0 0-8.363 12.445c15.283 10.272 37.417 10.306 52.75 0z"/><circle cx="209.598" cy="197.827" r="9.191"/><path d="M194.118 155.27c15.883-4.512 27.975 1.898 30.917 1.898 8.11 0 10.424-11.226 2.931-14.403-.733-.31-18.16-7.538-37.946-1.922a7.5 7.5 0 0 0-5.165 9.262 7.5 7.5 0 0 0 9.263 5.165zM244.425 197.911c4.332-1.809 12.511-3.795 22.828.331.222 18.814 15.588 34.054 34.453 34.054 19.003 0 34.464-15.46 34.464-34.463 0-19.004-15.461-34.465-34.464-34.465-13.858 0-25.825 8.227-31.293 20.05-12.169-4.202-22.438-2.587-29.266-.236-5.517-11.696-17.419-19.813-31.185-19.813-19.004 0-34.465 15.461-34.465 34.465 0 19.003 15.461 34.463 34.465 34.463 18.978-.001 34.42-15.418 34.463-34.386zm57.282-19.547c10.734 0 19.468 8.733 19.468 19.469 0 10.733-8.733 19.467-19.468 19.467s-19.468-8.733-19.468-19.467c-.001-10.736 8.733-19.469 19.468-19.469zM209.964 217.3c-10.735 0-19.469-8.733-19.469-19.467 0-10.735 8.734-19.469 19.469-19.469 10.734 0 19.468 8.733 19.468 19.469 0 10.733-8.733 19.467-19.468 19.467z"/></svg>