<svg xmlns="http://www.w3.org/2000/svg" viewBox="0 0 512 512"><path d="M255.999 233.011c4.143 0 7.5-3.357 7.5-7.5v-9.542c0-4.143-3.357-7.5-7.5-7.5a7.499 7.499 0 0 0-7.5 7.5v9.542a7.5 7.5 0 0 0 7.5 7.5z"/><circle cx="292.989" cy="201.512" r="9.177"/><path d="M326.718 176.762a7.502 7.502 0 0 0-5.166-9.265c-19.759-5.608-37.163 1.609-37.896 1.92-3.801 1.611-5.568 5.986-3.974 9.796 1.203 2.871 3.994 4.599 6.93 4.599.958 0 1.932-.184 2.87-.571.134-.056 13.438-5.441 27.972-1.313 3.979 1.127 8.132-1.182 9.264-5.166zM273.979 252.818c-4.954 3.328-11.339 5.161-17.976 5.161-6.637 0-13.021-1.833-17.976-5.161a7.502 7.502 0 0 0-8.366 12.452c7.401 4.972 16.756 7.71 26.342 7.71s18.939-2.738 26.342-7.71a7.5 7.5 0 1 0-8.366-12.452z"/><circle cx="219.014" cy="201.512" r="9.177"/><path d="M225.084 183.825a7.5 7.5 0 0 0 2.93-14.407c-.731-.311-18.138-7.531-37.895-1.92a7.501 7.501 0 0 0-5.166 9.264c1.132 3.984 5.277 6.302 9.265 5.166 14.431-4.098 27.654 1.184 27.968 1.311a7.467 7.467 0 0 0 2.898.586z"/><path d="M428.43 430.74c4.143 0 7.5-3.357 7.5-7.5v-8.312c0-41.181-33.504-74.685-74.685-74.685h-30.526l-21.506-9.917h51.996a7.499 7.499 0 0 0 7.249-9.423c-5.577-21.033 4.011-42.54 15.113-67.442 9.921-22.25 21.16-47.461 23.807-77.504a155.061 155.061 0 0 0 1.664-22.627c0-41.738-16.475-80.761-46.389-109.881a7.5 7.5 0 1 0-10.463 10.749c26.988 26.272 41.852 61.478 41.852 99.132 0 6.886-.516 13.831-1.534 20.64a7.966 7.966 0 0 0-.054.462c-.23 2.66-.554 5.264-.923 7.842-3.087-15.194-16.235-26.773-32.162-27.461l-.024-.441-.006-.092a69.515 69.515 0 0 0-.821-7.177l-.02-.127a91.18 91.18 0 0 0-.2-1.128l-.046-.25a73.99 73.99 0 0 0-.219-1.104l-.067-.326a68.527 68.527 0 0 0-.239-1.095l-.09-.386a69.029 69.029 0 0 0-.265-1.095c-.034-.139-.072-.279-.108-.419-.095-.367-.19-.734-.294-1.106-.038-.139-.08-.279-.12-.418a55.86 55.86 0 0 0-.333-1.145l-.023-.074a63.769 63.769 0 0 0-.739-2.244c-.096-.273-.189-.546-.289-.82-.089-.243-.186-.486-.278-.73-.119-.311-.236-.622-.362-.934-.092-.23-.19-.459-.286-.689a51.972 51.972 0 0 0-.72-1.641 55.408 55.408 0 0 0-.481-1.021 51.089 51.089 0 0 0-.861-1.683c-.103-.191-.205-.383-.31-.574a44.035 44.035 0 0 0-.637-1.11c-.101-.171-.199-.341-.302-.511a44.443 44.443 0 0 0-.751-1.188c-.09-.139-.176-.276-.267-.414-.31-.463-.631-.921-.962-1.375-.046-.064-.09-.13-.137-.193a39.073 39.073 0 0 0-2.508-3.074c-.092-.101-.189-.198-.282-.299-.294-.316-.585-.635-.892-.944-.058-.058-.118-.111-.176-.169-.159-.158-.326-.313-.488-.469a36.902 36.902 0 0 0-.987-.919c-.157-.141-.319-.278-.48-.416a36.467 36.467 0 0 0-1.516-1.237 34.384 34.384 0 0 0-1.494-1.093l-.072-.053c-.011-.007-.022-.013-.032-.021a34.908 34.908 0 0 0-4.786-2.754l-.068-.033a35.929 35.929 0 0 0-2.475-1.057c-.095-.037-.191-.069-.287-.104a36.688 36.688 0 0 0-2.099-.71c-.202-.063-.403-.127-.607-.187a38.18 38.18 0 0 0-2.245-.573c-.329-.074-.665-.137-.999-.203a42.786 42.786 0 0 0-1.426-.254c-.391-.063-.78-.129-1.176-.182a44.899 44.899 0 0 0-2.116-.226c-.441-.037-.89-.061-1.338-.085a52.35 52.35 0 0 0-1.327-.053c-.422-.011-.843-.025-1.271-.025l-.066-.002c-.129 0-.263.011-.393.012-.88.008-1.768.028-2.671.082-.194.012-.396.035-.591.049-.877.061-1.759.132-2.656.235-.161.018-.328.048-.49.067-.944.117-1.896.247-2.864.411-.082.015-.168.034-.25.048a73.211 73.211 0 0 0-3.218.629 84.976 84.976 0 0 0-7.074 1.889c-.169.054-.344.118-.515.172-1.045.334-2.097.678-3.164 1.058-1.248.443-2.51.918-3.784 1.424a7.66 7.66 0 0 0-.753.348c-.267.142-23.66 12.381-52.833 15.46l-.221.022c-.959.1-1.924.189-2.895.268l-.154.014c-.927.074-1.859.136-2.795.189-.23.014-.462.026-.693.038-.903.047-1.811.086-2.723.113l-.589.013c-.781.02-1.565.029-2.352.033-.239.001-.478.004-.717.004a116.52 116.52 0 0 1-2.781-.041 71.626 71.626 0 0 1-.655-.022 107.754 107.754 0 0 1-5.913-.355l-.398-.036a100.727 100.727 0 0 1-5.926-.727l-.368-.057a90.105 90.105 0 0 1-2.911-.502l-.067-.013a95.464 95.464 0 0 1-2.639-.546l-.638-.143a87.45 87.45 0 0 1-2.637-.64l-.046-.012-.072-.02a88.061 88.061 0 0 1-4.581-1.335 7.551 7.551 0 0 0-.659-.18 50.628 50.628 0 0 0-2.354-.464c-.253-.044-.504-.078-.757-.117a44.366 44.366 0 0 0-1.572-.225c-.302-.037-.602-.068-.901-.1a43.01 43.01 0 0 0-1.363-.119 43.778 43.778 0 0 0-1.01-.063 38.271 38.271 0 0 0-1.117-.033c-.295-.007-.595-.026-.888-.026-1.19 0-2.586.063-4.111.24l-.271.035c-.395.05-.799.107-1.209.174-1.021.161-2.016.37-2.989.621l-.198.052c-1.248.33-2.454.731-3.615 1.208l-.105.042a28.405 28.405 0 0 0-1.5.677c-.274.135-.548.27-.816.412-.281.149-.561.307-.84.467-.154.089-.31.174-.463.266-5.356 3.214-10.332 8.815-12.842 18.427l-.06.224a46.632 46.632 0 0 0-.538 2.376 50.618 50.618 0 0 0-.438 2.524c-.071.481-.14.967-.199 1.464-.026.211-.054.42-.077.632-18.194.609-32.841 15.432-33.169 33.696-1.848-9.799-2.796-20.105-2.368-31.004a6.59 6.59 0 0 0 .003-.487c-.031-1.223-.05-2.449-.05-3.68-.006-76.272 62.049-138.326 138.324-138.326 28.232 0 55.382 8.447 78.518 24.427a7.502 7.502 0 0 0 8.527-12.343C317.102 9.366 287.003 0 255.712 0c-84.547 0-153.331 68.783-153.331 153.33 0 1.278.018 2.552.049 3.823-1.452 38.592 12.219 69.25 24.282 96.309 11.103 24.901 20.69 46.407 15.113 67.44a7.499 7.499 0 0 0 7.249 9.423h54.029l-21.505 9.917h-30.844c-41.182 0-74.686 33.504-74.686 74.685v76.775c0 11.192 9.105 20.297 20.296 20.297h319.267c11.191 0 20.296-9.105 20.296-20.297v-43.457c0-4.143-3.357-7.5-7.5-7.5a7.5 7.5 0 0 0-7.5 7.5v43.457a5.301 5.301 0 0 1-5.295 5.296h-37.669v-51.154a7.5 7.5 0 0 0-7.5-7.5 7.5 7.5 0 0 0-7.5 7.5v51.154h-37.801l30.174-74.995a7.502 7.502 0 0 0-2.058-8.479l-13.921-12.015 8.516-11a7.498 7.498 0 0 0 1.177-6.986l-9.533-28.281h21.728c32.91 0 59.685 26.774 59.685 59.685v8.311a7.5 7.5 0 0 0 7.5 7.502zm-69-260.901c9.943.796 17.788 9.142 17.788 19.284 0 10.143-7.846 18.486-17.788 19.282v-38.566zm-206.86 0v38.566c-9.941-.796-17.787-9.141-17.787-19.282-.001-10.142 7.846-18.488 17.787-19.284zm-3.53 327.159v-51.154c0-4.142-3.357-7.5-7.5-7.5s-7.5 3.358-7.5 7.5v51.154H96.367a5.3 5.3 0 0 1-5.295-5.295v-76.775c0-32.91 26.774-59.685 59.685-59.685h22.045l-9.533 28.281a7.498 7.498 0 0 0 1.177 6.986l8.517 11-13.921 12.015a7.501 7.501 0 0 0-2.058 8.479l30.174 74.995H149.04zm56.71-103.662v103.663h-2.423l-30.426-75.62 15.245-13.157a7.499 7.499 0 0 0 1.03-10.269l-10.409-13.445 10.554-31.306 16.429-7.575v47.709zm-47.674-78.011c2.496-22.76-7.331-44.8-17.662-67.971-5.766-12.934-11.919-26.74-16.422-41.772 5.604 10.222 16.256 17.294 28.578 17.847v.559c0 9.621 1.32 19.147 3.925 28.316a103.993 103.993 0 0 0 3.25 9.612c.46 1.165.94 2.32 1.44 3.465.272.624.564 1.236.849 1.854.234.507.459 1.02.7 1.522.386.804.792 1.595 1.197 2.387.155.302.302.608.459.908.474.903.968 1.794 1.467 2.681.1.178.194.357.295.534.545.956 1.11 1.897 1.685 2.834.063.102.122.207.186.309.607.982 1.234 1.952 1.874 2.912l.101.156c.662.989 1.342 1.965 2.037 2.93.016.022.03.044.047.066a102.045 102.045 0 0 0 4.47 5.752l.023.028c.773.925 1.563 1.835 2.368 2.733l.04.045c.797.888 1.61 1.762 2.439 2.622l.075.079a103.507 103.507 0 0 0 5.326 5.14c.865.777 1.745 1.54 2.638 2.29l.154.129a104.16 104.16 0 0 0 2.75 2.222l.102.08c.974.757 1.962 1.499 2.965 2.224l.187.138.131.093c.462.331.915.672 1.383.996.457.316.924.613 1.385.922.07.047.136.094.207.141l.314.209.093.059a102.21 102.21 0 0 0 2.84 1.808c.013.008.025.017.038.024l.502.309.073.043c1.001.605 2.011 1.191 3.029 1.761l.423.238.055.029c.442.245.881.496 1.326.733h-49.342zm133.491 181.674H220.75v-91.174h.001A87.182 87.182 0 0 0 256 413.248a87.11 87.11 0 0 0 35.567-7.565v91.316zm.003-108.111a72.099 72.099 0 0 1-35.567 9.364 72.117 72.117 0 0 1-35.249-9.183v-54.425h-.003l2.481-12.534a102.542 102.542 0 0 0 15.824 3.917c.15.025.301.053.452.078 1.12.179 2.243.335 3.371.478.265.034.528.073.793.105 1.028.122 2.061.22 3.094.312.347.031.69.07 1.037.098 1.011.079 2.025.134 3.041.184.355.018.708.046 1.064.06a103.177 103.177 0 0 0 8.139.001c.439-.017.875-.051 1.313-.073.91-.046 1.82-.094 2.726-.164.484-.038.968-.091 1.452-.135.865-.079 1.73-.161 2.592-.262.457-.054.911-.118 1.367-.179.906-.118 1.811-.242 2.711-.384.381-.061.762-.128 1.142-.192a103.691 103.691 0 0 0 3.791-.713c1.165-.242 2.324-.504 3.477-.785l.271-.066a103.568 103.568 0 0 0 7.881-2.277l.415 2.092 2.208 11.163c.045.227.109.447.174.667v52.853zm10.278-89.282a87.496 87.496 0 0 1-2.919 1.695l-.232.13a87.453 87.453 0 0 1-2.835 1.499l-.307.155c-.966.484-1.941.949-2.926 1.397l-.094.044-.146.067a91.8 91.8 0 0 1-3.123 1.342c-.009.003-.017.009-.026.012l-.195.074c-.196.073-.393.147-.591.225a88.353 88.353 0 0 1-11.924 3.76 88.111 88.111 0 0 1-7.861 1.499c-.282.04-.566.073-.85.11a87.206 87.206 0 0 1-4.139.457c-.895.077-1.792.139-2.69.188-.391.022-.78.049-1.172.065a87.936 87.936 0 0 1-3.813.089c-1.3 0-2.595-.034-3.888-.091-.324-.014-.645-.037-.968-.055a87.526 87.526 0 0 1-3.078-.216c-.261-.023-.52-.048-.779-.073a88.04 88.04 0 0 1-23.752-5.741 30.066 30.066 0 0 0-.568-.216c-.119-.044-.238-.087-.354-.135l-.014-.005-.074-.031a86.444 86.444 0 0 1-3.069-1.325l-.417-.197a88.328 88.328 0 0 1-2.693-1.293l-.509-.264a89.733 89.733 0 0 1-2.524-1.338l-.517-.292a90.22 90.22 0 0 1-2.498-1.454l-.445-.273a90.43 90.43 0 0 1-2.485-1.58l-.357-.237a93.736 93.736 0 0 1-2.628-1.822l-.14-.102c-12.046-8.714-21.63-20.184-27.993-33.431-.089-.186-.171-.376-.259-.563a89.973 89.973 0 0 1-1.043-2.278 88.673 88.673 0 0 1-1.245-2.991 88.253 88.253 0 0 1-2.776-8.212 88.554 88.554 0 0 1-3.354-24.213v-61.714a62.196 62.196 0 0 1 .048-2.331c.012-.302.029-.592.045-.885.163-2.871.571-5.912 1.425-8.689.052-.167.106-.326.161-.487.07-.213.142-.426.218-.635.116-.315.236-.622.36-.916.017-.038.031-.077.048-.115 1.119-2.598 2.554-4.372 4.09-5.592 2.73-2.082 6.254-2.686 9.514-2.653.347.003.697.014 1.052.031.132.007.264.012.394.02a28.667 28.667 0 0 1 1.682.157c.406.049.815.104 1.228.171l.246.039c.508.086 1.02.182 1.536.292 1.624.516 3.283.997 4.938 1.433l.085.022c1.167.314 2.35.599 3.543.867.713.161 1.426.3 2.139.445.461.093.917.195 1.38.283 1.033.197 2.065.372 3.097.538.138.021.273.048.412.069 6.299.99 12.548 1.427 18.648 1.427 36.747-.002 68.076-15.564 72.247-17.725a95.86 95.86 0 0 1 3.018-1.128c.086-.03.168-.056.253-.086a83.383 83.383 0 0 1 2.72-.908l.079-.024c4.819-1.506 9.269-2.393 13.298-2.65l.067-.004c.758-.048 1.499-.07 2.227-.072h.222c.771.002 1.52.033 2.254.085.11.009.225.013.335.022.713.058 1.405.145 2.084.25.096.016.195.023.29.04.716.12 1.41.271 2.089.446.286.074.56.167.841.251.383.114.765.229 1.135.362.313.111.615.236.918.36a20.055 20.055 0 0 1 1.829.852c.353.187.696.388 1.036.595.229.139.461.273.683.421.511.339 1.009.697 1.49 1.085.097.077.189.16.284.239.46.384.908.786 1.343 1.215.065.065.135.127.2.192.182.184.357.374.531.563.118.128.237.254.353.384.192.218.379.441.564.665.087.106.176.213.262.321.193.242.381.489.565.738l.205.281c.189.265.374.531.554.802l.16.245c.186.285.366.572.541.863.039.064.076.129.114.193.183.309.361.621.533.936l.059.11c1.147 2.124 2.039 4.348 2.734 6.524l.066.205c.089.285.174.568.256.852l.098.333a41.845 41.845 0 0 1 .318 1.174 41.022 41.022 0 0 1 .285 1.159 60.605 60.605 0 0 1 .254 1.142c.039.186.078.37.114.553.038.194.075.385.11.575.03.156.061.314.088.47.04.22.076.435.112.648.02.12.042.243.061.362a56.193 56.193 0 0 1 .148.967c.095.656.173 1.277.237 1.855l.006.057a64.328 64.328 0 0 1 .146 1.512l.013.152a114.334 114.334 0 0 1 .049.67c.011.16.021.313.028.456l.007.125.02.383.005.113.012.31.003.083.007.232.001.067.003.166v.018l.001.081v67.059a88.561 88.561 0 0 1-3.353 24.211 88.378 88.378 0 0 1-3.593 10.208c-.38.897-.779 1.783-1.185 2.663-.165.357-.336.713-.506 1.067-.227.474-.458.942-.691 1.41-.248.494-.495.988-.753 1.479-.067.129-.139.256-.207.384a88.922 88.922 0 0 1-6.405 10.282l-.082.112a88.326 88.326 0 0 1-2.002 2.654l-.232.291a84.49 84.49 0 0 1-1.937 2.369l-.305.358a90.683 90.683 0 0 1-1.984 2.237l-.34.368a81.284 81.284 0 0 1-2.119 2.209l-.259.262a88.388 88.388 0 0 1-2.436 2.345l-.038.035a88.877 88.877 0 0 1-14.003 10.582l-.154.095zm45.48-27.044c.104-.197.212-.393.316-.59.292-.559.577-1.124.86-1.69.277-.552.548-1.105.816-1.661.199-.418.4-.834.595-1.256.477-1.03.942-2.066 1.385-3.111a102.926 102.926 0 0 0 4.206-11.949 103.63 103.63 0 0 0 3.924-28.314v-.559c10.282-.462 19.397-5.468 25.392-13.052-4.246 12.932-9.642 25.065-14.951 36.974-10.331 23.171-20.158 45.211-17.666 67.973h-47.612a103.24 103.24 0 0 0 42.735-42.765zm-7.91 148.817l-30.426 75.62h-2.424V345.772l16.488 7.603 10.495 31.133-10.409 13.445a7.501 7.501 0 0 0 1.03 10.269l15.246 13.157z"/></svg>