<svg xmlns="http://www.w3.org/2000/svg" viewBox="0 0 512.001 512.001"><circle cx="254.711" cy="144.965" r="8.557"/><circle cx="294.61" cy="225.492" r="8.557"/><path d="M286.16 212.981c.12-.052 12.37-4.984 25.718-1.191a7.506 7.506 0 0 0 9.264-5.166 7.501 7.501 0 0 0-5.166-9.264c-18.595-5.281-34.982 1.518-35.671 1.809a7.501 7.501 0 0 0 5.855 13.812z"/><circle cx="214.832" cy="225.492" r="8.557"/><path d="M229.131 199.17c-.69-.293-17.079-7.09-35.673-1.809a7.5 7.5 0 0 0 4.098 14.43c14.695-4.174 25.682 1.787 28.644 1.787 8.101 0 10.44-11.223 2.931-14.408z"/><path d="M354.132 350.838h-54.779v-15.516a96.882 96.882 0 0 0 20.708-14.435c3.29-3.003 3.245-8.187-.063-11.136a7.5 7.5 0 0 0-10.05.058c-50.099 45.736-131.283 13.859-136.885-53.875h163.322c-1.103 13.464-5.408 26.089-12.371 37.1a7.499 7.499 0 0 0 2.326 10.348 7.5 7.5 0 0 0 10.349-2.326c8.708-13.759 13.841-29.689 14.789-45.951 15.491-3.538 25.671-17.731 25.671-31.602v-50.636c3.146-3.454 5.082-8.027 5.082-13.057v-27.179c0-4.914-1.849-9.396-4.868-12.821.991-11.755 2.191-46.585-15.435-67.98-7.863-9.546-18.313-15.19-31.102-16.813-22.1-35.578-70.731-39.355-111.713-31.745-38.111 7.525-72.698 37.501-80.838 74.492-2.558 11.845-3.917 25.284-4.081 39.957-4.27 3.567-6.994 8.927-6.994 14.911v27.179c0 5.029 1.938 9.604 5.084 13.059 0 54.774-.089 51.105.207 52.356.949 14.643 11.531 26.695 25.459 29.878 2.142 35.904 23.907 66.61 54.696 81.501v14.234h-54.779c-38.678 0-70.144 31.467-70.144 70.145v71.586c0 10.715 8.717 19.432 19.431 19.432h297.691c10.715 0 19.431-8.718 19.431-19.432v-71.586c0-38.679-31.467-70.146-70.144-70.146zm-2.468-111.554v-32.386c13.74 6.391 13.854 25.945 0 32.386zm10.485-43.689a33.126 33.126 0 0 0-10.486-4.508v-11.846h10.486v16.354zm2.484-66.986c.417.191.646.352.646.352a4.432 4.432 0 0 1 1.951 3.671c0 29.213.631 29.028-1.895 30.803-1.819 1.266 2.509.809-67.71.809 4.911-10.89 5.638-24.061 1.056-36.044 68.926 0 64.28-.077 65.167.138.292.072.528.149.785.271zM152.904 81.078c9.571-36.776 43.109-66.03 100.325-66.03 22.765 0 52.772 5.316 66.454 30.642a7.5 7.5 0 0 0 6.159 3.923c10.469.614 18.477 4.451 24.486 11.73 12.035 14.578 12.901 38.971 12.395 51.857h-73.332c-18.523-20.27-50.684-20.434-69.352 0h-70.768c.361-11.771 1.577-22.548 3.633-32.122zm131.825 75.086c-.165.44-1.575 3.788-1.851 4.064-2.149 3.95-5.079 7.384-8.747 10.2-28.745 21.776-65.274-13.019-46.485-42.559 20.268-31.844 70.746-8.214 57.083 28.295zm-126.96 83.12c-13.963-6.487-13.594-26.057 0-32.386v32.386zm0-48.196a33.053 33.053 0 0 0-10.486 4.508v-16.353h10.486v11.845zM144.1 163.436c-.907-.477-1.899-2.011-1.899-3.626v-27.179c0-2.392 1.908-4.334 4.28-4.417.158-.01 64.11-.014 64.27-.014-4.321 11.295-4.156 24.421 1.055 36.043-69.423 0-66.071.353-67.706-.807zm28.669 15.807h49.745c18.514 17.386 46.743 16.58 64.403 0h49.746v61.693h-74.449v-10.547c0-4.143-3.357-7.5-7.5-7.5a7.499 7.499 0 0 0-7.5 7.5v10.547h-74.447c.002-7.149.002-54.268.002-61.693zm47.377 186.595c4.143 0 7.5-3.357 7.5-7.5v-15.95c18.178 5.285 38.292 5.141 56.707-.782v16.732c0 4.143 3.357 7.5 7.5 7.5h1.743c-20.524 24.016-57.218 24.038-77.757 0h4.307zM233.585 497h-76.811v-47.19c0-4.143-3.357-7.5-7.5-7.5a7.499 7.499 0 0 0-7.5 7.5V497h-34.62a4.437 4.437 0 0 1-4.432-4.432v-71.586c0-30.407 24.737-55.145 55.144-55.145h6.845c11.191 30.398 37.353 53.365 68.874 60.511V497zm175.693-4.431a4.44 4.44 0 0 1-4.433 4.433h-34.618v-47.19c0-4.143-3.357-7.5-7.5-7.5a7.499 7.499 0 0 0-7.5 7.5v47.19h-76.811v-29.483c0-4.143-3.357-7.5-7.5-7.5s-7.5 3.357-7.5 7.5v29.483h-14.831v-76.85a7.5 7.5 0 0 0-6.348-7.411c-27.098-4.215-50.238-22.192-61.347-46.9h16.636c25.489 43.937 88.872 43.963 114.381 0h16.623c-10.777 23.864-33.002 41.661-58.987 46.497a7.5 7.5 0 0 0-6.128 7.373v23.81c0 4.143 3.357 7.5 7.5 7.5s7.5-3.357 7.5-7.5v-17.787c30.511-7.791 55.418-30.281 66.307-59.893h9.41c30.407 0 55.145 24.737 55.145 55.145v71.583z"/></svg>