<?xml version="1.0" encoding="iso-8859-1"?>
<!-- Generator: Adobe Illustrator 19.0.0, SVG Export Plug-In . SVG Version: 6.00 Build 0)  -->
<svg version="1.1" id="Layer_1" xmlns="http://www.w3.org/2000/svg" xmlns:xlink="http://www.w3.org/1999/xlink" x="0px" y="0px"
	 viewBox="0 0 512.001 512.001" style="enable-background:new 0 0 512.001 512.001;" xml:space="preserve">
<g>
	<g>
		<g>
			<circle cx="254.711" cy="144.965" r="8.557"/>
			<circle cx="294.61" cy="225.492" r="8.557"/>
			<path d="M286.16,212.981c0.12-0.052,12.37-4.984,25.718-1.191c3.98,1.129,8.131-1.182,9.264-5.166
				c1.132-3.984-1.182-8.132-5.166-9.264c-18.595-5.281-34.982,1.518-35.671,1.809c-3.814,1.617-5.594,6.02-3.978,9.833
				C277.943,212.812,282.338,214.599,286.16,212.981z"/>
			<circle cx="214.832" cy="225.492" r="8.557"/>
			<path d="M229.131,199.17c-0.69-0.293-17.079-7.09-35.673-1.809c-3.984,1.132-6.298,5.279-5.166,9.264
				c1.132,3.984,5.28,6.299,9.264,5.166c14.695-4.174,25.682,1.787,28.644,1.787C234.301,213.578,236.64,202.355,229.131,199.17z"/>
			<path d="M354.132,350.838c-11.536,0-43.794,0-54.779,0v-15.516c7.435-3.859,14.406-8.682,20.708-14.435
				c3.29-3.003,3.245-8.187-0.063-11.136c-2.833-2.535-7.182-2.561-10.05,0.058c-50.099,45.736-131.283,13.859-136.885-53.875
				h163.322c-1.103,13.464-5.408,26.089-12.371,37.1c-2.216,3.5-1.174,8.133,2.326,10.348c3.497,2.216,8.133,1.175,10.349-2.326
				c8.708-13.759,13.841-29.689,14.789-45.951c15.491-3.538,25.671-17.731,25.671-31.602v-50.636
				c3.146-3.454,5.082-8.027,5.082-13.057v-27.179c0-4.914-1.849-9.396-4.868-12.821c0.991-11.755,2.191-46.585-15.435-67.98
				c-7.863-9.546-18.313-15.19-31.102-16.813C308.726-0.561,260.095-4.338,219.113,3.272c-38.111,7.525-72.698,37.501-80.838,74.492
				c-2.558,11.845-3.917,25.284-4.081,39.957c-4.27,3.567-6.994,8.927-6.994,14.911v27.179c0,5.029,1.938,9.604,5.084,13.059
				c0,54.774-0.089,51.105,0.207,52.356c0.949,14.643,11.531,26.695,25.459,29.878c2.142,35.904,23.907,66.61,54.696,81.501v14.234
				c-11.101,0-43.469,0-54.779,0c-38.678,0-70.144,31.467-70.144,70.145v71.586c0,10.715,8.717,19.432,19.431,19.432
				c13.115,0,289.051,0,297.691,0c10.715,0,19.431-8.718,19.431-19.432v-71.586C424.276,382.305,392.809,350.838,354.132,350.838z
				 M351.664,239.284v-32.386C365.404,213.289,365.518,232.843,351.664,239.284z M362.149,195.595
				c-3.243-2.134-6.893-3.661-10.486-4.508v-11.846h10.486V195.595z M364.633,128.609c0.417,0.191,0.646,0.352,0.646,0.352
				c1.176,0.798,1.951,2.145,1.951,3.671c0,29.213,0.631,29.028-1.895,30.803c-1.819,1.266,2.509,0.809-67.71,0.809
				c4.911-10.89,5.638-24.061,1.056-36.044c68.926,0,64.28-0.077,65.167,0.138C364.14,128.41,364.376,128.487,364.633,128.609z
				 M152.904,81.078c9.571-36.776,43.109-66.03,100.325-66.03c22.765,0,52.772,5.316,66.454,30.642
				c1.235,2.286,3.565,3.771,6.159,3.923c10.469,0.614,18.477,4.451,24.486,11.73c12.035,14.578,12.901,38.971,12.395,51.857
				h-73.332c-18.523-20.27-50.684-20.434-69.352,0h-70.768C149.632,101.429,150.848,90.652,152.904,81.078z M284.729,156.164
				c-0.165,0.44-1.575,3.788-1.851,4.064c-2.149,3.95-5.079,7.384-8.747,10.2c-28.745,21.776-65.274-13.019-46.485-42.559
				C247.914,96.025,298.392,119.655,284.729,156.164z M157.769,239.284c-13.963-6.487-13.594-26.057,0-32.386V239.284z
				 M157.769,191.088c-3.66,0.863-7.27,2.395-10.486,4.508v-16.353h10.486V191.088z M144.1,163.436
				c-0.907-0.477-1.899-2.011-1.899-3.626v-27.179c0-2.392,1.908-4.334,4.28-4.417c0.158-0.01,64.11-0.014,64.27-0.014
				c-4.321,11.295-4.156,24.421,1.055,36.043C142.383,164.243,145.735,164.596,144.1,163.436z M172.769,179.243h49.745
				c18.514,17.386,46.743,16.58,64.403,0h49.746c0,7.426,0,54.543,0,61.693h-74.449v-10.547c0-4.143-3.357-7.5-7.5-7.5
				c-4.143,0-7.5,3.357-7.5,7.5v10.547h-74.447C172.769,233.787,172.769,186.668,172.769,179.243z M220.146,365.838
				c4.143,0,7.5-3.357,7.5-7.5v-15.95c18.178,5.285,38.292,5.141,56.707-0.782v16.732c0,4.143,3.357,7.5,7.5,7.5h1.743
				c-20.524,24.016-57.218,24.038-77.757,0H220.146z M233.585,497h-76.811v-47.19c0-4.143-3.357-7.5-7.5-7.5
				c-4.143,0-7.5,3.357-7.5,7.5V497h-34.62c-2.443,0-4.432-1.988-4.432-4.432v-71.586c0-30.407,24.737-55.145,55.144-55.145h6.845
				c11.191,30.398,37.353,53.365,68.874,60.511V497z M409.278,492.569L409.278,492.569c-0.001,2.444-1.989,4.433-4.433,4.433
				h-34.618v-47.19c0-4.143-3.357-7.5-7.5-7.5c-4.143,0-7.5,3.357-7.5,7.5v47.19h-76.811v-29.483c0-4.143-3.357-7.5-7.5-7.5
				s-7.5,3.357-7.5,7.5v29.483h-14.831v-76.85c0-3.697-2.694-6.843-6.348-7.411c-27.098-4.215-50.238-22.192-61.347-46.9h16.636
				c25.489,43.937,88.872,43.963,114.381,0h16.623c-10.777,23.864-33.002,41.661-58.987,46.497c-3.552,0.661-6.128,3.76-6.128,7.373
				v23.81c0,4.143,3.357,7.5,7.5,7.5c4.143,0,7.5-3.357,7.5-7.5v-17.787c30.511-7.791,55.418-30.281,66.307-59.893h9.41
				c30.407,0,55.145,24.737,55.145,55.145V492.569z"/>
		</g>
	</g>
</g>
<g>
</g>
<g>
</g>
<g>
</g>
<g>
</g>
<g>
</g>
<g>
</g>
<g>
</g>
<g>
</g>
<g>
</g>
<g>
</g>
<g>
</g>
<g>
</g>
<g>
</g>
<g>
</g>
<g>
</g>
</svg>
