<?xml version="1.0" encoding="iso-8859-1"?>
<!-- Generator: Adobe Illustrator 19.0.0, SVG Export Plug-In . SVG Version: 6.00 Build 0)  -->
<svg version="1.1" id="Layer_1" xmlns="http://www.w3.org/2000/svg" xmlns:xlink="http://www.w3.org/1999/xlink" x="0px" y="0px"
	 viewBox="0 0 512.001 512.001" style="enable-background:new 0 0 512.001 512.001;" xml:space="preserve">
<g>
	<g>
		<g>
			<circle cx="254.717" cy="144.939" r="8.558"/>
			<circle cx="294.609" cy="225.464" r="8.558"/>
			<path d="M276.331,208.974c1.615,3.809,6.01,5.596,9.834,3.978c0.12-0.052,12.371-4.984,25.721-1.191
				c3.98,1.129,8.133-1.182,9.265-5.166c1.132-3.984-1.182-8.132-5.166-9.265c-18.599-5.281-34.985,1.519-35.674,1.81
				C276.495,200.757,274.715,205.16,276.331,208.974z"/>
			<circle cx="214.825" cy="225.464" r="8.558"/>
			<path d="M229.129,199.141c-0.689-0.293-17.081-7.09-35.676-1.81c-3.984,1.132-6.298,5.279-5.166,9.265
				c1.132,3.984,5.278,6.299,9.265,5.166c14.696-4.174,25.685,1.787,28.647,1.787C234.301,213.549,236.639,202.325,229.129,199.141z
				"/>
			<path d="M354.143,350.823c-11.537,0-43.798,0-54.784,0v-4.621h58.303c10.753,0,19.501-8.749,19.501-19.501v-29.864
				c0-4.143-3.357-7.5-7.5-7.5s-7.5,3.357-7.5,7.5v29.864c0,2.481-2.018,4.5-4.5,4.5h-51.123
				c25.213-15.985,42.87-43.663,44.96-76.112c3.569-0.816,7.288-2.329,10.664-4.55v20.629c0,4.143,3.357,7.5,7.5,7.5
				s7.5-3.357,7.5-7.5c0-10.136,0-88.154,0-98.333c3.146-3.454,5.082-8.027,5.082-13.058v-27.182c0-4.933-1.862-9.429-4.901-12.859
				C375.83,53.455,321.445,0,254.807,0c-66.57,0-120.912,53.346-122.531,119.534c-3.148,3.455-5.086,8.03-5.086,13.062v27.182
				c0,5.029,1.938,9.606,5.084,13.06c0,7.371,0,145.896,0,153.863c0,10.753,8.749,19.501,19.501,19.501h60.869v4.621
				c-6.354,0-47.844,0-54.784,0c-38.681,0-70.151,31.47-70.151,70.151v71.592c0,10.716,8.718,19.434,19.433,19.434
				c15.097,0,286.245,0,297.719,0c10.716,0,19.433-8.719,19.433-19.434v-71.592C424.294,382.293,392.824,350.823,354.143,350.823z
				 M336.673,240.91h-74.456v-10.548c0-4.143-3.357-7.5-7.5-7.5c-4.143,0-7.5,3.357-7.5,7.5v10.548h-74.453
				c0-7.149,0-54.273,0-61.699h49.75v0c17.695,16.618,45.947,17.334,64.409,0h49.751
				C336.673,186.637,336.673,233.759,336.673,240.91z M246.528,113.96c25.148-6.612,47.275,17.932,38.205,42.17
				c-0.148,0.394-1.553,3.766-1.851,4.063c-8.181,15.038-26.887,21.203-42.514,13.373
				C213.425,159.385,218.766,121.307,246.528,113.96z M351.674,239.237V206.87c4.737,2.203,8.034,6.194,9.489,10.71
				C362.163,218.478,364.568,233.218,351.674,239.237z M362.161,195.567c-3.258-2.144-6.911-3.666-10.487-4.509v-11.847h10.487
				V195.567z M367.244,132.596c0,29.216,0.631,29.031-1.895,30.806c-1.819,1.266,2.509,0.809-67.716,0.809
				c5.3-11.753,5.285-24.985,1.056-36.047c67.095-0.001,64.701-0.231,66.092,0.482C366.302,129.407,367.244,130.932,367.244,132.596
				z M254.807,15.001c56.143,0,102.379,43.237,107.162,98.161h-72.572c-18.481-20.227-50.654-20.472-69.358,0h-72.393
				C152.43,58.238,198.665,15.001,254.807,15.001z M142.191,159.777c0-29.604-0.777-29.563,2.517-31.16
				c1.329-0.658-3.086-0.454,66.04-0.454c-4.394,11.487-4.074,24.612,1.054,36.047c-69.458,0-66.078,0.353-67.712-0.807
				C143.192,162.935,142.191,161.399,142.191,159.777z M147.275,195.566v-16.355h10.487v11.847
				C154.101,191.921,150.492,193.452,147.275,195.566z M157.762,206.87v32.367C144.191,232.934,143.805,213.367,157.762,206.87z
				 M151.776,331.201c-2.482,0-4.5-2.019-4.5-4.5V250.54c3.34,2.194,7.119,3.747,10.661,4.548
				c1.775,30.718,18.276,59.287,44.924,76.113H151.776z M173.057,255.911h163.322c-1.174,14.024-5.823,27.627-14.151,39.727
				C278.403,359.3,179.357,332.081,173.057,255.911z M291.858,365.824h1.743c-20.525,24.016-57.225,24.041-77.765,0h4.308
				c4.143,0,7.5-3.358,7.5-7.5v-15.952c19.334,5.621,39.477,4.764,56.712-0.782v16.734
				C284.358,362.467,287.715,365.824,291.858,365.824z M233.586,496.998h-76.819v-47.195c0-4.143-3.357-7.5-7.5-7.5
				c-4.143,0-7.5,3.357-7.5,7.5v47.195h-34.623c-2.444,0.001-4.433-1.988-4.433-4.432v-71.592c0-30.41,24.739-55.15,55.15-55.15
				h6.845c11.192,30.401,37.356,53.37,68.88,60.517V496.998z M404.861,496.999H370.24v-47.195c0-4.143-3.358-7.5-7.5-7.5
				c-4.143,0-7.5,3.357-7.5,7.5v47.195h-76.82v-30.987c0-4.143-3.357-7.5-7.5-7.5s-7.5,3.357-7.5,7.5v30.987h-14.833v-76.859
				c0-3.697-2.694-6.843-6.348-7.411c-27.101-4.215-50.243-22.194-61.353-46.905h16.638c25.492,43.941,88.88,43.967,114.392,0
				h16.625c-10.778,23.866-33.005,41.665-58.993,46.502c-3.552,0.661-6.128,3.76-6.128,7.373v21.812c0,4.143,3.357,7.5,7.5,7.5
				s7.5-3.357,7.5-7.5v-15.789c30.514-7.791,55.423-30.284,66.313-59.899h9.411c30.41,0,55.149,24.74,55.149,55.15v71.591h0.001
				C409.293,495.01,407.305,496.999,404.861,496.999z"/>
		</g>
	</g>
</g>
<g>
</g>
<g>
</g>
<g>
</g>
<g>
</g>
<g>
</g>
<g>
</g>
<g>
</g>
<g>
</g>
<g>
</g>
<g>
</g>
<g>
</g>
<g>
</g>
<g>
</g>
<g>
</g>
<g>
</g>
</svg>
