<svg xmlns="http://www.w3.org/2000/svg" viewBox="0 0 512.001 512.001"><circle cx="254.717" cy="144.939" r="8.558"/><circle cx="294.609" cy="225.464" r="8.558"/><path d="M276.331 208.974a7.5 7.5 0 0 0 9.834 3.978c.12-.052 12.371-4.984 25.721-1.191a7.506 7.506 0 0 0 9.265-5.166 7.503 7.503 0 0 0-5.166-9.265c-18.599-5.281-34.985 1.519-35.674 1.81a7.501 7.501 0 0 0-3.98 9.834z"/><circle cx="214.825" cy="225.464" r="8.558"/><path d="M229.129 199.141c-.689-.293-17.081-7.09-35.676-1.81a7.501 7.501 0 0 0 4.099 14.431c14.696-4.174 25.685 1.787 28.647 1.787 8.102 0 10.44-11.224 2.93-14.408z"/><path d="M354.143 350.823h-54.784v-4.621h58.303c10.753 0 19.501-8.749 19.501-19.501v-29.864c0-4.143-3.357-7.5-7.5-7.5s-7.5 3.357-7.5 7.5v29.864c0 2.481-2.018 4.5-4.5 4.5H306.54c25.213-15.985 42.87-43.663 44.96-76.112a32.991 32.991 0 0 0 10.664-4.55v20.629c0 4.143 3.357 7.5 7.5 7.5s7.5-3.357 7.5-7.5v-98.333c3.146-3.454 5.082-8.027 5.082-13.058v-27.182c0-4.933-1.862-9.429-4.901-12.859C375.83 53.455 321.445 0 254.807 0c-66.57 0-120.912 53.346-122.531 119.534-3.148 3.455-5.086 8.03-5.086 13.062v27.182c0 5.029 1.938 9.606 5.084 13.06v153.863c0 10.753 8.749 19.501 19.501 19.501h60.869v4.621H157.86c-38.681 0-70.151 31.47-70.151 70.151v71.592c0 10.716 8.718 19.434 19.433 19.434h297.719c10.716 0 19.433-8.719 19.433-19.434v-71.592c0-38.681-31.47-70.151-70.151-70.151zm-17.47-109.913h-74.456v-10.548c0-4.143-3.357-7.5-7.5-7.5a7.499 7.499 0 0 0-7.5 7.5v10.548h-74.453v-61.699h49.75c17.695 16.618 45.947 17.334 64.409 0h49.751l-.001 61.699zm-90.145-126.95c25.148-6.612 47.275 17.932 38.205 42.17-.148.394-1.553 3.766-1.851 4.063-8.181 15.038-26.887 21.203-42.514 13.373-26.943-14.181-21.602-52.259 6.16-59.606zm105.146 125.277V206.87a17.843 17.843 0 0 1 9.489 10.71c1 .898 3.405 15.638-9.489 21.657zm10.487-43.67a33.127 33.127 0 0 0-10.487-4.509v-11.847h10.487v16.356zm5.083-62.971c0 29.216.631 29.031-1.895 30.806-1.819 1.266 2.509.809-67.716.809 5.3-11.753 5.285-24.985 1.056-36.047 67.095-.001 64.701-.231 66.092.482a4.416 4.416 0 0 1 2.463 3.95zM254.807 15.001c56.143 0 102.379 43.237 107.162 98.161h-72.572c-18.481-20.227-50.654-20.472-69.358 0h-72.393c4.784-54.924 51.019-98.161 107.161-98.161zM142.191 159.777c0-29.604-.777-29.563 2.517-31.16 1.329-.658-3.086-.454 66.04-.454-4.394 11.487-4.074 24.612 1.054 36.047-69.458 0-66.078.353-67.712-.807-.898-.468-1.899-2.004-1.899-3.626zm5.084 35.789v-16.355h10.487v11.847a33.036 33.036 0 0 0-10.487 4.508zm10.487 11.304v32.367c-13.571-6.303-13.957-25.87 0-32.367zm-5.986 124.331a4.505 4.505 0 0 1-4.5-4.5V250.54c3.34 2.194 7.119 3.747 10.661 4.548 1.775 30.718 18.276 59.287 44.924 76.113h-51.085zm21.281-75.29h163.322c-1.174 14.024-5.823 27.627-14.151 39.727-43.825 63.662-142.871 36.443-149.171-39.727zm118.801 109.913h1.743c-20.525 24.016-57.225 24.041-77.765 0h4.308a7.5 7.5 0 0 0 7.5-7.5v-15.952c19.334 5.621 39.477 4.764 56.712-.782v16.734a7.502 7.502 0 0 0 7.502 7.5zm-58.272 131.174h-76.819v-47.195c0-4.143-3.357-7.5-7.5-7.5a7.499 7.499 0 0 0-7.5 7.5v47.195h-34.623a4.437 4.437 0 0 1-4.433-4.432v-71.592c0-30.41 24.739-55.15 55.15-55.15h6.845c11.192 30.401 37.356 53.37 68.88 60.517v70.657zm171.275.001H370.24v-47.195a7.5 7.5 0 0 0-7.5-7.5 7.499 7.499 0 0 0-7.5 7.5v47.195h-76.82v-30.987c0-4.143-3.357-7.5-7.5-7.5s-7.5 3.357-7.5 7.5v30.987h-14.833V420.14a7.5 7.5 0 0 0-6.348-7.411c-27.101-4.215-50.243-22.194-61.353-46.905h16.638c25.492 43.941 88.88 43.967 114.392 0h16.625c-10.778 23.866-33.005 41.665-58.993 46.502a7.5 7.5 0 0 0-6.128 7.373v21.812c0 4.143 3.357 7.5 7.5 7.5s7.5-3.357 7.5-7.5v-15.789c30.514-7.791 55.423-30.284 66.313-59.899h9.411c30.41 0 55.149 24.74 55.149 55.15v71.591h.001a4.44 4.44 0 0 1-4.433 4.435z"/></svg>