<svg xmlns="http://www.w3.org/2000/svg" viewBox="0 0 512 512"><path d="M419.172 392.755h61.997c6.896 0 12.507-5.61 12.507-12.507v-37.594h7.34c6.056 0 10.983-4.927 10.983-10.982v-16.696c0-6.056-4.927-10.982-10.983-10.982h-7.34V266.4c0-6.896-5.61-12.507-12.507-12.507h-61.998c-6.896 0-12.507 5.61-12.507 12.507v26.215h-15.949v-173.18h15.949v22.84c0 6.896 5.61 12.507 12.507 12.507h25.995c6.896 0 12.507-5.61 12.507-12.507v-29.053h7.34c6.056 0 10.983-4.927 10.983-10.983V85.545c0-6.056-4.927-10.982-10.983-10.982h-7.34V45.509c0-6.896-5.61-12.507-12.507-12.507h-25.995c-6.896 0-12.507 5.61-12.507 12.507v22.84h-15.949V13.086c0-6.896-5.61-12.507-12.507-12.507h-29.014c-6.896 0-12.507 5.61-12.507 12.507V68.35H297.02c-4.145 0-7.504 3.359-7.504 7.504s3.359 7.504 7.504 7.504h109.644v21.069H106.971V83.359h144.026a7.503 7.503 0 0 0 7.504-7.504 7.503 7.503 0 0 0-7.504-7.504H175.31V13.086c0-6.896-5.61-12.507-12.507-12.507h-29.014c-6.896 0-12.507 5.61-12.507 12.507V68.35h-15.167V45.51c0-6.896-5.61-12.507-12.507-12.507H67.615c-6.896 0-12.507 5.61-12.507 12.507v29.053h-8.019c-6.056 0-10.982 4.927-10.982 10.982v16.695c0 6.056 4.927 10.983 10.982 10.983h8.019v29.053c0 6.896 5.61 12.507 12.507 12.507H93.61c6.896 0 12.507-5.61 12.507-12.507v-22.84h15.167v173.179h-15.167v-31.382c0-6.896-5.61-12.507-12.507-12.507H31.614c-6.896 0-12.507 5.61-12.507 12.507v37.594h-7.765c-6.056 0-10.982 4.927-10.982 10.982v16.696c0 6.056 4.927 10.982 10.982 10.982h7.765v37.595c0 6.896 5.61 12.507 12.507 12.507h61.997c6.896 0 12.507-5.61 12.507-12.507v-31.383h15.167v41.872a7.503 7.503 0 0 0 7.504 7.504 7.503 7.503 0 0 0 7.504-7.504v-41.872h24.011v110.007h-24.012v-21.614c0-4.145-3.359-7.504-7.504-7.504s-7.504 3.359-7.504 7.504v21.613H12.507C5.61 453.705 0 459.315 0 466.211v32.703c0 6.896 5.61 12.507 12.507 12.507h486.986c6.896 0 12.507-5.61 12.507-12.507v-32.703c0-6.896-5.61-12.507-12.507-12.507H390.716V343.698h15.949v36.55c.001 6.896 5.611 12.507 12.507 12.507zm74.505-73.754h3.315v8.645h-3.315v-8.645zm-36.003-50.1h20.994v108.846h-20.994V268.901zm-36 0h20.993v108.846h-20.993V268.901zm36-179.33h3.315v8.644h-3.315v-8.644zm-36-41.56h20.993v91.763h-20.993V48.011zM375.708 68.35h-24.011V15.587h24.011V68.35zM136.291 15.587h24.011V68.35h-24.011V15.587zM54.43 98.215h-3.315v-8.644h3.315v8.644zm36.679 41.56H70.116V48.011h20.992v91.764zM18.682 322.479h-3.315v-8.645h3.315v8.645zm36.426 50.101H34.116V263.733h20.992V372.58zm36.001 0H70.116V263.733h20.992V372.58zm260.588-253.145h24.011v173.179h-24.011V119.435zm-176.386 0h161.378v173.179H175.311V119.435zm-39.02 0h24.011v173.179h-24.011V119.435zm360.7 349.279v27.7H15.008v-27.7h481.983zm-321.68-15.009V343.698h161.378v110.007H175.311zm176.386 0V343.698h24.011v110.007h-24.011zM106.971 328.69v-21.068h299.694v21.068H106.971z"/></svg>