<?xml version="1.0" encoding="iso-8859-1"?>
<!-- Generator: Adobe Illustrator 18.0.0, SVG Export Plug-In . SVG Version: 6.00 Build 0)  -->
<!DOCTYPE svg PUBLIC "-//W3C//DTD SVG 1.1//EN" "http://www.w3.org/Graphics/SVG/1.1/DTD/svg11.dtd">
<svg version="1.1" id="Capa_1" xmlns="http://www.w3.org/2000/svg" xmlns:xlink="http://www.w3.org/1999/xlink" x="0px" y="0px"
	 viewBox="0 0 305.485 305.485" style="enable-background:new 0 0 305.485 305.485;" xml:space="preserve">
<g>
	<path d="M191.755,242.238H16.313l83.423-83.413l20.22,20.22c0.976,0.976,2.256,1.464,3.536,1.464s2.559-0.488,3.536-1.464
		c1.953-1.953,1.953-5.119,0-7.071L18.302,63.247h34.121c2.761,0,5-2.239,5-5c0-2.761-2.239-5-5-5H5c-2.761,0-5,2.239-5,5v188.99
		c0,2.761,2.239,5,5,5h186.755c2.762,0,5-2.239,5-5S194.517,242.238,191.755,242.238z M10,234.409V69.088l82.665,82.665L10,234.409z
		"/>
	<path d="M213.088,242.238h-6c-2.762,0-5,2.239-5,5s2.238,5,5,5h6c2.762,0,5-2.239,5-5S215.85,242.238,213.088,242.238z"/>
	<path d="M300.485,53.247H69.755c-2.761,0-5,2.239-5,5c0,2.761,2.239,5,5,5h217.428l-48.71,48.71c-1.953,1.953-1.953,5.119,0,7.071
		c0.976,0.976,2.256,1.464,3.535,1.464s2.56-0.488,3.535-1.464l49.941-49.941v165.325l-82.663-82.662l16.721-16.721
		c1.953-1.953,1.953-5.119,0-7.071c-1.951-1.952-5.119-1.952-7.07,0l-69.731,69.73l-14.387-14.387c-1.953-1.952-5.118-1.952-7.071,0
		c-1.953,1.953-1.953,5.119,0,7.071l17.922,17.922c0.977,0.976,2.256,1.464,3.536,1.464s2.559-0.488,3.536-1.464l49.474-49.474
		l83.417,83.417h-60.746c-2.762,0-5,2.239-5,5s2.238,5,5,5h72.063c2.762,0,5-2.239,5-5V58.247
		C305.485,55.486,303.247,53.247,300.485,53.247z"/>
</g>
<g>
</g>
<g>
</g>
<g>
</g>
<g>
</g>
<g>
</g>
<g>
</g>
<g>
</g>
<g>
</g>
<g>
</g>
<g>
</g>
<g>
</g>
<g>
</g>
<g>
</g>
<g>
</g>
<g>
</g>
</svg>
