<svg xmlns="http://www.w3.org/2000/svg" viewBox="0 0 305.485 305.485"><path d="M191.755 242.238H16.313l83.423-83.413 20.22 20.22c.976.976 2.256 1.464 3.536 1.464s2.559-.488 3.536-1.464a5 5 0 0 0 0-7.071L18.302 63.247h34.121a5 5 0 0 0 0-10H5a5 5 0 0 0-5 5v188.99a5 5 0 0 0 5 5h186.755a5 5 0 1 0 0-9.999zM10 234.409V69.088l82.665 82.665L10 234.409zM213.088 242.238h-6a5 5 0 1 0 0 10h6a5 5 0 1 0 0-10z"/><path d="M300.485 53.247H69.755a5 5 0 0 0 0 10h217.428l-48.71 48.71a5 5 0 1 0 7.07 7.071l49.941-49.941v165.325l-82.663-82.662 16.721-16.721a5 5 0 1 0-7.07-7.071l-69.731 69.73-14.387-14.387a5.001 5.001 0 0 0-7.071 7.071l17.922 17.922c.977.976 2.256 1.464 3.536 1.464s2.559-.488 3.536-1.464l49.474-49.474 83.417 83.417h-60.746a5 5 0 1 0 0 10h72.063a5 5 0 0 0 5-5V58.247a5 5 0 0 0-5-5z"/></svg>