<svg xmlns="http://www.w3.org/2000/svg" viewBox="0 0 512.001 512.001"><path d="M475.202 118.482h-74.89v-21.02c0-23.881-17.556-43.734-40.438-47.344V48.59c0-12.552-10.211-22.764-22.763-22.764H174.889c-12.552 0-22.764 10.212-22.764 22.764v1.528c-22.883 3.609-40.438 23.463-40.438 47.344v21.021H36.798C16.507 118.482 0 134.99 0 155.28v28.437a7.496 7.496 0 1 0 14.992 0V155.28c0-12.024 9.782-21.806 21.806-21.806h265.179a7.496 7.496 0 1 0 0-14.992H126.679v-21.02c0-15.585 10.883-28.668 25.446-32.072v.068c0 12.552 10.212 22.764 22.764 22.764h162.223c12.552 0 22.763-10.212 22.763-22.764v-.067c14.563 3.404 25.446 16.486 25.446 32.071v21.021h-29.373a7.496 7.496 0 1 0 0 14.992h119.254c12.024 0 21.806 9.782 21.806 21.806v294.097c0 12.024-9.782 21.806-21.806 21.806H36.798c-12.024 0-21.806-9.782-21.806-21.806V237.931a7.496 7.496 0 1 0-14.992 0v211.446c0 20.29 16.507 36.798 36.798 36.798h438.405c20.29 0 36.798-16.508 36.798-36.798V155.28c-.001-20.29-16.509-36.798-36.799-36.798zM344.883 65.459c0 4.286-3.486 7.772-7.771 7.772H174.889c-4.285 0-7.772-3.486-7.772-7.772v-16.87c0-4.286 3.486-7.772 7.772-7.772h162.223c4.285 0 7.771 3.487 7.771 7.772v16.87z"/><path d="M317.403 268.729h-24.394a3.414 3.414 0 0 1-3.41-3.41v-24.395c0-10.146-8.255-18.402-18.403-18.402h-30.392c-10.147 0-18.403 8.255-18.403 18.402v24.395c0 1.881-1.53 3.41-3.411 3.41h-24.394c-10.147 0-18.403 8.255-18.403 18.403v30.392c0 10.147 8.255 18.402 18.403 18.402h24.394a3.415 3.415 0 0 1 3.411 3.411v24.394c0 10.147 8.255 18.402 18.403 18.402h30.392c10.148 0 18.403-8.255 18.403-18.402v-24.394a3.414 3.414 0 0 1 3.41-3.411h24.394c10.148 0 18.403-8.255 18.403-18.402v-30.392c0-10.148-8.255-18.403-18.403-18.403zm3.411 48.796c0 1.881-1.53 3.41-3.411 3.41h-24.394c-10.147 0-18.402 8.255-18.402 18.403v24.394c0 1.881-1.53 3.41-3.411 3.41h-30.392a3.414 3.414 0 0 1-3.411-3.41v-24.394c0-10.148-8.255-18.403-18.403-18.403h-24.394a3.414 3.414 0 0 1-3.411-3.41v-30.392a3.415 3.415 0 0 1 3.411-3.411h24.394c10.147 0 18.403-8.255 18.403-18.402v-24.395c0-1.881 1.53-3.41 3.411-3.41h30.392a3.414 3.414 0 0 1 3.411 3.41v24.395c0 10.147 8.255 18.402 18.402 18.402h24.394a3.415 3.415 0 0 1 3.411 3.411v30.392z"/></svg>