<svg xmlns="http://www.w3.org/2000/svg" viewBox="0 0 512 512"><path d="M499.482 406.523h-10.181a32.239 32.239 0 0 0 6.219-19.064v-5.479c0-.71-.105-1.394-.289-2.044.185-.856.289-1.742.289-2.653v-20.38c0-1.689-.341-3.299-.949-4.77 5.611-5.011 9.151-12.295 9.151-20.391v-1.732c0-9.279-4.651-17.489-11.739-22.435a21.94 21.94 0 0 0 3.536-11.961v-1.271c0-3.348-.753-6.522-2.093-9.368a7.478 7.478 0 0 0 2.093-5.193v-12.823c0-30.671-24.953-55.625-55.625-55.625h-51.502v-24.473a7.511 7.511 0 0 0-15.022 0v24.473h-51.502c-30.671 0-55.625 24.953-55.625 55.625v12.823c0 2.017.799 3.845 2.093 5.193a21.936 21.936 0 0 0-2.093 9.368v1.271a21.94 21.94 0 0 0 3.536 11.961c-7.088 4.946-11.739 13.156-11.739 22.435v1.732c0 8.097 3.541 15.38 9.151 20.391a12.441 12.441 0 0 0-.949 4.771v20.38c0 .91.103 1.797.289 2.653a7.499 7.499 0 0 0-.289 2.044v5.479a32.246 32.246 0 0 0 6.219 19.064h-46.51a26.462 26.462 0 0 0 3.174-10.515l.68-7.892a7.508 7.508 0 0 0 .241-1.86c0-.201-.015-.4-.03-.597l3.718-43.178c4.628-1.561 8.121-5.766 8.531-10.853l8.811-109.366a12.555 12.555 0 0 0-3.278-9.494 12.447 12.447 0 0 0-2.706-2.194l1.145-13.297c5.767-1.116 10.138-6.197 10.138-12.285v-45.857c0-6.903-5.615-12.518-12.518-12.518h-66.639a7.511 7.511 0 0 0 0 15.022h64.135v7.409H29.196v-7.409h93.612a7.511 7.511 0 0 0 0-15.022H101.53V79.464c0-14.341-11.667-26.008-26.008-26.008H41.406a7.511 7.511 0 0 0-7.511 7.511V84.02a7.511 7.511 0 0 0 7.511 7.511h21.438v35.087H26.692c-6.903 0-12.518 5.615-12.518 12.518V184.991c0 6.088 4.37 11.169 10.138 12.285l1.144 13.284a12.494 12.494 0 0 0-2.71 2.188 12.558 12.558 0 0 0-3.298 9.463l8.372 109.367c.405 5.287 4.125 9.636 9.009 11.063l3.703 43.013a7.44 7.44 0 0 0-.03.601c0 .644.09 1.266.242 1.863l.679 7.889a26.404 26.404 0 0 0 3.174 10.515H12.518C5.615 406.522 0 412.137 0 419.04v26.987c0 6.903 5.615 12.518 12.518 12.518h310.578a7.511 7.511 0 0 0 0-15.022H15.022v-21.98h481.957v21.98H377.174a7.511 7.511 0 0 0 0 15.022h122.308c6.903 0 12.518-5.615 12.518-12.518V419.04c0-6.902-5.616-12.517-12.518-12.517zM48.917 76.509v-8.033h26.605c6.058 0 10.987 4.928 10.987 10.987v47.155h-8.643V84.02a7.511 7.511 0 0 0-7.511-7.511H48.917zM31.224 182.488h-2.028v-17.64h212.16v17.64H31.224zm199.919 15.021l-.966 11.228H40.376l-.967-11.228h191.734zM42.62 328.118l-7.989-104.359h201.256l-8.408 104.359H42.62zm171.542 66.6c-.505 5.858-5.32 10.276-11.199 10.276H67.589c-5.88 0-10.694-4.417-11.199-10.276l-.082-.952h157.936l-.082.952zm1.376-15.974H55.015L51.95 343.14h166.655l-3.067 35.604zm65.729-111.788c0-22.388 18.214-40.603 40.603-40.603h118.025c22.388 0 40.603 18.214 40.603 40.603v5.313H281.267v-5.313zm0 27.386a7.059 7.059 0 0 1 7.051-7.051h185.129c3.888.001 7.051 3.164 7.051 7.051v1.271c0 3.888-3.164 7.051-7.051 7.051h-22.774a7.515 7.515 0 0 0-4.32 1.367l-25.335 17.817-28.467-18.019a7.518 7.518 0 0 0-4.017-1.165H288.318c-3.888 0-7.051-3.164-7.051-7.051v-1.271zm181.828 110.521H298.672c-8.802 0-16.087-6.571-17.236-15.064H480.33c-1.149 8.493-8.434 15.064-17.235 15.064zm17.404-30.394H281.267v-15.063h199.231v15.063zm-4.121-30.405H285.389c-6.796 0-12.324-5.529-12.324-12.324v-1.732c0-6.796 5.529-12.324 12.324-12.324h100.967l28.04 17.748a12.5 12.5 0 0 0 6.697 1.948c2.521 0 5.036-.765 7.198-2.285l24.759-17.41H476.376c6.796 0 12.324 5.529 12.324 12.324v1.731h.001c0 6.795-5.528 12.324-12.323 12.324z"/><path d="M135.92 241.162c-20.379 0-36.959 16.58-36.959 36.959 0 20.379 16.58 36.958 36.959 36.958 20.379 0 36.958-16.58 36.958-36.958.001-20.379-16.578-36.959-36.958-36.959zm0 58.896c-12.096 0-21.938-9.841-21.938-21.937 0-12.096 9.841-21.938 21.938-21.938s21.937 9.841 21.937 21.938c0 12.096-9.84 21.937-21.937 21.937z"/><circle cx="418.271" cy="240.797" r="7.511"/><circle cx="380.888" cy="240.797" r="7.511"/><circle cx="343.494" cy="240.797" r="7.511"/><circle cx="399.574" cy="258.823" r="7.511"/><circle cx="362.191" cy="258.823" r="7.511"/></svg>