<svg xmlns="http://www.w3.org/2000/svg" viewBox="0 0 511.999 511.999"><path d="M149.339 211.31a7.5 7.5 0 0 0-7.5 7.5v79.624a7.5 7.5 0 0 0 15 0V218.81a7.5 7.5 0 0 0-7.5-7.5zM183.174 211.31a7.5 7.5 0 0 0-7.5 7.5v79.624a7.5 7.5 0 0 0 15 0V218.81a7.5 7.5 0 0 0-7.5-7.5zM217.009 211.31a7.5 7.5 0 0 0-7.5 7.5v79.624a7.5 7.5 0 0 0 15 0V218.81a7.5 7.5 0 0 0-7.5-7.5zM250.844 211.31a7.5 7.5 0 0 0-7.5 7.5v79.624a7.5 7.5 0 0 0 15 0V218.81a7.5 7.5 0 0 0-7.5-7.5z"/><path d="M479.518 411.656c9.44-13.233 12.221-30.299 7.286-46.047a31.682 31.682 0 0 0 3.361-14.221c0-12.332-7.098-23.381-17.858-28.682-.461-17.232-14.649-31.11-32.024-31.11a32.111 32.111 0 0 0-13.828 3.152 34.23 34.23 0 0 0-8.134-5.44c-.271-18.66-15.564-33.758-34.323-33.758-6.991 0-13.815 2.167-19.514 6.088-5.696-3.921-12.521-6.088-19.511-6.088-18.76 0-34.054 15.099-34.324 33.758a34.228 34.228 0 0 0-7.102 4.568v-40.811h33.17c11.451 0 20.767-9.396 20.767-20.946V203c0-4.143-3.357-7.5-7.5-7.5s-7.5 3.357-7.5 7.5v29.122c0 3.278-2.587 5.946-5.767 5.946h-33.17v-11.894h19.902c4.143 0 7.5-3.357 7.5-7.5V124.55c0-4.143-3.357-7.5-7.5-7.5h-19.902v-11.893h33.17c3.18 0 5.767 2.667 5.767 5.946V165c0 4.143 3.357 7.5 7.5 7.5s7.5-3.357 7.5-7.5v-53.896c0-11.55-9.315-20.946-20.767-20.946h-33.17V87.95c5.478-1.326 9.563-6.258 9.563-12.137V50.978c0-6.893-5.607-12.5-12.5-12.5h-48.092V17.815c0-6.892-5.607-12.5-12.5-12.5h-79.853c-6.893 0-12.5 5.608-12.5 12.5v20.662H99.572c-6.893 0-12.5 5.607-12.5 12.5v24.836c0 5.88 4.085 10.811 9.563 12.138v2.206H61.973c-3.992 0-7.463 1.87-9.288 5.004-1.824 3.133-1.736 7.075.235 10.548l43.715 76.97v41.507H62.828v-54.298c0-5.79-4.71-10.5-10.5-10.5H34.414c-5.79 0-10.5 4.71-10.5 10.5v54.298H12.5c-6.893 0-12.5 5.607-12.5 12.5v257.499c0 6.892 5.607 12.5 12.5 12.5h368.994c4.517 0 8.941-.501 13.244-1.447a47.706 47.706 0 0 0 11.658 1.447c10.719 0 20.63-3.554 28.652-9.55 8.02 5.992 17.92 9.55 28.635 9.55 26.642 0 48.316-21.923 48.316-48.869.001-21.339-13.595-39.513-32.481-46.16zm-44.221-104.31a17.013 17.013 0 0 1 4.985-.75c9.394.001 17.036 7.616 17.036 16.976 0 .959-.084 1.932-.249 2.89a7.5 7.5 0 0 0 5.465 8.524c7.438 1.975 12.631 8.72 12.631 16.402 0 1.307-.164 2.573-.446 3.795a50.733 50.733 0 0 0-30.825 1.459c-3.513-6.231-7.608-11.912-12.185-16.924a33.99 33.99 0 0 0 3.588-32.372zm19.4 81a7.501 7.501 0 0 0-10.607.071l-18.688 18.939c-.552-10.303 3.152-20.569 10.604-28.122 6.858-6.951 15.962-10.778 25.635-10.778 3.708 0 7.356.569 10.878 1.696 4.089 13.095.7 27.474-8.974 37.28a37.236 37.236 0 0 1-1.649 1.562 47.652 47.652 0 0 0-25.33 8.405l18.202-18.447a7.498 7.498 0 0 0-.071-10.606zm-134.232-86.732a7.5 7.5 0 0 0 5.466-8.52 19.363 19.363 0 0 1-.286-3.28c0-10.62 8.671-19.261 19.328-19.261 5.373 0 10.367 2.151 14.063 6.057a7.502 7.502 0 0 0 10.895.001c3.697-3.906 8.692-6.058 14.066-6.058 10.657 0 19.327 8.641 19.327 19.261 0 1.091-.095 2.191-.282 3.271a7.5 7.5 0 0 0 5.464 8.53c8.439 2.242 14.333 9.896 14.333 18.612 0 3.355-.87 6.511-2.392 9.26-8.377-6.242-17.782-10.542-27.822-12.385 1.451-5.346 1.856-11.007 1.121-16.712-.617-4.8-4.385-8.596-9.177-9.234a42.07 42.07 0 0 0-5.438-.357c-9.896 0-19.258 3.461-26.75 9.806v-6.861c0-4.143-3.357-7.5-7.5-7.5s-7.5 3.357-7.5 7.5v29.526c-9.174-4.724-19.04-7.188-29.109-7.188-.562 0-1.12.012-1.679.026 1.523-6.925 6.795-12.613 13.872-14.494zm58.638 4.183c.035 7.249-2.741 14.159-7.867 19.358-5.044 5.11-11.738 7.928-18.854 7.934-.032-7.25 2.744-14.16 7.872-19.36 5.039-5.108 11.732-7.924 18.849-7.932zm-75.556-173.748h12.402v79.125h-12.402v-79.125zM162.665 20.315h74.853v18.162h-74.853V20.315zm-60.593 33.163h196.037v19.836H267a7.499 7.499 0 0 0-7.5 7.5c0 4.143 3.357 7.5 7.5 7.5h21.547v80.801H111.636V88.313H220c4.142 0 7.5-3.357 7.5-7.5s-3.358-7.5-7.5-7.5H102.072V53.478zm-32.215 51.678h26.778v47.148l-26.778-47.148zm-30.943 69.232h8.914v49.798h-8.914v-49.798zm0 64.797h8.914v41.282h-8.914v-41.282zm-23.914 0h8.914v41.282H15v-41.282zm105.732 252.5H15v-9.082h105.732v9.082zm0-211.218H109c-4.142 0-7.5 3.357-7.5 7.5s3.358 7.5 7.5 7.5h11.732v172.135H15V295.467h51c4.142 0 7.5-3.357 7.5-7.5s-3.358-7.5-7.5-7.5h-3.172v-41.282h57.904v41.282zm2.5-56.282h-11.597v-40.072h176.912v111.523c0 9.821-2.78 18.99-7.571 26.757-9.877 4.744-18.771 11.984-26.184 21.1a48.875 48.875 0 0 1-16.032 2.705h-77.337c-9.396 0-18.186-2.667-25.691-7.281V236.685c0-6.893-5.607-12.5-12.5-12.5zm12.5 267.498V363.774a51.368 51.368 0 0 1 16.04-2.575H243.447c-6.489 13.035-10.53 28.158-11.315 44.363-6.702-10.766-18.555-17.94-32.041-17.94-20.865 0-37.84 17.159-37.84 38.25s16.975 38.249 37.84 38.249c16.079 0 29.838-10.194 35.309-24.521 5.391 21.682 16.824 40.072 31.828 52.083H135.732zm87.199-65.811c0 12.819-10.246 23.249-22.839 23.249-12.594 0-22.84-10.43-22.84-23.249 0-12.82 10.246-23.25 22.84-23.25 12.593 0 22.839 10.43 22.839 23.25zm148.684 65.813h-63.344c-33.793 0-61.285-36.022-61.285-80.301s27.492-80.302 61.285-80.302c10.688 0 21.173 3.695 30.44 10.693 1.531 3.182 4.575 5.481 8.195 5.953a41.64 41.64 0 0 0 5.447.362c11.17 0 21.667-4.402 29.561-12.4a42.728 42.728 0 0 0 3.782-4.421c18.496 1.65 34.754 14.116 45.141 32.586a52.336 52.336 0 0 0-5.509 4.844c-10.703 10.85-15.902 25.674-14.836 40.438a48.246 48.246 0 0 0-4.096-.188c-26.642 0-48.316 21.922-48.316 48.867 0 13.14 5.164 25.077 13.535 33.869zm34.782 0c-18.371 0-33.316-15.193-33.316-33.869 0-18.675 14.945-33.867 33.316-33.867 18.371 0 33.316 15.192 33.316 33.867s-14.945 33.869-33.316 33.869zm57.287 0c-6.646 0-12.835-1.999-18.038-5.422a48.965 48.965 0 0 0 9.067-28.447 48.962 48.962 0 0 0-9.066-28.445c5.202-3.424 11.392-5.422 18.037-5.422 18.371 0 33.316 15.192 33.316 33.867s-14.945 33.869-33.316 33.869z"/><path d="M101.86 344.839a7.56 7.56 0 0 0-5.3-2.19c-1.97 0-3.91.801-5.3 2.19a7.55 7.55 0 0 0-2.2 5.31c0 1.971.8 3.9 2.2 5.301a7.544 7.544 0 0 0 5.3 2.199c1.97 0 3.91-.8 5.3-2.199 1.4-1.4 2.2-3.33 2.2-5.301a7.55 7.55 0 0 0-2.2-5.31zM76.57 372.068a7.546 7.546 0 0 0-5.3-2.189c-1.97 0-3.91.8-5.3 2.189-1.4 1.4-2.2 3.33-2.2 5.311 0 1.97.8 3.9 2.2 5.3a7.56 7.56 0 0 0 5.3 2.19c1.98 0 3.91-.801 5.3-2.19a7.543 7.543 0 0 0 2.2-5.3c0-1.98-.8-3.91-2.2-5.311zM92.54 312.71a7.55 7.55 0 0 0-5.31-2.2 7.51 7.51 0 0 0-7.5 7.5c0 1.97.8 3.91 2.2 5.3 1.4 1.4 3.33 2.2 5.3 2.2 1.98 0 3.91-.8 5.31-2.2a7.562 7.562 0 0 0 2.19-5.3c0-1.971-.8-3.911-2.19-5.3zM60 321.659c-1.4-1.4-3.34-2.2-5.31-2.2-1.97 0-3.9.8-5.3 2.2a7.528 7.528 0 0 0-2.2 5.3 7.51 7.51 0 0 0 7.5 7.5c1.97 0 3.91-.8 5.31-2.2a7.543 7.543 0 0 0 2.19-5.3c0-1.969-.8-3.91-2.19-5.3zM102.08 406.979a7.513 7.513 0 0 0-5.3-2.199c-1.97 0-3.91.8-5.3 2.199a7.53 7.53 0 0 0-2.2 5.301c0 1.97.8 3.899 2.2 5.3a7.55 7.55 0 0 0 5.3 2.2c1.97 0 3.91-.801 5.3-2.2 1.4-1.4 2.2-3.33 2.2-5.3 0-1.981-.8-3.91-2.2-5.301z"/></svg>