<svg xmlns="http://www.w3.org/2000/svg" viewBox="0 0 511.999 511.999"><path d="M473.512 169.586c-2.449-2.715-6.033-4.124-9.69-4.124h-17.654V97.974c0-6.924-5.613-12.537-12.537-12.537h-39.347v-8.354c0-6.924-5.613-12.537-12.537-12.537h-39.768V39.161c0-6.924-5.613-12.537-12.537-12.537h-39.768V12.537C289.674 5.613 284.061 0 277.137 0h-42.09c-6.924 0-12.537 5.613-12.537 12.537v33.705h-40.771c-6.924 0-12.537 5.613-12.537 12.537v17.498h-38.213V48.51c0-6.924-5.613-12.537-12.537-12.537h-42.09c-6.924 0-12.537 5.613-12.537 12.537v116.951H48.132c-3.628 0-7.177 1.406-9.616 4.092-2.797 3.08-3.874 7.239-2.953 11.25l73.782 321.463a12.479 12.479 0 0 0 12.22 9.733h268.871a12.478 12.478 0 0 0 12.219-9.733l49.919-217.492a7.522 7.522 0 1 0-14.663-3.365l-39.358 171.48H113.447L50.93 180.507h86.243a129.865 129.865 0 0 0 118.825 77.246 129.866 129.866 0 0 0 118.826-77.246h86.244l-10.993 47.894a7.522 7.522 0 0 0 5.649 9.014c4.048.934 8.086-1.599 9.014-5.649l11.697-50.963c.919-3.997-.147-8.14-2.923-11.217zm-78.413 298.348l-6.661 29.021H123.561l-6.661-29.021h278.199zM115.944 165.462H78.869V51.018h37.075v114.444zm52.824 37.177a115.03 115.03 0 0 1-18.449-29.625c-1.965-4.588-6.479-7.552-11.501-7.552h-7.125v-74.14h37.075v111.317zm15.045 14.595l.434-155.947h37.075l1.189 176.455a114.807 114.807 0 0 1-38.698-20.508zm90.816 23.946a115.442 115.442 0 0 1-18.631 1.528c-6.25 0-12.41-.521-18.444-1.497V15.045h37.075V241.18zm52.305-22.949a114.818 114.818 0 0 1-37.075 19.391V41.669h37.075v176.562zm52.305-127.108a7.51 7.51 0 0 0-.235 1.836v72.503h-5.824c-5.023 0-9.537 2.965-11.5 7.552a115.021 115.021 0 0 1-19.516 30.848V79.59h37.075v11.533zm51.884 74.339h-36.839v-64.98h36.839v64.98z"/><path d="M255.998 291.038c-1.016 0-2.028.022-3.033.065a7.523 7.523 0 0 0-7.196 7.835c.176 4.151 3.685 7.386 7.835 7.196a57.687 57.687 0 0 1 2.395-.051c30.196 0 54.763 24.566 54.763 54.763s-24.567 54.762-54.763 54.762c-30.196 0-54.763-24.566-54.763-54.763 0-12.688 4.211-24.596 12.178-34.434 2.615-3.228 2.117-7.964-1.112-10.579s-7.966-2.118-10.58 1.112c-10.015 12.367-15.531 27.958-15.531 43.901 0 38.491 31.315 69.807 69.807 69.807 38.491 0 69.807-31.316 69.807-69.807 0-38.492-31.316-69.807-69.807-69.807z"/></svg>