<svg xmlns="http://www.w3.org/2000/svg" viewBox="0 0 512 512"><path d="M346.189 385.461a7.502 7.502 0 0 0-8.897 5.775c-10.764 50.603-67.535 75.316-111.634 50.42-44.995-25.402-52.016-86.424-15.26-121.416 20.702-19.711 34.576-48.023 36.875-79.531h31.493c5.139 53.328 40.072 82.997 37.891 80.818 10.421 10.411 17.547 23.493 20.609 37.834a7.505 7.505 0 0 0 7.327 5.936c4.794 0 8.336-4.417 7.343-9.069-3.67-17.186-12.207-32.858-24.688-45.323-22.443-22.415-31.405-47.74-34.021-78.357-.058-.661-5.318-66.837 33.011-128.321 10.739-17.223-11.158-36.133-26.565-22.883h.001a197.946 197.946 0 0 0-6.552 5.905V68.545c0-4.143-3.357-7.5-7.5-7.5s-7.5 3.357-7.5 7.5v34.44c-12.903 15.159-23.077 31.839-30.512 49.94.001-144.502-.336-137.924.692-137.924 30.823 0 29.82-.309 29.82.691v17.851c0 4.143 3.357 7.5 7.5 7.5s7.5-3.357 7.5-7.5V15.692C293.125 7.039 286.085 0 277.433 0h-29.129c-8.653 0-15.692 7.039-15.692 15.692v58.047c-12.328-10.864-32.818-25.877-59.736-34.806-9.601-3.188-17.23 8.542-10.375 15.997 16.447 17.884 70.11 83.108 70.11 171.506 0 8.769-.026 5.514-.042 6.663-.405 28.194-11.584 56.347-32.515 76.276-49.363 46.993-31.28 129.329 32.712 151.896-12.683 9.296-20.939 24.29-20.939 41.185 0 4.143 3.357 7.5 7.5 7.5s7.5-3.357 7.5-7.5c0-17.3 12.256-31.788 28.54-35.249V504.5c0 4.143 3.357 7.5 7.5 7.5s7.5-3.357 7.5-7.5v-37.292c16.284 3.461 28.539 17.948 28.539 35.249 0 4.143 3.357 7.5 7.5 7.5s7.5-3.357 7.5-7.5c0-16.872-8.234-31.852-20.89-41.149 29.294-10.233 52.158-35.037 58.946-66.949a7.498 7.498 0 0 0-5.773-8.898zM309.457 92.719c1.174-1.01 2.358-1.016 3.52-.02.824.708 1.587 1.905.535 3.593-33.355 53.502-35.937 108.917-35.59 129.416h-30.187c1.852-56.233 24.843-101.278 61.722-132.989zm-76.846 49.701c-10.406-28.832-26.118-56.776-45.235-81.262 23.997 12.02 40.106 27.967 45.235 33.443v47.819z"/></svg>