<svg xmlns="http://www.w3.org/2000/svg" viewBox="0 0 512.001 512.001"><path d="M374.689 176.696l-7.607-23.012c-8.009-24.225-42.441-24.267-50.47-.014l-52.926 159.796-57.733-214.278c-6.727-24.963-41.691-26.546-50.616-2.249L105.811 231.76H65.577c-14.516-16.875-39.649-17.139-54.674-2.113-14.536 14.536-14.536 38.19 0 52.727 13.718 13.718 35.324 14.471 49.911 2.547h63.549c11.099 0 21.126-6.999 24.951-17.416l27.073-73.7 22.252 82.587a7.498 7.498 0 0 0 9.191 5.289 7.495 7.495 0 0 0 5.292-9.188L184.73 167.116c-1.9-7.046-11.767-7.47-14.278-.635l-35.212 95.854a11.626 11.626 0 0 1-10.874 7.589H71.872c2.82-7.015 3.545-15.226 1.526-23.169h37.646a7.496 7.496 0 0 0 7.038-4.913l51.33-139.735c3.903-10.63 19.137-9.865 22.06.981l64.234 238.407a7.5 7.5 0 0 0 14.358.407l60.784-183.519c3.498-10.57 18.507-10.545 21.995.008l7.607 23.011a7.5 7.5 0 0 0 9.474 4.766 7.497 7.497 0 0 0 4.765-9.472zM21.508 271.771c-13.993-13.992-4.033-38.049 15.76-38.047 12.556-.001 22.33 10.252 22.283 22.387-.086 19.605-23.972 29.734-38.043 15.66z"/><path d="M501.099 229.647c-14.442-14.441-37.849-14.631-52.5-.216h-56.477l-6.423-19.429a7.5 7.5 0 0 0-14.239 4.707l8.124 24.574a7.499 7.499 0 0 0 7.119 5.145h52.585a37.626 37.626 0 0 0 0 23.169h-66.375a11.563 11.563 0 0 1-10.998-7.949l-12.968-39.227a7.5 7.5 0 0 0-14.237-.004L272.064 409.56c-3.613 10.901-19.213 10.394-22.183-.628l-27.657-102.648a7.496 7.496 0 0 0-9.191-5.29 7.5 7.5 0 0 0-5.29 9.191l27.658 102.648c6.845 25.408 42.64 26.365 50.898 1.441l55.522-167.632 5.855 17.713a26.536 26.536 0 0 0 25.237 18.238h75.688c14.564 14.327 37.969 14.31 52.498-.218 14.536-14.537 14.536-38.19 0-52.728zm-26.364 48.652c-11.075 0-20.062-8.014-21.919-18.308-3.861-21.35 22.265-35.157 37.679-19.74 13.992 13.992 4.029 38.048-15.76 38.048z"/></svg>