<svg xmlns="http://www.w3.org/2000/svg" viewBox="0 0 512 512"><path d="M507.582 154.054c-5.683-26.414-17.603-48.557-35.427-65.815-16.222-15.706-37.044-26.722-60.218-31.857-26.443-5.86-54.384-4.015-80.804 5.333-27.601 9.767-51.431 27.133-68.913 50.22-2.051 2.708-4.236 5.677-6.362 8.86-2.061-3.224-4.253-6.519-6.026-8.86-17.482-23.088-41.312-40.453-68.913-50.22-26.42-9.349-54.361-11.194-80.803-5.333-23.175 5.135-43.998 16.151-60.22 31.857-17.824 17.258-29.744 39.401-35.427 65.815-10.545 49.011-2.346 97.001 23.712 138.782 8.047 12.903 17.703 24.855 28.664 35.707a81.989 81.989 0 0 0-12.947 27.636 7.52 7.52 0 1 0 14.566 3.742c7.63-29.701 34.407-50.444 65.117-50.444 37.069 0 67.227 30.158 67.227 67.228 0 37.069-30.158 67.227-67.227 67.227-27.348 0-51.755-16.337-62.18-41.619a7.518 7.518 0 0 0-9.818-4.085 7.518 7.518 0 0 0-4.085 9.818c12.755 30.936 42.62 50.926 76.083 50.926 35.014 0 64.97-21.997 76.824-52.889 13.677 6.895 29.047 15.307 39.267 26.279 4.179 4.488 9.858 7.039 15.989 7.185.184.004.367.007.55.007 5.881 0 11.409-2.245 15.618-6.355 5.413-5.285 12.022-10.011 17.175-13.538 9.896-6.774 21.107-13.052 36.352-20.356 16.361-7.838 31.513-14.141 46.322-19.266 62.11-21.49 109.374-66.43 129.673-123.298a7.52 7.52 0 0 0-14.164-5.056c-18.757 52.549-62.651 94.152-120.427 114.142-15.353 5.314-31.022 11.828-47.902 19.916-15.966 7.649-27.793 14.283-38.349 21.508-5.654 3.87-12.945 9.094-19.186 15.188a7.294 7.294 0 0 1-5.305 2.074 7.48 7.48 0 0 1-5.34-2.4c-12.655-13.587-30.771-23.113-46.156-30.791a82.343 82.343 0 0 0 1.326-14.615c0-45.362-36.905-82.267-82.266-82.267-21.765 0-41.904 8.53-56.824 22.761-9.857-9.858-18.551-20.673-25.816-32.322-23.949-38.4-31.477-82.544-21.771-127.66 9.691-45.041 40.379-76.442 84.197-86.152 23.352-5.175 49.11-3.46 72.533 4.828 24.821 8.783 46.239 24.385 61.94 45.121 4.183 5.525 11.642 18.103 11.717 18.229a7.52 7.52 0 1 0 13.231-.538c3.139-6.444 7.535-12.559 11.421-17.691 15.701-20.735 37.119-36.338 61.94-45.121 23.422-8.288 49.181-10.004 72.533-4.828 43.817 9.71 74.506 41.111 84.197 86.152 3.701 17.203 4.893 34.496 3.542 51.398a7.52 7.52 0 0 0 14.991 1.199c1.468-18.365.179-37.126-3.831-55.762z"/><path d="M160.872 338.136a7.52 7.52 0 0 0-10.439 2.03l-38.012 56.363-16.147-19.376a7.52 7.52 0 0 0-11.554 9.628l22.558 27.069a7.519 7.519 0 0 0 12.012-.609l43.612-64.666a7.52 7.52 0 0 0-2.03-10.439z"/></svg>