<?xml version="1.0" encoding="iso-8859-1"?>
<!-- Generator: Adobe Illustrator 19.0.0, SVG Export Plug-In . SVG Version: 6.00 Build 0)  -->
<svg version="1.1" id="Capa_1" xmlns="http://www.w3.org/2000/svg" xmlns:xlink="http://www.w3.org/1999/xlink" x="0px" y="0px"
	 viewBox="0 0 512.001 512.001" style="enable-background:new 0 0 512.001 512.001;" xml:space="preserve">
<g>
	<g>
		<path d="M374.689,176.696l-7.607-23.012c-8.009-24.225-42.441-24.267-50.47-0.014l-52.926,159.796L205.953,99.188
			c-6.727-24.963-41.691-26.546-50.616-2.249L105.811,231.76H65.577c-14.516-16.875-39.649-17.139-54.674-2.113
			c-14.536,14.536-14.536,38.19,0,52.727c13.718,13.718,35.324,14.471,49.911,2.547h63.549c11.099,0,21.126-6.999,24.951-17.416
			l27.073-73.7l22.252,82.587c1.078,3.998,5.192,6.368,9.191,5.289c4.001-1.075,6.368-5.19,5.292-9.188l-28.392-105.377
			c-1.9-7.046-11.767-7.47-14.278-0.635l-35.212,95.854c-1.668,4.539-6.037,7.589-10.874,7.589H71.872
			c2.82-7.015,3.545-15.226,1.526-23.169h37.646c3.144,0,5.955-1.961,7.038-4.913l51.33-139.735
			c3.903-10.63,19.137-9.865,22.06,0.981l64.234,238.407c0.862,3.197,3.718,5.451,7.027,5.545c3.331,0.092,6.295-2.011,7.331-5.138
			l60.784-183.519c3.498-10.57,18.507-10.545,21.995,0.008l7.607,23.011c1.3,3.932,5.543,6.066,9.474,4.766
			C373.856,184.869,375.988,180.628,374.689,176.696z M21.508,271.771c-13.993-13.992-4.033-38.049,15.76-38.047
			c12.556-0.001,22.33,10.252,22.283,22.387C59.465,275.716,35.579,285.845,21.508,271.771z"/>
	</g>
</g>
<g>
	<g>
		<path d="M501.099,229.647c-14.442-14.441-37.849-14.631-52.5-0.216h-56.477l-6.423-19.429c-1.3-3.931-5.541-6.065-9.473-4.766
			c-3.932,1.3-6.065,5.541-4.766,9.473l8.124,24.574c1.016,3.071,3.885,5.145,7.119,5.145h52.585
			c-2.436,7.477-2.438,15.682,0,23.169h-66.375c-5.007,0-9.427-3.194-10.998-7.949l-12.968-39.227
			c-1.016-3.07-3.884-5.144-7.117-5.145c-3.208-0.001-6.094,2.047-7.12,5.141l-62.646,189.143
			c-3.613,10.901-19.213,10.394-22.183-0.628l-27.657-102.648c-1.078-3.999-5.19-6.369-9.191-5.29
			c-3.998,1.078-6.366,5.192-5.29,9.191l27.658,102.648c6.845,25.408,42.64,26.365,50.898,1.441l55.522-167.632l5.855,17.713
			c3.606,10.909,13.749,18.238,25.237,18.238h75.688c14.564,14.327,37.969,14.31,52.498-0.218
			C515.635,267.838,515.635,244.185,501.099,229.647z M474.735,278.299c-11.075,0-20.062-8.014-21.919-18.308
			c-3.861-21.35,22.265-35.157,37.679-19.74C504.487,254.243,494.524,278.299,474.735,278.299z"/>
	</g>
</g>
<g>
</g>
<g>
</g>
<g>
</g>
<g>
</g>
<g>
</g>
<g>
</g>
<g>
</g>
<g>
</g>
<g>
</g>
<g>
</g>
<g>
</g>
<g>
</g>
<g>
</g>
<g>
</g>
<g>
</g>
</svg>
