<svg xmlns="http://www.w3.org/2000/svg" viewBox="0 0 511.998 511.998"><path d="M267.177 36.716c21.105 0 40.992 10.304 53.197 27.561a8.06 8.06 0 0 0 11.239 1.928 8.062 8.062 0 0 0 1.928-11.239c-15.223-21.526-40.032-34.378-66.364-34.378a81.12 81.12 0 0 0-74.848 49.61c-.016.038-.026.075-.041.113-.016.04-.037.076-.053.117l-52.53 135.685-30.399-11.441a25.616 25.616 0 0 0-9.054-1.653c-10.644 0-20.317 6.695-24.07 16.661-2.419 6.429-2.19 13.414.645 19.67a25.84 25.84 0 0 0 4.259 6.537l-3.81 10.121a8.063 8.063 0 0 0 1.807 8.506c7.289 7.385 9.641 18.426 5.992 28.123-3.652 9.701-12.7 16.45-23.049 17.196a8.063 8.063 0 0 0-6.966 5.201l-2.243 5.954a8.063 8.063 0 0 0 1.807 8.507c7.289 7.385 9.641 18.426 5.991 28.124-3.651 9.699-12.698 16.449-23.048 17.194a8.06 8.06 0 0 0-6.967 5.204l-2.241 5.957a8.065 8.065 0 0 0 1.808 8.504c7.289 7.383 9.639 18.423 5.989 28.122-3.651 9.699-12.698 16.449-23.048 17.196a8.064 8.064 0 0 0-6.967 5.203L.518 449.941a8.064 8.064 0 0 0 4.707 10.387l81.206 30.564a8.067 8.067 0 0 0 10.389-4.707l80.576-214.073c9.379-1.159 17.575-7.467 20.957-16.45 4.99-13.268-1.741-28.127-15.01-33.123l-28.542-10.742 52.413-135.389a65.024 65.024 0 0 1 59.963-39.692zM84.566 472.958l-66.112-24.884 1.095-2.907c14.352-2.867 26.473-12.989 31.704-26.885 4.882-12.975 3.077-27.441-4.428-38.76 13.106-3.56 24.002-13.245 28.886-26.222 4.882-12.975 3.076-27.44-4.429-38.76 13.104-3.56 24-13.244 28.887-26.222 5.228-13.894 2.787-29.499-6.11-41.116l1.096-2.908 66.112 24.884-76.701 203.78zm93.096-235.326c4.946 1.862 7.455 7.403 5.594 12.351-1.399 3.716-5.004 6.212-8.971 6.212a9.564 9.564 0 0 1-3.376-.62l-74.038-27.867a9.518 9.518 0 0 1-5.354-5.015 9.524 9.524 0 0 1-.241-7.33c1.401-3.718 5.007-6.216 8.977-6.216a9.57 9.57 0 0 1 3.374.619l74.035 27.866z"/><path d="M511.479 449.94l-5.623-14.942a8.066 8.066 0 0 0-6.967-5.203c-10.35-.746-19.396-7.496-23.048-17.194-3.65-9.699-1.3-20.739 5.989-28.123a8.061 8.061 0 0 0 1.808-8.504l-2.241-5.957a8.062 8.062 0 0 0-6.967-5.204c-10.35-.745-19.396-7.495-23.048-17.193-3.65-9.699-1.298-20.739 5.991-28.125a8.061 8.061 0 0 0 1.807-8.507l-2.243-5.954a8.066 8.066 0 0 0-6.966-5.201c-10.349-.745-19.394-7.495-23.046-17.194-3.651-9.698-1.301-20.738 5.989-28.124a8.06 8.06 0 0 0 1.807-8.506l-3.81-10.122a25.768 25.768 0 0 0 4.259-6.537c2.835-6.255 3.064-13.241.644-19.67-3.751-9.965-13.424-16.661-24.069-16.661-3.093 0-6.14.556-9.054 1.653l-31.577 11.885-41-109.107a8.048 8.048 0 0 0-1.139-2.053c-8.376-29.37-37.707-48.502-68.551-43.401-23.138 3.819-41.714 20.149-48.481 42.617-.003.012-.005.025-.01.037-2.685 8.941-3.272 18.173-1.743 27.442 4.927 29.828 30.843 51.053 60.133 51.052a61.246 61.246 0 0 0 9.967-.821c16.07-2.653 30.145-11.405 39.633-24.645a61.366 61.366 0 0 0 7.033-12.785l29.065 77.344-27.367 10.3c-13.268 4.995-20 19.854-15.006 33.125 3.381 8.982 11.578 15.289 20.955 16.45l15.575 41.384a8.063 8.063 0 0 0 10.387 4.707 8.063 8.063 0 0 0 4.707-10.387l-14.541-38.637 66.113-24.884 1.096 2.908c-8.898 11.62-11.338 27.223-6.108 41.117 4.885 12.974 15.781 22.661 28.885 26.221-7.505 11.319-9.311 25.784-4.429 38.761 4.885 12.974 15.781 22.661 28.886 26.221-7.505 11.318-9.31 25.783-4.428 38.761 5.231 13.895 17.354 24.017 31.704 26.884l1.095 2.908-66.106 24.881-51.966-138.401a8.064 8.064 0 1 0-15.099 5.669l54.804 145.955a8.063 8.063 0 0 0 10.391 4.711l81.206-30.565a8.062 8.062 0 0 0 4.704-10.386zM306.813 138.285c-6.978 9.738-17.331 16.175-29.151 18.127-24.394 4.027-47.531-12.545-51.56-36.947-1.126-6.824-.695-13.618 1.279-20.191a.126.126 0 0 0 .003-.01c4.978-16.532 18.645-28.546 35.665-31.357 24.403-4.023 47.53 12.546 51.559 36.947 1.952 11.82-.816 23.692-7.795 33.431zm113.667 84.408a9.523 9.523 0 0 1-5.357 5.015l-74.038 27.868a9.538 9.538 0 0 1-3.373.619h-.001c-3.967 0-7.573-2.497-8.971-6.213-1.861-4.948.648-10.488 5.593-12.35l74.037-27.866a9.544 9.544 0 0 1 3.374-.619c3.969 0 7.576 2.498 8.976 6.216a9.515 9.515 0 0 1-.24 7.33z"/></svg>