<?xml version="1.0" encoding="iso-8859-1"?>
<!-- Generator: Adobe Illustrator 19.0.0, SVG Export Plug-In . SVG Version: 6.00 Build 0)  -->
<svg version="1.1" id="Layer_1" xmlns="http://www.w3.org/2000/svg" xmlns:xlink="http://www.w3.org/1999/xlink" x="0px" y="0px"
	 viewBox="0 0 511.998 511.998" style="enable-background:new 0 0 511.998 511.998;" xml:space="preserve">
<g>
	<g>
		<g>
			<path d="M267.177,36.716c21.105,0,40.992,10.304,53.197,27.561c2.571,3.637,7.604,4.501,11.239,1.928
				c3.637-2.572,4.5-7.603,1.928-11.239c-15.223-21.526-40.032-34.378-66.364-34.378c-32.721,0-62.101,19.473-74.848,49.61
				c-0.016,0.038-0.026,0.075-0.041,0.113c-0.016,0.04-0.037,0.076-0.053,0.117l-52.53,135.685l-30.399-11.441
				c-2.914-1.097-5.961-1.653-9.054-1.653c-10.644,0-20.317,6.695-24.07,16.661c-2.419,6.429-2.19,13.414,0.645,19.67
				c1.097,2.419,2.54,4.61,4.259,6.537l-3.81,10.121c-1.11,2.945-0.403,6.266,1.807,8.506c7.289,7.385,9.641,18.426,5.992,28.123
				c-3.652,9.701-12.7,16.45-23.049,17.196c-3.137,0.226-5.858,2.257-6.966,5.201l-2.243,5.954c-1.11,2.945-0.404,6.266,1.807,8.507
				c7.289,7.385,9.641,18.426,5.991,28.124c-3.651,9.699-12.698,16.449-23.048,17.194c-3.14,0.226-5.86,2.258-6.967,5.204
				l-2.241,5.957c-1.107,2.945-0.402,6.265,1.808,8.504c7.289,7.383,9.639,18.423,5.989,28.122
				c-3.651,9.699-12.698,16.449-23.048,17.196c-3.138,0.226-5.859,2.258-6.967,5.203l-5.623,14.942
				c-1.569,4.167,0.539,8.819,4.707,10.387l81.206,30.564c0.935,0.352,1.896,0.518,2.84,0.518c3.261,0,6.332-1.992,7.549-5.225
				l80.576-214.073c9.379-1.159,17.575-7.467,20.957-16.45c4.99-13.268-1.741-28.127-15.01-33.123l-28.542-10.742l52.413-135.389
				C217.451,52.293,240.977,36.716,267.177,36.716z M84.566,472.958l-66.112-24.884l1.095-2.907
				c14.352-2.867,26.473-12.989,31.704-26.885c4.882-12.975,3.077-27.441-4.428-38.76c13.106-3.56,24.002-13.245,28.886-26.222
				c4.882-12.975,3.076-27.44-4.429-38.76c13.104-3.56,24-13.244,28.887-26.222c5.228-13.894,2.787-29.499-6.11-41.116l1.096-2.908
				l66.112,24.884L84.566,472.958z M177.662,237.632c4.946,1.862,7.455,7.403,5.594,12.351c-1.399,3.716-5.004,6.212-8.971,6.212
				c-1.147,0-2.283-0.209-3.376-0.62l-74.038-27.867c-2.397-0.902-4.298-2.683-5.354-5.015c-1.056-2.331-1.142-4.935-0.241-7.33
				c1.401-3.718,5.007-6.216,8.977-6.216c1.146,0,2.283,0.209,3.374,0.619L177.662,237.632z"/>
			<path d="M511.479,449.94l-5.623-14.942c-1.109-2.945-3.83-4.977-6.967-5.203c-10.35-0.746-19.396-7.496-23.048-17.194
				c-3.65-9.699-1.3-20.739,5.989-28.123c2.211-2.239,2.916-5.559,1.808-8.504l-2.241-5.957c-1.107-2.946-3.829-4.978-6.967-5.204
				c-10.35-0.745-19.396-7.495-23.048-17.193c-3.65-9.699-1.298-20.739,5.991-28.125c2.212-2.241,2.917-5.562,1.807-8.507
				l-2.243-5.954c-1.109-2.944-3.83-4.975-6.966-5.201c-10.349-0.745-19.394-7.495-23.046-17.194
				c-3.651-9.698-1.301-20.738,5.989-28.124c2.211-2.24,2.917-5.561,1.807-8.506l-3.81-10.122c1.72-1.927,3.163-4.117,4.259-6.537
				c2.835-6.255,3.064-13.241,0.644-19.67c-3.751-9.965-13.424-16.661-24.069-16.661c-3.093,0-6.14,0.556-9.054,1.653
				l-31.577,11.885l-41-109.107c-0.284-0.756-0.673-1.442-1.139-2.053c-8.376-29.37-37.707-48.502-68.551-43.401
				c-23.138,3.819-41.714,20.149-48.481,42.617c-0.003,0.012-0.005,0.025-0.01,0.037c-2.685,8.941-3.272,18.173-1.743,27.442
				c4.927,29.828,30.843,51.053,60.133,51.052c3.288-0.001,6.619-0.268,9.967-0.821c16.07-2.653,30.145-11.405,39.633-24.645
				c2.882-4.021,5.227-8.312,7.033-12.785l29.065,77.344l-27.367,10.3c-13.268,4.995-20,19.854-15.006,33.125
				c3.381,8.982,11.578,15.289,20.955,16.45l15.575,41.384c1.57,4.17,6.221,6.276,10.387,4.707c4.169-1.569,6.276-6.22,4.707-10.387
				l-14.541-38.637l66.113-24.884l1.096,2.908c-8.898,11.62-11.338,27.223-6.108,41.117c4.885,12.974,15.781,22.661,28.885,26.221
				c-7.505,11.319-9.311,25.784-4.429,38.761c4.885,12.974,15.781,22.661,28.886,26.221c-7.505,11.318-9.31,25.783-4.428,38.761
				c5.231,13.895,17.354,24.017,31.704,26.884l1.095,2.908l-66.106,24.881l-51.966-138.401c-1.565-4.169-6.211-6.28-10.384-4.715
				c-4.17,1.565-6.28,6.215-4.715,10.384l54.804,145.955c0.753,2.003,2.27,3.625,4.219,4.508c1.056,0.48,2.192,0.72,3.331,0.72
				c0.961,0,1.924-0.172,2.841-0.517l81.206-30.565C510.941,458.759,513.048,454.108,511.479,449.94z M306.813,138.285
				c-6.978,9.738-17.331,16.175-29.151,18.127c-24.394,4.027-47.531-12.545-51.56-36.947c-1.126-6.824-0.695-13.618,1.279-20.191
				c0.001-0.003,0.002-0.006,0.003-0.01c4.978-16.532,18.645-28.546,35.665-31.357c24.403-4.023,47.53,12.546,51.559,36.947
				C316.56,116.674,313.792,128.546,306.813,138.285z M420.48,222.693c-1.057,2.332-2.959,4.113-5.357,5.015l-74.038,27.868
				c-1.091,0.411-2.226,0.619-3.373,0.619h-0.001c-3.967,0-7.573-2.497-8.971-6.213c-1.861-4.948,0.648-10.488,5.593-12.35
				l74.037-27.866c1.091-0.411,2.227-0.619,3.374-0.619c3.969,0,7.576,2.498,8.976,6.216
				C421.622,217.758,421.537,220.362,420.48,222.693z"/>
		</g>
	</g>
</g>
<g>
</g>
<g>
</g>
<g>
</g>
<g>
</g>
<g>
</g>
<g>
</g>
<g>
</g>
<g>
</g>
<g>
</g>
<g>
</g>
<g>
</g>
<g>
</g>
<g>
</g>
<g>
</g>
<g>
</g>
</svg>
