<svg xmlns="http://www.w3.org/2000/svg" viewBox="0 0 512 512"><path d="M334.597 467.057H177.403a7.53 7.53 0 0 0 0 15.059h157.194a7.53 7.53 0 0 0 0-15.059zM334.597 496.941H177.403a7.53 7.53 0 0 0 0 15.059h157.194a7.53 7.53 0 0 0 7.529-7.53 7.528 7.528 0 0 0-7.529-7.529zM404.578 70.948a7.53 7.53 0 0 0-11.706 9.472c25.215 31.161 39.101 70.443 39.101 110.611 0 49.385-20.951 96.799-57.48 130.087-16.807 15.315-30.005 33.762-38.984 53.941H263.53v-89.285l54.843-50.332a7.53 7.53 0 1 0-10.183-11.095l-51.484 47.25a7.482 7.482 0 0 0-.706-.036l-.023.001-52.205-47.25a7.528 7.528 0 0 0-10.635.53 7.529 7.529 0 0 0 .53 10.635l54.804 49.602v89.98H178.78c-6.781-15.593-16.487-30.002-28.847-42.532a7.53 7.53 0 1 0-10.721 10.575c9.431 9.561 17.133 20.341 22.95 31.956h-11.338a7.53 7.53 0 0 0 0 15.058h17.652a121.64 121.64 0 0 1 4.273 15.841h-21.925a7.53 7.53 0 0 0 0 15.059h23.941c.207 2.902.314 5.821.314 8.755v8.971c0 7.861 6.396 14.257 14.257 14.257h133.328c7.861 0 14.257-6.396 14.257-14.257 0-5.947.393-11.865 1.145-17.726h23.11a7.53 7.53 0 0 0 0-15.059h-20.341a143.246 143.246 0 0 1 4.805-15.841h15.535a7.53 7.53 0 0 0 0-15.058h-9.013a147.476 147.476 0 0 1 32.473-42.811c39.653-36.134 62.396-87.605 62.396-141.217 0-43.603-15.077-86.249-42.453-120.082zm-82.714 366.994H190.138v-8.169c0-2.932-.103-5.851-.286-8.755h133.041a154.122 154.122 0 0 0-1.029 16.924zm3.527-31.983H188.07a136.576 136.576 0 0 0-3.761-15.841h145.388a158.208 158.208 0 0 0-4.306 15.841zM363.252 32.927C331.557 11.386 294.47 0 256.001 0H256c-50.639 0-98.305 19.483-134.204 54.855-35.906 35.378-56.08 82.746-56.806 133.376-.598 41.709 12.012 81.51 36.467 115.101a7.52 7.52 0 0 0 6.094 3.099 7.53 7.53 0 0 0 6.081-11.962c-22.522-30.936-34.136-67.598-33.585-106.022.668-46.648 19.248-90.282 52.317-122.866C165.43 33.001 209.339 15.059 256 15.059c35.439 0 69.599 10.485 98.787 30.323a7.53 7.53 0 1 0 8.465-12.455z"/></svg>