<svg xmlns="http://www.w3.org/2000/svg" viewBox="0 0 373.031 373.031"><path d="M62.367 77.501a5 5 0 0 0 5-5V49.659c0-5.214 4.242-9.457 9.457-9.457h54.86v20.07H90.001a5 5 0 0 0-5 5v258.21a5 5 0 0 0 5 5h193.66a5 5 0 0 0 5-5V65.272a5 5 0 0 0-5-5H242.35v-20.07h53.871c5.205 0 9.44 4.244 9.44 9.46v270.39a5 5 0 0 0 10 0V49.662c0-10.73-8.721-19.46-19.44-19.46H242.35v-7.869a5 5 0 0 0-5-5h-19.737C211.219 6.709 199.535 0 187.017 0s-24.202 6.709-30.596 17.333h-19.737a5 5 0 0 0-5 5v7.869h-54.86c-10.729 0-19.457 8.728-19.457 19.457v22.843a5 5 0 0 0 5 4.999zm74.317 3.832h57.001a5 5 0 0 0 0-10h-52.001v-44h17.71a5 5 0 0 0 4.501-2.823C168.158 15.696 177.234 10 187.017 10s18.859 5.696 23.122 14.51a5.001 5.001 0 0 0 4.501 2.823h17.71v44h-19.666a5 5 0 0 0 0 10h24.666a5 5 0 0 0 5-5v-6.061h36.311v248.21H95.001V70.272h36.683v6.061a5 5 0 0 0 5 5z"/><path d="M62.373 83.953a5 5 0 0 0-5 5v6.818a5 5 0 0 0 10 0v-6.818a5 5 0 0 0-5-5zM310.664 332.755a5 5 0 0 0-5 5v15.827c0 5.21-4.239 9.449-9.449 9.449H76.822c-5.21 0-9.449-4.239-9.449-9.449V112.223a5 5 0 0 0-10 0v241.359c0 10.724 8.725 19.449 19.449 19.449h219.393c10.724 0 19.449-8.725 19.449-19.449v-15.827a5 5 0 0 0-5-5z"/><path d="M258.352 279.582H117.648a5 5 0 0 0 0 10h140.704a5 5 0 0 0 0-10zM258.352 219.044H117.648a5 5 0 0 0 0 10h140.704a5 5 0 0 0 0-10zM117.648 259.461h16.549a5 5 0 0 0 0-10h-16.549a5 5 0 0 0 0 10zM157.344 259.461a5 5 0 0 0 0-10h-8.824a5 5 0 0 0 0 10h8.824zM258.352 249.461h-86.91a5 5 0 0 0 0 10h86.91a5 5 0 0 0 0-10zM117.825 198.775h75.688a5 5 0 0 0 0-10h-75.688a5 5 0 0 0 0 10zM258.352 188.775h-50.768a5 5 0 0 0 0 10h50.768a5 5 0 0 0 0-10zM258.352 158.506H117.648a5 5 0 0 0 0 10h140.704a5 5 0 0 0 0-10zM143.642 138.148c-4.582.06-21.386.06-26.058 0a5 5 0 0 1-4.936-5.063c.035-2.761 2.29-4.944 5.063-4.936a940.26 940.26 0 0 0 25.801 0c2.75-.022 5.028 2.173 5.064 4.935a5 5 0 0 1-4.934 5.064zM261.335 129.174l.11.084a5 5 0 0 1-3.082 8.928c-14.243.033-80.108.021-98.859-.037a5 5 0 0 1 .016-10h98.783c1.121 0 2.15.33 3.032 1.025z"/><circle cx="186.831" cy="30.396" r="9.75"/></svg>