<?xml version="1.0" encoding="iso-8859-1"?>
<!-- Generator: Adobe Illustrator 19.0.0, SVG Export Plug-In . SVG Version: 6.00 Build 0)  -->
<svg version="1.1" id="Layer_1" xmlns="http://www.w3.org/2000/svg" xmlns:xlink="http://www.w3.org/1999/xlink" x="0px" y="0px"
	 viewBox="0 0 512 512" style="enable-background:new 0 0 512 512;" xml:space="preserve">
<g>
	<g>
		<g>
			<path d="M257.076,27.108c-12.67,0-22.979,10.307-22.979,22.977s10.309,22.977,22.979,22.977
				c12.669,0,22.976-10.307,22.976-22.977S269.745,27.108,257.076,27.108z M257.076,56.926c-3.773,0-6.841-3.069-6.841-6.84
				c0-3.772,3.069-6.84,6.841-6.84c3.772,0,6.839,3.068,6.839,6.84C263.915,53.858,260.848,56.926,257.076,56.926z"/>
			<path d="M434.984,64.401h-94.382V53.153c0-4.457-3.612-8.069-8.069-8.069h-25.341C304.53,19.783,283.07,0,257.076,0
				c-25.995,0-47.457,19.783-50.118,45.085h-25.339c-4.457,0-8.069,3.612-8.069,8.069v11.248H77.018
				c-11.551,0-20.95,9.397-20.95,20.948v405.702c0,11.55,9.397,20.948,20.95,20.948h357.966c11.55,0,20.947-9.397,20.947-20.948
				V85.349C455.931,73.799,446.535,64.401,434.984,64.401z M189.687,61.222h25.162c2.23,0,4.361-0.922,5.886-2.55
				c1.526-1.627,2.31-3.813,2.167-6.038c-0.058-0.891-0.084-1.602-0.084-2.239c0-18.89,15.368-34.259,34.259-34.259
				c18.889,0,34.256,15.368,34.256,34.259c0,0.636-0.025,1.331-0.083,2.258c-0.139,2.223,0.649,4.403,2.174,6.026
				c1.524,1.623,3.652,2.543,5.879,2.543h25.162v35.815H189.687V61.222z M439.794,491.052c0,2.653-2.158,4.811-4.81,4.811H77.018
				c-2.653,0-4.812-2.158-4.812-4.811V85.349c0-2.653,2.159-4.811,4.812-4.811h96.533v16.499H98.473
				c-4.457,0-8.069,3.612-8.069,8.069v364.401c0,4.457,3.612,8.069,8.069,8.069h58.789c4.457,0,8.069-3.612,8.069-8.069
				s-3.612-8.069-8.069-8.069h-50.721V113.175h75.076h150.913h72.942v348.264H189.543c-4.457,0-8.069,3.612-8.069,8.069
				s3.612,8.069,8.069,8.069h224.001c4.457,0,8.069-3.612,8.069-8.069V105.106c0-4.457-3.612-8.069-8.069-8.069h-72.942V80.538
				h94.382c2.652,0,4.81,2.158,4.81,4.811V491.052z"/>
			<path d="M170.773,199.686c1.561,1.5,3.575,2.248,5.588,2.248c2.018,0,4.036-0.753,5.599-2.259l17.238-16.612
				c3.208-3.092,3.303-8.2,0.211-11.408s-8.199-3.303-11.408-0.211l-11.65,11.226l-4.653-4.468
				c-3.215-3.088-8.322-2.982-11.408,0.232c-3.085,3.215-2.982,8.322,0.232,11.408L170.773,199.686z"/>
			<path d="M180.333,229.477c24.955,0,45.258-20.303,45.258-45.259c0-24.956-20.303-45.259-45.258-45.259
				c-24.956,0-45.26,20.303-45.26,45.259C135.073,209.174,155.377,229.477,180.333,229.477z M180.333,155.095
				c16.058,0,29.12,13.065,29.12,29.122c0,16.058-13.064,29.122-29.12,29.122c-16.059,0-29.123-13.065-29.123-29.122
				S164.274,155.095,180.333,155.095z"/>
			<path d="M170.773,304.685c1.561,1.499,3.575,2.248,5.588,2.248c2.018,0,4.036-0.753,5.599-2.259l17.238-16.612
				c3.208-3.092,3.303-8.2,0.211-11.408c-3.092-3.208-8.199-3.302-11.408-0.211l-11.65,11.227l-4.653-4.467
				c-3.215-3.087-8.322-2.981-11.408,0.232c-3.087,3.215-2.981,8.323,0.232,11.408L170.773,304.685z"/>
			<path d="M180.333,334.476c24.955,0,45.258-20.304,45.258-45.26c0-24.955-20.303-45.258-45.258-45.258
				c-24.956,0-45.26,20.303-45.26,45.258C135.073,314.172,155.377,334.476,180.333,334.476z M180.333,260.096
				c16.058,0,29.12,13.064,29.12,29.12c0,16.059-13.064,29.123-29.12,29.123c-16.059,0-29.123-13.065-29.123-29.123
				C151.21,273.158,164.274,260.096,180.333,260.096z"/>
			<path d="M188.001,381.443l-11.65,11.227l-4.653-4.468c-3.215-3.088-8.322-2.982-11.408,0.232
				c-3.085,3.215-2.982,8.321,0.232,11.408l10.252,9.843c1.561,1.499,3.575,2.248,5.588,2.248c2.018,0,4.036-0.753,5.599-2.259
				l17.238-16.612c3.208-3.092,3.303-8.2,0.211-11.409C196.318,378.446,191.211,378.352,188.001,381.443z"/>
			<path d="M225.591,394.217c0-24.956-20.303-45.259-45.258-45.259c-24.956,0-45.26,20.303-45.26,45.259
				c0,24.956,20.304,45.259,45.26,45.259C205.288,439.475,225.591,419.172,225.591,394.217z M180.333,423.338
				c-16.059,0-29.123-13.064-29.123-29.122c0-16.058,13.065-29.121,29.123-29.121c16.058,0,29.12,13.065,29.12,29.121
				C209.453,410.273,196.391,423.338,180.333,423.338z"/>
			<path d="M251.035,171.167h61.267c4.457,0,8.069-3.612,8.069-8.069c0-4.457-3.612-8.069-8.069-8.069h-61.267
				c-4.457,0-8.069,3.612-8.069,8.069C242.966,167.555,246.578,171.167,251.035,171.167z"/>
			<path d="M251.035,204.345h115.678c4.457,0,8.069-3.612,8.069-8.069s-3.612-8.069-8.069-8.069H251.035
				c-4.457,0-8.069,3.612-8.069,8.069S246.578,204.345,251.035,204.345z"/>
			<path d="M251.035,280.697h61.267c4.457,0,8.069-3.612,8.069-8.069s-3.612-8.069-8.069-8.069h-61.267
				c-4.457,0-8.069,3.612-8.069,8.069S246.578,280.697,251.035,280.697z"/>
			<path d="M251.035,313.876h115.678c4.457,0,8.069-3.612,8.069-8.069s-3.612-8.069-8.069-8.069H251.035
				c-4.457,0-8.069,3.612-8.069,8.069C242.966,310.263,246.578,313.876,251.035,313.876z"/>
			<path d="M251.035,385.695h61.267c4.457,0,8.069-3.612,8.069-8.069s-3.612-8.069-8.069-8.069h-61.267
				c-4.457,0-8.069,3.612-8.069,8.069S246.578,385.695,251.035,385.695z"/>
			<path d="M251.035,418.874h115.678c4.457,0,8.069-3.612,8.069-8.069s-3.612-8.069-8.069-8.069H251.035
				c-4.457,0-8.069,3.612-8.069,8.069C242.966,415.262,246.578,418.874,251.035,418.874z"/>
		</g>
	</g>
</g>
<g>
</g>
<g>
</g>
<g>
</g>
<g>
</g>
<g>
</g>
<g>
</g>
<g>
</g>
<g>
</g>
<g>
</g>
<g>
</g>
<g>
</g>
<g>
</g>
<g>
</g>
<g>
</g>
<g>
</g>
</svg>
