<svg xmlns="http://www.w3.org/2000/svg" viewBox="0 0 512 512"><path d="M377.749 17.393h-17.936v-9.24A8.153 8.153 0 0 0 351.66 0a8.153 8.153 0 0 0-8.153 8.153v9.24h-18.48v-9.24c0-4.503-3.65-8.153-8.153-8.153s-8.153 3.65-8.153 8.153v9.24h-18.48v-9.24c0-4.503-3.65-8.153-8.153-8.153s-8.153 3.65-8.153 8.153v9.24h-18.48v-9.24A8.153 8.153 0 0 0 247.302 0a8.153 8.153 0 0 0-8.153 8.153v9.24h-18.48v-9.24c0-4.503-3.65-8.153-8.153-8.153s-8.153 3.65-8.153 8.153v9.24h-18.48v-9.24c0-4.503-3.65-8.153-8.153-8.153s-8.153 3.65-8.153 8.153v9.24H151.1v-9.24A8.153 8.153 0 0 0 142.947 0a8.153 8.153 0 0 0-8.153 8.153v9.24h-18.48v-9.24c0-4.503-3.65-8.153-8.153-8.153s-8.153 3.65-8.153 8.153v9.24H82.072c-14.086 0-25.546 11.46-25.546 25.546v391.338c0 14.086 11.46 25.546 25.546 25.546h165.231c4.503 0 8.153-3.65 8.153-8.153s-3.65-8.153-8.153-8.153H82.072c-5.095 0-9.24-4.145-9.24-9.24V42.938c0-5.095 4.145-9.24 9.24-9.24h17.936v9.24c0 4.503 3.65 8.153 8.153 8.153s8.153-3.65 8.153-8.153v-9.24h18.48v9.24a8.153 8.153 0 0 0 8.153 8.153 8.153 8.153 0 0 0 8.153-8.153v-9.24h18.48v9.24c0 4.503 3.65 8.153 8.153 8.153s8.153-3.65 8.153-8.153v-9.24h18.48v9.24c0 4.503 3.65 8.153 8.153 8.153s8.153-3.65 8.153-8.153v-9.24h18.48v9.24a8.153 8.153 0 0 0 8.153 8.153 8.153 8.153 0 0 0 8.153-8.153v-9.24h18.48v9.24c0 4.503 3.65 8.153 8.153 8.153s8.153-3.65 8.153-8.153v-9.24h18.48v9.24c0 4.503 3.65 8.153 8.153 8.153s8.153-3.65 8.153-8.153v-9.24h18.48v9.24a8.153 8.153 0 0 0 8.153 8.153 8.153 8.153 0 0 0 8.153-8.153v-9.24h17.936c5.095 0 9.24 4.145 9.24 9.24v260.894c0 4.503 3.65 8.153 8.153 8.153s8.153-3.65 8.153-8.153V42.938c-.003-14.086-11.463-25.545-25.549-25.545z"/><path d="M360.357 321.766c-52.448 0-95.117 42.669-95.117 95.117S307.909 512 360.357 512c52.448 0 95.117-42.669 95.117-95.117s-42.669-95.117-95.117-95.117zm0 173.928c-43.457 0-78.811-35.354-78.811-78.811 0-43.457 35.354-78.811 78.811-78.811 43.457 0 78.811 35.354 78.811 78.811 0 43.457-35.354 78.811-78.811 78.811z"/><path d="M417.371 399.936a8.152 8.152 0 0 0-6.794-5.577l-30.116-3.571-12.702-27.538a8.154 8.154 0 0 0-14.808 0l-12.702 27.538-30.115 3.571a8.153 8.153 0 0 0-4.575 14.082l22.265 20.59-5.91 29.745a8.153 8.153 0 0 0 11.979 8.704l26.463-14.812 26.463 14.812a8.15 8.15 0 0 0 8.775-.518 8.156 8.156 0 0 0 3.205-8.185l-5.91-29.745 22.265-20.59a8.153 8.153 0 0 0 2.217-8.506zm-38.904 20.223a8.154 8.154 0 0 0-2.461 7.575l3.355 16.885-15.022-8.408a8.15 8.15 0 0 0-7.964 0l-15.022 8.408 3.355-16.885a8.155 8.155 0 0 0-2.461-7.575l-12.639-11.688 17.096-2.026a8.157 8.157 0 0 0 6.443-4.682l7.21-15.632 7.21 15.632a8.157 8.157 0 0 0 6.443 4.682l17.096 2.026-12.639 11.688zM360.357 69.571H99.465c-4.503 0-8.153 3.65-8.153 8.153s3.65 8.153 8.153 8.153h260.892a8.153 8.153 0 1 0 0-16.306zM169.036 156.535a8.153 8.153 0 0 0-8.153 8.153c0 9.89-8.046 17.936-17.936 17.936s-17.936-8.046-17.936-17.936 8.046-17.936 17.936-17.936c4.503 0 8.153-3.65 8.153-8.153s-3.65-8.153-8.153-8.153c-18.881 0-34.242 15.361-34.242 34.242 0 18.881 15.361 34.242 34.242 34.242 18.881 0 34.242-15.361 34.242-34.242a8.153 8.153 0 0 0-8.153-8.153zM169.036 252.195a8.153 8.153 0 0 0-8.153 8.153c0 9.89-8.046 17.936-17.936 17.936s-17.936-8.046-17.936-17.936 8.046-17.936 17.936-17.936c4.503 0 8.153-3.65 8.153-8.153s-3.65-8.153-8.153-8.153c-18.881 0-34.242 15.361-34.242 34.242s15.361 34.242 34.242 34.242c18.881 0 34.242-15.361 34.242-34.242a8.153 8.153 0 0 0-8.153-8.153zM342.964 269.588H203.822a8.153 8.153 0 0 0-8.153 8.153 8.153 8.153 0 0 0 8.153 8.153h139.142a8.153 8.153 0 1 0 0-16.306zM308.178 234.803H203.822c-4.503 0-8.153 3.65-8.153 8.153s3.65 8.153 8.153 8.153h104.357a8.153 8.153 0 1 0-.001-16.306zM247.304 365.248h-43.482c-4.503 0-8.153 3.65-8.153 8.153s3.65 8.153 8.153 8.153h43.482a8.153 8.153 0 1 0 0-16.306zM264.696 330.463h-60.875c-4.503 0-8.153 3.65-8.153 8.153s3.65 8.153 8.153 8.153h60.875c4.503 0 8.153-3.65 8.153-8.153s-3.65-8.153-8.153-8.153zM342.964 173.928H203.822c-4.503 0-8.153 3.65-8.153 8.153s3.65 8.153 8.153 8.153h139.142a8.153 8.153 0 1 0 0-16.306zM308.178 139.142H203.822c-4.503 0-8.153 3.65-8.153 8.153s3.65 8.153 8.153 8.153h104.357a8.153 8.153 0 1 0-.001-16.306zM169.036 347.856a8.153 8.153 0 0 0-8.153 8.153c0 9.89-8.046 17.936-17.936 17.936s-17.936-8.046-17.936-17.936 8.046-17.936 17.936-17.936a8.153 8.153 0 0 0 8.153-8.153 8.153 8.153 0 0 0-8.153-8.153c-18.881 0-34.242 15.361-34.242 34.242 0 18.881 15.361 34.242 34.242 34.242 18.881 0 34.242-15.361 34.242-34.242a8.153 8.153 0 0 0-8.153-8.153z"/></svg>