<svg xmlns="http://www.w3.org/2000/svg" viewBox="0 0 512 512"><path d="M318.682 496.996H80.997c-12.407 0-22.5-9.027-22.5-20.123V123.718a7.502 7.502 0 0 0-15.004 0v353.155c0 19.369 16.824 35.127 37.504 35.127h237.686c4.143 0 7.501-3.359 7.501-7.502s-3.358-7.502-7.502-7.502zM468.485 80.847c-.005-.08-.005-.159-.012-.238a7.654 7.654 0 0 0-.148-.969c-.014-.062-.033-.122-.049-.184a7.347 7.347 0 0 0-.243-.785c-.03-.081-.059-.162-.092-.242a7.495 7.495 0 0 0-.426-.885c-.02-.034-.044-.066-.064-.1a7.461 7.461 0 0 0-.67-.948 7.624 7.624 0 0 0-.694-.745L385.975 1.983a7.472 7.472 0 0 0-.768-.61c-.062-.043-.123-.087-.186-.128a7.29 7.29 0 0 0-.816-.472c-.044-.022-.09-.039-.135-.06a7.44 7.44 0 0 0-.777-.31c-.066-.022-.131-.046-.198-.067a7.536 7.536 0 0 0-.907-.219c-.059-.01-.119-.016-.179-.025a7.205 7.205 0 0 0-.819-.077c-.063-.002-.125-.008-.188-.009-.036-.001-.072-.006-.108-.006H80.997C60.318 0 43.494 15.758 43.494 35.128v42.079a7.502 7.502 0 0 0 15.004 0V35.128c0-11.097 10.093-20.124 22.499-20.124h292.395V50.96c0 20.696 16.823 37.534 37.462 37.534l42.649.234v388.145c0 11.096-10.093 20.123-22.499 20.123h-66.977a7.502 7.502 0 0 0-7.502 7.502 7.502 7.502 0 0 0 7.502 7.502h66.977c20.679 0 37.503-15.758 37.503-35.127V81.268c0-.141-.014-.281-.022-.421zm-57.59-7.356c-12.406 0-22.499-10.107-22.499-22.531V24.607l53.272 49.053-30.773-.169z"/><path d="M134.231 106.85c-17.764 0-32.216 14.452-32.216 32.216s14.452 32.216 32.216 32.216 32.216-14.452 32.216-32.216-14.452-32.216-32.216-32.216zm0 49.428c-9.49 0-17.212-7.722-17.212-17.212 0-9.49 7.722-17.212 17.212-17.212 9.491 0 17.212 7.722 17.212 17.212 0 9.49-7.722 17.212-17.212 17.212zM134.231 198.928c-17.764 0-32.216 14.452-32.216 32.216s14.452 32.216 32.216 32.216 32.216-14.452 32.216-32.216-14.452-32.216-32.216-32.216zm0 49.428c-9.49 0-17.212-7.722-17.212-17.212 0-9.49 7.722-17.212 17.212-17.212 9.491 0 17.212 7.721 17.212 17.212s-7.722 17.212-17.212 17.212zM134.231 383.084c-17.764 0-32.216 14.452-32.216 32.216s14.452 32.216 32.216 32.216 32.216-14.451 32.216-32.216-14.452-32.216-32.216-32.216zm0 49.428c-9.49 0-17.212-7.722-17.212-17.212 0-9.49 7.722-17.212 17.212-17.212 9.491 0 17.212 7.722 17.212 17.212 0 9.49-7.722 17.212-17.212 17.212zM326.861 106.85H196.514a7.502 7.502 0 0 0 0 15.004h130.347c4.144 0 7.502-3.359 7.502-7.502s-3.358-7.502-7.502-7.502zM390.058 136.208H196.514a7.502 7.502 0 0 0 0 15.004h193.544c4.144 0 7.502-3.359 7.502-7.502s-3.358-7.502-7.502-7.502zM293.287 165.567h-96.773a7.502 7.502 0 0 0 0 15.004h96.773c4.144 0 7.502-3.359 7.502-7.502s-3.358-7.502-7.502-7.502zM412.447 198.928H196.514a7.502 7.502 0 0 0 0 15.004h215.933c4.144 0 7.502-3.359 7.502-7.502s-3.358-7.502-7.502-7.502zM412.447 228.287H196.514a7.502 7.502 0 0 0 0 15.004h215.933c4.144 0 7.502-3.359 7.502-7.502s-3.358-7.502-7.502-7.502zM376.691 257.646H196.514a7.502 7.502 0 0 0 0 15.004h180.177a7.502 7.502 0 0 0 0-15.004zM412.447 291.006H196.514a7.502 7.502 0 0 0 0 15.004h215.933c4.144 0 7.502-3.359 7.502-7.502s-3.358-7.502-7.502-7.502zM412.447 320.365H196.514a7.502 7.502 0 0 0 0 15.004h215.933c4.144 0 7.502-3.359 7.502-7.502s-3.358-7.502-7.502-7.502zM293.287 349.723h-96.773a7.502 7.502 0 0 0 0 15.004h96.773c4.144 0 7.502-3.359 7.502-7.502s-3.358-7.502-7.502-7.502zM376.691 383.084H196.514a7.502 7.502 0 0 0 0 15.004h180.177a7.502 7.502 0 0 0 0-15.004zM412.447 412.443H196.514a7.502 7.502 0 0 0 0 15.004h215.933c4.144 0 7.502-3.359 7.502-7.502s-3.358-7.502-7.502-7.502zM412.447 441.802H196.514a7.502 7.502 0 0 0 0 15.004h215.933c4.144 0 7.502-3.359 7.502-7.502s-3.358-7.502-7.502-7.502zM161.328 292.22a7.5 7.5 0 0 0-10.379 2.197l-23.081 35.47-10.782-13.496a7.501 7.501 0 0 0-10.544-1.179 7.502 7.502 0 0 0-1.179 10.544l17.265 21.612a7.504 7.504 0 0 0 6.225 2.811 7.498 7.498 0 0 0 5.923-3.402l28.746-44.177a7.5 7.5 0 0 0-2.194-10.38z"/></svg>