<svg xmlns="http://www.w3.org/2000/svg" viewBox="0 0 512 512"><path d="M412.4 63.977h-51.638v-.836c0-6.893-5.607-12.5-12.5-12.5H311.84C309.301 22.299 285.233 0 255.999 0s-53.301 22.299-55.84 50.641h-36.423c-6.893 0-12.5 5.607-12.5 12.5v.836H99.598c-6.893 0-12.5 5.607-12.5 12.5V499.5c0 6.893 5.607 12.5 12.5 12.5h312.803c6.892 0 12.5-5.607 12.5-12.5V76.477c-.001-6.892-5.608-12.5-12.501-12.5zM255.999 15c20.95 0 38.274 15.586 40.757 35.641H282.34c-2.347-12.319-13.262-21.667-26.34-21.667-13.079 0-23.994 9.348-26.341 21.667h-14.416C217.725 30.586 235.049 15 255.999 15zm10.669 35.641h-21.339a11.834 11.834 0 0 1 10.67-6.667 11.834 11.834 0 0 1 10.669 6.667zM409.9 497H102.098V78.977h49.138v10.916h-23.07c-5.79 0-10.5 4.71-10.5 10.5V468.32c0 5.79 4.71 10.5 10.5 10.5h67.833a7.5 7.5 0 0 0 0-15h-63.333V104.893h18.57v1.129c0 6.893 5.607 12.5 12.5 12.5h32.263a7.5 7.5 0 0 0 0-15h-29.763v-37.88h179.526v37.88H239.999a7.5 7.5 0 0 0 0 15h108.263c6.893 0 12.5-5.607 12.5-12.5v-1.129h18.57V145a7.5 7.5 0 0 0 15 0v-44.607c0-5.79-4.71-10.5-10.5-10.5h-23.07V78.977H409.9V497z"/><path d="M386.832 177.5a7.5 7.5 0 0 0-7.5 7.5v278.82H239.999a7.5 7.5 0 0 0 0 15h143.833c5.79 0 10.5-4.71 10.5-10.5V185a7.5 7.5 0 0 0-7.5-7.5zM353.379 137.693h-109.41c-5.79 0-10.5 4.71-10.5 10.5v52.241c0 5.789 4.71 10.5 10.5 10.5h109.41c5.79 0 10.5-4.71 10.5-10.5v-52.241c0-5.79-4.711-10.5-10.5-10.5zm-82.658 58.241h-22.253v-14.603h22.253v14.603zm0-29.603h-22.253v-13.638h22.253v13.638zm78.158 29.603h-63.157v-14.603h63.157v14.603zm0-29.603h-63.157v-13.638h63.157v13.638zM216.048 157.143h-10.101v-10.089c0-5.721-4.656-10.376-10.378-10.376h-14.894c-5.722 0-10.378 4.654-10.378 10.376v10.089h-10.101c-5.722 0-10.378 4.654-10.378 10.375v14.883c0 5.721 4.656 10.376 10.378 10.376h10.101v10.089c0 5.721 4.656 10.375 10.378 10.375h14.894c5.722 0 10.378-4.654 10.378-10.375v-10.089h10.101c5.722 0 10.378-4.655 10.378-10.376v-14.883c0-5.721-4.654-10.375-10.378-10.375zm-4.622 20.634h-12.979a7.5 7.5 0 0 0-7.5 7.5v12.964h-5.65v-12.964a7.5 7.5 0 0 0-7.5-7.5h-12.979v-5.635h12.979a7.5 7.5 0 0 0 7.5-7.5v-12.964h5.65v12.964a7.5 7.5 0 0 0 7.5 7.5h12.979v5.635zM224.077 230.181h-65.539a7.5 7.5 0 0 0 0 15h65.539a7.5 7.5 0 0 0 0-15zM224.077 256.499h-65.539a7.5 7.5 0 0 0 0 15h65.539a7.5 7.5 0 0 0 0-15zM224.077 282.817h-65.539a7.5 7.5 0 0 0 0 15h65.539a7.5 7.5 0 0 0 0-15z"/><path d="M353.462 230.181H253.285a7.5 7.5 0 0 0 0 15h100.177a7.5 7.5 0 0 0 0-15zM353.462 256.499H253.285a7.5 7.5 0 0 0 0 15h100.177a7.5 7.5 0 0 0 0-15zM353.462 282.817H253.285a7.5 7.5 0 0 0 0 15h100.177a7.5 7.5 0 0 0 0-15zM197.778 317.929h-36.241c-5.79 0-10.5 4.71-10.5 10.5v14.975c0 5.79 4.71 10.5 10.5 10.5h36.241c5.79 0 10.5-4.71 10.5-10.5v-14.975c0-5.789-4.711-10.5-10.5-10.5zm-4.5 20.975h-27.241v-5.975h27.241v5.975zM197.778 361.793h-36.241c-5.79 0-10.5 4.71-10.5 10.5v14.975c0 5.789 4.71 10.5 10.5 10.5h36.241c5.79 0 10.5-4.711 10.5-10.5v-14.975c0-5.79-4.711-10.5-10.5-10.5zm-4.5 20.975h-27.241v-5.975h27.241v5.975zM197.778 407.125h-36.241c-5.79 0-10.5 4.71-10.5 10.5v14.974c0 5.79 4.71 10.5 10.5 10.5h36.241c5.79 0 10.5-4.71 10.5-10.5v-14.974c0-5.79-4.711-10.5-10.5-10.5zm-4.5 20.974h-27.241v-5.974h27.241v5.974zM246.786 317.929H229.77c-5.79 0-10.5 4.711-10.5 10.5v14.975c0 5.79 4.71 10.5 10.5 10.5h17.016c5.79 0 10.5-4.71 10.5-10.5v-14.975c0-5.79-4.71-10.5-10.5-10.5zm-4.5 20.975h-8.016v-5.975h8.016v5.975zM246.786 362.87H229.77c-5.79 0-10.5 4.71-10.5 10.5v14.975c0 5.79 4.71 10.5 10.5 10.5h17.016c5.79 0 10.5-4.71 10.5-10.5V373.37c0-5.79-4.71-10.5-10.5-10.5zm-4.5 20.976h-8.016v-5.975h8.016v5.975zM246.786 407.526H229.77c-5.79 0-10.5 4.71-10.5 10.5V433c0 5.79 4.71 10.5 10.5 10.5h17.016c5.789 0 10.5-4.71 10.5-10.5v-14.974c0-5.79-4.71-10.5-10.5-10.5zm-4.5 20.974h-8.016v-5.974h8.016v5.974zM349.074 317.929h-64.48c-5.789 0-10.5 4.71-10.5 10.5V433c0 5.79 4.711 10.5 10.5 10.5h64.48c5.79 0 10.5-4.71 10.5-10.5V328.43c0-5.79-4.711-10.501-10.5-10.501zm-4.5 110.571h-55.48v-22.924h55.48V428.5zm0-37.925h-55.48v-22.534h55.48v22.534zm0-37.534h-55.48v-20.112h55.48v20.112zM305.277 77.165H206.72a7.5 7.5 0 0 0 0 15h98.557a7.5 7.5 0 0 0 0-15z"/></svg>