<svg xmlns="http://www.w3.org/2000/svg" viewBox="0 0 512 512"><path d="M257.076 27.108c-12.67 0-22.979 10.307-22.979 22.977s10.309 22.977 22.979 22.977c12.669 0 22.976-10.307 22.976-22.977s-10.307-22.977-22.976-22.977zm0 29.818a6.848 6.848 0 0 1-6.841-6.84 6.848 6.848 0 0 1 6.841-6.84 6.846 6.846 0 0 1 6.839 6.84 6.846 6.846 0 0 1-6.839 6.84z"/><path d="M434.984 64.401h-94.382V53.153a8.068 8.068 0 0 0-8.069-8.069h-25.341C304.53 19.783 283.07 0 257.076 0c-25.995 0-47.457 19.783-50.118 45.085h-25.339a8.068 8.068 0 0 0-8.069 8.069v11.248H77.018c-11.551 0-20.95 9.397-20.95 20.948v405.702c0 11.55 9.397 20.948 20.95 20.948h357.966c11.55 0 20.947-9.397 20.947-20.948V85.349c0-11.55-9.396-20.948-20.947-20.948zm-245.297-3.179h25.162a8.07 8.07 0 0 0 8.053-8.588 34.304 34.304 0 0 1-.084-2.239c0-18.89 15.368-34.259 34.259-34.259 18.889 0 34.256 15.368 34.256 34.259 0 .636-.025 1.331-.083 2.258a8.065 8.065 0 0 0 2.174 6.026 8.064 8.064 0 0 0 5.879 2.543h25.162v35.815H189.687V61.222zm250.107 429.83a4.816 4.816 0 0 1-4.81 4.811H77.018a4.817 4.817 0 0 1-4.812-4.811V85.349a4.817 4.817 0 0 1 4.812-4.811h96.533v16.499H98.473a8.068 8.068 0 0 0-8.069 8.069v364.401a8.068 8.068 0 0 0 8.069 8.069h58.789c4.457 0 8.069-3.612 8.069-8.069s-3.612-8.069-8.069-8.069h-50.721V113.175h298.931v348.264H189.543c-4.457 0-8.069 3.612-8.069 8.069s3.612 8.069 8.069 8.069h224.001a8.068 8.068 0 0 0 8.069-8.069V105.106a8.068 8.068 0 0 0-8.069-8.069h-72.942V80.538h94.382a4.816 4.816 0 0 1 4.81 4.811v405.703z"/><path d="M170.773 199.686a8.04 8.04 0 0 0 5.588 2.248 8.046 8.046 0 0 0 5.599-2.259l17.238-16.612a8.068 8.068 0 0 0-11.197-11.619l-11.65 11.226-4.653-4.468a8.067 8.067 0 0 0-11.408.232 8.07 8.07 0 0 0 .232 11.408l10.251 9.844z"/><path d="M180.333 229.477c24.955 0 45.258-20.303 45.258-45.259s-20.303-45.259-45.258-45.259c-24.956 0-45.26 20.303-45.26 45.259s20.304 45.259 45.26 45.259zm0-74.382c16.058 0 29.12 13.065 29.12 29.122 0 16.058-13.064 29.122-29.12 29.122-16.059 0-29.123-13.065-29.123-29.122s13.064-29.122 29.123-29.122zM170.773 304.685a8.045 8.045 0 0 0 5.588 2.248 8.046 8.046 0 0 0 5.599-2.259l17.238-16.612a8.068 8.068 0 0 0-11.197-11.619l-11.65 11.227-4.653-4.467a8.069 8.069 0 0 0-11.176 11.64l10.251 9.842z"/><path d="M180.333 334.476c24.955 0 45.258-20.304 45.258-45.26 0-24.955-20.303-45.258-45.258-45.258-24.956 0-45.26 20.303-45.26 45.258 0 24.956 20.304 45.26 45.26 45.26zm0-74.38c16.058 0 29.12 13.064 29.12 29.12 0 16.059-13.064 29.123-29.12 29.123-16.059 0-29.123-13.065-29.123-29.123s13.064-29.12 29.123-29.12zM188.001 381.443l-11.65 11.227-4.653-4.468a8.067 8.067 0 0 0-11.408.232 8.07 8.07 0 0 0 .232 11.408l10.252 9.843a8.045 8.045 0 0 0 5.588 2.248 8.046 8.046 0 0 0 5.599-2.259l17.238-16.612a8.07 8.07 0 0 0 .211-11.409 8.071 8.071 0 0 0-11.409-.21z"/><path d="M225.591 394.217c0-24.956-20.303-45.259-45.258-45.259-24.956 0-45.26 20.303-45.26 45.259s20.304 45.259 45.26 45.259c24.955-.001 45.258-20.304 45.258-45.259zm-45.258 29.121c-16.059 0-29.123-13.064-29.123-29.122s13.065-29.121 29.123-29.121 29.12 13.065 29.12 29.121c0 16.057-13.062 29.122-29.12 29.122zM251.035 171.167h61.267a8.068 8.068 0 0 0 8.069-8.069 8.068 8.068 0 0 0-8.069-8.069h-61.267a8.068 8.068 0 0 0-8.069 8.069 8.068 8.068 0 0 0 8.069 8.069zM251.035 204.345h115.678c4.457 0 8.069-3.612 8.069-8.069s-3.612-8.069-8.069-8.069H251.035c-4.457 0-8.069 3.612-8.069 8.069s3.612 8.069 8.069 8.069zM251.035 280.697h61.267c4.457 0 8.069-3.612 8.069-8.069s-3.612-8.069-8.069-8.069h-61.267c-4.457 0-8.069 3.612-8.069 8.069s3.612 8.069 8.069 8.069zM251.035 313.876h115.678c4.457 0 8.069-3.612 8.069-8.069s-3.612-8.069-8.069-8.069H251.035a8.069 8.069 0 1 0 0 16.138zM251.035 385.695h61.267c4.457 0 8.069-3.612 8.069-8.069s-3.612-8.069-8.069-8.069h-61.267c-4.457 0-8.069 3.612-8.069 8.069s3.612 8.069 8.069 8.069zM251.035 418.874h115.678c4.457 0 8.069-3.612 8.069-8.069s-3.612-8.069-8.069-8.069H251.035a8.068 8.068 0 0 0-8.069 8.069 8.068 8.068 0 0 0 8.069 8.069z"/></svg>