<svg xmlns="http://www.w3.org/2000/svg" viewBox="0 0 511.999 511.999"><path d="M463.747 142.969c-28.2-7.891-65.56-12.237-105.198-12.237-14.971 0-29.745.624-43.912 1.853a7.56 7.56 0 0 0 1.307 15.063c13.734-1.192 28.069-1.796 42.605-1.796 90.822 0 138.332 21.655 138.332 33.264s-47.51 33.264-138.332 33.264-138.332-21.655-138.332-33.264c0-4.756 10.412-16.043 49.817-24.718a7.562 7.562 0 0 0-3.251-14.767c-28.14 6.196-61.686 18.075-61.686 39.485v63.633H57.931v-3.95c0-6.948-5.652-12.6-12.6-12.6H12.6c-6.948 0-12.6 5.652-12.6 12.6v129.867c0 6.948 5.652 12.6 12.6 12.6h32.731c6.948 0 12.6-5.652 12.6-12.6v-3.951h45.863a7.56 7.56 0 0 0 0-15.12H57.931v-91.727h19.663v45.86a7.56 7.56 0 0 0 15.12 0v-45.86h18.144v19.15a7.56 7.56 0 0 0 15.12 0v-19.15h20.16v19.15a7.56 7.56 0 0 0 15.12 0v-19.15h20.16v19.15a7.56 7.56 0 0 0 15.12 0v-19.15H216.698v45.863a7.56 7.56 0 0 0 15.12 0v-45.863h20.16v19.15a7.56 7.56 0 0 0 15.12 0v-19.15h20.16v19.15a7.56 7.56 0 0 0 15.12 0v-19.15h20.16v19.15a7.56 7.56 0 0 0 15.12 0v-19.15h20.16v45.863a7.56 7.56 0 0 0 15.12 0v-45.863s17.648-.068 20.16-.194v19.344a7.56 7.56 0 0 0 15.12 0v-20.875a149.31 149.31 0 0 0 20.16-4.507v12.027a7.56 7.56 0 0 0 15.12 0V247.27c0-.345-.031-.683-.076-1.016a148.856 148.856 0 0 0 20.236-10.356v11.372a7.56 7.56 0 0 0 15.12 0v-21.987a149.335 149.335 0 0 0 17.672-16.621c.056 25.692.086 61.789-.501 70.232-1.485 21.394-12.333 39.981-30.545 52.339-15.933 10.811-43.28 18.362-66.501 18.362h-247.23a7.56 7.56 0 0 0 0 15.12h247.224c21.943 0 53.641-6.484 74.99-20.97 21.815-14.801 35.352-38.056 37.139-63.802.683-9.83.973-98.935.973-100.826.001-15.026-16.234-27.188-48.252-36.148zM42.811 250.309v115.838H15.12V241.318h27.691v8.991zm342.716-7.559h-165.31v-41.196c7.944 5.174 18.998 9.755 33.134 13.71 28.2 7.891 65.56 12.237 105.198 12.237s76.998-4.346 105.198-12.237a207.484 207.484 0 0 0 5.28-1.554c-23.424 18.582-52.687 29.04-83.5 29.04z"/><path d="M406.082 159.104c-12.797-3.581-29.679-5.553-47.534-5.553-17.856 0-34.738 1.972-47.535 5.553-16.17 4.525-24.368 11.258-24.368 20.012 0 8.754 8.199 15.486 24.368 20.011 12.797 3.581 29.679 5.553 47.535 5.553 17.856 0 34.737-1.972 47.535-5.553 16.17-4.525 24.368-11.257 24.368-20.011s-8.199-15.486-24.369-20.012zm-7.471 26.344c-11.074 2.653-25.302 4.114-40.062 4.114-31.062 0-51.461-6.255-56.161-10.406 1.76-1.459 6.391-4.044 16.098-6.37 11.074-2.653 25.302-4.114 40.063-4.114 31.062 0 51.462 6.255 56.161 10.406-1.76 1.458-6.392 4.044-16.099 6.37z"/></svg>