<?xml version="1.0" encoding="iso-8859-1"?>
<!-- Generator: Adobe Illustrator 19.0.0, SVG Export Plug-In . SVG Version: 6.00 Build 0)  -->
<svg version="1.1" id="Layer_1" xmlns="http://www.w3.org/2000/svg" xmlns:xlink="http://www.w3.org/1999/xlink" x="0px" y="0px"
	 viewBox="0 0 512 512" style="enable-background:new 0 0 512 512;" xml:space="preserve">
<g>
	<g>
		<path d="M503.924,423.974c4.461,0,8.076-3.615,8.076-8.076V176.304c0-32.297-18.237-47.796-33.536-55.109
			c-16.083-7.69-32.434-8.129-35.575-8.14h-80.921h-25.316h-91.816c-0.21,0-0.42,0.009-0.629,0.025
			c-15.983,1.249-53.559,9.255-57.273,56.445c-0.073,0.855-0.132,1.724-0.172,2.554c-0.032,0.588-0.05,1.192-0.066,1.794
			l-0.013,0.441c-0.004,0.185-0.014,0.366-0.023,0.546c-0.023,0.475-0.041,0.95-0.041,1.445v159.389
			c0,20.305-12.885,32.944-23.854,40.029c-10.996-7.12-24.008-19.809-24.008-40.029V113.888c0-4.461-3.615-8.076-8.076-8.076
			c-4.461,0-8.076,3.615-8.076,8.076v221.805c0,22.082,10.861,37.217,22.497,47.097H69.137c-5.189-0.017-48.944-1.37-52.721-41.43
			h43.551c4.461,0,8.076-3.615,8.076-8.076s-3.615-8.076-8.076-8.076H16.151v-24.467h26.096c4.461,0,8.076-3.615,8.076-8.076
			c0-4.461-3.615-8.076-8.076-8.076H16.151v-24.467h43.816c4.461,0,8.076-3.615,8.076-8.076c0-4.461-3.615-8.076-8.076-8.076H16.151
			v-24.466h26.096c4.461,0,8.076-3.615,8.076-8.076c0-4.461-3.615-8.076-8.076-8.076H16.151v-24.467h43.816
			c4.461,0,8.076-3.615,8.076-8.076c0-4.461-3.615-8.076-8.076-8.076H16.151v-24.467h26.096c4.461,0,8.076-3.615,8.076-8.076
			c0-4.461-3.615-8.075-8.076-8.075H16.151V97.66h43.816c4.461,0,8.076-3.615,8.076-8.076c0-4.461-3.615-8.076-8.076-8.076H16.151
			V16.426h106.456v66.778c0,4.461,3.615,8.076,8.076,8.076c4.461,0,8.076-3.615,8.076-8.076V8.35c0-4.461-3.615-8.076-8.076-8.076
			H8.076C3.615,0.275,0,3.889,0,8.35v327.344c0,32.298,18.237,47.796,33.536,55.109c16.083,7.69,32.434,8.129,35.575,8.14h80.921
			h25.316h91.816c0.21,0,0.42-0.009,0.629-0.024c15.983-1.249,53.558-9.255,57.274-56.467c0.071-0.847,0.132-1.709,0.171-2.531
			c0.032-0.588,0.049-1.191,0.066-1.794l0.013-0.441c0.004-0.185,0.014-0.366,0.023-0.547c0.023-0.474,0.041-0.949,0.041-1.444
			V176.307c0-20.305,12.885-32.944,23.854-40.03c10.996,7.12,24.008,19.809,24.008,40.03V503.65c0,4.461,3.615,8.076,8.076,8.076
			h122.607c4.461,0,8.076-3.615,8.076-8.076v-55.988c0-4.461-3.615-8.076-8.076-8.076c-4.461,0-8.076,3.615-8.076,8.076v47.912
			H389.393v-56.692h41.225c4.461,0,8.076-3.615,8.076-8.076s-3.615-8.076-8.076-8.076h-41.225v-24.467h23.507
			c4.461,0,8.076-3.615,8.076-8.076c0-4.461-3.615-8.076-8.076-8.076h-23.507v-24.467h41.225c4.461,0,8.076-3.615,8.076-8.076
			c0-4.461-3.615-8.076-8.076-8.076h-41.225V317.03h23.507c4.461,0,8.076-3.615,8.076-8.076s-3.615-8.076-8.076-8.076h-23.507
			v-24.467h41.225c4.461,0,8.076-3.615,8.076-8.076c0-4.461-3.615-8.076-8.076-8.076h-41.225v-24.467h23.507
			c4.461,0,8.076-3.616,8.076-8.076c0-4.461-3.615-8.076-8.076-8.076h-23.507v-24.467h41.225c4.461,0,8.076-3.615,8.076-8.076
			c0-4.461-3.615-8.076-8.076-8.076h-41.225v-2.721c0-22.082-10.861-37.218-22.497-47.097h75.967
			c5.424,0.018,52.986,1.489,52.986,47.097v239.593C495.849,420.358,499.464,423.974,503.924,423.974z M309.228,176.304v159.389
			c0,0.238-0.014,0.465-0.024,0.693c-0.014,0.298-0.027,0.598-0.033,0.871l-0.012,0.444c-0.013,0.448-0.023,0.897-0.05,1.384
			c-0.033,0.684-0.082,1.36-0.14,2.061c-2.496,31.716-24.214,40.171-42.128,41.646h-86.566c11.636-9.88,22.496-25.016,22.496-47.097
			v-18.665h24.401c4.461,0,8.076-3.615,8.076-8.076s-3.615-8.076-8.076-8.076h-24.402v-24.467h42.121
			c4.461,0,8.076-3.615,8.076-8.076c0-4.461-3.615-8.076-8.076-8.076h-42.121v-24.467h24.401c4.461,0,8.076-3.616,8.076-8.076
			c0-4.461-3.615-8.076-8.076-8.076h-24.401v-24.467h42.121c4.461,0,8.076-3.615,8.076-8.076s-3.615-8.076-8.076-8.076h-42.121
			v-2.721c0-0.238,0.014-0.465,0.024-0.693c0.014-0.298,0.027-0.598,0.033-0.871l0.012-0.444c0.013-0.448,0.023-0.897,0.049-1.384
			c0.032-0.677,0.079-1.344,0.14-2.061c2.496-31.716,24.214-40.171,42.128-41.646h86.566
			C320.088,139.087,309.228,154.223,309.228,176.304z"/>
	</g>
</g>
<g>
</g>
<g>
</g>
<g>
</g>
<g>
</g>
<g>
</g>
<g>
</g>
<g>
</g>
<g>
</g>
<g>
</g>
<g>
</g>
<g>
</g>
<g>
</g>
<g>
</g>
<g>
</g>
<g>
</g>
</svg>
