<svg xmlns="http://www.w3.org/2000/svg" viewBox="0 0 512 512"><path d="M503.924 423.974a8.075 8.075 0 0 0 8.076-8.076V176.304c0-32.297-18.237-47.796-33.536-55.109-16.083-7.69-32.434-8.129-35.575-8.14H244.836c-.21 0-.42.009-.629.025-15.983 1.249-53.559 9.255-57.273 56.445a69.905 69.905 0 0 0-.238 4.348l-.013.441c-.004.185-.014.366-.023.546-.023.475-.041.95-.041 1.445v159.389c0 20.305-12.885 32.944-23.854 40.029-10.996-7.12-24.008-19.809-24.008-40.029V113.888a8.075 8.075 0 0 0-8.076-8.076 8.075 8.075 0 0 0-8.076 8.076v221.805c0 22.082 10.861 37.217 22.497 47.097H69.137c-5.189-.017-48.944-1.37-52.721-41.43h43.551c4.461 0 8.076-3.615 8.076-8.076s-3.615-8.076-8.076-8.076H16.151v-24.467h26.096a8.075 8.075 0 0 0 8.076-8.076 8.075 8.075 0 0 0-8.076-8.076H16.151v-24.467h43.816a8.075 8.075 0 0 0 8.076-8.076 8.075 8.075 0 0 0-8.076-8.076H16.151v-24.466h26.096a8.075 8.075 0 0 0 8.076-8.076 8.075 8.075 0 0 0-8.076-8.076H16.151v-24.467h43.816a8.075 8.075 0 0 0 8.076-8.076 8.075 8.075 0 0 0-8.076-8.076H16.151v-24.467h26.096a8.075 8.075 0 0 0 8.076-8.076 8.074 8.074 0 0 0-8.076-8.075H16.151V97.66h43.816a8.075 8.075 0 0 0 8.076-8.076 8.075 8.075 0 0 0-8.076-8.076H16.151V16.426h106.456v66.778a8.075 8.075 0 0 0 8.076 8.076 8.075 8.075 0 0 0 8.076-8.076V8.35a8.075 8.075 0 0 0-8.076-8.076H8.076A8.076 8.076 0 0 0 0 8.35v327.344c0 32.298 18.237 47.796 33.536 55.109 16.083 7.69 32.434 8.129 35.575 8.14h198.053c.21 0 .42-.009.629-.024 15.983-1.249 53.558-9.255 57.274-56.467.071-.847.132-1.709.171-2.531.032-.588.049-1.191.066-1.794l.013-.441c.004-.185.014-.366.023-.547.023-.474.041-.949.041-1.444V176.307c0-20.305 12.885-32.944 23.854-40.03 10.996 7.12 24.008 19.809 24.008 40.03V503.65a8.075 8.075 0 0 0 8.076 8.076h122.607a8.075 8.075 0 0 0 8.076-8.076v-55.988a8.075 8.075 0 0 0-8.076-8.076 8.075 8.075 0 0 0-8.076 8.076v47.912H389.393v-56.692h41.225c4.461 0 8.076-3.615 8.076-8.076s-3.615-8.076-8.076-8.076h-41.225v-24.467H412.9a8.075 8.075 0 0 0 8.076-8.076 8.075 8.075 0 0 0-8.076-8.076h-23.507v-24.467h41.225a8.075 8.075 0 0 0 8.076-8.076 8.075 8.075 0 0 0-8.076-8.076h-41.225V317.03H412.9c4.461 0 8.076-3.615 8.076-8.076s-3.615-8.076-8.076-8.076h-23.507v-24.467h41.225a8.075 8.075 0 0 0 8.076-8.076 8.075 8.075 0 0 0-8.076-8.076h-41.225v-24.467H412.9a8.076 8.076 0 0 0 8.076-8.076 8.075 8.075 0 0 0-8.076-8.076h-23.507v-24.467h41.225a8.075 8.075 0 0 0 8.076-8.076 8.075 8.075 0 0 0-8.076-8.076h-41.225V176.3c0-22.082-10.861-37.218-22.497-47.097h75.967c5.424.018 52.986 1.489 52.986 47.097v239.593a8.077 8.077 0 0 0 8.075 8.081zm-194.696-247.67v159.389c0 .238-.014.465-.024.693-.014.298-.027.598-.033.871l-.012.444c-.013.448-.023.897-.05 1.384-.033.684-.082 1.36-.14 2.061-2.496 31.716-24.214 40.171-42.128 41.646h-86.566c11.636-9.88 22.496-25.016 22.496-47.097V317.03h24.401c4.461 0 8.076-3.615 8.076-8.076s-3.615-8.076-8.076-8.076H202.77v-24.467h42.121a8.075 8.075 0 0 0 8.076-8.076 8.075 8.075 0 0 0-8.076-8.076H202.77v-24.467h24.401a8.076 8.076 0 0 0 8.076-8.076 8.075 8.075 0 0 0-8.076-8.076H202.77v-24.467h42.121c4.461 0 8.076-3.615 8.076-8.076s-3.615-8.076-8.076-8.076H202.77V176.3c0-.238.014-.465.024-.693.014-.298.027-.598.033-.871l.012-.444c.013-.448.023-.897.049-1.384.032-.677.079-1.344.14-2.061 2.496-31.716 24.214-40.171 42.128-41.646h86.566c-11.634 9.886-22.494 25.022-22.494 47.103z"/></svg>