<svg xmlns="http://www.w3.org/2000/svg" viewBox="0 0 512 512"><path d="M130.945 442.354c-5.837-5.843-13.598-9.06-21.854-9.059H43.979c-17.036 0-30.898 13.871-30.898 30.922-.001 8.258 3.211 16.023 9.046 21.865 5.837 5.842 13.597 9.059 21.854 9.059h65.113c17.037 0 30.9-13.871 30.9-30.922-.001-8.259-3.214-16.025-9.049-21.865zM69.037 480.14H43.981a15.787 15.787 0 0 1-11.241-4.661 15.82 15.82 0 0 1-4.658-11.261c0-8.78 7.132-15.922 15.898-15.922h25.058v31.844zm40.057 0H84.038v-31.845h25.055a15.783 15.783 0 0 1 11.24 4.66 15.833 15.833 0 0 1 4.659 11.263c0 8.78-7.131 15.922-15.898 15.922zM382.71 388.503a7.5 7.5 0 0 0 7.5-7.5V332.49c0-16.941-13.771-30.724-30.7-30.724h-15.227v-17.128h18.494c6.893 0 12.5-5.607 12.5-12.5v-40.729c0-6.893-5.607-12.5-12.5-12.5H212.293c-6.893 0-12.5 5.607-12.5 12.5v40.729c0 6.893 5.607 12.5 12.5 12.5h18.495v17.128h-15.227c-16.93 0-30.702 13.782-30.702 30.724v158.669c0 7.337 5.967 13.306 13.301 13.306h178.751c7.333 0 13.299-5.969 13.299-13.306v-71.155a7.5 7.5 0 0 0-7.5-7.5 7.5 7.5 0 0 0-7.5 7.5v14.5h-30.886a64.84 64.84 0 0 0 8.377-31.933 64.851 64.851 0 0 0-8.377-31.934h30.886v10.365a7.5 7.5 0 0 0 7.5 7.501zM214.794 269.637v-35.729h145.484v35.729H321.01c-4.143 0-7.5 3.358-7.5 7.5s3.357 7.5 7.5 7.5h8.273v17.128h-83.494v-17.128h35.22c4.143 0 7.5-3.358 7.5-7.5s-3.357-7.5-7.5-7.5h-66.215zm160.417 179.869v39.959H199.86v-39.959h42.494c11.725 11.311 27.65 18.289 45.182 18.289 17.531 0 33.457-6.978 45.182-18.289h42.493zm-144.463-15.001H199.86v-63.867h30.888a64.851 64.851 0 0 0-8.377 31.934 64.837 64.837 0 0 0 8.377 31.933zm6.622-31.933c0-27.693 22.505-50.222 50.165-50.222s50.165 22.53 50.165 50.222c0 27.693-22.504 50.222-50.165 50.222-27.66.001-50.165-22.529-50.165-50.222zm95.347-46.934c-11.725-11.311-27.649-18.289-45.181-18.289-17.531 0-33.456 6.977-45.181 18.289H199.86v-23.149c0-8.67 7.044-15.723 15.701-15.723h143.95c8.656 0 15.699 7.053 15.699 15.723v23.149h-42.493z"/><path d="M312.921 383.46H262.15c-4.143 0-7.5 3.358-7.5 7.5s3.357 7.5 7.5 7.5h50.771c4.143 0 7.5-3.358 7.5-7.5s-3.357-7.5-7.5-7.5zM305.454 407.844h-35.836a7.5 7.5 0 0 0-7.5 7.5 7.5 7.5 0 0 0 7.5 7.5h35.837a7.5 7.5 0 1 0-.001-15zM139.772 361.397h-10.631c-15.597 0-28.286 12.697-28.286 28.305s12.688 28.305 28.286 28.305h10.631c15.596 0 28.284-12.697 28.284-28.305 0-15.607-12.688-28.305-28.284-28.305zm0 41.609h-10.631c-7.325 0-13.285-5.968-13.285-13.304s5.96-13.304 13.285-13.304h10.631c7.324 0 13.283 5.968 13.283 13.304.001 7.336-5.958 13.304-13.283 13.304zM91.523 323.737c-5.342-5.347-12.446-8.293-20.002-8.293-7.556 0-14.659 2.945-20.004 8.293L44 331.262c-11.025 11.034-11.027 28.99-.002 40.024 5.343 5.348 12.446 8.293 20.003 8.293s14.659-2.945 20.001-8.293l7.52-7.526c11.024-11.034 11.024-28.99.001-40.023zM80.91 353.159l-7.521 7.527a13.182 13.182 0 0 1-9.388 3.894 13.186 13.186 0 0 1-9.391-3.895c-5.184-5.188-5.184-13.631.003-18.821l7.517-7.526a13.189 13.189 0 0 1 9.391-3.894c3.546 0 6.88 1.383 9.389 3.894 5.184 5.19 5.184 13.633 0 18.821zM502.966 179.802c-5.836-5.842-13.597-9.06-21.854-9.06-8.255 0-16.016 3.218-21.852 9.06l-46.04 46.087c-12.045 12.055-12.045 31.671-.001 43.726 5.836 5.842 13.596 9.06 21.852 9.06s16.016-3.218 21.853-9.06l46.042-46.087c12.046-12.055 12.046-31.671 0-43.726zm-56.653 79.213a15.787 15.787 0 0 1-11.24 4.661 15.78 15.78 0 0 1-11.238-4.661c-6.204-6.209-6.204-16.313 0-22.523l17.714-17.732 22.491 22.513-17.727 17.742zm46.042-46.088l-17.714 17.732-22.491-22.513 17.726-17.743a15.782 15.782 0 0 1 11.238-4.661c4.246 0 8.238 1.655 11.241 4.662 6.204 6.21 6.204 16.313 0 22.523zM416.662 128.58h-65.117c-17.035 0-30.896 13.872-30.896 30.923s13.862 30.922 30.9 30.922h65.113c17.038 0 30.901-13.871 30.901-30.922 0-17.052-13.86-30.923-30.901-30.923zm-40.055 46.844h-25.058c-8.767 0-15.898-7.143-15.898-15.922s7.131-15.922 15.898-15.922h25.058v31.844zm40.055-.001h-25.056v-31.845h25.06v.001c8.766 0 15.896 7.143 15.896 15.922 0 8.78-7.133 15.922-15.9 15.922zM475.517 304.439c-7.441-7.449-17.336-11.551-27.862-11.551-10.525 0-20.422 4.102-27.864 11.551-15.358 15.373-15.358 40.387 0 55.762 7.442 7.449 17.338 11.552 27.864 11.552 10.525 0 20.421-4.103 27.862-11.552 15.357-15.374 15.357-40.388 0-55.762zm-27.862 52.313c-6.517 0-12.644-2.54-17.253-7.153-7.666-7.674-9.146-19.222-4.463-28.404l32.842 32.875a24.255 24.255 0 0 1-11.126 2.682zm21.713-13.308l-32.842-32.875a24.258 24.258 0 0 1 11.128-2.682c6.516 0 12.642 2.54 17.249 7.152 7.668 7.676 9.148 19.223 4.465 28.405zM325.29 59.952l-48.708-48.758c-2.358-2.359-5.497-3.658-8.84-3.658s-6.481 1.299-8.84 3.658L247.43 22.676c-4.871 4.874-4.871 12.804-.001 17.677l9.523 9.533-23.569 23.592-25.92-25.946a12.413 12.413 0 0 0-8.839-3.657c-3.344 0-6.483 1.3-8.839 3.659l-17.607 17.625c-4.868 4.873-4.868 12.802 0 17.676l8.395 8.404L63.968 207.961c-2.434 2.437-3.651 5.637-3.651 8.838s1.217 6.401 3.651 8.838l2.244 2.247-8.397 8.406c-4.867 4.873-4.867 12.802.001 17.677l7.166 7.173-62.787 62.848a7.5 7.5 0 0 0 5.306 12.801 7.477 7.477 0 0 0 5.306-2.199l62.777-62.839 7.155 7.161a12.408 12.408 0 0 0 8.839 3.658c3.344 0 6.482-1.299 8.839-3.658l8.387-8.395 2.234 2.236a12.406 12.406 0 0 0 8.839 3.658c3.343 0 6.481-1.299 8.84-3.658l116.594-116.709 8.385 8.393a12.406 12.406 0 0 0 8.84 3.66c3.343 0 6.481-1.299 8.84-3.658l17.607-17.625c4.871-4.874 4.871-12.804.001-17.677l-25.929-25.955 23.568-23.593 9.514 9.523c2.357 2.358 5.496 3.657 8.839 3.657s6.482-1.299 8.839-3.658l11.473-11.484c4.873-4.873 4.872-12.803.002-17.675zM75.584 250.526l-5.394-5.399 6.624-6.631 5.395 5.399-6.625 6.631zm15.993 16.011l-5.393-5.397 6.625-6.631 5.392 5.398-6.624 6.63zm91.327-69.246l-7.095-7.095a7.5 7.5 0 0 0-10.607 10.606l7.101 7.1-8.639 8.647-7.104-7.104a7.5 7.5 0 0 0-10.607 10.606l7.11 7.11-8.639 8.647-7.114-7.114a7.5 7.5 0 0 0-10.607 10.606l7.119 7.12-13.941 13.955-43.536-43.58 80.455-80.533 43.536 43.58-17.432 17.449zm93.707-59.316l-14.073 14.087-18.349-18.366a7.5 7.5 0 0 0-10.606-.005 7.498 7.498 0 0 0-.005 10.606l1.133 1.133-23.775 23.798-43.536-43.58 23.774-23.797 15.427 15.442a7.5 7.5 0 0 0 10.606.005 7.5 7.5 0 0 0 .005-10.607L184.55 73.997l14.074-14.087 77.987 78.065zM252.456 92.57l-8.471-8.479 23.569-23.592 8.47 8.479-23.568 23.592zm52.522-15.833l-45.176-45.222 7.939-7.946 45.175 45.222-7.938 7.946z"/></svg>