<svg xmlns="http://www.w3.org/2000/svg" viewBox="0 0 512 512"><path d="M342.751 206.75c20.678 0 37.5-16.822 37.5-37.5v-15c0-54.309-35.407-102.224-86.789-118.474C292.558 15.896 276.101 0 256.001 0c-20.1 0-36.557 15.896-37.461 35.776-51.382 16.25-86.789 64.165-86.789 118.474v15c0 68.512 55.738 124.25 124.25 124.25 27.156 0 49.25 22.094 49.25 49.25v15c0 27.156-22.094 49.25-49.25 49.25a49.138 49.138 0 0 1-24.353-6.473 7.497 7.497 0 0 0-10.233 2.788 7.5 7.5 0 0 0 2.788 10.233A64.158 64.158 0 0 0 256.001 422c35.428 0 64.25-28.822 64.25-64.25v-15c0-35.428-28.822-64.25-64.25-64.25-60.24 0-109.25-49.01-109.25-109.25v-15c0-49.449 33.382-92.869 81.179-105.588a7.5 7.5 0 0 0 5.571-7.248V37.5c0-12.406 10.094-22.5 22.5-22.5s22.5 10.094 22.5 22.5v3.914a7.5 7.5 0 0 0 5.571 7.248c47.797 12.719 81.179 56.139 81.179 105.588v15c0 12.406-10.094 22.5-22.5 22.5s-22.5-10.094-22.5-22.5v-15c0-35.428-28.822-64.25-64.25-64.25s-64.25 28.822-64.25 64.25v15c0 35.428 28.822 64.25 64.25 64.25 60.24 0 109.25 49.01 109.25 109.25v15c0 49.449-33.382 92.869-81.179 105.588a7.5 7.5 0 0 0-5.571 7.248v3.914c0 12.406-10.094 22.5-22.5 22.5s-22.5-10.094-22.5-22.5v-3.914a7.5 7.5 0 0 0-5.571-7.248c-47.797-12.719-81.179-56.139-81.179-105.588v-15c0-12.406 10.094-22.5 22.5-22.5s22.5 10.094 22.5 22.5v15a64.167 64.167 0 0 0 8.451 31.798 7.498 7.498 0 0 0 10.233 2.788 7.5 7.5 0 0 0 2.788-10.233 49.143 49.143 0 0 1-6.473-24.353v-15c0-20.678-16.822-37.5-37.5-37.5s-37.5 16.822-37.5 37.5v15c0 54.309 35.407 102.224 86.789 118.474.905 19.88 17.362 35.776 37.462 35.776 20.1 0 36.557-15.896 37.461-35.776 51.382-16.25 86.789-64.165 86.789-118.474v-15c0-68.512-55.738-124.25-124.25-124.25-27.156 0-49.25-22.094-49.25-49.25v-15c0-27.156 22.094-49.25 49.25-49.25s49.25 22.094 49.25 49.25v15c0 20.678 16.822 37.5 37.5 37.5z"/></svg>