<svg xmlns="http://www.w3.org/2000/svg" viewBox="0 0 512.001 512.001"><path d="M385.625 396.158a7.542 7.542 0 0 0-8.374 6.613c-4.902 41.698-32.282 74.711-66.952 83.854 39.373-47.936 40.075-133.931 5.413-184.48-7.485-10.842-11.489-15.717-16.237-40.544 10.973 21.336 26.126 35.785 32.615 39.801 23.031 14.195 39.16 39.103 44.253 68.334a7.546 7.546 0 1 0 14.868-2.59c-5.809-33.344-24.339-61.888-50.863-78.382-36.735-28.359-41.869-81.16-42.482-82.733 5.906-34.233 20.795-35.885 15.272-46.663a10.07 10.07 0 0 0-8.998-5.494h-22.326c.448-2.093-1.143 4.78 24.05-103.18a10.403 10.403 0 0 0-5.537-11.729 10.39 10.39 0 0 0-12.668 2.697c-8.56 10.357-16.159 22.009-22.782 34.868-5.367-27.218-14.403-51.225-27.003-71.586-5.785-9.349-20.282-4.452-19.265 6.471l5.497 59.096c-12.016-16.731-26.72-32.875-44.544-46.068a10.386 10.386 0 0 0-12.945.432 10.403 10.403 0 0 0-2.553 12.716c51.493 100.815 51.657 99.757 57.002 116.283h-12.728c-8.256 0-13.025 9.356-8.197 16.07 7.998 11.12 12.45 23.854 14.598 36.834-.298 1.081-5.771 53.839-42.241 81.988-32.57 20.254-52.783 58.752-52.783 100.582 0 63.16 45.605 114.575 101.768 114.894 4.651 3.048 9.536 5.516 14.623 7.323a7.546 7.546 0 0 0 5.051-14.221c-44.284-15.733-69.725-97.19-44.315-162.869 10.893-28.289 20.411-27.957 27.277-53.8 9.655-36.345 11.919-79.211-6.69-111.71h77.621c-16.215 28.319-16.435 64.028-10.298 95.927 8.219 42.705 17.598 37.551 29.645 66.486 26.035 62.538 4.195 149.175-43.081 165.967-7.981 2.834-5.862 14.657 2.525 14.657 3.914 0 13.388-5.295 17.144-7.756 51.064-.08 94.581-42.919 101.257-99.713a7.55 7.55 0 0 0-6.617-8.375zm-207.211-54.181c-5.89 20.269-8.118 43.899-5.767 67.274 0 0 2.961 44.956 29.443 77.276-38.521-10.336-67.292-49.985-67.292-97.183 0-36.776 17.607-70.474 45.95-87.945a7.72 7.72 0 0 0 .676-.469c14.159-10.845 24.221-24.621 31.346-38.173-9.094 45.758-20.574 31.129-34.356 79.22zm58.445-188.105c-6.072-20.62-9.239-25.011-48.729-102.325 28.748 27.997 53.553 73.939 60.955 102.325h-12.226zm12.673-40.138a314.002 314.002 0 0 0-7.642-14.874l-6.097-65.548c8.918 20.041 14.876 43.105 17.774 68.87a273.185 273.185 0 0 0-4.035 11.552zm15.097 40.138a144.047 144.047 0 0 0-5.637-18.485c5.782-22.599 14.359-45.192 26.853-65.339-19.701 84.424-18.579 79.423-19.44 83.824h-1.776z"/></svg>