<svg xmlns="http://www.w3.org/2000/svg" viewBox="0 0 511.998 511.998"><path d="M424.101 303.508c-4.121-.434-7.806 2.565-8.233 6.687-5.933 57.245-41.251 104.638-90.14 127.957 70.589-69.608 70.717-219.632 0-289.367 49.532 23.626 84.28 71.418 90.14 127.957a7.494 7.494 0 0 0 8.233 6.687 7.5 7.5 0 0 0 6.687-8.233c-5.936-57.268-39.471-106.63-87.625-134.072-38.835-38.685-33.525-92.628-26.858-121.44C319.78 4.66 302.121-6.118 290.377 3.879l-26.275 22.357a44.95 44.95 0 0 1-.168-1.63 7.494 7.494 0 0 0-7.471-7.002h-.014c-3.828 0-7.014 2.887-7.443 6.655l-23.95-20.38c-5.346-4.548-12.668-5.135-18.657-1.489-6.002 3.651-8.856 10.439-7.271 17.294 6.505 28.116 11.723 80.162-24.114 118.609-55.746 29.375-93.844 87.905-93.844 155.175 0 81.528 55.949 150.233 131.468 169.739-17.048 8.267-31.07 22.553-31.07 41.291a7.5 7.5 0 0 0 7.5 7.5 7.5 7.5 0 0 0 7.5-7.5c0-13.197 12.727-24.994 31.097-31.18-4.695 8.549-7.466 19.325-7.466 31.18a7.5 7.5 0 0 0 7.5 7.5 7.5 7.5 0 0 0 7.5-7.5c0-19.377 9.733-35.747 21.253-35.747 11.521 0 21.253 16.37 21.253 35.747a7.5 7.5 0 0 0 7.5 7.5 7.5 7.5 0 0 0 7.5-7.5c0-11.855-2.771-22.631-7.466-31.18 18.37 6.186 31.097 17.983 31.097 31.18a7.5 7.5 0 0 0 7.5 7.5 7.5 7.5 0 0 0 7.5-7.5c0-18.674-13.923-32.976-31.069-41.291 70.317-18.113 122.94-78.329 130.521-151.466a7.5 7.5 0 0 0-6.687-8.233zM301.24 15.204c.62.377.511.847.453 1.099-5.486 23.714-10.054 62.907 6.1 99.457-24.76-25.918-35.662-54.515-40.379-72.644 35.32-30.055 32.894-28.476 33.826-27.912zm-44.788 44.161c6.072 18.031 16.998 40.917 36.583 62.638-22.962-4.884-48.357-5.276-73.165 0 19.585-21.721 30.51-44.607 36.582-62.638zm-42.71-43.063c-.059-.252-.167-.722.453-1.099.599-.36.938-.074 1.14.099l30.606 26.042c-4.18 16.874-13.926 43.971-36.195 69.351 13.629-35.062 9.23-71.771 3.996-94.393zM96.17 293.468c0-59.268 32.336-111.123 80.291-138.856 3.642.199 5.378-1.79 7.699-4.172.898-.456 1.798-.907 2.705-1.346-36.57 36.302-52.727 92.644-52.727 144.374 0 51.822 16.216 108.13 52.727 144.374-53.623-25.95-90.695-80.913-90.695-144.374zm52.968.001c0-73.033 32.874-134.809 77.68-154.064-23.326 37.694-29.855 108.605-29.855 154.064 0 46.098 6.705 116.654 29.855 154.064-44.806-19.255-77.68-81.031-77.68-154.064zM286.181 447.49c18.031-29.22 27.801-84.118 29.476-136.281a7.498 7.498 0 0 0-7.255-7.736c-4.156-.145-7.604 3.115-7.737 7.256-2.819 87.776-26.038 143.023-44.213 143.023-18.578 0-44.49-60.978-44.49-160.283s25.912-160.283 44.49-160.283c18.103 0 41.385 54.971 44.213 143.023.133 4.141 3.579 7.408 7.737 7.256a7.5 7.5 0 0 0 7.255-7.736c-1.675-52.163-11.446-107.061-29.476-136.281 44.758 19.3 77.585 81.039 77.585 154.02s-32.828 134.72-77.585 154.022z"/></svg>