<?xml version="1.0" encoding="iso-8859-1"?>
<!-- Generator: Adobe Illustrator 19.0.0, SVG Export Plug-In . SVG Version: 6.00 Build 0)  -->
<svg version="1.1" id="Layer_1" xmlns="http://www.w3.org/2000/svg" xmlns:xlink="http://www.w3.org/1999/xlink" x="0px" y="0px"
	 viewBox="0 0 511.999 511.999" style="enable-background:new 0 0 511.999 511.999;" xml:space="preserve">
<g>
	<g>
		<g>
			<path d="M454.652,178.27c-1.517-1.516-3.572-2.367-5.717-2.367c-2.145,0-4.199,0.852-5.717,2.367l-65.965,65.965
				c-12.591-31.687-33.218-59.469-60.211-80.906c-3.495-2.777-8.581-2.194-11.358,1.303c-2.777,3.496-2.193,8.581,1.303,11.358
				c26.621,21.142,46.499,48.997,57.715,80.795l-186.517,186.52c-0.592,0.592-1.073,1.254-1.443,1.957
				c-0.617,1.173-0.925,2.466-0.925,3.76c0,2.068,0.789,4.138,2.368,5.717c0.08,0.08,0.163,0.157,0.243,0.237
				c0.997,0.994,2.003,1.975,3.016,2.944c0.322,0.308,0.649,0.609,0.972,0.915c0.808,0.763,1.621,1.521,2.44,2.268
				c0.323,0.294,0.649,0.586,0.973,0.878c0.863,0.778,1.733,1.548,2.609,2.308c0.265,0.23,0.53,0.46,0.797,0.69
				c1.024,0.881,2.056,1.749,3.096,2.606c0.12,0.098,0.237,0.198,0.357,0.296c3.638,2.987,7.37,5.83,11.192,8.529
				c0.208,0.148,0.418,0.292,0.627,0.438c0.986,0.691,1.977,1.372,2.974,2.044c0.401,0.269,0.803,0.538,1.205,0.804
				c0.764,0.505,1.532,1.006,2.302,1.499c0.585,0.376,1.171,0.751,1.759,1.121c0.47,0.294,0.943,0.584,1.416,0.874
				c5.415,3.336,10.977,6.396,16.671,9.172c-11.55,2.303-23.343,3.465-35.259,3.465c-45.053,0-86.274-16.706-117.807-44.241
				c1.234,0.721,2.647,1.124,4.091,1.124c2.123,0,4.203-0.863,5.713-2.371c1.509-1.499,2.371-3.589,2.371-5.713
				c0-2.125-0.862-4.204-2.371-5.714c-1.509-1.508-3.589-2.37-5.713-2.37c-2.134,0-4.215,0.862-5.725,2.37
				c-1.498,1.499-2.359,3.589-2.359,5.714c0,1.762,0.596,3.484,1.645,4.875c-7.077-6.401-13.637-13.362-19.623-20.803
				c0.471-1.041,0.732-2.175,0.732-3.324c0-2.123-0.862-4.215-2.371-5.724c-1.508-1.499-3.589-2.371-5.713-2.371
				c-0.357,0-0.711,0.033-1.063,0.082c-10.504-15.385-18.673-32.48-24.004-50.776c1.023-0.403,1.967-1.007,2.754-1.788
				c1.509-1.508,2.371-3.589,2.371-5.713c0-2.134-0.862-4.215-2.371-5.724c-1.498-1.499-3.589-2.361-5.713-2.361
				c-0.274,0-0.545,0.015-0.816,0.043c-1.825-9.312-2.926-18.879-3.243-28.642c1.227,0.707,2.629,1.103,4.06,1.103
				c2.123,0,4.204-0.862,5.713-2.361c1.509-1.508,2.371-3.589,2.371-5.713c0-2.134-0.862-4.215-2.371-5.724
				c-1.508-1.499-3.589-2.361-5.713-2.361c-1.398,0-2.769,0.376-3.975,1.052c0.435-9.743,1.648-19.287,3.585-28.568
				c0.13,0.006,0.26,0.019,0.391,0.019c2.123,0,4.215-0.862,5.713-2.361c1.509-1.508,2.371-3.589,2.371-5.713
				c0-2.134-0.862-4.215-2.371-5.724c-0.635-0.635-1.38-1.148-2.185-1.537c22.339-73.606,90.822-127.334,171.629-127.334
				c31.247,0,62.008,8.156,88.957,23.589c3.874,2.218,8.814,0.876,11.032-2.999c2.218-3.875,0.876-8.814-2.999-11.032
				c-27.049-15.488-57.612-24.236-88.861-25.535c-0.67-20.832-7.549-75.686-58.382-119.258c-3.39-2.907-8.494-2.513-11.399,0.876
				c-2.905,3.389-2.513,8.494,0.876,11.399c23.596,20.226,39.636,45.538,47.675,75.235c3.638,13.437,4.723,24.785,5.009,31.738
				C83.431,125.454,0.085,211.423,0.085,316.506c0,107.794,87.697,195.492,195.492,195.492c20.62,0,40.905-3.201,60.342-9.505
				c19.286,6.251,39.644,9.506,60.503,9.506c52.217,0,101.31-20.334,138.234-57.259c36.923-36.924,57.258-86.016,57.258-138.233
				S491.576,215.197,454.652,178.27z M420.326,224.032c20.96,23.49,33.157,52.959,34.946,84.39H335.935L420.326,224.032z
				 M455.271,324.591c-1.79,31.43-13.994,60.892-34.954,84.382l-84.382-84.382H455.271z M324.501,336.025l84.382,84.382
				c-23.49,20.957-52.951,33.16-84.382,34.95V336.025z M308.334,336.024v119.331c-31.431-1.788-60.899-13.985-84.388-34.943
				L308.334,336.024z M443.22,443.305c-33.869,33.871-78.902,52.525-126.801,52.525c-19.717,0-38.946-3.163-57.112-9.244
				c-0.226-0.101-0.446-0.213-0.684-0.294c-13.165-4.47-25.588-10.361-37.187-17.614c-0.423-0.265-0.842-0.538-1.263-0.806
				c-0.748-0.476-1.494-0.957-2.236-1.444c-0.645-0.426-1.285-0.858-1.925-1.292c-0.512-0.346-1.023-0.694-1.531-1.047
				c-0.741-0.513-1.477-1.033-2.21-1.559c-0.406-0.291-0.812-0.584-1.217-0.88c-0.781-0.57-1.561-1.145-2.334-1.728
				c-0.356-0.268-0.709-0.54-1.063-0.811c-0.794-0.608-1.586-1.22-2.371-1.842c-0.337-0.267-0.67-0.539-1.006-0.808
				c-0.787-0.633-1.572-1.266-2.349-1.913c-0.343-0.286-0.681-0.579-1.023-0.868c-0.76-0.642-1.521-1.284-2.271-1.939
				c-0.413-0.36-0.818-0.732-1.227-1.096c-0.652-0.58-1.306-1.155-1.951-1.746l17.038-17.038
				c28.548,25.779,65.121,39.891,103.864,39.903c0.018,0,0.036,0.002,0.054,0.002c0.018,0,0.035-0.002,0.053-0.002
				c41.451-0.014,80.42-16.161,109.732-45.472c29.324-29.325,45.474-68.315,45.474-109.785c0-38.764-14.115-75.359-39.907-103.922
				l17.038-17.038c30.325,33.121,46.933,75.765,46.933,120.96C495.743,364.405,477.091,409.436,443.22,443.305z"/>
			<path d="M221.237,111.155c0.399,0.355,0.824,0.686,1.299,0.961c13.01,7.55,27.811,11.541,42.798,11.541c0.002,0,0.002,0,0.003,0
				c11.823,0,23.346-2.438,34.247-7.245c24.775-10.93,43.012-33.282,48.781-59.792c0.746-3.43-0.805-6.948-3.841-8.71
				c-13.01-7.552-27.809-11.543-42.795-11.543c-6.581,0-13.063,0.783-19.401,2.281c-0.274-11.734-3.395-23.378-9.162-33.714
				c-1.71-3.064-5.203-4.676-8.645-3.988c-22.623,4.521-41.891,19.703-51.54,40.614c-9.649,20.911-8.701,45.424,2.537,65.573
				C216.737,109.321,218.868,110.755,221.237,111.155z M267.66,61.621c0.963-0.551,1.938-1.084,2.931-1.59
				c1.12-0.568,2.257-1.111,3.415-1.622c8.832-3.896,18.161-5.87,27.727-5.87c10.11-0.001,20.119,2.244,29.278,6.532
				c-5.904,18.873-19.747,34.519-37.95,42.55c-8.831,3.894-18.158,5.869-27.722,5.869c-0.001,0-0.002,0-0.002,0
				c-10.106,0-20.11-2.243-29.265-6.526c0.044-0.141,0.08-0.287,0.125-0.428c0.164-0.512,0.346-1.014,0.522-1.521
				c0.217-0.632,0.432-1.263,0.666-1.886c0.327-0.862,0.674-1.715,1.035-2.561c0.095-0.225,0.185-0.454,0.284-0.678
				c5.882-13.428,15.935-24.744,28.674-32.114C267.469,61.722,267.566,61.675,267.66,61.621z M227.661,48.335
				c6.63-14.367,19.114-25.253,34.079-30c3.448,8.176,4.938,17.105,4.31,25.924c-0.11,0.051-0.215,0.108-0.323,0.158
				c-0.976,0.457-1.943,0.928-2.897,1.421c-0.355,0.182-0.701,0.375-1.052,0.562c-0.54,0.289-1.078,0.581-1.611,0.881
				c-15.872,8.884-28.33,22.472-35.778,38.939C221.095,73.716,222.154,60.269,227.661,48.335z"/>
			<path d="M87.57,222.399c-1.498-1.499-3.589-2.361-5.713-2.361c-2.134,0-4.215,0.862-5.725,2.361
				c-1.498,1.508-2.359,3.588-2.359,5.724c0,2.123,0.862,4.204,2.359,5.713c1.509,1.509,3.589,2.371,5.725,2.371
				c2.123,0,4.203-0.862,5.713-2.371c1.509-1.508,2.371-3.589,2.371-5.713C89.941,225.999,89.079,223.907,87.57,222.399z"/>
			<path d="M87.57,266.054c-1.509-1.499-3.589-2.361-5.713-2.361c-2.134,0-4.215,0.862-5.725,2.361
				c-1.498,1.508-2.359,3.588-2.359,5.724c0,2.123,0.862,4.204,2.359,5.713c1.509,1.499,3.589,2.361,5.725,2.361
				c2.123,0,4.203-0.862,5.713-2.361c1.509-1.508,2.371-3.589,2.371-5.713C89.941,269.654,89.079,267.562,87.57,266.054z"/>
			<path d="M87.57,309.708c-1.509-1.499-3.589-2.361-5.713-2.361c-2.134,0-4.215,0.862-5.725,2.361
				c-1.498,1.508-2.359,3.588-2.359,5.724c0,2.123,0.862,4.204,2.359,5.713c1.509,1.499,3.589,2.361,5.725,2.361
				c2.123,0,4.203-0.862,5.713-2.361c1.509-1.508,2.371-3.589,2.371-5.713C89.941,313.296,89.079,311.216,87.57,309.708z"/>
			<path d="M157.633,222.399c-1.498-1.499-3.589-2.361-5.713-2.361c-2.134,0-4.215,0.862-5.725,2.361
				c-1.498,1.508-2.359,3.588-2.359,5.724c0,2.123,0.862,4.204,2.359,5.713c1.509,1.509,3.589,2.371,5.725,2.371
				c2.123,0,4.203-0.862,5.713-2.371c1.509-1.508,2.371-3.589,2.371-5.713C160.004,225.987,159.142,223.907,157.633,222.399z"/>
			<path d="M157.633,266.054c-1.509-1.499-3.589-2.361-5.713-2.361c-2.134,0-4.215,0.862-5.725,2.361
				c-1.498,1.508-2.359,3.6-2.359,5.724c0,2.123,0.862,4.204,2.359,5.713c1.509,1.499,3.589,2.361,5.725,2.361
				c2.123,0,4.203-0.862,5.713-2.361c1.509-1.508,2.371-3.589,2.371-5.713C160.004,269.654,159.142,267.562,157.633,266.054z"/>
			<path d="M151.92,307.346c-2.134,0-4.215,0.862-5.725,2.361c-1.498,1.508-2.359,3.588-2.359,5.724
				c0,2.123,0.862,4.204,2.359,5.713c1.509,1.499,3.589,2.361,5.725,2.361c2.123,0,4.215-0.862,5.713-2.361
				c1.509-1.508,2.371-3.589,2.371-5.713c0-2.134-0.862-4.215-2.371-5.724C156.124,308.209,154.044,307.346,151.92,307.346z"/>
			<path d="M87.57,353.363c-1.498-1.499-3.589-2.361-5.713-2.361c-2.134,0-4.215,0.862-5.725,2.361
				c-1.498,1.508-2.359,3.588-2.359,5.724c0,2.123,0.862,4.204,2.359,5.713c1.509,1.499,3.589,2.361,5.725,2.361
				c2.123,0,4.203-0.862,5.713-2.361c1.509-1.508,2.371-3.589,2.371-5.713C89.941,356.951,89.079,354.871,87.57,353.363z"/>
			<path d="M81.857,394.656c-2.134,0-4.225,0.862-5.725,2.361c-1.498,1.508-2.359,3.588-2.359,5.724
				c0,2.123,0.862,4.204,2.359,5.713c1.509,1.499,3.589,2.361,5.725,2.361c2.123,0,4.203-0.862,5.713-2.361
				c1.509-1.498,2.371-3.589,2.371-5.713c0-2.134-0.862-4.215-2.371-5.724C86.072,395.518,83.981,394.656,81.857,394.656z"/>
			<path d="M123.14,332.344c-1.509-1.499-3.589-2.361-5.713-2.361c-2.134,0-4.215,0.862-5.725,2.361
				c-1.498,1.508-2.359,3.588-2.359,5.713c0,2.133,0.862,4.225,2.359,5.724c1.509,1.509,3.589,2.371,5.725,2.371
				c2.123,0,4.203-0.862,5.713-2.371c1.498-1.498,2.371-3.589,2.371-5.724C125.512,335.932,124.649,333.852,123.14,332.344z"/>
			<path d="M123.14,201.38c-1.509-1.499-3.589-2.371-5.713-2.371c-2.134,0-4.215,0.873-5.725,2.371
				c-1.498,1.508-2.359,3.588-2.359,5.713c0,2.133,0.862,4.215,2.359,5.724c1.509,1.499,3.589,2.361,5.725,2.361
				c2.123,0,4.215-0.862,5.713-2.361c1.498-1.508,2.371-3.589,2.371-5.724C125.512,204.968,124.639,202.888,123.14,201.38z"/>
			<path d="M123.14,245.035c-1.509-1.499-3.589-2.371-5.713-2.371c-2.123,0-4.215,0.873-5.725,2.371
				c-1.498,1.508-2.359,3.588-2.359,5.724c0,2.123,0.862,4.215,2.359,5.713c1.509,1.499,3.589,2.371,5.725,2.371
				c2.123,0,4.203-0.873,5.713-2.371c1.509-1.508,2.371-3.589,2.371-5.713C125.512,248.623,124.649,246.543,123.14,245.035z"/>
			<path d="M123.14,288.689c-1.509-1.499-3.589-2.361-5.713-2.361c-2.134,0-4.215,0.862-5.725,2.361
				c-1.498,1.508-2.359,3.588-2.359,5.724c0,2.123,0.862,4.204,2.359,5.713c1.509,1.509,3.601,2.371,5.725,2.371
				c2.123,0,4.203-0.862,5.713-2.371c1.509-1.508,2.371-3.589,2.371-5.713C125.512,292.289,124.649,290.197,123.14,288.689z"/>
			<path d="M123.14,375.998c-1.509-1.499-3.589-2.371-5.713-2.371c-2.134,0-4.215,0.873-5.725,2.371
				c-1.498,1.508-2.359,3.588-2.359,5.713c0,2.133,0.862,4.215,2.359,5.724c1.509,1.499,3.589,2.361,5.725,2.361
				c2.123,0,4.203-0.862,5.713-2.361c1.509-1.508,2.371-3.589,2.371-5.724C125.512,379.587,124.649,377.506,123.14,375.998z"/>
			<path d="M117.428,417.28c-2.134,0-4.215,0.873-5.725,2.371c-1.498,1.508-2.359,3.6-2.359,5.724s0.862,4.204,2.359,5.713
				c1.509,1.509,3.589,2.371,5.725,2.371c2.123,0,4.203-0.862,5.713-2.371c1.498-1.498,2.371-3.589,2.371-5.713
				c0-2.134-0.874-4.215-2.371-5.724C121.631,418.154,119.551,417.28,117.428,417.28z"/>
			<path d="M54.155,245.035c-1.508-1.499-3.589-2.371-5.713-2.371c-2.134,0-4.215,0.873-5.725,2.371
				c-1.498,1.508-2.359,3.588-2.359,5.724c0,2.123,0.862,4.204,2.359,5.713c1.509,1.499,3.589,2.371,5.725,2.371
				c2.123,0,4.204-0.873,5.713-2.371c1.509-1.508,2.371-3.589,2.371-5.713C56.527,248.623,55.665,246.543,54.155,245.035z"/>
			<path d="M54.155,288.689c-1.508-1.499-3.589-2.361-5.713-2.361c-2.134,0-4.215,0.862-5.725,2.361
				c-1.498,1.508-2.359,3.588-2.359,5.724c0,2.123,0.862,4.204,2.359,5.713c1.509,1.509,3.601,2.371,5.725,2.371
				c2.123,0,4.204-0.862,5.713-2.371c1.509-1.508,2.371-3.589,2.371-5.713C56.527,292.289,55.665,290.197,54.155,288.689z"/>
			<path d="M54.155,332.344c-1.508-1.499-3.589-2.361-5.713-2.361c-2.134,0-4.215,0.862-5.725,2.361
				c-1.498,1.508-2.359,3.588-2.359,5.713c0,2.133,0.862,4.225,2.359,5.724c1.509,1.509,3.589,2.371,5.725,2.371
				c2.123,0,4.204-0.862,5.713-2.371c1.498-1.498,2.371-3.589,2.371-5.724C56.527,335.932,55.665,333.852,54.155,332.344z"/>
			<path d="M48.443,373.626c-2.134,0-4.215,0.873-5.725,2.371c-1.498,1.508-2.359,3.588-2.359,5.713
				c0,2.133,0.862,4.215,2.359,5.724c1.509,1.499,3.589,2.361,5.725,2.361c2.123,0,4.204-0.862,5.713-2.361
				c1.509-1.508,2.371-3.589,2.371-5.724c0-2.125-0.862-4.204-2.371-5.713C52.648,374.499,50.566,373.626,48.443,373.626z"/>
		</g>
	</g>
</g>
<g>
</g>
<g>
</g>
<g>
</g>
<g>
</g>
<g>
</g>
<g>
</g>
<g>
</g>
<g>
</g>
<g>
</g>
<g>
</g>
<g>
</g>
<g>
</g>
<g>
</g>
<g>
</g>
<g>
</g>
</svg>
