<svg xmlns="http://www.w3.org/2000/svg" viewBox="0 0 511.999 511.999"><path d="M454.652 178.27a8.085 8.085 0 0 0-11.434 0l-65.965 65.965c-12.591-31.687-33.218-59.469-60.211-80.906a8.083 8.083 0 0 0-11.358 1.303 8.084 8.084 0 0 0 1.303 11.358c26.621 21.142 46.499 48.997 57.715 80.795l-186.517 186.52a8.075 8.075 0 0 0-2.368 5.717 8.06 8.06 0 0 0 2.368 5.717c.08.08.163.157.243.237.997.994 2.003 1.975 3.016 2.944.322.308.649.609.972.915.808.763 1.621 1.521 2.44 2.268.323.294.649.586.973.878a183.055 183.055 0 0 0 3.406 2.998c1.024.881 2.056 1.749 3.096 2.606.12.098.237.198.357.296 3.638 2.987 7.37 5.83 11.192 8.529.208.148.418.292.627.438a198.318 198.318 0 0 0 4.179 2.848c.764.505 1.532 1.006 2.302 1.499.585.376 1.171.751 1.759 1.121.47.294.943.584 1.416.874a193.168 193.168 0 0 0 16.671 9.172 180.18 180.18 0 0 1-35.259 3.465c-45.053 0-86.274-16.706-117.807-44.241a8.131 8.131 0 0 0 4.091 1.124 8.14 8.14 0 0 0 5.713-2.371 8.115 8.115 0 0 0 2.371-5.713 8.134 8.134 0 0 0-2.371-5.714 8.135 8.135 0 0 0-5.713-2.37 8.148 8.148 0 0 0-5.725 2.37 8.15 8.15 0 0 0-2.359 5.714 8.14 8.14 0 0 0 1.645 4.875 181.147 181.147 0 0 1-19.623-20.803 8.082 8.082 0 0 0 .732-3.324 8.16 8.16 0 0 0-2.371-5.724 8.173 8.173 0 0 0-5.713-2.371c-.357 0-.711.033-1.063.082a178.69 178.69 0 0 1-24.004-50.776 8.15 8.15 0 0 0 2.754-1.788 8.13 8.13 0 0 0 2.371-5.713 8.14 8.14 0 0 0-2.371-5.724 8.146 8.146 0 0 0-5.713-2.361 7.92 7.92 0 0 0-.816.043A179.061 179.061 0 0 1 16.36 322.4a8.157 8.157 0 0 0 4.06 1.103 8.167 8.167 0 0 0 5.713-2.361 8.13 8.13 0 0 0 2.371-5.713 8.14 8.14 0 0 0-2.371-5.724 8.163 8.163 0 0 0-5.713-2.361 8.153 8.153 0 0 0-3.975 1.052 178.806 178.806 0 0 1 3.585-28.568c.13.006.26.019.391.019a8.148 8.148 0 0 0 5.713-2.361 8.13 8.13 0 0 0 2.371-5.713 8.14 8.14 0 0 0-2.371-5.724 8.012 8.012 0 0 0-2.185-1.537c22.339-73.606 90.822-127.334 171.629-127.334 31.247 0 62.008 8.156 88.957 23.589a8.084 8.084 0 1 0 8.033-14.031c-27.049-15.488-57.612-24.236-88.861-25.535-.67-20.832-7.549-75.686-58.382-119.258a8.084 8.084 0 0 0-11.399.876 8.085 8.085 0 0 0 .876 11.399c23.596 20.226 39.636 45.538 47.675 75.235 3.638 13.437 4.723 24.785 5.009 31.738C83.431 125.454.085 211.423.085 316.506c0 107.794 87.697 195.492 195.492 195.492 20.62 0 40.905-3.201 60.342-9.505 19.286 6.251 39.644 9.506 60.503 9.506 52.217 0 101.31-20.334 138.234-57.259 36.923-36.924 57.258-86.016 57.258-138.233s-20.338-101.31-57.262-138.237zm-34.326 45.762c20.96 23.49 33.157 52.959 34.946 84.39H335.935l84.391-84.39zm34.945 100.559c-1.79 31.43-13.994 60.892-34.954 84.382l-84.382-84.382h119.336zm-130.77 11.434l84.382 84.382c-23.49 20.957-52.951 33.16-84.382 34.95V336.025zm-16.167-.001v119.331c-31.431-1.788-60.899-13.985-84.388-34.943l84.388-84.388zM443.22 443.305c-33.869 33.871-78.902 52.525-126.801 52.525-19.717 0-38.946-3.163-57.112-9.244-.226-.101-.446-.213-.684-.294-13.165-4.47-25.588-10.361-37.187-17.614-.423-.265-.842-.538-1.263-.806-.748-.476-1.494-.957-2.236-1.444-.645-.426-1.285-.858-1.925-1.292a160.049 160.049 0 0 1-4.958-3.486c-.781-.57-1.561-1.145-2.334-1.728-.356-.268-.709-.54-1.063-.811-.794-.608-1.586-1.22-2.371-1.842-.337-.267-.67-.539-1.006-.808a178.167 178.167 0 0 1-2.349-1.913c-.343-.286-.681-.579-1.023-.868-.76-.642-1.521-1.284-2.271-1.939-.413-.36-.818-.732-1.227-1.096-.652-.58-1.306-1.155-1.951-1.746l17.038-17.038c28.548 25.779 65.121 39.891 103.864 39.903l.054.002.053-.002c41.451-.014 80.42-16.161 109.732-45.472 29.324-29.325 45.474-68.315 45.474-109.785 0-38.764-14.115-75.359-39.907-103.922l17.038-17.038c30.325 33.121 46.933 75.765 46.933 120.96.005 47.898-18.647 92.929-52.518 126.798z"/><path d="M221.237 111.155c.399.355.824.686 1.299.961 13.01 7.55 27.811 11.541 42.798 11.541h.003c11.823 0 23.346-2.438 34.247-7.245 24.775-10.93 43.012-33.282 48.781-59.792a8.083 8.083 0 0 0-3.841-8.71c-13.01-7.552-27.809-11.543-42.795-11.543-6.581 0-13.063.783-19.401 2.281-.274-11.734-3.395-23.378-9.162-33.714a8.086 8.086 0 0 0-8.645-3.988c-22.623 4.521-41.891 19.703-51.54 40.614-9.649 20.911-8.701 45.424 2.537 65.573a8.069 8.069 0 0 0 5.719 4.022zm46.423-49.534a68.824 68.824 0 0 1 2.931-1.59 70.293 70.293 0 0 1 3.415-1.622c8.832-3.896 18.161-5.87 27.727-5.87a69.102 69.102 0 0 1 29.278 6.532c-5.904 18.873-19.747 34.519-37.95 42.55-8.831 3.894-18.158 5.869-27.722 5.869h-.002a69.128 69.128 0 0 1-29.265-6.526c.044-.141.08-.287.125-.428.164-.512.346-1.014.522-1.521.217-.632.432-1.263.666-1.886.327-.862.674-1.715 1.035-2.561.095-.225.185-.454.284-.678 5.882-13.428 15.935-24.744 28.674-32.114.091-.054.188-.101.282-.155zm-39.999-13.286c6.63-14.367 19.114-25.253 34.079-30 3.448 8.176 4.938 17.105 4.31 25.924-.11.051-.215.108-.323.158-.976.457-1.943.928-2.897 1.421-.355.182-.701.375-1.052.562-.54.289-1.078.581-1.611.881-15.872 8.884-28.33 22.472-35.778 38.939-3.294-12.504-2.235-25.951 3.272-37.885zM87.57 222.399a8.146 8.146 0 0 0-5.713-2.361 8.177 8.177 0 0 0-5.725 2.361 8.17 8.17 0 0 0-2.359 5.724c0 2.123.862 4.204 2.359 5.713a8.139 8.139 0 0 0 5.725 2.371 8.136 8.136 0 0 0 5.713-2.371 8.13 8.13 0 0 0 2.371-5.713 8.156 8.156 0 0 0-2.371-5.724zM87.57 266.054a8.165 8.165 0 0 0-5.713-2.361 8.177 8.177 0 0 0-5.725 2.361 8.17 8.17 0 0 0-2.359 5.724c0 2.123.862 4.204 2.359 5.713a8.172 8.172 0 0 0 5.725 2.361 8.169 8.169 0 0 0 5.713-2.361 8.13 8.13 0 0 0 2.371-5.713 8.156 8.156 0 0 0-2.371-5.724zM87.57 309.708a8.165 8.165 0 0 0-5.713-2.361 8.177 8.177 0 0 0-5.725 2.361 8.17 8.17 0 0 0-2.359 5.724c0 2.123.862 4.204 2.359 5.713a8.172 8.172 0 0 0 5.725 2.361 8.169 8.169 0 0 0 5.713-2.361 8.13 8.13 0 0 0 2.371-5.713 8.135 8.135 0 0 0-2.371-5.724zM157.633 222.399a8.146 8.146 0 0 0-5.713-2.361 8.177 8.177 0 0 0-5.725 2.361 8.17 8.17 0 0 0-2.359 5.724c0 2.123.862 4.204 2.359 5.713a8.139 8.139 0 0 0 5.725 2.371 8.136 8.136 0 0 0 5.713-2.371 8.13 8.13 0 0 0 2.371-5.713 8.135 8.135 0 0 0-2.371-5.724zM157.633 266.054a8.165 8.165 0 0 0-5.713-2.361 8.177 8.177 0 0 0-5.725 2.361 8.192 8.192 0 0 0-2.359 5.724c0 2.123.862 4.204 2.359 5.713a8.172 8.172 0 0 0 5.725 2.361 8.169 8.169 0 0 0 5.713-2.361 8.13 8.13 0 0 0 2.371-5.713 8.156 8.156 0 0 0-2.371-5.724zM151.92 307.346a8.177 8.177 0 0 0-5.725 2.361 8.17 8.17 0 0 0-2.359 5.724c0 2.123.862 4.204 2.359 5.713a8.172 8.172 0 0 0 5.725 2.361 8.148 8.148 0 0 0 5.713-2.361 8.13 8.13 0 0 0 2.371-5.713 8.14 8.14 0 0 0-2.371-5.724 8.17 8.17 0 0 0-5.713-2.361zM87.57 353.363a8.146 8.146 0 0 0-5.713-2.361 8.177 8.177 0 0 0-5.725 2.361 8.17 8.17 0 0 0-2.359 5.724c0 2.123.862 4.204 2.359 5.713a8.172 8.172 0 0 0 5.725 2.361 8.169 8.169 0 0 0 5.713-2.361 8.13 8.13 0 0 0 2.371-5.713 8.135 8.135 0 0 0-2.371-5.724zM81.857 394.656a8.16 8.16 0 0 0-5.725 2.361 8.17 8.17 0 0 0-2.359 5.724c0 2.123.862 4.204 2.359 5.713a8.172 8.172 0 0 0 5.725 2.361 8.169 8.169 0 0 0 5.713-2.361 8.113 8.113 0 0 0 2.371-5.713 8.14 8.14 0 0 0-2.371-5.724 8.146 8.146 0 0 0-5.713-2.361zM123.14 332.344a8.165 8.165 0 0 0-5.713-2.361 8.177 8.177 0 0 0-5.725 2.361 8.164 8.164 0 0 0-2.359 5.713c0 2.133.862 4.225 2.359 5.724a8.139 8.139 0 0 0 5.725 2.371 8.136 8.136 0 0 0 5.713-2.371 8.166 8.166 0 0 0 2.371-5.724 8.124 8.124 0 0 0-2.371-5.713zM123.14 201.38a8.175 8.175 0 0 0-5.713-2.371 8.191 8.191 0 0 0-5.725 2.371 8.164 8.164 0 0 0-2.359 5.713c0 2.133.862 4.215 2.359 5.724a8.172 8.172 0 0 0 5.725 2.361 8.148 8.148 0 0 0 5.713-2.361 8.184 8.184 0 0 0 2.371-5.724 8.167 8.167 0 0 0-2.371-5.713zM123.14 245.035a8.175 8.175 0 0 0-5.713-2.371 8.211 8.211 0 0 0-5.725 2.371 8.17 8.17 0 0 0-2.359 5.724c0 2.123.862 4.215 2.359 5.713a8.182 8.182 0 0 0 5.725 2.371c2.123 0 4.203-.873 5.713-2.371a8.13 8.13 0 0 0 2.371-5.713 8.13 8.13 0 0 0-2.371-5.724zM123.14 288.689a8.165 8.165 0 0 0-5.713-2.361 8.177 8.177 0 0 0-5.725 2.361 8.17 8.17 0 0 0-2.359 5.724c0 2.123.862 4.204 2.359 5.713a8.16 8.16 0 0 0 5.725 2.371 8.136 8.136 0 0 0 5.713-2.371 8.13 8.13 0 0 0 2.371-5.713 8.152 8.152 0 0 0-2.371-5.724zM123.14 375.998a8.175 8.175 0 0 0-5.713-2.371 8.191 8.191 0 0 0-5.725 2.371 8.164 8.164 0 0 0-2.359 5.713c0 2.133.862 4.215 2.359 5.724a8.172 8.172 0 0 0 5.725 2.361 8.169 8.169 0 0 0 5.713-2.361 8.137 8.137 0 0 0 2.371-5.724 8.126 8.126 0 0 0-2.371-5.713zM117.428 417.28a8.191 8.191 0 0 0-5.725 2.371c-1.498 1.508-2.359 3.6-2.359 5.724s.862 4.204 2.359 5.713a8.139 8.139 0 0 0 5.725 2.371 8.136 8.136 0 0 0 5.713-2.371 8.16 8.16 0 0 0 2.371-5.713 8.192 8.192 0 0 0-2.371-5.724c-1.51-1.497-3.59-2.371-5.713-2.371zM54.155 245.035a8.173 8.173 0 0 0-5.713-2.371 8.191 8.191 0 0 0-5.725 2.371 8.17 8.17 0 0 0-2.359 5.724c0 2.123.862 4.204 2.359 5.713a8.182 8.182 0 0 0 5.725 2.371c2.123 0 4.204-.873 5.713-2.371a8.13 8.13 0 0 0 2.371-5.713 8.126 8.126 0 0 0-2.371-5.724zM54.155 288.689a8.163 8.163 0 0 0-5.713-2.361 8.177 8.177 0 0 0-5.725 2.361 8.17 8.17 0 0 0-2.359 5.724c0 2.123.862 4.204 2.359 5.713a8.16 8.16 0 0 0 5.725 2.371 8.134 8.134 0 0 0 5.713-2.371 8.13 8.13 0 0 0 2.371-5.713 8.148 8.148 0 0 0-2.371-5.724zM54.155 332.344a8.163 8.163 0 0 0-5.713-2.361 8.177 8.177 0 0 0-5.725 2.361 8.164 8.164 0 0 0-2.359 5.713c0 2.133.862 4.225 2.359 5.724a8.139 8.139 0 0 0 5.725 2.371 8.134 8.134 0 0 0 5.713-2.371 8.166 8.166 0 0 0 2.371-5.724 8.12 8.12 0 0 0-2.371-5.713zM48.443 373.626a8.191 8.191 0 0 0-5.725 2.371 8.164 8.164 0 0 0-2.359 5.713c0 2.133.862 4.215 2.359 5.724a8.172 8.172 0 0 0 5.725 2.361 8.167 8.167 0 0 0 5.713-2.361 8.137 8.137 0 0 0 2.371-5.724 8.13 8.13 0 0 0-2.371-5.713 8.18 8.18 0 0 0-5.713-2.371z"/></svg>