<svg xmlns="http://www.w3.org/2000/svg" viewBox="0 0 512 512"><path d="M435.038 4.566a8.049 8.049 0 0 0-10.742-3.77L349.704 36.64a8.048 8.048 0 0 0-4.536 6.578l-5.281 62.554H195.055a8.049 8.049 0 0 0-8.033 8.581l9.286 140.436c-7.36 11.173-9.134 25.369-4.502 38.141a8.048 8.048 0 0 0 6.183 5.185c.396.07.795.123 1.194.182l.443 6.705a104.274 104.274 0 0 0-12.118-1.517c-7.473-40.078-38.409-50.601-39.795-51.051a8.05 8.05 0 0 0-4.971 15.313c.237.077 21.76 7.414 28.362 35.937-17.52 1.571-34.276 7.492-48.928 17.392a8.052 8.052 0 0 0 9.014 13.342c14.586-9.856 31.643-15.066 49.327-15.072l.013.001.016-.001c48.672.003 88.268 39.601 88.268 88.276s-39.6 88.275-88.275 88.275-88.275-39.6-88.275-88.275c0-19.832 6.421-38.564 18.569-54.17a8.05 8.05 0 0 0-12.706-9.888c-14.367 18.459-21.962 40.61-21.962 64.058C76.167 465.179 122.99 512 180.541 512c11.438 0 22.45-1.856 32.757-5.271 1.132 3.074 4.079 5.271 7.547 5.271H366.62a8.049 8.049 0 0 0 8.032-7.519l25.793-390.127a8.048 8.048 0 0 0-8.033-8.581H356.04l4.78-56.615 70.445-33.851a8.047 8.047 0 0 0 3.773-10.741zm-96.509 117.307l-5.169 61.224H207.703l-4.048-61.224h134.874zM211.539 261.22c4.992-5.953 12.297-9.401 20.084-9.49 1.241 7.586-.835 15.464-5.842 21.436-4.993 5.954-12.299 9.401-20.085 9.49-1.241-7.587.834-15.465 5.843-21.436zm149.68 202.448H346.81c-4.447 0-8.05 3.603-8.05 8.05s3.603 8.05 8.05 8.05h13.344l-1.067 16.131H236.176a105.137 105.137 0 0 0 20.114-16.539c.794.262 1.64.409 2.521.409h60.098c4.447 0 8.05-3.603 8.05-8.05s-3.603-8.05-8.05-8.05H268.56c10.352-16.201 16.359-35.434 16.359-56.044 0-45.088-28.739-83.587-68.859-98.15l-.787-11.88a42.547 42.547 0 0 0 22.843-14.083c9.753-11.628 12.588-27.744 7.396-42.058a8.053 8.053 0 0 0-6.183-5.186 43.069 43.069 0 0 0-7.392-.64 42.704 42.704 0 0 0-20.418 5.18l-2.751-41.611h169.936l-17.485 264.471zm22.597-341.795l-4.047 61.224h-30.252l5.168-61.224h29.131z"/></svg>