<?xml version="1.0" encoding="iso-8859-1"?>
<!-- Generator: Adobe Illustrator 19.0.0, SVG Export Plug-In . SVG Version: 6.00 Build 0)  -->
<svg version="1.1" id="Layer_1" xmlns="http://www.w3.org/2000/svg" xmlns:xlink="http://www.w3.org/1999/xlink" x="0px" y="0px"
	 viewBox="0 0 512 512" style="enable-background:new 0 0 512 512;" xml:space="preserve">
<g>
	<g>
		<path d="M435.038,4.566c-1.926-4.009-6.737-5.696-10.742-3.77L349.704,36.64c-2.571,1.234-4.295,3.736-4.536,6.578l-5.281,62.554
			H195.055c-2.227,0-4.356,0.922-5.878,2.549c-1.522,1.626-2.302,3.809-2.155,6.032l9.286,140.436
			c-7.36,11.173-9.134,25.369-4.502,38.141c0.983,2.711,3.341,4.689,6.183,5.185c0.396,0.07,0.795,0.123,1.194,0.182l0.443,6.705
			c-3.966-0.736-8.009-1.244-12.118-1.517c-7.473-40.078-38.409-50.601-39.795-51.051c-4.228-1.373-8.769,0.943-10.142,5.171
			c-1.372,4.229,0.943,8.77,5.171,10.142c0.237,0.077,21.76,7.414,28.362,35.937c-17.52,1.571-34.276,7.492-48.928,17.392
			c-3.684,2.489-4.652,7.493-2.164,11.178c2.488,3.683,7.494,4.652,11.178,2.164c14.586-9.856,31.643-15.066,49.327-15.072
			c0.004,0,0.009,0.001,0.013,0.001c0.005,0,0.011-0.001,0.016-0.001c48.672,0.003,88.268,39.601,88.268,88.276
			c0,48.675-39.6,88.275-88.275,88.275s-88.275-39.6-88.275-88.275c0-19.832,6.421-38.564,18.569-54.17
			c2.731-3.509,2.099-8.565-1.409-11.297c-3.508-2.729-8.565-2.099-11.297,1.409c-14.367,18.459-21.962,40.61-21.962,64.058
			C76.167,465.179,122.99,512,180.541,512c11.438,0,22.45-1.856,32.757-5.271c1.132,3.074,4.079,5.271,7.547,5.271H366.62
			c4.24,0,7.753-3.288,8.032-7.519l25.793-390.127c0.147-2.223-0.633-4.406-2.155-6.032c-1.522-1.627-3.649-2.549-5.878-2.549
			H356.04l4.78-56.615l70.445-33.851C435.275,13.383,436.963,8.574,435.038,4.566z M338.529,121.873l-5.169,61.224H207.703
			l-4.048-61.224H338.529z M211.539,261.22c4.992-5.953,12.297-9.401,20.084-9.49c1.241,7.586-0.835,15.464-5.842,21.436
			c-4.993,5.954-12.299,9.401-20.085,9.49C204.455,275.069,206.53,267.191,211.539,261.22z M361.219,463.668H346.81
			c-4.447,0-8.05,3.603-8.05,8.05s3.603,8.05,8.05,8.05h13.344l-1.067,16.131H236.176c7.378-4.667,14.136-10.229,20.114-16.539
			c0.794,0.262,1.64,0.409,2.521,0.409h60.098c4.447,0,8.05-3.603,8.05-8.05s-3.603-8.05-8.05-8.05H268.56
			c10.352-16.201,16.359-35.434,16.359-56.044c0-45.088-28.739-83.587-68.859-98.15l-0.787-11.88
			c8.857-2.095,16.877-6.969,22.843-14.083c9.753-11.628,12.588-27.744,7.396-42.058c-0.983-2.711-3.342-4.689-6.183-5.186
			c-2.433-0.425-4.919-0.64-7.392-0.64c-7.241,0-14.234,1.819-20.418,5.18l-2.751-41.611h169.936L361.219,463.668z M383.816,121.873
			l-4.047,61.224h-30.252l5.168-61.224H383.816z"/>
	</g>
</g>
<g>
</g>
<g>
</g>
<g>
</g>
<g>
</g>
<g>
</g>
<g>
</g>
<g>
</g>
<g>
</g>
<g>
</g>
<g>
</g>
<g>
</g>
<g>
</g>
<g>
</g>
<g>
</g>
<g>
</g>
</svg>
