<svg xmlns="http://www.w3.org/2000/svg" viewBox="0 0 511.999 511.999"><path d="M403.465 213.18l-35.399-47.862c-4.897-6.623-7.595-15.189-7.595-24.121V92.644h5.112c6.656 0 12.071-5.415 12.071-12.071V12.071C377.653 5.415 372.238 0 365.582 0H146.416c-6.656 0-12.071 5.415-12.071 12.071v68.502c0 6.656 5.415 12.071 12.071 12.071h5.112v48.553c0 8.932-2.697 17.498-7.595 24.121l-1.68 2.272a7.5 7.5 0 0 0 12.06 8.919l1.676-2.266.005-.006c6.793-9.186 10.535-20.92 10.535-33.04V92.644h178.942v48.553c0 12.12 3.741 23.854 10.534 33.041l35.399 47.862c3.789 5.124 6.254 11.413 7.179 18.133H113.416c.925-6.72 3.39-13.009 7.179-18.133l6.212-8.399a7.5 7.5 0 0 0-12.06-8.92l-6.212 8.399C101.742 222.366 98 234.1 98 246.22v236.031c0 16.403 13.345 29.748 29.748 29.748h164.001a7.5 7.5 0 0 0 7.5-7.5 7.5 7.5 0 0 0-7.5-7.5h-164c-8.132 0-14.748-6.616-14.748-14.748v-18.827h285.998v18.827c0 8.132-6.616 14.748-14.748 14.748h-46.502a7.5 7.5 0 0 0-7.5 7.5 7.5 7.5 0 0 0 7.5 7.5h46.502c16.403 0 29.748-13.345 29.748-29.748v-236.03c0-12.12-3.742-23.854-10.534-33.041zM352.97 77.644H149.345V15h213.309v62.644h-9.684zm46.029 370.781H113V255.233h285.998v193.192z"/><path d="M310.717 344.303a11.318 11.318 0 0 0-8.318-7.756l-37.672-8.541 2.652-45.195a11.248 11.248 0 0 0-8.085-11.5 11.246 11.246 0 0 0-13.03 5.279l-44.004 77.861a11.245 11.245 0 0 0-.658 9.744 11.246 11.246 0 0 0 7.182 6.616l26.266 8.056-16.073 38.244c-2.146 5.107-.409 10.794 4.226 13.829 1.936 1.268 4.092 1.887 6.227 1.887 2.978 0 5.912-1.206 8.139-3.541l70.506-73.922a11.32 11.32 0 0 0 2.642-11.061zM240.6 404.375l9.864-23.471a11.32 11.32 0 0 0-.184-9.166 11.323 11.323 0 0 0-6.92-6.012l-25.775-7.906 33.884-59.954-1.901 32.397a11.263 11.263 0 0 0 8.781 11.678l34.368 7.792-52.117 54.642z"/></svg>