<svg xmlns="http://www.w3.org/2000/svg" viewBox="0 0 512.001 512.001"><path d="M454.587 394.943c-.04-.081-.078-.165-.122-.247-7.179-14.599-19.727-22.727-20.414-23.164a8.16 8.16 0 0 0-4.262-1.268l-92.08-1.191-151.192-63.153a8.149 8.149 0 0 0-9.979 3.094c-.135.207-9.509 14.433-25.589 23.347a6.924 6.924 0 0 0-.37.201c-7.285 3.976-15.92 6.85-25.685 6.85l-.651-.004c-30.859-.398-41.653-23.685-42.076-24.629a8.146 8.146 0 0 0-7.37-4.909l-19.927-.258c-3.391-.093-6.482 2.036-7.707 5.218-.279.723-25.165 65.496-40.838 118.099-.012.036-.021.072-.032.108a678.904 678.904 0 0 0-4.99 17.553c-2.887 10.757-.958 20.947 5.577 29.467 20.664 26.941 78.7 29.034 95.995 29.034 11.438 0 49.541-.968 63.44-13.241.081-.067.162-.136.241-.205.049-.044.103-.085.151-.129 5.229-4.853 11.439-7.212 18.989-7.212 11.242 0 21.248 5.403 22.154 5.906 22.437 13.965 53.892 16.901 76.351 16.901 51.16-.001 121.308-16.069 154.43-51.346 15.633-16.648 22.499-33.479 20.41-50.022-.692-5.489-2.333-10.429-4.454-14.8zm-268.479-71.536l9.725 4.062-2 2.63a8.146 8.146 0 0 0 12.969 9.862l4.566-6.003 15.825 6.61-1.848 2.431a8.144 8.144 0 0 0 1.554 11.414 8.107 8.107 0 0 0 4.924 1.662 8.134 8.134 0 0 0 6.49-3.216l4.412-5.802 15.825 6.61-1.693 2.227a8.145 8.145 0 0 0 6.478 13.077 8.136 8.136 0 0 0 6.491-3.215l4.26-5.6 15.824 6.609-1.542 2.028a8.146 8.146 0 1 0 12.97 9.86l4.106-5.399 19.211 8.024c-8.705 10.94-25.331 9.812-29.382 9.354l-123.733-52.62a101.24 101.24 0 0 0 14.568-14.605zm-32.623 161.644c-7.2 3.983-25.856 7.75-50.61 7.75-39.289-.001-72.672-9.106-83.067-22.659-3.479-4.536-4.359-9.407-2.77-15.328.916-3.411 1.899-6.93 2.934-10.528l111.436 12.077c3.848.971 23.651 7.054 22.077 28.688zm53.016-9.187c-5.475-1.963-12.815-3.851-20.802-3.851-5.879.001-11.36.987-16.408 2.941-3.658-21.722-23.016-32.019-34.743-34.592a7.73 7.73 0 0 0-.868-.141L24.721 428.415c12.73-41.159 29.838-87.104 35.633-102.437l9.475.123c4.676 7.596 16.001 21.917 37.204 27.394a8.1 8.1 0 0 0 2.822 1.958l45.05 18.662a8.093 8.093 0 0 0 3.114.622 8.147 8.147 0 0 0 3.12-15.674l-15.836-6.56a73 73 0 0 0 9.636-3.85l98.188 41.758h-16.313l-50.706-21.004c-4.155-1.725-8.92.251-10.643 4.409a8.147 8.147 0 0 0 4.409 10.643l52.203 21.625a8.15 8.15 0 0 0 3.117.62h57.349c2.244.323 4.811.526 7.616.526 13.584 0 32.211-4.622 41.176-21.815l85.674 1.109c2.587 2.014 7.619 6.425 11.373 12.695-7.56 17.809-31.685 29.411-59.801 37.051-3.443-12.863-14.06-24.399-31.178-33.675a8.146 8.146 0 0 0-7.763 14.324c9.233 5.005 20.143 12.879 23.116 23.174-34.316 7.37-70.93 9.836-89.282 11.07-3.927.264-7.279.49-9.93.704-26.884 2.168-48.426 17.113-57.043 23.997zm220.254-27.251c-25.137 26.773-85.09 46.206-142.554 46.207-24.837 0-46.161-3.842-61.157-10.898 9.187-6.226 24.29-14.404 41.81-15.818 2.594-.208 5.872-.43 9.713-.688 21.619-1.454 61.861-4.161 98.499-12.872 32.48-7.722 55.691-18.733 69.391-32.864-1.725 8.611-6.965 17.629-15.702 26.933zM510.007 271.135a8.146 8.146 0 0 0-4.617-5.196l-77.603-33.141-71.462-145.835c-1.729-3.526-5.746-5.308-9.526-4.256-.081.023-8.247 2.268-19.266 2.268-11.267 0-27.373-2.406-40.116-13.864-22.948-20.637-15.718-45.264-15.414-46.253a8.147 8.147 0 0 0-2.308-8.551L254.876 2.979a8.145 8.145 0 0 0-9.235-1.155c-.686.361-62.089 32.678-108.543 61.914-.034.02-.066.042-.1.063a676.407 676.407 0 0 0-15.318 9.913c-13.936 9.312-18.54 24.563-12.965 42.941 8.422 27.758 36.643 55.296 48.387 65.848 18.404 16.537 43.658 34.164 59.036 34.003.039 0 .077.007.115.007.018 0 .037-.004.057-.004.056-.001.117.003.174.001 17.417-.551 26.781 14.995 30.247 22.406.125.328.269.644.433.95a39.597 39.597 0 0 1 1.118 2.765c17.992 59.246 128.027 98.533 193.008 98.528 4.91 0 9.626-.217 14.017-.646 22.728-2.22 38.984-10.353 48.315-24.173 3.103-4.595 5.125-9.403 6.41-14.099.022-.074.044-.148.062-.223 4.225-15.713.142-30.101-.087-30.883zM327.534 101.267c6.828 0 12.74-.717 16.953-1.436l4.644 9.479-3.238.66a8.145 8.145 0 0 0-6.354 9.61 8.15 8.15 0 0 0 9.61 6.354l7.388-1.506 7.545 15.399-2.989.609a8.145 8.145 0 0 0-6.355 9.609 8.149 8.149 0 0 0 9.609 6.355l7.142-1.456 7.546 15.4-2.741.559a8.145 8.145 0 0 0-6.355 9.609 8.149 8.149 0 0 0 9.609 6.355l6.895-1.405 7.545 15.399-2.492.507a8.147 8.147 0 0 0 3.252 15.966l6.648-1.354 9.161 18.695c-5.748 1.042-11.148-.406-15.687-2.675a8.074 8.074 0 0 0-1.321-.697c-5.647-3.124-9.771-7.325-11.254-8.957l-58.396-121.148a99.39 99.39 0 0 0 3.635.069zm-23.147-3.034l46.361 96.174-12.271-10.753-43.878-88.879a73.612 73.612 0 0 0 9.788 3.458zm-90.952 101.689c-8.475-1.842-25.994-12.059-45.443-29.535-22.339-20.073-38.67-41.926-43.686-58.459-4.606-15.183 1.462-21.349 6.427-24.667a606.769 606.769 0 0 1 9.145-5.986l75.869 82.534c1.855 2.676 13.298 20.683-2.312 36.113zm18.548 2.81c11.551-18.746 3.779-39.239-3.344-48.9a8.49 8.49 0 0 0-.559-.678l-74.171-80.687c36.699-22.567 79.845-45.85 94.308-53.564l7.047 6.336c-1.49 8.796-2.411 27.029 9.927 45.123a8.11 8.11 0 0 0 .831 3.333l58.561 118.625a8.153 8.153 0 0 0 1.937 2.52l43.095 37.759c3.605 4.216 9.263 9.221 16.228 12.998 4.098 3.451 32.011 27.819 26.046 45.495a326.39 326.39 0 0 1-10.141-3.263c-37.37-12.712-71.423-31.242-83.668-40.339-21.638-16.073-47.671-19.031-58.7-19.537-4.675-8.452-13.371-20.145-27.397-25.221zm221.741 121.567c-3.867.378-8.05.569-12.434.569-31.736.002-72.991-9.868-107.668-25.758-33.681-15.434-57.521-34.839-66.947-54.174 11.014 1.391 27.658 5.208 41.691 15.634 13.096 9.729 49.099 29.406 88.136 42.684a327.925 327.925 0 0 0 16.696 5.198c.02.007.039.01.059.016 16.923 4.763 35.456 8.374 52.776 8.373 5.246 0 10.375-.341 15.319-1.072-6.826 4.534-16.057 7.399-27.628 8.53zm41.292-29.449c-14.758 7.443-38.051 7.581-67.314.56 3.041-9.691 1.954-22.955-10.454-40.109a102.975 102.975 0 0 0-3.542-4.608c2.747-.517 5.537-1.385 8.346-2.626l73.042 31.193c.566 3.55 1.065 9.362-.078 15.59z"/></svg>