<svg xmlns="http://www.w3.org/2000/svg" viewBox="0 0 512 512"><path d="M384.435 496.991H286.02V261.916c0-15.203 8.905-28.731 22.687-34.463a137.3 137.3 0 0 0 35.429-21.522 7.504 7.504 0 0 0 .939-10.571 7.502 7.502 0 0 0-10.571-.938 122.38 122.38 0 0 1-31.56 19.173c-19.398 8.068-31.932 27.036-31.932 48.321v235.075h-30.018v-79.395a7.504 7.504 0 1 0-15.008 0v79.395H45.332c-4.759 0-8.631-3.871-8.631-8.631V124.002c0-4.76 3.872-8.631 8.631-8.631h14.334a7.504 7.504 0 1 0 0-15.008H45.332c-13.035 0-23.64 10.605-23.64 23.64V488.36c0 13.035 10.605 23.64 23.64 23.64h339.103a7.505 7.505 0 0 0 0-15.009z"/><path d="M466.671 100.362H356.058c0-.101.004-.202.004-.303a99.526 99.526 0 0 0-7.581-38.192c-.013-.033-.022-.067-.035-.1-.012-.028-.027-.053-.039-.081a100.39 100.39 0 0 0-21.06-31.708c-.183-.232-.377-.459-.591-.673s-.44-.407-.672-.59a100.379 100.379 0 0 0-31.712-21.062c-.027-.011-.051-.026-.078-.037-.032-.013-.065-.022-.097-.035A99.55 99.55 0 0 0 256.001 0a99.526 99.526 0 0 0-38.192 7.581c-.033.013-.067.022-.1.036-.028.012-.053.027-.081.039a100.369 100.369 0 0 0-31.706 21.058 7.34 7.34 0 0 0-.674.592 7.658 7.658 0 0 0-.593.675A100.386 100.386 0 0 0 163.6 61.68c-.013.03-.029.058-.042.088-.015.036-.024.073-.039.109a99.516 99.516 0 0 0-7.578 38.183c0 .101.004.202.004.303H103.66a7.504 7.504 0 1 0 0 15.008h15.629c2.604 23.565 11.199 46.019 25.103 65.318 14.983 20.797 35.351 36.967 58.904 46.764 13.782 5.733 22.687 19.26 22.687 34.463v109.536a7.504 7.504 0 1 0 15.008 0V261.916c0-21.285-12.534-40.252-31.932-48.321-20.984-8.729-39.135-23.141-52.491-41.68a122.436 122.436 0 0 1-22.19-56.544h22.733a99.202 99.202 0 0 0 6.41 22.877c.013.033.022.068.036.101.008.02.02.036.028.055a100.399 100.399 0 0 0 21.075 31.739c.182.23.374.455.587.668s.437.406.668.587a100.38 100.38 0 0 0 31.727 21.071c.023.01.043.022.066.032.028.012.056.019.084.03 11.779 4.885 24.682 7.588 38.207 7.588a99.526 99.526 0 0 0 38.211-7.589c.026-.011.053-.018.079-.028.022-.009.042-.021.063-.03a100.393 100.393 0 0 0 31.73-21.071c.231-.182.456-.375.669-.588.213-.213.406-.438.588-.669a100.394 100.394 0 0 0 21.077-31.743c.007-.018.018-.033.026-.05.013-.03.021-.062.033-.092a99.182 99.182 0 0 0 6.413-22.886h22.739c-2.016 16.409-7.249 31.974-15.603 46.371a7.504 7.504 0 1 0 12.982 7.531c9.543-16.447 15.601-34.951 17.711-53.903h73.95c4.76 0 8.632 3.871 8.632 8.631V488.36c0 4.76-3.872 8.631-8.632 8.631h-35.312a7.504 7.504 0 1 0 0 15.008h35.312c13.036 0 23.64-10.605 23.64-23.64V124.002c.004-13.035-10.601-23.64-23.636-23.64zm-133.127 7.202h7.154a84.445 84.445 0 0 1-3.556 17.984l-6.629-2.746c-3.828-1.591-8.219.233-9.805 4.061a7.508 7.508 0 0 0 4.065 9.804l6.597 2.733a85.355 85.355 0 0 1-10.192 15.223l-5.037-5.037a7.505 7.505 0 0 0-10.613 10.614l5.036 5.036a85.347 85.347 0 0 1-15.222 10.192l-2.733-6.597a7.504 7.504 0 1 0-13.866 5.744l2.746 6.629a84.445 84.445 0 0 1-17.984 3.556v-7.154a7.504 7.504 0 1 0-15.008 0v7.154a84.507 84.507 0 0 1-17.984-3.556l2.746-6.629a7.504 7.504 0 0 0-4.061-9.805 7.5 7.5 0 0 0-9.805 4.061l-2.733 6.596a85.378 85.378 0 0 1-15.222-10.191l5.036-5.036a7.505 7.505 0 0 0-10.613-10.614l-5.037 5.037a85.355 85.355 0 0 1-10.192-15.223l6.597-2.733a7.504 7.504 0 1 0-5.744-13.866l-6.629 2.746a84.436 84.436 0 0 1-3.556-17.983h7.154a7.504 7.504 0 1 0 0-15.008h-7.152a84.445 84.445 0 0 1 3.556-17.984l6.629 2.746c.939.39 1.912.574 2.869.574a7.507 7.507 0 0 0 2.875-14.44l-6.596-2.732a85.355 85.355 0 0 1 10.192-15.223l5.036 5.036a7.479 7.479 0 0 0 5.306 2.199 7.505 7.505 0 0 0 5.306-12.811l-5.037-5.037a85.383 85.383 0 0 1 15.222-10.192l2.732 6.597a7.507 7.507 0 0 0 6.936 4.635c.957 0 1.93-.185 2.869-.574a7.504 7.504 0 0 0 4.061-9.805l-2.746-6.629a84.445 84.445 0 0 1 17.984-3.556v7.154a7.504 7.504 0 1 0 15.008 0V15.36a84.424 84.424 0 0 1 17.983 3.556l-2.746 6.629a7.505 7.505 0 0 0 13.866 5.744l2.732-6.597a85.33 85.33 0 0 1 15.222 10.192l-5.037 5.037a7.506 7.506 0 0 0 5.306 12.811 7.48 7.48 0 0 0 5.307-2.199l5.036-5.036a85.383 85.383 0 0 1 10.192 15.222l-6.597 2.733a7.507 7.507 0 1 0 2.875 14.44c.957 0 1.93-.185 2.869-.574l6.629-2.746a84.509 84.509 0 0 1 3.557 17.984h-7.154a7.504 7.504 0 1 0 0 15.008z"/><path d="M256.001 77.546c-12.414 0-22.513 10.1-22.513 22.513 0 9.783 6.274 18.125 15.009 21.223v31.809a7.504 7.504 0 1 0 15.008 0v-31.809c8.735-3.098 15.009-11.44 15.009-21.223 0-12.413-10.099-22.513-22.513-22.513zm0 30.018c-4.138 0-7.504-3.366-7.504-7.504s3.366-7.504 7.504-7.504 7.504 3.366 7.504 7.504-3.366 7.504-7.504 7.504z"/></svg>