<svg xmlns="http://www.w3.org/2000/svg" viewBox="0 0 511.999 511.999"><path d="M492.276 56.005c-14.091-15.175-34.106-23.878-54.912-23.878H323.609C304.722 18.043 281.318 9.696 256 9.696s-48.722 8.347-67.609 22.431H74.636c-20.806 0-40.821 8.703-54.912 23.878C5.611 71.203-1.319 90.918.208 111.52l4.862 65.577c.305 4.118 3.898 7.198 8.01 6.904a7.479 7.479 0 0 0 6.904-8.01l-4.862-65.577c-1.217-16.407 4.31-32.117 15.561-44.233 11.437-12.316 27.047-19.1 43.953-19.1h97.319c-18.189 20.111-29.282 46.754-29.282 75.942 0 62.489 50.839 113.328 113.328 113.328s113.328-50.839 113.328-113.328c0-29.187-11.093-55.831-29.282-75.942h97.319c16.906 0 32.516 6.783 43.953 19.1 11.251 12.116 16.777 27.825 15.561 44.233l-23.89 322.232c-2.274 30.674-28.416 54.701-59.514 54.701H305.852a7.476 7.476 0 0 0-7.477 7.478 7.476 7.476 0 0 0 7.477 7.477h107.622c18.895 0 36.928-7.018 50.775-19.76 13.866-12.759 22.266-30.087 23.653-48.79l23.89-322.232c1.527-20.602-5.403-40.317-19.516-55.515zm-137.903 67.019c0 54.243-44.13 98.373-98.373 98.373s-98.373-44.129-98.373-98.373c0-54.244 44.13-98.373 98.373-98.373s98.373 44.129 98.373 98.373zM259.99 487.347H98.526c-31.099 0-57.24-24.027-59.513-54.688l-15.32-211.606a7.475 7.475 0 0 0-7.998-6.917 7.477 7.477 0 0 0-6.918 7.998l15.321 211.619c1.387 18.703 9.787 36.031 23.653 48.79 13.847 12.742 31.88 19.76 50.775 19.76H259.99a7.478 7.478 0 1 0 0-14.956z"/><path d="M256 37.206a7.476 7.476 0 0 0-7.477 7.478v16.539a7.477 7.477 0 1 0 14.954-.001V44.684A7.478 7.478 0 0 0 256 37.206zM256 177.348a7.476 7.476 0 0 0-7.477 7.477v16.538a7.477 7.477 0 1 0 14.954 0v-16.538a7.476 7.476 0 0 0-7.477-7.477zM231.575 65.764l-8.269-14.323a7.478 7.478 0 0 0-12.951 7.477l8.269 14.323a7.474 7.474 0 0 0 10.214 2.737 7.477 7.477 0 0 0 2.737-10.214zM301.645 187.129l-8.269-14.322a7.478 7.478 0 0 0-12.951 7.477l8.269 14.322a7.474 7.474 0 0 0 10.214 2.737 7.476 7.476 0 0 0 2.737-10.214zM206.217 85.647l-14.322-8.269a7.477 7.477 0 0 0-10.214 2.737 7.476 7.476 0 0 0 2.737 10.214l14.322 8.269a7.474 7.474 0 0 0 10.214-2.737 7.476 7.476 0 0 0-2.737-10.214zM327.583 155.718l-14.323-8.269a7.477 7.477 0 1 0-7.477 12.951l14.323 8.269a7.472 7.472 0 0 0 10.214-2.737 7.477 7.477 0 0 0-2.737-10.214zM194.199 115.546h-16.538a7.476 7.476 0 0 0-7.477 7.478 7.476 7.476 0 0 0 7.477 7.477h16.538a7.478 7.478 0 0 0 0-14.955zM334.339 115.546h-16.538a7.477 7.477 0 0 0-7.477 7.478 7.477 7.477 0 0 0 7.477 7.477h16.538a7.478 7.478 0 0 0 0-14.955zM208.954 150.186a7.477 7.477 0 0 0-10.214-2.737l-14.322 8.269a7.476 7.476 0 0 0 3.745 13.954 7.443 7.443 0 0 0 3.732-1.003l14.322-8.269a7.476 7.476 0 0 0 2.737-10.214zM330.319 80.115a7.478 7.478 0 0 0-10.214-2.737l-14.323 8.269a7.477 7.477 0 0 0 7.477 12.951l14.323-8.269a7.477 7.477 0 0 0 2.737-10.214zM228.838 170.07a7.476 7.476 0 0 0-10.214 2.737l-8.269 14.322a7.476 7.476 0 0 0 6.469 11.217 7.474 7.474 0 0 0 6.482-3.74l8.269-14.322a7.476 7.476 0 0 0-2.737-10.214zM298.908 48.704a7.477 7.477 0 0 0-10.214 2.737l-8.269 14.323a7.477 7.477 0 0 0 12.951 7.477l8.269-14.323a7.477 7.477 0 0 0-2.737-10.214zM273.742 111.774c-2.313-4.374-6.082-7.654-10.675-9.377V87.989a7.477 7.477 0 1 0-14.954 0v14.728c-.505.217-1.008.442-1.499.702-9.783 5.175-13.531 17.345-8.356 27.127a19.941 19.941 0 0 0 11.834 9.797c1.952.602 3.948.9 5.933.9 3.228 0 6.427-.788 9.361-2.341a19.937 19.937 0 0 0 9.796-11.833 19.943 19.943 0 0 0-1.44-15.295zm-15.349 13.91a5.1 5.1 0 0 1-3.899.367 5.085 5.085 0 0 1-3.017-2.498 5.083 5.083 0 0 1-.368-3.898 5.085 5.085 0 0 1 2.498-3.017 5.102 5.102 0 0 1 3.899-.367 5.08 5.08 0 0 1 3.016 2.497 5.122 5.122 0 0 1-2.129 6.916z"/></svg>