<svg xmlns="http://www.w3.org/2000/svg" viewBox="0 0 512 512"><path d="M392.717 59.701c-5.129-9.07-15.239-20.041-30.041-29.846a135.183 135.183 0 0 0-4.477-2.833l-.084-.051c-.488-.295-.976-.591-1.479-.887-20.555-12.188-50.031-22.513-90.418-24.017a269.381 269.381 0 0 0-4.483-.129c-.389-.009-.774-.018-1.165-.025a251.126 251.126 0 0 0-9.105.001c-.673.012-1.333.034-1.999.051-.795.02-1.593.039-2.379.066-.885.031-1.758.072-2.632.112-.524.024-1.053.045-1.573.073-1.047.055-2.082.118-3.113.185-.302.019-.606.038-.907.059a243.71 243.71 0 0 0-3.58.274l-.22.018c-28.888 2.456-51.288 9.77-67.844 17.766-.488.235-.975.469-1.451.704l-.471.237c-.672.335-1.33.668-1.976 1.002l-.196.101c-1.704.883-3.327 1.76-4.853 2.623-.216.123-.42.249-.635.371-.88.504-1.742 1.006-2.578 1.508-.3.18-.6.359-.896.539-.855.521-1.682 1.038-2.49 1.553-.334.212-.67.424-.998.637l-.029.019c-.726.471-1.441.948-2.152 1.43-8.584 5.794-15.391 11.785-20.538 17.392l-.306.333c-.293.322-.587.644-.868.962-2.957 3.322-5.425 6.605-7.3 9.73C92.327 64.911 0 85.049 0 116.053c0 .36.024.719.072 1.076l51.938 386a8.071 8.071 0 0 0 8.001 6.997h78a8.072 8.072 0 0 0 8.073-8.073 8.072 8.072 0 0 0-8.073-8.073H67.072L16.195 115.87c.637-2.138 6.758-9.253 28.417-18.383 18.622-7.85 43.963-15.149 72.119-20.828l9.791 25.249c-44.148 9.86-73.07 21.233-74.323 21.729a8.072 8.072 0 0 0-5.025 8.581L91.17 459.314a8.073 8.073 0 0 0 8.001 6.997h313.656a8.074 8.074 0 0 0 8.004-7.018l32.121-243.572a8.073 8.073 0 1 0-16.007-2.111L405.75 450.165H106.232L64.037 136.467c10.784-3.856 35.634-12.144 68.39-19.33l41.858 107.942a8.071 8.071 0 0 0 7.526 5.155h148.372a8.07 8.07 0 0 0 7.526-5.154l41.859-107.942c32.738 7.183 57.602 15.474 68.39 19.33l-6.24 46.402a8.074 8.074 0 0 0 16.002 2.153l7.102-52.804a8.071 8.071 0 0 0-5.028-8.581c-1.239-.491-30.181-11.862-74.319-21.727l9.791-25.249c28.169 5.681 53.524 12.986 72.148 20.84 21.691 9.148 27.783 16.271 28.391 18.347L444.93 493.982H169.226a8.072 8.072 0 0 0-8.073 8.073 8.072 8.072 0 0 0 8.073 8.073h282.765a8.071 8.071 0 0 0 8.001-6.997l51.936-386a8.08 8.08 0 0 0 .072-1.076c0-30.952-92.035-51.077-119.283-56.354zm-68.06 154.387H187.341L131.808 70.882c.012-.031.032-.071.045-.102.094-.169.194-.334.276-.51 2.957-6.371 16.218-22.799 42.811-35.549 15.405-7.334 36.628-14.121 64.377-16.114 1.224-.088 2.463-.164 3.712-.232l.548-.03c1.08-.057 2.172-.103 3.271-.146.299-.012.595-.025.896-.036 1.034-.036 2.082-.061 3.134-.084.333-.006.66-.017.995-.024 1.363-.024 2.737-.037 4.127-.037 1.332 0 2.649.011 3.955.03.662.01 1.313.028 1.969.043.619.014 1.241.025 1.855.043.911.027 1.812.064 2.71.1.327.013.659.024.984.039 1.097.049 2.184.107 3.263.169l.3.016c32.271 1.925 56.364 9.933 73.629 19.328 19.062 10.438 29.486 22.462 33.66 29.281.653 1.103 1.177 2.116 1.564 3.016.073.17.165.328.249.491.029.074.061.154.087.224l-55.568 143.29z"/><path d="M324.74 55.778c-12.254-6.032-34.126-13.224-68.74-13.224-33.507 0-55.407 7.176-67.878 13.196-11.95 5.768-24.717 15.369-24.717 25.017 0 .969.174 1.93.516 2.836l37.223 99.18a8.073 8.073 0 0 0 7.558 5.237H303.3a8.071 8.071 0 0 0 7.558-5.237l37.221-99.18c.34-.907.516-1.868.516-2.836.001-8.168-9.14-17.744-23.855-24.989zm-88.406 116.096c3.184-7.731 10.799-13.185 19.665-13.185 8.867 0 16.482 5.454 19.668 13.185h-39.333zm61.373 0h-5.19c-3.127-14.154-14.291-25.318-28.446-28.445v-47.78a8.072 8.072 0 0 0-8.073-8.073 8.072 8.072 0 0 0-8.073 8.073v47.782c-14.154 3.127-25.317 14.291-28.444 28.445h-5.187l-34.168-91.041c2.286-2.895 9.303-8.845 22.676-13.848l2.467 6.589a8.075 8.075 0 0 0 7.561 5.243c.941 0 1.899-.166 2.831-.516a8.073 8.073 0 0 0 4.729-10.392l-2.043-5.455c8.3-1.832 18.102-3.165 29.578-3.596v7.202a8.072 8.072 0 0 0 8.073 8.073 8.072 8.072 0 0 0 8.073-8.073v-7.207c11.523.418 21.333 1.713 29.622 3.496l-2.084 5.558a8.072 8.072 0 0 0 4.726 10.393c.933.35 1.891.517 2.833.517 3.269 0 6.346-2 7.56-5.241l2.541-6.779c13.619 5.019 20.515 11.04 22.651 13.909l-34.213 91.166z"/></svg>