<?xml version="1.0" encoding="iso-8859-1"?>
<!-- Generator: Adobe Illustrator 19.0.0, SVG Export Plug-In . SVG Version: 6.00 Build 0)  -->
<svg version="1.1" id="Layer_1" xmlns="http://www.w3.org/2000/svg" xmlns:xlink="http://www.w3.org/1999/xlink" x="0px" y="0px"
	 viewBox="0 0 512 512" style="enable-background:new 0 0 512 512;" xml:space="preserve">
<g>
	<g>
		<g>
			<path d="M392.717,59.701c-5.129-9.07-15.239-20.041-30.041-29.846c-1.409-0.933-2.907-1.88-4.477-2.833
				c-0.028-0.017-0.056-0.033-0.084-0.051c-0.488-0.295-0.976-0.591-1.479-0.887c-20.555-12.188-50.031-22.513-90.418-24.017
				c-0.314-0.012-0.631-0.023-0.947-0.033c-1.169-0.04-2.349-0.071-3.536-0.096c-0.389-0.009-0.774-0.018-1.165-0.025
				c-1.51-0.025-3.031-0.041-4.572-0.041c-1.526,0-3.037,0.015-4.533,0.042c-0.673,0.012-1.333,0.034-1.999,0.051
				c-0.795,0.02-1.593,0.039-2.379,0.066c-0.885,0.031-1.758,0.072-2.632,0.112c-0.524,0.024-1.053,0.045-1.573,0.073
				c-1.047,0.055-2.082,0.118-3.113,0.185c-0.302,0.019-0.606,0.038-0.907,0.059c-1.205,0.083-2.397,0.175-3.58,0.274
				c-0.073,0.006-0.146,0.012-0.22,0.018c-28.888,2.456-51.288,9.77-67.844,17.766c-0.488,0.235-0.975,0.469-1.451,0.704
				c-0.158,0.079-0.313,0.157-0.471,0.237c-0.672,0.335-1.33,0.668-1.976,1.002c-0.066,0.033-0.13,0.068-0.196,0.101
				c-1.704,0.883-3.327,1.76-4.853,2.623c-0.216,0.123-0.42,0.249-0.635,0.371c-0.88,0.504-1.742,1.006-2.578,1.508
				c-0.3,0.18-0.6,0.359-0.896,0.539c-0.855,0.521-1.682,1.038-2.49,1.553c-0.334,0.212-0.67,0.424-0.998,0.637
				c-0.01,0.006-0.02,0.013-0.029,0.019c-0.726,0.471-1.441,0.948-2.152,1.43c-8.584,5.794-15.391,11.785-20.538,17.392
				c-0.102,0.111-0.205,0.222-0.306,0.333c-0.293,0.322-0.587,0.644-0.868,0.962c-2.957,3.322-5.425,6.605-7.3,9.73
				C92.327,64.911,0,85.049,0,116.053c0,0.36,0.024,0.719,0.072,1.076l51.938,386c0.538,4.008,3.958,6.997,8.001,6.997h78
				c4.46,0,8.073-3.615,8.073-8.073c0-4.46-3.614-8.073-8.073-8.073H67.072L16.195,115.87c0.637-2.138,6.758-9.253,28.417-18.383
				c18.622-7.85,43.963-15.149,72.119-20.828l9.791,25.249c-44.148,9.86-73.07,21.233-74.323,21.729
				c-3.447,1.367-5.52,4.906-5.025,8.581L91.17,459.314c0.538,4.006,3.958,6.997,8.001,6.997h313.656
				c4.051,0,7.474-3.002,8.004-7.018l32.121-243.572c0.583-4.421-2.529-8.477-6.948-9.059c-4.418-0.58-8.476,2.528-9.059,6.948
				l-31.195,236.555H106.232L64.037,136.467c10.784-3.856,35.634-12.144,68.39-19.33l41.858,107.942
				c1.205,3.108,4.194,5.155,7.526,5.155h148.372c3.333,0,6.322-2.047,7.526-5.154l41.859-107.942
				c32.738,7.183,57.602,15.474,68.39,19.33l-6.24,46.402c-0.595,4.419,2.506,8.482,6.925,9.078
				c0.366,0.048,0.729,0.073,1.087,0.073c3.98,0,7.446-2.944,7.99-6.998l7.102-52.804c0.495-3.675-1.579-7.215-5.028-8.581
				c-1.239-0.491-30.181-11.862-74.319-21.727l9.791-25.249c28.169,5.681,53.524,12.986,72.148,20.84
				c21.691,9.148,27.783,16.271,28.391,18.347L444.93,493.982H169.226c-4.46,0-8.073,3.614-8.073,8.073
				c0,4.459,3.614,8.073,8.073,8.073h282.765c4.043,0,7.463-2.989,8.001-6.997l51.936-386c0.048-0.357,0.072-0.717,0.072-1.076
				C512,85.103,419.965,64.978,392.717,59.701z M324.657,214.088H187.341L131.808,70.882c0.012-0.031,0.032-0.071,0.045-0.102
				c0.094-0.169,0.194-0.334,0.276-0.51c2.957-6.371,16.218-22.799,42.811-35.549c15.405-7.334,36.628-14.121,64.377-16.114
				c1.224-0.088,2.463-0.164,3.712-0.232c0.183-0.01,0.365-0.02,0.548-0.03c1.08-0.057,2.172-0.103,3.271-0.146
				c0.299-0.012,0.595-0.025,0.896-0.036c1.034-0.036,2.082-0.061,3.134-0.084c0.333-0.006,0.66-0.017,0.995-0.024
				c1.363-0.024,2.737-0.037,4.127-0.037c1.332,0,2.649,0.011,3.955,0.03c0.662,0.01,1.313,0.028,1.969,0.043
				c0.619,0.014,1.241,0.025,1.855,0.043c0.911,0.027,1.812,0.064,2.71,0.1c0.327,0.013,0.659,0.024,0.984,0.039
				c1.097,0.049,2.184,0.107,3.263,0.169c0.1,0.005,0.201,0.011,0.3,0.016c32.271,1.925,56.364,9.933,73.629,19.328
				c19.062,10.438,29.486,22.462,33.66,29.281c0.653,1.103,1.177,2.116,1.564,3.016c0.073,0.17,0.165,0.328,0.249,0.491
				c0.029,0.074,0.061,0.154,0.087,0.224L324.657,214.088z"/>
			<path d="M324.74,55.778c-12.254-6.032-34.126-13.224-68.74-13.224c-33.507,0-55.407,7.176-67.878,13.196
				c-11.95,5.768-24.717,15.369-24.717,25.017c0,0.969,0.174,1.93,0.516,2.836l37.223,99.18c1.182,3.15,4.194,5.237,7.558,5.237
				h17.967h58.664H303.3c3.365,0,6.377-2.087,7.558-5.237l37.221-99.18c0.34-0.907,0.516-1.868,0.516-2.836
				C348.596,72.599,339.455,63.023,324.74,55.778z M236.334,171.874c3.184-7.731,10.799-13.185,19.665-13.185
				c8.867,0,16.482,5.454,19.668,13.185H236.334z M297.707,171.874h-5.19c-3.127-14.154-14.291-25.318-28.446-28.445V95.649
				c0-4.459-3.614-8.073-8.073-8.073c-4.46,0-8.073,3.615-8.073,8.073v47.782c-14.154,3.127-25.317,14.291-28.444,28.445h-5.187
				l-34.168-91.041c2.286-2.895,9.303-8.845,22.676-13.848l2.467,6.589c1.214,3.242,4.291,5.243,7.561,5.243
				c0.941,0,1.899-0.166,2.831-0.516c4.176-1.564,6.293-6.216,4.729-10.392l-2.043-5.455c8.3-1.832,18.102-3.165,29.578-3.596v7.202
				c0,4.459,3.614,8.073,8.073,8.073c4.46,0,8.073-3.615,8.073-8.073v-7.207c11.523,0.418,21.333,1.713,29.622,3.496l-2.084,5.558
				c-1.565,4.174,0.55,8.829,4.726,10.393c0.933,0.35,1.891,0.517,2.833,0.517c3.269,0,6.346-2,7.56-5.241l2.541-6.779
				c13.619,5.019,20.515,11.04,22.651,13.909L297.707,171.874z"/>
		</g>
	</g>
</g>
<g>
</g>
<g>
</g>
<g>
</g>
<g>
</g>
<g>
</g>
<g>
</g>
<g>
</g>
<g>
</g>
<g>
</g>
<g>
</g>
<g>
</g>
<g>
</g>
<g>
</g>
<g>
</g>
<g>
</g>
</svg>
