<svg xmlns="http://www.w3.org/2000/svg" viewBox="0 0 512 512"><path d="M437.022 74.984C388.67 26.63 324.381 0 256 0 187.624 0 123.338 26.63 74.984 74.984S0 187.624 0 256c0 68.388 26.63 132.678 74.984 181.028C123.335 485.375 187.621 512 256 512c68.385 0 132.673-26.625 181.021-74.972C485.372 388.679 512 324.389 512 256c0-68.377-26.628-132.664-74.978-181.016zm-11.314 350.73C380.381 471.039 320.111 496 256 496c-64.106 0-124.374-24.961-169.703-70.286C40.965 380.386 16 320.113 16 256c0-64.102 24.965-124.37 70.297-169.703C131.63 40.965 191.898 16 256 16c64.108 0 124.378 24.965 169.708 70.297C471.037 131.628 496 191.896 496 256c0 64.115-24.963 124.387-70.292 169.714z"/><path d="M430.038 114.969a7.998 7.998 0 0 0-11.253-1.172 7.999 7.999 0 0 0-1.172 11.252C447.526 161.919 464 208.426 464 256c0 55.567-21.635 107.803-60.919 147.085C363.797 442.367 311.563 464 256 464c-51.26 0-100.505-18.807-138.663-52.956a8 8 0 0 0-10.67 11.922C147.763 459.745 200.797 480 256 480c59.837 0 116.089-23.297 158.394-65.601C456.701 372.095 480 315.84 480 256c0-51.233-17.744-101.319-49.962-141.031zM48 256c0-114.691 93.309-208 208-208 51.26 0 100.504 18.808 138.662 52.959a8 8 0 0 0 11.296-.625 8 8 0 0 0-.625-11.296C364.237 52.256 311.203 32 256 32c-59.829 0-116.08 23.301-158.389 65.611C55.301 139.921 32 196.171 32 256c0 51.239 17.744 101.328 49.963 141.038a7.983 7.983 0 0 0 6.217 2.96 8 8 0 0 0 6.208-13.041C64.474 350.088 48 303.58 48 256z"/><path d="M188.649 390.892l.078.527a9.896 9.896 0 0 0 7.252 8.23c.887.239 1.785.355 2.672.355 3.095 0 6.059-1.415 8.002-3.943l.29-.371c6.659-8.485 22.811-30.625 28.956-52.897 1.103-4.02 4.533-17.469 7.254-28.195 9.037 6.702 21.311 10.905 33.576 10.905 26.298 0 49.937-11.82 66.56-33.282C359.225 271.65 368 243.077 368 211.767c0-24.85-10.646-49.326-29.21-67.154-19.655-18.875-46.817-29.271-76.485-29.271-45.115 0-72.94 18.565-88.339 34.139-19.043 19.26-29.965 44.864-29.965 70.245 0 32.235 13.676 57.05 36.57 66.375 3.941 1.613 8.026 1.54 11.505-.208 3.46-1.738 5.946-4.96 6.98-8.995.355-1.331.938-3.648 1.533-6.013a518.085 518.085 0 0 1 1.627-6.375c1.916-7.225.127-11.138-3.851-15.841-5.657-6.665-8.292-14.629-8.292-25.065 0-17.535 6.462-33.882 18.196-46.03 12.577-13.021 29.793-19.903 49.787-19.903 34.672 0 56.211 19.596 56.211 51.14 0 41.53-17.979 74.061-40.931 74.061-5.677 0-10.74-2.285-13.89-6.269-2.926-3.701-3.876-8.534-2.674-13.607 1.613-6.802 3.818-13.96 5.952-20.882 4.045-13.125 7.865-25.523 7.865-35.738 0-18.625-11.569-31.139-28.788-31.139-21.181 0-37.772 21.054-37.772 47.931 0 11.66 2.846 20.738 4.549 25.126-3.037 12.86-16.625 70.407-19.261 81.521-5.213 22.029-2.656 47.722-.668 61.077zm16.24-57.386c2.971-12.528 19.866-84.084 19.866-84.084a8.128 8.128 0 0 0-.616-5.386c-.041-.084-4.107-8.565-4.107-20.867 0-17.905 9.563-31.931 21.772-31.931 11.126 0 12.788 9.485 12.788 15.139 0 7.805-3.476 19.084-7.156 31.025-2.21 7.171-4.495 14.586-6.229 21.905-2.354 9.935-.333 19.602 5.692 27.221 6.204 7.846 15.841 12.345 26.44 12.345 16.828 0 31.874-10.073 42.367-28.363 9.392-16.371 14.563-38.282 14.563-61.698 0-19.332-6.567-35.927-18.992-47.992-12.901-12.527-31.303-19.148-53.219-19.148-24.087 0-45.855 8.803-61.295 24.788-14.63 15.146-22.688 35.441-22.688 57.146 0 14.246 3.956 25.832 12.084 35.408.326.386.558.675.721.888-.032.135-.072.296-.122.486a532.061 532.061 0 0 0-1.685 6.599c-.283 1.128-.564 2.245-.817 3.24-15.454-7.631-24.255-25.852-24.255-50.5 0-21.203 9.237-42.707 25.343-58.996 13.255-13.407 37.368-29.388 76.961-29.388 25.515 0 48.742 8.812 65.402 24.811C343.146 170.979 352 191.25 352 211.767c0 27.782-7.585 52.875-21.359 70.657-13.722 17.715-32.364 27.08-53.911 27.08-14.074 0-26.848-7.754-30.612-14.938a7.999 7.999 0 0 0-14.843 1.756c-.09.354-8.968 35.544-10.802 42.227-3.543 12.842-11.138 25.946-17.637 35.596-1.211-15.454-.521-29.771 2.053-40.639z"/></svg>