<svg xmlns="http://www.w3.org/2000/svg" viewBox="0 0 512 512"><path d="M437.022 74.984C388.67 26.63 324.381 0 256 0 187.624 0 123.338 26.63 74.984 74.984S0 187.624 0 256c0 68.388 26.63 132.678 74.984 181.028C123.335 485.375 187.621 512 256 512c68.385 0 132.673-26.625 181.021-74.972C485.372 388.679 512 324.389 512 256c0-68.377-26.628-132.664-74.978-181.016zm-11.314 350.73C380.381 471.039 320.111 496 256 496c-64.106 0-124.374-24.961-169.703-70.286C40.965 380.386 16 320.113 16 256c0-64.102 24.965-124.37 70.297-169.703C131.63 40.965 191.898 16 256 16c64.108 0 124.378 24.965 169.708 70.297C471.037 131.628 496 191.896 496 256c0 64.115-24.963 124.387-70.292 169.714z"/><path d="M430.038 114.969a7.999 7.999 0 0 0-11.253-1.172 7.999 7.999 0 0 0-1.172 11.252C447.526 161.919 464 208.426 464 256c0 55.567-21.635 107.803-60.919 147.085C363.797 442.367 311.563 464 256 464c-51.26 0-100.505-18.807-138.663-52.956a8 8 0 0 0-10.67 11.922C147.763 459.745 200.797 480 256 480c59.837 0 116.089-23.297 158.394-65.601C456.701 372.095 480 315.84 480 256c0-51.233-17.744-101.319-49.962-141.031zM48 256c0-114.691 93.309-208 208-208 51.26 0 100.504 18.808 138.662 52.959a8 8 0 0 0 11.296-.625 8 8 0 0 0-.625-11.296C364.237 52.256 311.203 32 256 32c-59.829 0-116.08 23.301-158.389 65.611C55.301 139.921 32 196.171 32 256c0 51.239 17.744 101.328 49.963 141.038a7.983 7.983 0 0 0 6.217 2.96 8 8 0 0 0 6.208-13.041C64.474 350.088 48 303.58 48 256z"/><path d="M398.655 194.764a8 8 0 0 0-9.89-11.757c-.204.09-.408.18-.612.268a58.67 58.67 0 0 0 4.63-10.676 7.999 7.999 0 0 0-11.702-9.32 93.353 93.353 0 0 1-25.726 10.498c-10.798-9.778-25.002-15.307-39.646-15.307-32.47 0-58.887 26.402-58.887 58.855 0 .928.021 1.854.063 2.776-34.859-4.249-67.035-21.913-89.417-49.384a8 8 0 0 0-13.114 1.026c-5.214 8.949-7.97 19.185-7.97 29.602a58.937 58.937 0 0 0 7.052 28.008 8 8 0 0 0-7.47 7.983v.636c0 17.624 7.908 33.796 20.616 44.719a8 8 0 0 0-2.395 8.497c5.467 17.082 18.25 30.333 34.264 36.714-13.001 6.537-27.355 9.933-42.315 9.933-3.772 0-7.544-.216-11.211-.643a7.999 7.999 0 0 0-5.244 14.68A152.178 152.178 0 0 0 221.996 376c57.454 0 93.424-27.125 113.482-49.88 24.968-28.326 39.288-65.827 39.288-102.89 0-.914-.007-1.804-.022-2.676a110.46 110.46 0 0 0 23.911-25.79zm-36.724 15.406a8.002 8.002 0 0 0-3.311 6.883c.097 1.97.145 3.99.145 6.177 0 33.221-12.863 66.866-35.29 92.31C305.597 335.822 273.479 360 221.996 360c-15.75 0-31.25-2.705-45.896-7.938 17.51-3.161 33.891-10.506 48.153-21.695a8 8 0 0 0-4.788-14.293 42.895 42.895 0 0 1-34.527-18.535 59.487 59.487 0 0 0 11.91-1.951 8 8 0 0 0-.501-15.565c-15.937-3.219-28.377-15.183-32.716-30.254a59.173 59.173 0 0 0 13.119 1.932 8 8 0 0 0 4.708-14.65c-11.942-7.97-19.071-21.318-19.071-35.707 0-3.646.462-7.259 1.363-10.751 26.808 27.682 63.308 44.387 101.994 46.315a8.002 8.002 0 0 0 8.189-9.809 43.065 43.065 0 0 1-1.108-9.775c0-23.63 19.239-42.855 42.887-42.855 11.804 0 23.217 4.931 31.314 13.527a8.002 8.002 0 0 0 7.358 2.367 109.068 109.068 0 0 0 8.986-2.156 43.194 43.194 0 0 1-4.696 3.25 8 8 0 0 0-3.463 9.442 7.995 7.995 0 0 0 8.506 5.367c1.303-.153 2.602-.329 3.897-.529a96.1 96.1 0 0 1-5.683 4.433z"/></svg>