<?xml version="1.0" encoding="iso-8859-1"?>
<!-- Generator: Adobe Illustrator 19.0.0, SVG Export Plug-In . SVG Version: 6.00 Build 0)  -->
<svg version="1.1" id="Capa_1" xmlns="http://www.w3.org/2000/svg" xmlns:xlink="http://www.w3.org/1999/xlink" x="0px" y="0px"
	 viewBox="0 0 512.002 512.002" style="enable-background:new 0 0 512.002 512.002;" xml:space="preserve">
<g>
	<g>
		<path d="M273.617,373.032c-1.378-3.041-3.858-5.364-6.982-6.54l-14.874-5.598c-6.451-2.427-13.672,0.846-16.1,7.297l-0.287,0.763
			l-14.307-5.773c0.227-2.391,0.351-4.811,0.351-7.261c0-42.586-34.646-77.232-77.232-77.232s-77.231,34.646-77.231,77.232
			c0,42.586,34.646,77.231,77.231,77.231c23.603,0,44.757-10.651,58.934-27.392l16.012,6.346l-0.083,0.221
			c-2.427,6.451,0.846,13.673,7.296,16.101l14.874,5.597c1.445,0.544,2.929,0.802,4.389,0.802c5.056,0,9.828-3.092,11.711-8.097
			l16.611-44.137C275.106,379.469,274.995,376.073,273.617,373.032z M144.186,418.154c-34.315,0-62.233-27.918-62.233-62.233
			s27.918-62.233,62.233-62.233c34.315,0,62.233,27.918,62.233,62.233c0,0.448-0.023,0.891-0.033,1.337l-17.698-7.141
			c-2.857-22.019-21.717-39.086-44.502-39.086c-24.752,0-44.889,20.138-44.889,44.89c0,24.752,20.137,44.889,44.889,44.889
			c9.594,0,18.483-3.039,25.785-8.188l18.244,7.231C176.943,411.15,161.368,418.154,144.186,418.154z M126.603,367.828
			c2.437,5.871,7.033,10.394,12.942,12.736l11.313,4.484c-2.147,0.493-4.378,0.764-6.673,0.764
			c-16.482,0-29.891-13.409-29.891-29.891c0-16.483,13.408-29.892,29.891-29.892c11.871,0,22.142,6.96,26.961,17.011l-14.29-5.766
			c-11.65-4.703-25.167,0.861-30.134,12.398C124.209,355.509,124.167,361.957,126.603,367.828z M224.413,398.066l-79.342-31.446
			c-2.108-0.835-3.747-2.448-4.616-4.542c-0.869-2.094-0.853-4.393,0.042-6.474c1.772-4.114,6.592-6.097,10.746-4.422l78.834,31.808
			L224.413,398.066z M244.162,419.108l-10.195-3.837l14.85-39.458l10.195,3.837L244.162,419.108z"/>
	</g>
</g>
<g>
	<g>
		<path d="M497.789,355.3c-3.208-8.395-9.63-16.574-19.632-25.008c-6.519-5.495-13.824-9.9-21.313-13.514V210.503
			c0-4.142-3.358-7.5-7.5-7.5c-4.142,0-7.5,3.357-7.5,7.5V310.55c-6.4-2.286-12.648-4.128-18.362-5.676
			c-2.117-0.573-7.892-1.941-16.442-3.892V159.961l22.941-25.131c2.792-3.059,2.577-7.802-0.482-10.594
			c-3.058-2.793-7.802-2.575-10.594,0.482l-11.864,12.996v-17.376l28.633-47.482c3.634,1.651,6.173,5.302,6.173,9.547v81.271
			c0,4.142,3.358,7.5,7.5,7.5s7.5-3.357,7.5-7.5v-81.27c0-9.684-5.434-18.109-13.405-22.425l8.855-14.684
			c5.526-9.165,5.778-20.25,0.673-29.656c-5.104-9.406-14.535-15.235-25.228-15.596l-0.833-0.028
			c-10.89-0.338-21.115,5.226-26.678,14.598l-53.545,90.202c-5.441,9.165-5.634,20.218-0.518,29.568
			c5.116,9.35,14.529,15.146,25.181,15.506c0.337,0.011,0.672,0.017,1.008,0.017c7.331,0,14.306-2.71,19.688-7.431v11.671
			l-22.202,24.321h-2.272c-25.65,0-46.518-20.868-46.518-46.518c0-6.744,1.506-13.537,4.355-19.65l15.376-32.992
			c1.75-3.754,0.125-8.215-3.629-9.965c-3.755-1.747-8.216-0.124-9.966,3.63l-15.376,32.992c-3.767,8.084-5.759,17.068-5.759,25.987
			c0,33.92,27.596,61.516,61.516,61.516h5.58c2.108,0,4.118-0.887,5.539-2.443l13.354-14.629v121.21
			c-50.472-11.271-148.927-32.342-214.119-43.697l-40.634-74.036h17.903c12.207,0,22.14-9.932,22.14-22.14v-30.649
			c0-12.207-9.932-22.14-22.14-22.14H68.078c-12.207,0-22.14,9.932-22.14,22.14v30.649c0,12.207,9.932,22.14,22.14,22.14h9.569
			l37.071,66.451c-18.418,0.855-36.333,6.239-52.106,15.727c-3.55,2.135-4.696,6.743-2.561,10.292
			c2.135,3.55,6.742,4.695,10.292,2.56c14.917-8.974,32.056-13.716,49.564-13.716c39.013,0.001,281.543,53.263,299.656,58.169
			c15.33,4.152,34.745,10.452,48.929,22.408c7.899,6.659,13.042,13.015,15.288,18.894c8.213,21.491,5.343,45.616-7.679,64.532
			c-12.505,18.167-32.319,28.587-54.362,28.587H119.905c-53.096,0-96.294-43.198-96.294-96.294c0-18.635,5.329-36.712,15.41-52.277
			c2.252-3.476,1.259-8.12-2.218-10.372c-3.474-2.251-8.119-1.259-10.371,2.218c-11.658,17.999-17.82,38.896-17.82,60.431
			c0,53.931,38.562,99.02,89.561,109.157l-9.557,28.948c-1.254,3.798-0.603,8,1.74,11.241c2.343,3.241,6.13,5.177,10.128,5.177
			h311.048c3.999,0,7.786-1.936,10.128-5.177c2.344-3.241,2.994-7.444,1.74-11.241l-8.852-26.811h7.187
			c27.053-0.001,51.37-12.787,66.717-35.081C504.275,410.706,507.764,381.402,497.789,355.3z M68.078,164.87
			c-3.938,0-7.141-3.204-7.141-7.141v-30.65c0-3.937,3.203-7.141,7.141-7.141h87.115c3.938,0,7.141,3.204,7.141,7.141v30.65
			c0,3.937-3.203,7.141-7.141,7.141H68.078z M132.29,247.031l-37.468-67.162h25.359l38.903,70.883
			C148.61,249.083,139.52,247.805,132.29,247.031z M385.074,127.721c-2.778,4.608-7.834,7.386-13.221,7.176
			c-5.3-0.179-9.984-3.063-12.529-7.716c-2.546-4.652-2.45-10.152,0.257-14.712l53.545-90.202c2.682-4.518,7.542-7.272,12.768-7.272
			c0.167,0,0.335,0.003,0.503,0.009l0.833,0.028c5.321,0.179,10.013,3.08,12.553,7.759c2.54,4.68,2.415,10.197-0.335,14.756
			L385.074,127.721z M103.942,497.001l9.32-28.23h6.634c0.003,0,0.006,0,0.01,0h278.85l9.32,28.23H103.942z"/>
	</g>
</g>
<g>
</g>
<g>
</g>
<g>
</g>
<g>
</g>
<g>
</g>
<g>
</g>
<g>
</g>
<g>
</g>
<g>
</g>
<g>
</g>
<g>
</g>
<g>
</g>
<g>
</g>
<g>
</g>
<g>
</g>
</svg>
