<svg xmlns="http://www.w3.org/2000/svg" viewBox="0 0 512 512"><path d="M491.941 15.06h.01-.01zM212.637 69.758c-28.788 0-52.208 23.42-52.208 52.208 0 28.788 23.421 52.208 52.208 52.208s52.208-23.42 52.208-52.208c0-28.788-23.421-52.208-52.208-52.208zm0 89.356c-20.484 0-37.148-16.664-37.148-37.148s16.664-37.148 37.148-37.148 37.148 16.664 37.148 37.148-16.665 37.148-37.148 37.148zM459.621 468.346h-296.18c-4.159 0-7.53 3.371-7.53 7.53s3.371 7.53 7.53 7.53h296.18a7.53 7.53 0 0 0 7.53-7.53 7.53 7.53 0 0 0-7.53-7.53z"/><path d="M491.941 0H257.314a7.53 7.53 0 0 0-7.53 7.53 7.53 7.53 0 0 0 7.53 7.53h232.117v481.88H133.629v-76.065h231.808c6.92 0 12.55-5.63 12.55-12.55V219.134c0-6.082-4.35-11.164-10.101-12.306a8.697 8.697 0 0 0-2.03-.244H133.629V15.06h69.068a7.53 7.53 0 0 0 7.53-7.53 7.53 7.53 0 0 0-7.53-7.53h-71.578c-6.92 0-12.55 5.63-12.55 12.55v194.034h-98.93c-.696 0-1.375.087-2.03.244-5.751 1.143-10.101 6.224-10.101 12.306v189.191c0 6.92 5.63 12.55 12.55 12.55h98.511v78.575c0 6.92 5.63 12.55 12.55 12.55h360.822c6.92 0 12.55-5.63 12.55-12.55V12.55c0-6.92-5.63-12.55-12.55-12.55zM22.567 405.815V226.967l61.71 34.592a7.53 7.53 0 1 0 7.364-13.136l-47.77-26.779h297.754l-148.877 83.453-54.515-30.558a7.53 7.53 0 0 0-7.364 13.137l55.745 31.248a12.551 12.551 0 0 0 6.132 1.588 12.56 12.56 0 0 0 6.138-1.59l164.043-91.954v178.847H22.567z"/><path d="M459.621 28.594h-296.18c-4.159 0-7.53 3.371-7.53 7.53s3.371 7.53 7.53 7.53h296.18a7.53 7.53 0 0 0 0-15.06zM212.637 69.758c-28.788 0-52.208 23.421-52.208 52.208s23.42 52.208 52.208 52.208c28.787 0 52.208-23.42 52.208-52.208s-23.421-52.208-52.208-52.208zm0 89.356c-20.484 0-37.148-16.664-37.148-37.148s16.664-37.148 37.148-37.148 37.148 16.664 37.148 37.148-16.664 37.148-37.148 37.148z"/></svg>