<svg xmlns="http://www.w3.org/2000/svg" viewBox="0 0 512.001 512.001"><path d="M403.461 206.334a7.5 7.5 0 0 0-6.105 13.7c22.835 10.175 28.182 40.089 10.676 57.598-13.884 13.885-36.356 13.89-50.243 0-17.533-17.536-12.128-47.439 10.675-57.598a7.5 7.5 0 1 0-6.103-13.701 50.393 50.393 0 0 0-15.178 10.444c-29.359 29.363-12.472 79.691 28.228 85.71v116.001c0 43.293-35.215 78.513-78.5 78.513-43.286 0-78.5-35.222-78.5-78.513V313.136c26.825 0 25.589.051 26.514-.068a7.455 7.455 0 0 0 2.108-.592 7.784 7.784 0 0 0 1.791-1.131c.287-.244.699-.666.883-.887.232-.275.448-.574.674-.951a7.89 7.89 0 0 0 .506-.979l10.484-24.25a7.5 7.5 0 0 0-13.766-5.951l-8.564 19.81h-56.255l-29.192-67.524c8.047 1.12 3.186.84 102.571.84a87.35 87.35 0 0 0 12.068-.841l-5.498 12.718a7.498 7.498 0 1 0 13.766 5.951l10.081-23.317c33.053-12.365 56.649-44.271 56.649-81.59V105.1c0-27.185-12.777-52.768-34.361-69.233C313.984 17.719 300.338 0 281.77 0c-25.01 0-37.631 30.405-19.928 48.112 5.322 5.323 12.399 8.256 19.928 8.256a27.973 27.973 0 0 0 19.247-7.608c17.123 13.658 27.215 34.374 27.215 56.344v39.274c0 39.745-32.33 72.079-72.069 72.079H165.66c-39.738 0-72.067-32.335-72.067-72.079v-39.274c0-21.97 10.091-42.686 27.213-56.346 11.072 10.379 28.392 10.14 39.177-.646C177.701 30.386 165.046 0 140.054 0c-18.552 0-32.218 17.702-27.101 35.867-21.582 16.465-34.359 42.051-34.359 69.235v39.274c0 37.318 23.597 69.225 56.65 81.591l35.73 82.646a7.499 7.499 0 0 0 6.883 4.523h25.557V418.49c0 51.563 41.943 93.511 93.498 93.511s93.498-41.95 93.498-93.511V302.487c10.649-1.576 20.476-6.499 28.227-14.251 24.936-24.938 17.251-67.455-15.176-81.902zM291.091 37.507a13.088 13.088 0 0 1-9.32 3.862 13.094 13.094 0 0 1-9.321-3.862c-8.278-8.278-2.387-22.509 9.32-22.509 11.712 0 17.598 14.23 9.321 22.509zM140.054 14.998c11.7 0 17.605 14.223 9.322 22.509-5.153 5.153-13.489 5.154-18.643 0-8.276-8.278-2.385-22.509 9.321-22.509z"/><path d="M382.909 226.974c-22.675 0-34.077 27.558-18.049 43.589 9.977 9.978 26.122 9.978 36.101-.001 16.027-16.03 4.624-43.588-18.052-43.588zm.001 36.067c-9.343 0-14.065-11.364-7.443-17.986a10.52 10.52 0 0 1 14.888 0c6.615 6.617 1.907 17.986-7.445 17.986z"/></svg>