<?xml version="1.0" encoding="iso-8859-1"?>
<!-- Generator: Adobe Illustrator 19.0.0, SVG Export Plug-In . SVG Version: 6.00 Build 0)  -->
<svg version="1.1" id="Capa_1" xmlns="http://www.w3.org/2000/svg" xmlns:xlink="http://www.w3.org/1999/xlink" x="0px" y="0px"
	 viewBox="0 0 512 512" style="enable-background:new 0 0 512 512;" xml:space="preserve">
<g>
	<g>
		<path d="M246.607,161.407c-4.147,0-7.51,3.362-7.51,7.51v28.729c0,4.147,3.362,7.51,7.51,7.51c4.148,0,7.51-3.362,7.51-7.51
			v-28.729C254.117,164.77,250.755,161.407,246.607,161.407z"/>
	</g>
</g>
<g>
	<g>
		<path d="M246.607,404.846c-4.147,0-7.51,3.362-7.51,7.51v28.729c0,4.147,3.362,7.51,7.51,7.51s7.51-3.362,7.51-7.51v-28.729
			C254.117,408.208,250.755,404.846,246.607,404.846z"/>
	</g>
</g>
<g>
	<g>
		<path d="M199.433,208.274l-14.364-24.879c-2.074-3.593-6.666-4.824-10.259-2.749c-3.592,2.073-4.823,6.667-2.749,10.259
			l14.365,24.88c1.391,2.409,3.915,3.756,6.51,3.756c1.274,0,2.565-0.325,3.748-1.008
			C200.276,216.46,201.508,211.866,199.433,208.274z"/>
	</g>
</g>
<g>
	<g>
		<path d="M321.154,419.097l-14.365-24.88c-2.074-3.593-6.666-4.823-10.259-2.749c-3.591,2.075-4.822,6.668-2.748,10.26
			l14.365,24.88c1.391,2.409,3.915,3.756,6.51,3.756c1.274,0,2.565-0.325,3.748-1.008
			C321.997,427.283,323.227,422.689,321.154,419.097z"/>
	</g>
</g>
<g>
	<g>
		<path d="M157.391,244.82l-24.88-14.364c-3.593-2.074-8.185-0.843-10.259,2.749c-2.074,3.592-0.843,8.185,2.749,10.259
			l24.88,14.364c1.183,0.683,2.474,1.008,3.748,1.008c2.595,0,5.12-1.347,6.51-3.756
			C162.214,251.487,160.982,246.894,157.391,244.82z"/>
	</g>
</g>
<g>
	<g>
		<path d="M368.214,366.54l-24.88-14.365c-3.592-2.075-8.185-0.844-10.259,2.749c-2.072,3.591-0.842,8.184,2.75,10.258l24.88,14.365
			c1.183,0.683,2.474,1.008,3.748,1.008c2.595,0,5.119-1.347,6.51-3.756C373.036,373.207,371.805,368.614,368.214,366.54z"/>
	</g>
</g>
<g>
	<g>
		<path d="M139.253,297.491h-28.729c-4.148,0-7.51,3.362-7.51,7.51c0,4.147,3.362,7.51,7.51,7.51h28.729
			c4.147,0,7.51-3.363,7.51-7.51C146.763,300.853,143.401,297.491,139.253,297.491z"/>
	</g>
</g>
<g>
	<g>
		<path d="M382.692,297.491h-28.729c-4.148,0-7.51,3.362-7.51,7.51c0,4.147,3.362,7.51,7.51,7.51h28.729
			c4.148,0,7.51-3.362,7.51-7.51S386.84,297.491,382.692,297.491z"/>
	</g>
</g>
<g>
	<g>
		<path d="M160.141,354.922c-2.074-3.592-6.667-4.823-10.259-2.749l-24.88,14.365c-3.592,2.073-4.823,6.667-2.749,10.259
			c1.391,2.41,3.915,3.757,6.511,3.757c1.274,0,2.565-0.325,3.748-1.008l24.88-14.365
			C160.984,363.108,162.214,358.514,160.141,354.922z"/>
	</g>
</g>
<g>
	<g>
		<path d="M370.963,233.204c-2.073-3.592-6.667-4.821-10.258-2.748l-24.88,14.364c-3.592,2.073-4.823,6.667-2.749,10.259
			c1.391,2.409,3.915,3.756,6.51,3.756c1.274,0,2.565-0.325,3.748-1.008l24.88-14.364
			C371.806,241.39,373.036,236.796,370.963,233.204z"/>
	</g>
</g>
<g>
	<g>
		<path d="M196.685,391.469c-3.593-2.075-8.185-0.844-10.259,2.749l-14.365,24.88c-2.073,3.591-0.842,8.185,2.75,10.258
			c1.183,0.683,2.474,1.008,3.748,1.008c2.595,0,5.119-1.347,6.51-3.756l14.365-24.88
			C201.508,398.136,200.278,393.543,196.685,391.469z"/>
	</g>
</g>
<g>
	<g>
		<path d="M318.404,180.646c-3.593-2.075-8.185-0.844-10.259,2.749l-14.365,24.88c-2.073,3.591-0.842,8.185,2.75,10.258
			c1.183,0.683,2.474,1.008,3.748,1.008c2.595,0,5.12-1.347,6.51-3.756l14.365-24.88
			C323.227,187.313,321.996,182.72,318.404,180.646z"/>
	</g>
</g>
<g>
	<g>
		<path d="M433.304,145.343c2.447,2.447,5.66,3.67,8.874,3.67c3.213,0,6.428-1.223,8.874-3.67l17.663-17.663
			c2.37-2.37,3.676-5.522,3.676-8.875c0-3.353-1.306-6.505-3.676-8.874l-50.198-50.198c-4.894-4.893-12.856-4.893-17.748,0
			l-17.663,17.663c-4.894,4.893-4.894,12.856,0,17.749l1.938,1.938l-31.026,31.026c-20.159-12.286-42.574-21.22-66.463-26.032
			V63.105h9.607c6.92,0,12.55-5.63,12.55-12.55V12.55c0-6.92-5.63-12.55-12.55-12.55H196.053c-6.92,0-12.55,5.63-12.55,12.55v38.004
			c0,6.92,5.63,12.55,12.55,12.55h9.607v38.973C111.068,121.135,39.61,204.877,39.61,305.001c0,36.856,9.81,73.047,28.369,104.658
			c18.01,30.676,43.772,56.362,74.499,74.281c3.583,2.089,8.182,0.879,10.271-2.704s0.879-8.181-2.704-10.271
			c-28.507-16.623-52.406-40.452-69.113-68.911c-17.207-29.307-26.302-62.868-26.302-97.053
			c0-105.857,86.122-191.979,191.979-191.979c105.858,0,191.979,86.122,191.979,191.979c0,105.858-86.122,191.979-191.979,191.979
			c-17.992,0-35.798-2.485-52.924-7.386c-3.984-1.141-8.144,1.166-9.286,5.154c-1.141,3.988,1.166,8.145,5.154,9.286
			c18.47,5.286,37.666,7.966,57.056,7.966c114.14,0,206.999-92.859,206.999-206.999c0-51.187-18.685-98.085-49.579-134.257
			l27.339-27.339L433.304,145.343z M272.536,99.623c-8.495-1.066-17.148-1.62-25.928-1.62c-8.78,0-17.432,0.554-25.927,1.62V63.105
			h51.855V99.623z M213.17,48.085h-14.648V15.02h96.17v33.065h-14.648H213.17z M409.645,72.101l46.705,46.705l-14.17,14.17
			l-46.705-46.705L409.645,72.101z M393.859,159.672c-8.336-8.445-17.385-16.182-27.058-23.104l28.466-28.466l25.081,25.081
			L393.859,159.672z"/>
	</g>
</g>
<g>
	<g>
		<path d="M246.607,135.56c-36.083,0-70.529,11.19-99.615,32.361c-3.353,2.441-4.093,7.138-1.653,10.491
			c2.441,3.354,7.137,4.093,10.491,1.653c26.501-19.29,57.89-29.485,90.776-29.485c85.148,0,154.421,69.273,154.421,154.421
			s-69.273,154.421-154.421,154.421s-154.42-69.273-154.42-154.421c0-33.83,10.734-65.946,31.042-92.878
			c2.498-3.312,1.837-8.021-1.474-10.518c-3.314-2.497-8.021-1.837-10.518,1.475c-22.288,29.558-34.07,64.802-34.07,101.921
			c0,93.43,76.011,169.441,169.441,169.441s169.441-76.011,169.441-169.441S340.037,135.56,246.607,135.56z"/>
	</g>
</g>
<g>
	<g>
		<path d="M246.608,277.079c-8.017,0-15.251,3.401-20.348,8.831l-36.508-22.998c-3.51-2.211-8.147-1.157-10.357,2.351
			c-2.211,3.509-1.158,8.146,2.351,10.357l37.535,23.645c-0.388,1.852-0.595,3.77-0.595,5.736c0,15.397,12.526,27.922,27.922,27.922
			c15.397,0,27.922-12.526,27.922-27.922C274.53,289.604,262.004,277.079,246.608,277.079z M246.607,317.904
			c-7.114,0-12.903-5.788-12.903-12.903c0-7.115,5.789-12.903,12.903-12.903s12.903,5.788,12.903,12.903
			S253.723,317.904,246.607,317.904z"/>
	</g>
</g>
<g>
</g>
<g>
</g>
<g>
</g>
<g>
</g>
<g>
</g>
<g>
</g>
<g>
</g>
<g>
</g>
<g>
</g>
<g>
</g>
<g>
</g>
<g>
</g>
<g>
</g>
<g>
</g>
<g>
</g>
</svg>
