<svg xmlns="http://www.w3.org/2000/svg" viewBox="0 0 512 512"><path d="M246.607 161.407a7.51 7.51 0 0 0-7.51 7.51v28.729a7.51 7.51 0 0 0 15.02 0v-28.729a7.51 7.51 0 0 0-7.51-7.51zM246.607 404.846a7.51 7.51 0 0 0-7.51 7.51v28.729a7.51 7.51 0 0 0 15.02 0v-28.729a7.51 7.51 0 0 0-7.51-7.51zM199.433 208.274l-14.364-24.879a7.508 7.508 0 0 0-10.259-2.749 7.51 7.51 0 0 0-2.749 10.259l14.365 24.88a7.507 7.507 0 0 0 10.258 2.748 7.509 7.509 0 0 0 2.749-10.259zM321.154 419.097l-14.365-24.88a7.509 7.509 0 0 0-10.259-2.749 7.512 7.512 0 0 0-2.748 10.26l14.365 24.88a7.507 7.507 0 0 0 10.258 2.748 7.51 7.51 0 0 0 2.749-10.259zM157.391 244.82l-24.88-14.364a7.51 7.51 0 1 0-7.51 13.008l24.88 14.364a7.505 7.505 0 0 0 10.258-2.748 7.51 7.51 0 0 0-2.748-10.26zM368.214 366.54l-24.88-14.365a7.508 7.508 0 0 0-10.259 2.749 7.511 7.511 0 0 0 2.75 10.258l24.88 14.365a7.507 7.507 0 0 0 10.258-2.748 7.512 7.512 0 0 0-2.749-10.259zM139.253 297.491h-28.729a7.51 7.51 0 0 0 0 15.02h28.729a7.51 7.51 0 0 0 0-15.02zM382.692 297.491h-28.729a7.51 7.51 0 0 0 0 15.02h28.729c4.148 0 7.51-3.362 7.51-7.51s-3.362-7.51-7.51-7.51zM160.141 354.922a7.51 7.51 0 0 0-10.259-2.749l-24.88 14.365a7.51 7.51 0 0 0 3.762 14.016 7.476 7.476 0 0 0 3.748-1.008l24.88-14.365a7.51 7.51 0 0 0 2.749-10.259zM370.963 233.204a7.51 7.51 0 0 0-10.258-2.748l-24.88 14.364a7.51 7.51 0 1 0 7.509 13.007l24.88-14.364a7.51 7.51 0 0 0 2.749-10.259zM196.685 391.469a7.508 7.508 0 0 0-10.259 2.749l-14.365 24.88a7.51 7.51 0 0 0 2.75 10.258 7.507 7.507 0 0 0 10.258-2.748l14.365-24.88a7.51 7.51 0 0 0-2.749-10.259zM318.404 180.646a7.508 7.508 0 0 0-10.259 2.749l-14.365 24.88a7.51 7.51 0 0 0 2.75 10.258 7.505 7.505 0 0 0 10.258-2.748l14.365-24.88a7.51 7.51 0 0 0-2.749-10.259z"/><path d="M433.304 145.343a12.51 12.51 0 0 0 8.874 3.67 12.51 12.51 0 0 0 8.874-3.67l17.663-17.663a12.47 12.47 0 0 0 3.676-8.875c0-3.353-1.306-6.505-3.676-8.874l-50.198-50.198c-4.894-4.893-12.856-4.893-17.748 0l-17.663 17.663c-4.894 4.893-4.894 12.856 0 17.749l1.938 1.938-31.026 31.026a205.685 205.685 0 0 0-66.463-26.032V63.105h9.607c6.92 0 12.55-5.63 12.55-12.55V12.55c0-6.92-5.63-12.55-12.55-12.55H196.053c-6.92 0-12.55 5.63-12.55 12.55v38.004c0 6.92 5.63 12.55 12.55 12.55h9.607v38.973c-94.592 19.058-166.05 102.8-166.05 202.924 0 36.856 9.81 73.047 28.369 104.658 18.01 30.676 43.772 56.362 74.499 74.281a7.51 7.51 0 0 0 7.567-12.975c-28.507-16.623-52.406-40.452-69.113-68.911-17.207-29.307-26.302-62.868-26.302-97.053 0-105.857 86.122-191.979 191.979-191.979 105.858 0 191.979 86.122 191.979 191.979 0 105.858-86.122 191.979-191.979 191.979-17.992 0-35.798-2.485-52.924-7.386a7.511 7.511 0 0 0-9.286 5.154 7.51 7.51 0 0 0 5.154 9.286c18.47 5.286 37.666 7.966 57.056 7.966 114.14 0 206.999-92.859 206.999-206.999 0-51.187-18.685-98.085-49.579-134.257l27.339-27.339 1.936 1.938zm-160.768-45.72a208.166 208.166 0 0 0-51.855 0V63.105h51.855v36.518zM213.17 48.085h-14.648V15.02h96.17v33.065H213.17zm196.475 24.016l46.705 46.705-14.17 14.17-46.705-46.705 14.17-14.17zm-15.786 87.571a208.619 208.619 0 0 0-27.058-23.104l28.466-28.466 25.081 25.081-26.489 26.489z"/><path d="M246.607 135.56c-36.083 0-70.529 11.19-99.615 32.361a7.51 7.51 0 0 0 8.838 12.144c26.501-19.29 57.89-29.485 90.776-29.485 85.148 0 154.421 69.273 154.421 154.421s-69.273 154.421-154.421 154.421-154.42-69.273-154.42-154.421c0-33.83 10.734-65.946 31.042-92.878a7.51 7.51 0 1 0-11.992-9.043c-22.288 29.558-34.07 64.802-34.07 101.921 0 93.43 76.011 169.441 169.441 169.441s169.441-76.011 169.441-169.441S340.037 135.56 246.607 135.56z"/><path d="M246.608 277.079c-8.017 0-15.251 3.401-20.348 8.831l-36.508-22.998a7.51 7.51 0 0 0-8.006 12.708l37.535 23.645a27.946 27.946 0 0 0-.595 5.736c0 15.397 12.526 27.922 27.922 27.922 15.397 0 27.922-12.526 27.922-27.922 0-15.397-12.526-27.922-27.922-27.922zm-.001 40.825c-7.114 0-12.903-5.788-12.903-12.903s5.789-12.903 12.903-12.903 12.903 5.788 12.903 12.903-5.787 12.903-12.903 12.903z"/></svg>