<svg xmlns="http://www.w3.org/2000/svg" viewBox="0 0 512.001 512.001"><path d="M296.875 105.949c-17.046-14.205-41.206-23.285-71.809-26.987-24.615-2.979-48.15-1.843-63.56-.366-12.1 1.159-21.224 11.229-21.224 23.424v17.707c0 4.143 3.357 7.5 7.5 7.5s7.5-3.357 7.5-7.5V102.02c0-4.423 3.29-8.074 7.654-8.492 25.78-2.472 89.502-5.086 124.336 23.944a7.5 7.5 0 0 0 9.603-11.523z"/><path d="M300.09 0H195.878c-14.854 0-29.096 6.005-39.526 16.572-27.221 3.685-48.133 27.31-48.133 55.057v22.317c0 12.399 1.525 24.787 4.532 36.816l3.483 13.935v27.951c0 33.99 15.737 64.542 40.081 84.191v26.713c-4.349.514-8.439 2.876-11.074 6.829l-10.349 15.524-54.205 19.711c-21.891 7.959-36.598 28.956-36.598 52.249v70.521c0 4.143 3.357 7.5 7.5 7.5s7.5-3.357 7.5-7.5v-70.521c0-17.008 10.739-32.34 26.724-38.151l51.163-18.605 31.267 43.775a15.483 15.483 0 0 0 12.635 6.499c4.099 0 8.037-1.619 10.964-4.545l4.688-4.688a15.473 15.473 0 0 0 4.395 9.005l-4.517 76.792a7.5 7.5 0 0 0 14.974.881l4.3-73.102h8.49l4.3 73.102a7.5 7.5 0 0 0 14.974-.881l-4.517-76.792a15.48 15.48 0 0 0 4.396-9.005l4.688 4.688a15.48 15.48 0 0 0 12.251 4.492 15.485 15.485 0 0 0 11.346-6.444l34.581-48.412a7.5 7.5 0 0 0 .138-8.52l-11.714-17.571c-2.635-3.955-6.725-6.317-11.075-6.831V257.74a105.538 105.538 0 0 0 9.032-7.907c20.022-19.659 31.049-45.938 31.049-73.994v-31.142l3.483-13.934a151.914 151.914 0 0 0 4.532-36.817V31.549C331.638 14.152 317.485 0 300.09 0zM181.235 356.23a.514.514 0 0 1-.407.15c-.238-.02-.339-.161-.378-.215l-31.571-44.2 8.843-13.265a.514.514 0 0 1 .704-.151l49.533 30.959-26.724 26.722zm46.709 4.496h-16.032a.517.517 0 0 1-.516-.516v-12.925l8.532-8.532 8.532 8.532v12.925h.001a.517.517 0 0 1-.517.516zm-8.015-41.425l-48.613-30.384v-21.973c13.988 7.739 29.86 12.263 46.674 12.571.655.012 1.307.018 1.96.018 17.22-.001 33.795-4.168 48.592-12.044v21.41l.001.019-48.614 30.383zm71.049-7.335l-31.572 44.201c-.038.053-.139.194-.376.214-.251.013-.361-.104-.407-.15l-26.724-26.722 49.533-30.959a.521.521 0 0 1 .703.151l8.843 13.265zm25.66-218.02c0 11.178-1.374 22.341-4.085 33.18l-3.707 14.83a7.53 7.53 0 0 0-.224 1.818v32.064c0 23.998-9.432 46.475-26.559 63.291-17.121 16.812-39.811 25.854-63.8 25.387-47.988-.878-87.029-42.09-87.029-91.868v-28.874c0-.613-.075-1.224-.224-1.818l-3.707-14.831a136.888 136.888 0 0 1-4.085-33.179V71.629c0-20.986 16.387-38.743 37.305-40.425a7.502 7.502 0 0 0 5.011-2.499C173.259 19.995 184.319 15 195.878 15H300.09c9.124 0 16.548 7.424 16.548 16.549v62.397z"/><path d="M111.026 390.168l-4.631-9.264a7.498 7.498 0 0 0-10.062-3.354 7.499 7.499 0 0 0-3.354 10.062l4.631 9.264a24.686 24.686 0 0 1 2.593 10.984v40.527c0 4.143 3.357 7.5 7.5 7.5s7.5-3.357 7.5-7.5V407.86a39.744 39.744 0 0 0-4.177-17.692zM372.234 320.646c-52.757 0-95.677 42.921-95.677 95.677 0 52.757 42.92 95.678 95.677 95.678 52.757 0 95.678-42.921 95.678-95.678s-42.921-95.677-95.678-95.677zm0 176.354c-44.485 0-80.677-36.192-80.677-80.678s36.191-80.677 80.677-80.677c44.486 0 80.678 36.191 80.678 80.677 0 44.486-36.191 80.678-80.678 80.678z"/><path d="M407.506 408.822h-27.771v-27.771c0-4.143-3.357-7.5-7.5-7.5s-7.5 3.357-7.5 7.5v27.771h-27.771c-4.143 0-7.5 3.357-7.5 7.5s3.357 7.5 7.5 7.5h27.771v27.771c0 4.143 3.357 7.5 7.5 7.5s7.5-3.357 7.5-7.5v-27.771h27.771c4.143 0 7.5-3.357 7.5-7.5s-3.358-7.5-7.5-7.5z"/></svg>