<svg xmlns="http://www.w3.org/2000/svg" viewBox="0 0 512.001 512.001"><path d="M165.682 201.095l-32.92-12.345a8.572 8.572 0 0 1-5.536-7.989v-5.831c19.137-10.979 32.065-31.604 32.065-55.204V95.677c0-20.336-9.604-38.461-24.502-50.114.301-1.98.454-3.99.454-5.999C135.243 17.75 117.494 0 95.678 0S56.113 17.75 56.113 39.565c0 2.009.169 4.01.469 5.986-14.906 11.653-24.517 29.782-24.517 50.126v24.048c0 23.6 12.928 44.224 32.065 55.204v5.832a8.573 8.573 0 0 1-5.537 7.989l-32.92 12.345C10.317 206.853 0 221.74 0 238.141v73.973a7.5 7.5 0 0 0 15 0v-73.973c0-1.289.104-2.562.303-3.812l11.915 11.915a16.445 16.445 0 0 1 4.847 11.702v54.167a7.5 7.5 0 0 0 15 0v-54.167c0-8.427-3.282-16.35-9.24-22.309l-15.221-15.219a24.385 24.385 0 0 1 8.335-5.277l27.141-10.178 30.097 30.097v77.055a7.5 7.5 0 0 0 15 0V235.06l30.096-30.096 27.141 10.178a24.405 24.405 0 0 1 8.336 5.277l-15.22 15.22c-5.958 5.959-9.24 13.882-9.24 22.309v54.167a7.5 7.5 0 0 0 15 0v-54.167a16.44 16.44 0 0 1 4.847-11.702l11.915-11.914a24.33 24.33 0 0 1 .303 3.811v73.973a7.5 7.5 0 0 0 15 0v-73.975c0-16.4-10.317-31.288-25.673-37.046zM95.678 15c12.661 0 23.113 9.629 24.423 21.947-7.525-3.141-15.774-4.883-24.424-4.883s-16.899 1.742-24.423 4.883C72.565 24.63 83.018 15 95.678 15zM47.065 95.677c0-26.804 21.808-48.612 48.613-48.612s48.613 21.808 48.613 48.613v8.235c-34.919-2.646-68.448-22.47-68.803-22.682a7.5 7.5 0 0 0-10.567 3.077c-3.384 6.768-11.111 12.243-17.856 15.876v-4.507zm0 24.05v-2.909c6.887-2.974 19.127-9.28 27.038-19.223 12.215 6.393 40.339 19.39 70.188 21.356v.776c0 26.806-21.808 48.613-48.613 48.613-26.805-.001-48.613-21.809-48.613-48.613zm48.613 101.618l-23.719-23.718c4.381-4.269 7.053-10.172 7.156-16.489a63.43 63.43 0 0 0 33.125 0c.103 6.316 2.775 12.219 7.156 16.489l-23.718 23.718zM488.503 368.941l-43.583-19.37a8.54 8.54 0 0 1-5.067-7.797v-11.968c14.64-11.665 24.05-29.628 24.05-49.758v-16.847c4.823-2.665 8.016-7.815 8.016-13.583v-1.635c0-35.077-28.537-63.613-63.613-63.613h-16.032c-35.076 0-63.613 28.536-63.613 63.613v14.835c0 5.07 2.182 9.663 5.985 12.602.645.498 1.324.936 2.031 1.315v3.312c0 20.13 9.409 38.093 24.048 49.757v11.969a8.54 8.54 0 0 1-5.067 7.797l-43.583 19.37c-14.273 6.344-23.496 20.535-23.496 36.154V504.5a7.5 7.5 0 0 0 15 0v-99.404c0-.869.062-1.727.152-2.579l20.082 20.082a16.437 16.437 0 0 1 4.847 11.701v70.2a7.5 7.5 0 0 0 15 0v-70.2c0-8.427-3.282-16.35-9.241-22.308L310.48 388.05a24.5 24.5 0 0 1 7.689-5.402l42.847-19.043 31.775 31.775V504.5a7.5 7.5 0 0 0 15 0V395.381l31.775-31.775 42.846 19.042a24.493 24.493 0 0 1 7.69 5.402l-23.941 23.941c-5.958 5.958-9.24 13.881-9.24 22.308v70.2a7.5 7.5 0 0 0 15 0v-70.2c0-4.42 1.721-8.576 4.847-11.701l20.081-20.082c.09.852.152 1.71.152 2.579V504.5a7.5 7.5 0 0 0 15 0v-99.404c-.001-15.619-9.224-29.811-23.498-36.155zm-88.212 12.726l-27.882-27.882a23.492 23.492 0 0 0 3.318-12.011v-3.052c7.562 3.178 15.861 4.939 24.564 4.939s17.001-1.76 24.563-4.938v3.051c0 4.318 1.197 8.444 3.318 12.012l-27.881 27.881zm-.001-53.006c-26.805 0-48.612-21.807-48.612-48.613v-3.374c4.68-1.855 9.248-4.806 13.62-8.842a7.5 7.5 0 0 0-10.174-11.023c-3.751 3.463-7.499 5.7-11.137 6.65a1.306 1.306 0 0 1-.199.037c-.054-.104-.127-.325-.127-.678v-14.835c0-26.805 21.808-48.613 48.613-48.613h16.032c26.805 0 48.613 21.808 48.613 48.613v1.635c0 .243-.145.455-.338.493-44.914 8.869-67.437-7.848-75.036-15.447a7.5 7.5 0 0 0-10.606 0 7.5 7.5 0 0 0 0 10.606c23.289 23.29 57.274 23.709 77.964 21.224v13.554c0 26.805-21.808 48.613-48.613 48.613zM271.445 453.766a7.496 7.496 0 0 0-8.445-6.419 171.102 171.102 0 0 1-23.032 1.557c-34.653 0-67.949-10.417-96.289-30.126-22.565-15.693-40.752-36.337-53.333-60.369l18.775 12.548a7.5 7.5 0 0 0 8.335-12.47l-38.861-25.974a7.5 7.5 0 0 0-11.63 5.493l-4.63 46.512a7.5 7.5 0 0 0 7.472 8.244 7.501 7.501 0 0 0 7.454-6.758l1.706-17.14c13.603 24.668 32.691 45.916 56.148 62.229 30.866 21.466 67.124 32.812 104.854 32.812 8.381 0 16.812-.57 25.058-1.694a7.5 7.5 0 0 0 6.418-8.445zM380.547 160.101l-14.823-44.329a7.498 7.498 0 0 0-9.491-4.734 7.5 7.5 0 0 0-4.734 9.491l6.077 18.173c-13.008-10.852-27.41-19.812-43.024-26.75-23.534-10.457-48.627-15.759-74.583-15.759-20.013 0-39.695 3.198-58.499 9.504a7.5 7.5 0 0 0 4.769 14.223c17.264-5.79 35.341-8.726 53.729-8.726 39.708 0 78.221 14.188 108.44 39.455l-19.815-3.346a7.5 7.5 0 0 0-2.497 14.791l46.089 7.781a7.501 7.501 0 0 0 8.362-9.774z"/></svg>