<svg xmlns="http://www.w3.org/2000/svg" viewBox="0 0 512.001 512.001"><path d="M175.839 404.814a7.5 7.5 0 0 0-7.5 7.5v32.064a7.5 7.5 0 0 0 15 0v-32.064a7.5 7.5 0 0 0-7.5-7.5zM336.161 404.814a7.5 7.5 0 0 0-7.5 7.5v32.064a7.5 7.5 0 0 0 15 0v-32.064a7.5 7.5 0 0 0-7.5-7.5zM115.063 245.284c-17.416-8.708-50.069-8.808-51.451-8.808a7.5 7.5 0 0 0-.002 15c8.438.005 32.923 1.313 44.745 7.224a7.502 7.502 0 0 0 6.708-13.416zM39.564 388.782a7.5 7.5 0 0 0-7.5 7.5v48.097a7.5 7.5 0 0 0 15 0v-48.097a7.5 7.5 0 0 0-7.5-7.5z"/><path d="M494.56 360.772l-30.372-15.184a.515.515 0 0 1-.286-.462l.002-15.265c12.468-8.585 21.293-22.157 23.501-38.085 5.608-9.691 8.563-20.637 8.563-31.767 0-20.755-9.994-39.217-25.419-50.835a32.187 32.187 0 0 0 1.371-9.286c0-19.606-17.749-35.557-39.564-35.557s-39.564 15.951-39.564 35.557c0 3.173.462 6.28 1.366 9.289a63.936 63.936 0 0 0-20.815 27.126c-1.859-18.269-3.795-39.866-5.652-65.024-2.45-33.194-14.388-61.226-34.522-81.064C313.188 70.527 286.503 60.121 256 60.121s-57.188 10.406-77.167 30.093c-20.134 19.839-32.072 47.871-34.522 81.064a2659.702 2659.702 0 0 1-1.974 25.117H71.629c-26.236 0-47.581 21.345-47.581 47.581v.447c0 6.11 1.444 12.229 4.177 17.694l3.839 7.679v12.245c0 19.406 9.563 36.819 24.048 47.298v10.832a3.141 3.141 0 0 1-2.268 3.007l-30.963 8.847C9.409 355.873 0 368.347 0 382.358v62.021a7.5 7.5 0 0 0 15 0v-62.021c0-7.35 4.936-13.893 12.002-15.912l30.964-8.847a17.81 17.81 0 0 0 3.188-1.266l19.007 19.007v69.039a7.5 7.5 0 0 0 15 0V375.34l19.14-19.14c2.558 1.255 5.107 1.985 6.975 2.519l7.603 2.172c-10.303 7.326-16.653 19.275-16.653 32.232v51.254a7.5 7.5 0 0 0 15 0v-51.254a24.577 24.577 0 0 1 14.641-22.47l42.88-18.939a79.55 79.55 0 0 0 71.254 44.051c30.472 0 57.838-17.104 71.267-44.045l42.867 18.933a24.577 24.577 0 0 1 14.641 22.47v51.254a7.5 7.5 0 0 0 15 0v-51.254c0-9.594-3.487-18.632-9.472-25.658l11.607-5.803 8.713 8.28a31.454 31.454 0 0 0 21.733 8.686c7.818 0 15.64-2.896 21.732-8.686l8.712-8.279 25.052 12.525c5.643 2.821 9.148 8.493 9.148 14.802v55.388a7.5 7.5 0 0 0 15 0V388.99c-.001-12.026-6.684-22.839-17.441-28.218zM432.355 179.33c13.544 0 24.564 9.222 24.564 20.557 0 .475-.038.946-.076 1.416a63.256 63.256 0 0 0-24.488-4.908 63.25 63.25 0 0 0-24.484 4.907c-.039-.47-.08-.94-.08-1.415 0-11.335 11.02-20.557 24.564-20.557zM87.662 361.628l-17.09-17.09c.353-1.408.542-2.873.542-4.368v-3.164a52.542 52.542 0 0 0 16.569 2.648 55.7 55.7 0 0 0 16.525-2.498v3.011c0 1.627.167 3.103.464 4.451l-17.01 17.01zm-1.255-36.995c-21.694-.649-39.343-19.757-39.343-42.592v-14.016a7.496 7.496 0 0 0-.792-3.354l-4.631-9.262a24.7 24.7 0 0 1-2.593-10.986v-.447c0-17.965 14.616-32.581 32.581-32.581h64.646v31.135c0 5.031-1.189 10.07-3.44 14.57l-3.785 7.57a7.499 7.499 0 0 0-.792 3.354v16.032c0 11.074-4.378 21.422-12.328 29.136-7.946 7.71-18.437 11.777-29.523 11.441zm62.683 26.432l-23.693-6.769c-6.19-1.768-6.189-2.458-6.189-4.127l.002-10.333a56.309 56.309 0 0 0 7.168-5.879 56.577 56.577 0 0 0 4.24-4.611 15.378 15.378 0 0 0 5.439 6.124c6.012 3.893 17.357 10.36 34.041 16.316l-21.008 9.279zM256 380.766a64.581 64.581 0 0 1-57.523-35.115l10.917-4.822a23.544 23.544 0 0 0 14.025-21.526v-17.996c10.077 4.049 21.073 6.282 32.581 6.282s22.503-2.233 32.581-6.282v17.996a23.543 23.543 0 0 0 14.025 21.526l10.915 4.821c-11.013 21.499-33.028 35.116-57.521 35.116zm65.034-48.196l-12.368-5.463a8.536 8.536 0 0 1-5.085-7.805v-25.785c24.102-15.637 40.081-42.782 40.081-73.59v-14.063c0-9.14-3.886-17.762-10.662-23.654-15.069-13.106-49.18-35.977-108.318-41.891a7.5 7.5 0 1 0-1.492 14.926c55.005 5.5 86.242 26.347 99.967 38.284 3.499 3.042 5.505 7.539 5.505 12.335v14.063c0 40.065-32.596 72.661-72.661 72.661s-72.661-32.596-72.661-72.661v-6.274c0-2.882 1.598-5.522 4.274-7.063 9.377-5.399 21.743-15.401 27.406-32.388a7.5 7.5 0 0 0-14.231-4.743c-4.172 12.516-13.538 20.031-20.66 24.132-7.272 4.187-11.79 11.875-11.79 20.063v6.274c0 30.809 15.978 57.953 40.081 73.59v25.785a8.537 8.537 0 0 1-5.085 7.805l-12.369 5.463c-24.156-6.463-39.634-15.08-46.757-19.691-.142-.092-.222-.197-.182-.434 2.616-15.464 9.338-60.069 15.244-140.063 2.178-29.515 12.583-54.235 30.09-71.485C206.476 84.035 229.519 75.121 256 75.121s49.524 8.914 66.639 25.777c17.507 17.25 27.912 41.969 30.091 71.484 5.905 79.991 12.627 124.598 15.244 140.063.04.238-.04.343-.183.435-7.133 4.617-22.611 13.229-46.757 19.69zm79.773 12.555a.513.513 0 0 1-.285.462l-23.498 11.749c-.279-.131-.547-.278-.829-.403l-34.291-15.145c16.676-5.954 28.019-12.418 34.039-16.316a15.417 15.417 0 0 0 6.821-15.528l-.177-1.058a55.478 55.478 0 0 0 18.22 20.975v15.264zm42.946 13.945c-6.391 6.076-16.405 6.075-22.798 0l-6.971-6.624a15.52 15.52 0 0 0 1.822-7.321v-7.981a55.758 55.758 0 0 0 16.548 2.509c5.753 0 11.31-.884 16.547-2.509l-.001 7.979c0 2.619.646 5.119 1.823 7.324l-6.97 6.623zm-11.398-34.418c-20.766 0-38.11-15.55-40.343-36.171a7.503 7.503 0 0 0-1.065-3.117c-4.714-7.677-7.205-16.445-7.205-25.357 0-26.804 21.807-48.612 48.613-48.612 26.805 0 48.613 21.808 48.613 48.613a48.12 48.12 0 0 1-2.466 15.171c-21.296-21.635-58.759-30.114-60.565-30.512a7.503 7.503 0 0 0-9.114 7.324c0 .049-.342 5.252-5.819 10.729a7.5 7.5 0 0 0 0 10.606 7.5 7.5 0 0 0 10.606 0c4.218-4.218 6.696-8.499 8.15-12.114 12.62 3.749 38.813 13.217 50.568 29.836-3.336 19.329-20.08 33.604-39.973 33.604z"/><path d="M472.436 398.692a7.5 7.5 0 0 0-7.5 7.5v38.187a7.5 7.5 0 0 0 15 0v-38.187a7.5 7.5 0 0 0-7.5-7.5z"/></svg>