<svg xmlns="http://www.w3.org/2000/svg" viewBox="0 0 512.001 512.001"><path d="M115.718 408.822a7.499 7.499 0 0 0-7.5 7.5v32.064c0 4.143 3.357 7.5 7.5 7.5s7.5-3.357 7.5-7.5v-32.064a7.5 7.5 0 0 0-7.5-7.5z"/><path d="M359.736 287.906c-7.037-40.896-13.008-94.175-17.746-158.357-2.858-38.728-16.768-71.414-40.224-94.525C278.516 12.11 247.442 0 211.911 0s-66.604 12.11-89.855 35.022C98.6 58.134 84.69 90.82 81.833 129.548c-4.739 64.182-10.71 117.462-17.747 158.356-1.137 6.605 1.8 13.211 7.483 16.828 7.504 4.776 31.776 15.377 54.13 23.573l-47.914 20.534a55.533 55.533 0 0 0-33.696 51.102v48.446c0 4.143 3.357 7.5 7.5 7.5s7.5-3.357 7.5-7.5V399.94a40.551 40.551 0 0 1 24.604-37.314l25.71-11.018c20.56 39.711 59.468 64.199 102.508 64.199 15.489 0 30.535-3.135 44.72-9.317a7.498 7.498 0 0 0 3.879-9.871 7.497 7.497 0 0 0-9.871-3.879c-12.283 5.353-25.313 8.067-38.728 8.067-37.016 0-70.571-21.004-88.668-55.13l14.785-6.336a83.57 83.57 0 0 0 73.883 44.401c17.225 0 33.769-5.195 47.843-15.023 13.405-9.361 23.661-22.255 29.744-37.338 24.346-8.388 54.22-21.216 62.753-26.647 5.684-3.616 8.622-10.223 7.485-16.828zm-147.825 80.836a68.59 68.59 0 0 1-60.039-35.335l.322-.138a31.515 31.515 0 0 0 19.12-28.998v-25.004c12.475 5.328 26.197 8.281 40.597 8.281 14.4 0 28.122-2.953 40.597-8.281v25.004a31.513 31.513 0 0 0 19.122 28.998l.305.131c-11.982 21.459-35.045 35.342-60.024 35.342zm132.287-76.663c-7.696 4.897-41.132 19.308-66.563 27.445l-.097-.041a16.53 16.53 0 0 1-10.03-15.211v-32.924c28.894-18.425 48.097-50.758 48.097-87.493V171.39c0-10.823-4.48-21.303-12.293-28.75-41.016-39.096-127.252-46.144-130.903-46.424-4.109-.332-7.732 2.771-8.052 6.9a7.501 7.501 0 0 0 6.899 8.055c.841.065 84.573 6.932 121.706 42.326 4.856 4.63 7.643 11.151 7.643 17.893v12.465c0 48.906-39.788 88.694-88.693 88.694s-88.693-39.788-88.693-88.694v-6.122c0-3.03 1.535-5.752 4.104-7.279 10.065-5.983 24.34-17.669 35.185-39.356a7.5 7.5 0 1 0-13.417-6.709c-9.704 19.407-22.605 29.113-29.434 33.172-7.056 4.195-11.439 11.925-11.439 20.173v6.122c0 36.736 19.203 69.068 48.097 87.493v32.924c0 6.629-3.938 12.6-10.029 15.211l-.097.042c-25.436-8.148-58.918-22.581-66.566-27.448-.602-.383-.869-.961-.754-1.63 7.118-41.37 13.148-95.133 17.922-159.797 2.588-35.048 14.964-64.422 35.792-84.944C152.971 25.618 180.401 15 211.911 15s58.94 10.618 79.328 30.707c20.828 20.522 33.204 49.896 35.792 84.944 4.773 64.664 10.804 118.427 17.922 159.797.148.856-.328 1.359-.755 1.631z"/><path d="M372.234 320.646c-52.757 0-95.677 42.921-95.677 95.677 0 52.757 42.92 95.678 95.677 95.678 52.757 0 95.678-42.921 95.678-95.678-.001-52.757-42.922-95.677-95.678-95.677zm0 176.354c-44.485 0-80.677-36.192-80.677-80.678s36.191-80.677 80.677-80.677c44.486 0 80.678 36.191 80.678 80.677-.001 44.486-36.191 80.678-80.678 80.678z"/><path d="M425.635 386.971a7.502 7.502 0 0 0-10.607 0l-50.81 50.81-26.761-26.762a7.5 7.5 0 0 0-10.607 10.607l32.064 32.064a7.48 7.48 0 0 0 5.304 2.196 7.481 7.481 0 0 0 5.304-2.196l56.113-56.112a7.502 7.502 0 0 0 0-10.607z"/></svg>