<?xml version="1.0" encoding="iso-8859-1"?>
<!-- Generator: Adobe Illustrator 19.0.0, SVG Export Plug-In . SVG Version: 6.00 Build 0)  -->
<svg version="1.1" id="Capa_1" xmlns="http://www.w3.org/2000/svg" xmlns:xlink="http://www.w3.org/1999/xlink" x="0px" y="0px"
	 viewBox="0 0 512.002 512.002" style="enable-background:new 0 0 512.002 512.002;" xml:space="preserve">
<g>
	<g>
		<path d="M232.908,401.421h-16.065c-4.159,0-7.53,3.372-7.53,7.53c0,4.159,3.372,7.53,7.53,7.53h16.065
			c4.159,0,7.53-3.372,7.53-7.53C240.438,404.793,237.066,401.421,232.908,401.421z"/>
	</g>
</g>
<g>
	<g>
		<path d="M286.456,401.421h-16.065c-4.16,0-7.53,3.372-7.53,7.53c0,4.159,3.371,7.53,7.53,7.53h16.065
			c4.159,0,7.53-3.372,7.53-7.53C293.986,404.793,290.616,401.421,286.456,401.421z"/>
	</g>
</g>
<g>
	<g>
		<path d="M340.005,401.421H323.94c-4.16,0-7.53,3.372-7.53,7.53c0,4.159,3.371,7.53,7.53,7.53h16.065c4.159,0,7.53-3.372,7.53-7.53
			C347.535,404.793,344.165,401.421,340.005,401.421z"/>
	</g>
</g>
<g>
	<g>
		<path d="M393.553,401.421h-16.065c-4.16,0-7.53,3.372-7.53,7.53c0,4.159,3.371,7.53,7.53,7.53h16.065
			c4.159,0,7.53-3.372,7.53-7.53C401.083,404.793,397.713,401.421,393.553,401.421z"/>
	</g>
</g>
<g>
	<g>
		<path d="M469.613,366.563c-0.077,0-0.153,0.005-0.23,0.006c-0.077,0-0.153-0.006-0.23-0.006H245.457
			c-4.159,0-7.53,3.372-7.53,7.53s3.372,7.53,7.53,7.53h191.789c-6.245,7.385-10.02,16.921-10.02,27.327s3.776,19.942,10.02,27.327
			H192.323l-17.848-54.655h23.794c4.159,0,7.53-3.372,7.53-7.53s-3.372-7.53-7.53-7.53h-28.711l-49.595-151.867h115.251
			c16.168,0,29.321-13.154,29.321-29.321c0-16.167-13.154-29.321-29.321-29.321h-35.439c-4.159,0-7.53,3.372-7.53,7.53
			s3.372,7.53,7.53,7.53h35.439c7.864,0,14.26,6.398,14.26,14.26c0,7.863-6.398,14.26-14.26,14.26H115.044l-9.313-28.521h21.075
			h26.282c4.159,0,7.53-3.372,7.53-7.53s-3.372-7.53-7.53-7.53h-21.825L68.276,41.293c-5.115-9.318-14.894-15.107-25.524-15.107
			c-10.437,0-19.823,5.374-25.107,14.373c-5.285,9-5.404,19.815-0.319,28.928l29.747,53.323c-5.369,1.944-10.077,5.462-13.573,10.28
			c-5.541,7.639-7.039,17.164-4.109,26.135L97.1,366.563H42.388C19.015,366.563,0,385.579,0,408.951s19.015,42.387,42.388,42.387
			H59.5v21.926c0,6.921,5.63,12.55,12.55,12.55h50.366c6.921,0,12.55-5.63,12.55-12.55v-21.926h51.893h190.173v21.926
			c0,6.921,5.63,12.55,12.55,12.55h50.365c6.921,0,12.55-5.63,12.55-12.55v-21.926h16.654c0.077,0,0.153-0.005,0.23-0.006
			c0.077,0,0.153,0.006,0.23,0.006c23.373,0,42.388-19.014,42.388-42.387S492.986,366.563,469.613,366.563z M42.388,436.278
			c-15.069,0-27.328-12.259-27.328-27.327c0-15.068,12.259-27.327,27.328-27.327s27.327,12.258,27.327,27.327
			C69.715,424.02,57.457,436.278,42.388,436.278z M30.477,62.15c-2.455-4.4-2.397-9.621,0.154-13.965
			c2.551-4.344,7.082-6.939,12.121-6.939c5.132,0,9.853,2.794,12.321,7.292l59.008,107.514h-13.269l-1.391-4.259
			c-5.312-16.267-19.26-27.802-35.802-30.237L30.477,62.15z M74.754,381.625h27.264l17.848,54.654H74.754
			c6.245-7.385,10.02-16.921,10.02-27.327S80.998,389.009,74.754,381.625z M119.907,470.755H74.561v-18.349h45.346V470.755z
			 M135.709,436.277L135.709,436.277L43.708,154.549c-1.414-4.33-0.691-8.929,1.984-12.617c2.675-3.687,6.821-5.802,11.378-5.802
			c12.797,0,24.064,8.174,28.036,20.338l91.374,279.809H135.709z M437.439,470.755h-45.345v-18.349h45.345V470.755z
			 M469.383,436.272c-14.962-0.125-27.097-12.33-27.097-27.321c0-14.991,12.135-27.197,27.097-27.321
			c14.963,0.123,27.097,12.329,27.097,27.321C496.48,423.943,484.345,436.149,469.383,436.272z"/>
	</g>
</g>
<g>
</g>
<g>
</g>
<g>
</g>
<g>
</g>
<g>
</g>
<g>
</g>
<g>
</g>
<g>
</g>
<g>
</g>
<g>
</g>
<g>
</g>
<g>
</g>
<g>
</g>
<g>
</g>
<g>
</g>
</svg>
