<svg xmlns="http://www.w3.org/2000/svg" viewBox="0 0 512.002 512.002"><path d="M232.908 401.421h-16.065a7.53 7.53 0 0 0 0 15.06h16.065a7.53 7.53 0 0 0 0-15.06zM286.456 401.421h-16.065a7.53 7.53 0 0 0-7.53 7.53 7.53 7.53 0 0 0 7.53 7.53h16.065a7.53 7.53 0 0 0 0-15.06zM340.005 401.421H323.94a7.53 7.53 0 0 0-7.53 7.53 7.53 7.53 0 0 0 7.53 7.53h16.065a7.53 7.53 0 0 0 0-15.06zM393.553 401.421h-16.065a7.53 7.53 0 0 0-7.53 7.53 7.53 7.53 0 0 0 7.53 7.53h16.065a7.53 7.53 0 0 0 0-15.06z"/><path d="M469.613 366.563c-.077 0-.153.005-.23.006-.077 0-.153-.006-.23-.006H245.457a7.53 7.53 0 0 0 0 15.06h191.789c-6.245 7.385-10.02 16.921-10.02 27.327s3.776 19.942 10.02 27.327H192.323l-17.848-54.655h23.794a7.53 7.53 0 0 0 0-15.06h-28.711l-49.595-151.867h115.251c16.168 0 29.321-13.154 29.321-29.321s-13.154-29.321-29.321-29.321h-35.439a7.53 7.53 0 0 0 0 15.06h35.439c7.864 0 14.26 6.398 14.26 14.26 0 7.863-6.398 14.26-14.26 14.26h-120.17l-9.313-28.521h47.357a7.53 7.53 0 0 0 0-15.06h-21.825L68.276 41.293a29.112 29.112 0 0 0-25.524-15.107c-10.437 0-19.823 5.374-25.107 14.373-5.285 9-5.404 19.815-.319 28.928l29.747 53.323c-5.369 1.944-10.077 5.462-13.573 10.28-5.541 7.639-7.039 17.164-4.109 26.135L97.1 366.563H42.388C19.015 366.563 0 385.579 0 408.951s19.015 42.387 42.388 42.387H59.5v21.926c0 6.921 5.63 12.55 12.55 12.55h50.366c6.921 0 12.55-5.63 12.55-12.55v-21.926h242.066v21.926c0 6.921 5.63 12.55 12.55 12.55h50.365c6.921 0 12.55-5.63 12.55-12.55v-21.926h16.654c.077 0 .153-.005.23-.006.077 0 .153.006.23.006 23.373 0 42.388-19.014 42.388-42.387s-19.013-42.388-42.386-42.388zM42.388 436.278c-15.069 0-27.328-12.259-27.328-27.327 0-15.068 12.259-27.327 27.328-27.327s27.327 12.258 27.327 27.327c0 15.069-12.258 27.327-27.327 27.327zM30.477 62.15c-2.455-4.4-2.397-9.621.154-13.965 2.551-4.344 7.082-6.939 12.121-6.939a14.05 14.05 0 0 1 12.321 7.292l59.008 107.514h-13.269l-1.391-4.259a44.433 44.433 0 0 0-35.802-30.237L30.477 62.15zm44.277 319.475h27.264l17.848 54.654H74.754c6.245-7.385 10.02-16.921 10.02-27.327s-3.776-19.943-10.02-27.327zm45.153 89.13H74.561v-18.349h45.346v18.349zm15.802-34.478L43.708 154.549c-1.414-4.33-.691-8.929 1.984-12.617 2.675-3.687 6.821-5.802 11.378-5.802a29.427 29.427 0 0 1 28.036 20.338l91.374 279.809h-40.771zm301.73 34.478h-45.345v-18.349h45.345v18.349zm31.944-34.483c-14.962-.125-27.097-12.33-27.097-27.321 0-14.991 12.135-27.197 27.097-27.321 14.963.123 27.097 12.329 27.097 27.321s-12.135 27.198-27.097 27.321z"/></svg>