<svg xmlns="http://www.w3.org/2000/svg" viewBox="0 0 512 512"><path d="M434.834 197.918c14.616-10.1 24.216-26.963 24.216-46.032v-41.709c0-30.838-25.089-55.926-55.927-55.926s-55.926 25.089-55.926 55.926v41.709c0 19.07 9.6 35.933 24.216 46.032-24.498 7.724-45.578 23.668-59.486 44.187v-12.526c0-30.838-25.089-55.926-55.927-55.926s-55.926 25.089-55.926 55.926v12.526c-13.908-20.518-34.989-36.463-59.487-44.187 14.616-10.1 24.216-26.963 24.216-46.032v-41.708c0-30.838-25.088-55.926-55.927-55.926-27.947 0-51.172 20.605-55.281 47.421a56.131 56.131 0 0 0-.645 8.505v41.708c0 19.07 9.601 35.933 24.216 46.032C33.047 211.827 0 252.401 0 298.331v32.56c0 4.12 3.34 7.459 7.459 7.459h40.518a7.459 7.459 0 1 0 0-14.918H14.918v-25.101c0-23.545 10.058-46.066 28.32-63.418 10.652-10.12 23.493-17.706 37.203-22.265l8.912 17.314L76.466 285.9a7.458 7.458 0 0 0 2.233 7.177l25.141 23.01c1.425 1.304 3.23 1.957 5.035 1.957s3.61-.652 5.035-1.957l25.14-23.01a7.461 7.461 0 0 0 2.233-7.177l-12.886-55.937 8.912-17.315c13.71 4.559 26.551 12.144 37.204 22.265 13.404 12.735 22.38 28.257 26.212 44.923.239 1.551.555 3.076.919 4.582a82.33 82.33 0 0 1 1.188 13.913v25.101H72.839a7.46 7.46 0 0 0 0 14.918h113c-23.526 19.576-38.716 48.246-38.716 79.38v32.56c0 4.12 3.34 7.459 7.459 7.459H195.1a7.459 7.459 0 1 0 0-14.918h-33.058V417.73c0-23.545 10.058-46.066 28.32-63.418 10.652-10.12 23.493-17.706 37.203-22.265l8.912 17.315-12.886 55.937a7.459 7.459 0 0 0 2.233 7.177l25.141 23.011a7.44 7.44 0 0 0 5.035 1.957 7.438 7.438 0 0 0 5.036-1.957l25.14-23.011a7.461 7.461 0 0 0 2.233-7.177l-12.886-55.937 8.912-17.315c13.71 4.559 26.551 12.144 37.203 22.265 18.262 17.351 28.32 39.873 28.32 63.418v25.101H219.963a7.459 7.459 0 1 0 0 14.918h137.454a7.459 7.459 0 0 0 7.459-7.459v-32.56c0-31.135-15.19-59.805-38.715-79.38h38.146a7.459 7.459 0 1 0 0-14.918h-55.14V298.33c0-4.692.406-9.342 1.19-13.92.362-1.501.677-3.02.915-4.565 3.83-16.67 12.808-32.195 26.214-44.933 10.653-10.12 23.494-17.706 37.204-22.265l8.912 17.314-12.886 55.939a7.459 7.459 0 0 0 2.233 7.177l25.14 23.01a7.431 7.431 0 0 0 5.035 1.957 7.434 7.434 0 0 0 5.035-1.957l25.141-23.01a7.46 7.46 0 0 0 2.233-7.177l-12.886-55.938 8.912-17.314c13.71 4.559 26.551 12.145 37.203 22.265 18.262 17.351 28.32 39.873 28.32 63.418v25.101H389.171a7.46 7.46 0 0 0 0 14.918h115.37a7.459 7.459 0 0 0 7.459-7.459v-32.56c0-45.93-33.047-86.504-77.166-100.413zM67.867 110.177c0-22.612 18.396-41.008 41.009-41.008s41.009 18.396 41.009 41.008v12.478c-17.274-4.261-24.383-22.043-24.706-22.872a7.457 7.457 0 0 0-13.539-.899c-.123.23-11.931 21.413-43.773 24.35v-13.057zm41.01 190.295l-16.895-15.463 11.19-48.574h11.41l11.19 48.574-16.895 15.463zm-13.563-91.525a92.489 92.489 0 0 1 4.378-.611c.207-.024.414-.044.621-.067 1.16-.126 2.32-.227 3.482-.309.322-.023.644-.049.967-.068a85.396 85.396 0 0 1 2.858-.113c.419.009.834.032 1.255.032.421 0 .836-.023 1.255-.032.953.027 1.906.056 2.857.113.323.019.645.046.969.068 1.162.083 2.321.183 3.48.309.208.022.416.043.624.067 1.462.169 2.921.372 4.376.611l-6.468 12.569h-14.184l-6.47-12.569zm15.195-16.095c-.509-.014-1.018-.033-1.53-.04a3.435 3.435 0 0 0-.203 0h-.001c-.511.007-1.019.026-1.53.04-21.859-.861-39.378-18.902-39.378-40.967v-13.681c25.382-1.934 40.976-13.502 49.279-22.244 5.816 8.511 16.244 19.304 32.739 21.929v13.996c.001 22.065-17.518 40.106-39.376 40.967zm104.481 36.726c.001-22.612 18.398-41.008 41.01-41.008 4.24 0 8.331.646 12.181 1.847 16.682 5.2 28.827 20.789 28.827 39.162v12.478c-17.273-4.261-24.383-22.042-24.705-22.872a7.457 7.457 0 0 0-6.481-4.799 7.478 7.478 0 0 0-7.058 3.901c-.124.23-11.931 21.413-43.773 24.35v-13.059zm2.762 90.03v-7.574a56.32 56.32 0 0 0 6.537 5.284 112.53 112.53 0 0 0-6.537 2.29zM256 419.873l-16.895-15.464 11.191-48.574h11.41l11.19 48.574L256 419.873zm-13.56-91.525a92.489 92.489 0 0 1 4.378-.611c.207-.024.414-.044.621-.067 1.16-.126 2.32-.227 3.482-.309.322-.023.644-.049.967-.068a88.154 88.154 0 0 1 2.858-.113c.419.009.834.032 1.255.032s.836-.023 1.255-.032c.953.028 1.906.056 2.857.113.322.019.645.046.968.068 1.162.083 2.322.183 3.48.309.208.022.416.043.624.067 1.462.17 2.922.372 4.376.611l-6.469 12.57h-14.183l-6.469-12.57zm51.808-8.74a111.02 111.02 0 0 0-6.537-2.29 56.329 56.329 0 0 0 6.537-5.285v7.575zm2.761-48.322c0 2.105-.16 4.173-.467 6.194a96.589 96.589 0 0 0-.714 3.56c-4.266 17.407-19.667 30.482-38.195 31.212-.51-.014-1.018-.033-1.53-.04a3.435 3.435 0 0 0-.203 0c-.511.007-1.02.026-1.53.04-18.524-.729-33.925-13.799-38.193-31.203a96.933 96.933 0 0 0-.717-3.574 41.176 41.176 0 0 1-.467-6.19v-13.68c25.382-1.934 40.976-13.502 49.279-22.244 5.816 8.51 16.244 19.303 32.738 21.929v13.996zm65.106-161.109c0-22.612 18.396-41.008 41.008-41.008s41.009 18.396 41.009 41.008v12.478c-17.273-4.262-24.384-22.043-24.705-22.872a7.457 7.457 0 0 0-13.539-.898c-.124.23-11.93 21.413-43.772 24.35v-13.058zm41.008 190.295l-16.895-15.463 11.19-48.574h11.41l11.19 48.574-16.895 15.463zm-13.56-91.525a92.588 92.588 0 0 1 4.376-.611c.208-.024.416-.045.624-.067a92.468 92.468 0 0 1 3.48-.309c.323-.023.645-.049.969-.068a87.98 87.98 0 0 1 2.857-.113c.419.009.834.032 1.255.032.421 0 .836-.023 1.255-.032.953.027 1.906.056 2.858.113.322.019.645.046.968.068 1.162.083 2.323.183 3.482.309.207.022.414.043.621.067 1.463.17 2.922.372 4.378.611l-6.469 12.569h-14.183l-6.471-12.569zm15.191-16.095c-.509-.014-1.018-.033-1.53-.04a3.435 3.435 0 0 0-.203 0h-.001c-.511.007-1.019.026-1.53.04-21.857-.861-39.376-18.902-39.376-40.967v-13.681c25.381-1.934 40.975-13.502 49.278-22.244 5.816 8.511 16.244 19.304 32.739 21.929v13.996c.001 22.065-17.519 40.106-39.377 40.967z"/></svg>