<?xml version="1.0" encoding="iso-8859-1"?>
<!-- Generator: Adobe Illustrator 19.0.0, SVG Export Plug-In . SVG Version: 6.00 Build 0)  -->
<svg version="1.1" id="Layer_1" xmlns="http://www.w3.org/2000/svg" xmlns:xlink="http://www.w3.org/1999/xlink" x="0px" y="0px"
	 viewBox="0 0 512 512" style="enable-background:new 0 0 512 512;" xml:space="preserve">
<g>
	<g>
		<path d="M434.834,197.918c14.616-10.1,24.216-26.963,24.216-46.032v-20.861v-20.848c0-30.838-25.089-55.926-55.927-55.926
			c-30.838,0-55.926,25.089-55.926,55.926v20.854v20.855c0,19.07,9.6,35.933,24.216,46.032
			c-24.498,7.724-45.578,23.668-59.486,44.187v-12.526c0-30.838-25.089-55.926-55.927-55.926c-30.838,0-55.926,25.089-55.926,55.926
			v12.526c-13.908-20.518-34.989-36.463-59.487-44.187c14.616-10.1,24.216-26.963,24.216-46.032v-41.708
			c0-30.838-25.088-55.926-55.927-55.926c-27.947,0-51.172,20.605-55.281,47.421c-0.425,2.774-0.645,5.614-0.645,8.505v41.708
			c0,19.07,9.601,35.933,24.216,46.032C33.047,211.827,0,252.401,0,298.331v32.56c0,4.12,3.34,7.459,7.459,7.459h40.518
			c4.119,0,7.459-3.339,7.459-7.459c0-4.119-3.34-7.459-7.459-7.459H14.918v-25.101c0-23.545,10.058-46.066,28.32-63.418
			c10.652-10.12,23.493-17.706,37.203-22.265l8.912,17.314L76.466,285.9c-0.604,2.62,0.25,5.363,2.233,7.177l25.141,23.01
			c1.425,1.304,3.23,1.957,5.035,1.957s3.61-0.652,5.035-1.957l25.14-23.01c1.983-1.815,2.836-4.557,2.233-7.177l-12.886-55.937
			l8.912-17.315c13.71,4.559,26.551,12.144,37.204,22.265c13.404,12.735,22.38,28.257,26.212,44.923
			c0.239,1.551,0.555,3.076,0.919,4.582c0.784,4.576,1.188,9.223,1.188,13.913v25.101H72.839c-4.119,0-7.459,3.34-7.459,7.459
			c0,4.12,3.34,7.459,7.459,7.459h113c-23.526,19.576-38.716,48.246-38.716,79.38v32.56c0,4.12,3.34,7.459,7.459,7.459H195.1
			c4.119,0,7.459-3.339,7.459-7.459s-3.34-7.459-7.459-7.459h-33.058V417.73c0-23.545,10.058-46.066,28.32-63.418
			c10.652-10.12,23.493-17.706,37.203-22.265l8.912,17.315l-12.886,55.937c-0.604,2.62,0.25,5.362,2.233,7.177l25.141,23.011
			c1.425,1.304,3.23,1.957,5.035,1.957c1.805,0,3.611-0.652,5.036-1.957l25.14-23.011c1.983-1.815,2.836-4.557,2.233-7.177
			l-12.886-55.937l8.912-17.315c13.71,4.559,26.551,12.144,37.203,22.265c18.262,17.351,28.32,39.873,28.32,63.418v25.101H219.963
			c-4.119,0-7.459,3.339-7.459,7.459s3.34,7.459,7.459,7.459h137.454c4.119,0,7.459-3.339,7.459-7.459v-32.56
			c0-31.135-15.19-59.805-38.715-79.38h38.146c4.119,0,7.459-3.339,7.459-7.459c0-4.119-3.34-7.459-7.459-7.459h-55.14V298.33
			c0-4.692,0.406-9.342,1.19-13.92c0.362-1.501,0.677-3.02,0.915-4.565c3.83-16.67,12.808-32.195,26.214-44.933
			c10.653-10.12,23.494-17.706,37.204-22.265l8.912,17.314L370.716,285.9c-0.604,2.62,0.25,5.362,2.233,7.177l25.14,23.01
			c1.425,1.306,3.23,1.957,5.035,1.957c1.805,0,3.611-0.652,5.035-1.957l25.141-23.01c1.983-1.814,2.836-4.557,2.233-7.177
			l-12.886-55.938l8.912-17.314c13.71,4.559,26.551,12.145,37.203,22.265c18.262,17.351,28.32,39.873,28.32,63.418v25.101H389.171
			c-4.119,0-7.459,3.34-7.459,7.459c0,4.12,3.34,7.459,7.459,7.459h115.37c4.119,0,7.459-3.339,7.459-7.459v-32.56
			C512,252.401,478.953,211.827,434.834,197.918z M67.867,110.177c0-22.612,18.396-41.008,41.009-41.008
			s41.009,18.396,41.009,41.008v12.478c-17.274-4.261-24.383-22.043-24.706-22.872c-1.034-2.731-3.567-4.607-6.481-4.8
			c-2.914-0.189-5.672,1.331-7.058,3.901c-0.123,0.23-11.931,21.413-43.773,24.35V110.177z M108.877,300.472l-16.895-15.463
			l11.19-48.574h11.41l11.19,48.574L108.877,300.472z M95.314,208.947c1.455-0.239,2.915-0.442,4.378-0.611
			c0.207-0.024,0.414-0.044,0.621-0.067c1.16-0.126,2.32-0.227,3.482-0.309c0.322-0.023,0.644-0.049,0.967-0.068
			c0.953-0.058,1.906-0.087,2.858-0.113c0.419,0.009,0.834,0.032,1.255,0.032c0.421,0,0.836-0.023,1.255-0.032
			c0.953,0.027,1.906,0.056,2.857,0.113c0.323,0.019,0.645,0.046,0.969,0.068c1.162,0.083,2.321,0.183,3.48,0.309
			c0.208,0.022,0.416,0.043,0.624,0.067c1.462,0.169,2.921,0.372,4.376,0.611l-6.468,12.569h-14.184L95.314,208.947z
			 M110.509,192.852c-0.509-0.014-1.018-0.033-1.53-0.04c-0.068-0.002-0.135-0.002-0.203,0h-0.001
			c-0.511,0.007-1.019,0.026-1.53,0.04c-21.859-0.861-39.378-18.902-39.378-40.967v-13.681
			c25.382-1.934,40.976-13.502,49.279-22.244c5.816,8.511,16.244,19.304,32.739,21.929v13.996
			C149.886,173.95,132.367,191.991,110.509,192.852z M214.99,229.578L214.99,229.578c0.001-22.612,18.398-41.008,41.01-41.008
			c4.24,0,8.331,0.646,12.181,1.847c16.682,5.2,28.827,20.789,28.827,39.162v12.478c-17.273-4.261-24.383-22.042-24.705-22.872
			c-1.034-2.73-3.567-4.606-6.481-4.799c-2.911-0.183-5.672,1.331-7.058,3.901c-0.124,0.23-11.931,21.413-43.773,24.35V229.578z
			 M217.752,319.608v-7.574c2.043,1.918,4.225,3.687,6.537,5.284C222.082,318.014,219.903,318.781,217.752,319.608z M256,419.873
			l-16.895-15.464l11.191-48.574h11.41l11.19,48.574L256,419.873z M242.44,328.348c1.455-0.239,2.915-0.442,4.378-0.611
			c0.207-0.024,0.414-0.044,0.621-0.067c1.16-0.126,2.32-0.227,3.482-0.309c0.322-0.023,0.644-0.049,0.967-0.068
			c0.953-0.058,1.906-0.086,2.858-0.113c0.419,0.009,0.834,0.032,1.255,0.032s0.836-0.023,1.255-0.032
			c0.953,0.028,1.906,0.056,2.857,0.113c0.322,0.019,0.645,0.046,0.968,0.068c1.162,0.083,2.322,0.183,3.48,0.309
			c0.208,0.022,0.416,0.043,0.624,0.067c1.462,0.17,2.922,0.372,4.376,0.611l-6.469,12.57h-14.183L242.44,328.348z M294.248,319.608
			c-2.15-0.828-4.328-1.594-6.537-2.29c2.312-1.597,4.494-3.367,6.537-5.285V319.608z M297.009,271.286
			c0,2.105-0.16,4.173-0.467,6.194c-0.262,1.18-0.496,2.368-0.714,3.56c-4.266,17.407-19.667,30.482-38.195,31.212
			c-0.51-0.014-1.018-0.033-1.53-0.04c-0.068-0.002-0.135-0.002-0.203,0c-0.511,0.007-1.02,0.026-1.53,0.04
			c-18.524-0.729-33.925-13.799-38.193-31.203c-0.219-1.197-0.454-2.39-0.717-3.574c-0.307-2.02-0.467-4.087-0.467-6.19v-13.68
			c25.382-1.934,40.976-13.502,49.279-22.244c5.816,8.51,16.244,19.303,32.738,21.929V271.286z M362.115,110.177
			c0-22.612,18.396-41.008,41.008-41.008s41.009,18.396,41.009,41.008v12.478c-17.273-4.262-24.384-22.043-24.705-22.872
			c-1.034-2.73-3.567-4.606-6.481-4.799c-2.918-0.189-5.673,1.331-7.058,3.901c-0.124,0.23-11.93,21.413-43.772,24.35V110.177z
			 M403.123,300.472l-16.895-15.463l11.19-48.574h11.41l11.19,48.574L403.123,300.472z M389.563,208.947
			c1.455-0.239,2.914-0.442,4.376-0.611c0.208-0.024,0.416-0.045,0.624-0.067c1.159-0.126,2.319-0.227,3.48-0.309
			c0.323-0.023,0.645-0.049,0.969-0.068c0.952-0.058,1.905-0.086,2.857-0.113c0.419,0.009,0.834,0.032,1.255,0.032
			c0.421,0,0.836-0.023,1.255-0.032c0.953,0.027,1.906,0.056,2.858,0.113c0.322,0.019,0.645,0.046,0.968,0.068
			c1.162,0.083,2.323,0.183,3.482,0.309c0.207,0.022,0.414,0.043,0.621,0.067c1.463,0.17,2.922,0.372,4.378,0.611l-6.469,12.569
			h-14.183L389.563,208.947z M404.754,192.852c-0.509-0.014-1.018-0.033-1.53-0.04c-0.068-0.002-0.135-0.002-0.203,0h-0.001
			c-0.511,0.007-1.019,0.026-1.53,0.04c-21.857-0.861-39.376-18.902-39.376-40.967v-13.681
			c25.381-1.934,40.975-13.502,49.278-22.244c5.816,8.511,16.244,19.304,32.739,21.929v13.996
			C444.132,173.95,426.612,191.991,404.754,192.852z"/>
	</g>
</g>
<g>
</g>
<g>
</g>
<g>
</g>
<g>
</g>
<g>
</g>
<g>
</g>
<g>
</g>
<g>
</g>
<g>
</g>
<g>
</g>
<g>
</g>
<g>
</g>
<g>
</g>
<g>
</g>
<g>
</g>
</svg>
