<svg xmlns="http://www.w3.org/2000/svg" viewBox="0 0 512 512"><path d="M380.873 277.53c-19.118 0-34.672 15.519-34.672 34.593s15.554 34.592 34.672 34.592c19.118 0 34.672-15.518 34.672-34.592 0-19.074-15.554-34.593-34.672-34.593zm0 54.185c-10.847 0-19.672-8.789-19.672-19.592 0-10.804 8.825-19.593 19.672-19.593s19.672 8.789 19.672 19.593c0 10.803-8.825 19.592-19.672 19.592zM354.53 265.229a7.55 7.55 0 0 0-5.301-2.199c-1.979 0-3.91.8-5.31 2.199a7.52 7.52 0 0 0-2.19 5.301c0 1.979.79 3.909 2.19 5.3a7.553 7.553 0 0 0 5.31 2.2 7.55 7.55 0 0 0 5.301-2.2 7.544 7.544 0 0 0 2.189-5.3c0-1.971-.8-3.9-2.189-5.301zM331.04 244.04c-1.4-1.4-3.33-2.2-5.3-2.2-1.98 0-3.91.8-5.311 2.2a7.55 7.55 0 0 0-2.2 5.3c0 1.97.811 3.91 2.2 5.3 1.4 1.4 3.33 2.2 5.311 2.2 1.97 0 3.899-.8 5.3-2.2 1.4-1.39 2.2-3.33 2.2-5.3 0-1.97-.801-3.91-2.2-5.3zM389.2 252.961a7.512 7.512 0 0 0-5.301-2.2c-1.97 0-3.909.8-5.3 2.2a7.55 7.55 0 0 0-2.2 5.309c0 1.971.801 3.9 2.2 5.3a7.568 7.568 0 0 0 5.3 2.2c1.98 0 3.91-.81 5.301-2.2a7.545 7.545 0 0 0 2.199-5.3c0-1.979-.8-3.91-2.199-5.309zM360.12 237.349a7.534 7.534 0 0 0-5.301-2.2 7.559 7.559 0 0 0-5.31 2.2 7.562 7.562 0 0 0-2.19 5.3c0 1.971.801 3.91 2.19 5.301a7.554 7.554 0 0 0 5.31 2.199c1.971 0 3.9-.8 5.301-2.199a7.55 7.55 0 0 0 2.199-5.301c0-1.97-.8-3.909-2.199-5.3zM331.04 210.58c-1.4-1.4-3.33-2.2-5.3-2.2-1.98 0-3.91.8-5.311 2.2a7.586 7.586 0 0 0-2.2 5.3c0 1.98.811 3.91 2.2 5.31a7.58 7.58 0 0 0 5.311 2.19c1.97 0 3.899-.8 5.3-2.19a7.55 7.55 0 0 0 2.2-5.31c0-1.97-.801-3.9-2.2-5.3zM272.372 317.69h-32.395a7.5 7.5 0 0 0 0 15h32.395c4.143 0 7.5-3.357 7.5-7.5a7.5 7.5 0 0 0-7.5-7.5zM272.372 345.954h-32.395c-4.142 0-7.5 3.357-7.5 7.5s3.358 7.5 7.5 7.5h32.395c4.143 0 7.5-3.357 7.5-7.5s-3.357-7.5-7.5-7.5z"/><path d="M499.5 266.93h-50.997V71.216c0-6.893-5.607-12.5-12.5-12.5H293.039c-6.893 0-12.5 5.607-12.5 12.5V230.21h-27.06v-14.697h3.674c6.893 0 12.5-5.607 12.5-12.5v-34.326c0-6.893-5.607-12.5-12.5-12.5H119.129c-6.893 0-12.5 5.607-12.5 12.5v34.326c0 6.893 5.607 12.5 12.5 12.5h3.669v14.697H89.595c-15.301 0-27.748 12.421-27.748 27.687v46.14H38.132c-6.893 0-12.5 5.607-12.5 12.5v24.57H17.5c-9.649 0-17.5 7.851-17.5 17.5v126.291c0 9.65 7.851 17.5 17.5 17.5h137.642c9.649 0 17.5-7.85 17.5-17.5v-10.891h114.04c15.301 0 27.749-12.421 27.749-27.689v-34.706h115.331v78.285c0 6.893 5.607 12.5 12.5 12.5h45.866c6.893 0 12.5-5.607 12.5-12.5V309.566c6.365-.572 11.372-5.931 11.372-12.442V279.43c0-6.893-5.607-12.5-12.5-12.5zm-377.871-66.417v-29.326h133.024v29.326H231c-4.143 0-7.5 3.357-7.5 7.5s3.357 7.5 7.5 7.5h7.48v14.697H137.798v-14.697H191c4.143 0 7.5-3.357 7.5-7.5s-3.357-7.5-7.5-7.5h-69.371zM40.632 319.037h91.378v22.07H40.632v-22.07zM15 391.715h29.415v54.984H15v-54.984zm142.642 93.183c0 1.356-1.145 2.5-2.5 2.5H17.5c-1.355 0-2.5-1.145-2.5-2.5v-23.199h142.642v23.199zm0-108.184H137c-4.143 0-7.5 3.357-7.5 7.5s3.357 7.5 7.5 7.5h20.642v54.984H59.415v-54.984H97c4.143 0 7.5-3.357 7.5-7.5s-3.357-7.5-7.5-7.5H15v-18.107c0-1.355 1.145-2.5 2.5-2.5h137.642c1.355 0 2.5 1.145 2.5 2.5v18.107zm129.04 82.294h-114.04V447.09h126.75c-.404 6.637-5.942 11.918-12.71 11.918zm12.749-71.331h-89.753v-98.054h89.753v98.054zm0-113.055H206.23c-6.37 0-11.552 5.176-11.552 11.538v104.978c0 6.362 5.182 11.538 11.552 11.538h93.201v29.413H172.642v-73.482c0-9.649-7.851-17.5-17.5-17.5h-8.132v-24.57c0-6.893-5.607-12.5-12.5-12.5H76.847v-46.14c0-6.996 5.719-12.687 12.748-12.687h197.087c7.03 0 12.749 5.691 12.749 12.687v16.725zm130.331 121.991H314.431v-13.732h115.331v13.732zm0-87.047v58.314H314.431V257.897c0-12.177-7.923-22.535-18.892-26.232v-43.068H375c4.143 0 7.5-3.357 7.5-7.5s-3.357-7.5-7.5-7.5h-79.461V73.716h137.964v99.881H420c-4.143 0-7.5 3.357-7.5 7.5s3.357 7.5 7.5 7.5h13.503v78.333h-2.612c-6.893 0-12.5 5.607-12.5 12.5v17.694c0 6.512 5.006 11.87 11.371 12.442zm55.866 177.832h-40.866v-32.87l40.866-40.744v73.614zm0-94.795l-40.866 40.744v-30.206l40.866-40.744v30.206zm0-51.388l-40.866 40.744v-72.335h40.866v31.591zM497 294.624h-63.609V281.93H497v12.694z"/><path d="M238.952 99.8h-27.76c-12.336 0-22.372 10.034-22.372 22.367 0 12.334 10.036 22.368 22.372 22.368h27.76c12.336 0 22.372-10.034 22.372-22.368 0-12.333-10.036-22.367-22.372-22.367zm0 29.735h-27.76c-4.065 0-7.372-3.306-7.372-7.368s3.307-7.367 7.372-7.367h27.76c4.066 0 7.372 3.304 7.372 7.367s-3.307 7.368-7.372 7.368zM203.116 54.908a22.23 22.23 0 0 0-15.818-6.55 22.22 22.22 0 0 0-15.818 6.551l-19.63 19.624a22.219 22.219 0 0 0-6.553 15.817 22.213 22.213 0 0 0 6.553 15.816 22.222 22.222 0 0 0 15.818 6.551 22.222 22.222 0 0 0 15.818-6.551l19.63-19.624c4.226-4.225 6.553-9.842 6.553-15.816s-2.327-11.592-6.553-15.818zm-10.605 21.026l-19.63 19.625c-1.393 1.392-3.244 2.158-5.213 2.158s-3.82-.767-5.213-2.158a7.317 7.317 0 0 1-2.158-5.209 7.32 7.32 0 0 1 2.158-5.209l19.63-19.625a7.323 7.323 0 0 1 5.213-2.158c1.97 0 3.821.767 5.212 2.158a7.316 7.316 0 0 1 2.159 5.21 7.319 7.319 0 0 1-2.158 5.208zM261.512 35.778l-19.63-19.626a22.23 22.23 0 0 0-15.818-6.55 22.223 22.223 0 0 0-15.818 6.551 22.219 22.219 0 0 0-6.553 15.817 22.206 22.206 0 0 0 6.552 15.815l19.631 19.625a22.221 22.221 0 0 0 15.817 6.551 22.23 22.23 0 0 0 15.819-6.55 22.22 22.22 0 0 0 6.553-15.817 22.211 22.211 0 0 0-6.553-15.816zm-10.603 21.024a7.327 7.327 0 0 1-5.215 2.159 7.326 7.326 0 0 1-5.212-2.158l-19.631-19.625a7.313 7.313 0 0 1-2.157-5.208 7.313 7.313 0 0 1 2.158-5.21 7.323 7.323 0 0 1 5.213-2.158 7.33 7.33 0 0 1 5.214 2.158l19.63 19.626c1.392 1.391 2.157 3.24 2.157 5.208s-.767 3.817-2.157 5.208z"/></svg>