<?xml version="1.0" encoding="iso-8859-1"?>
<!-- Generator: Adobe Illustrator 19.0.0, SVG Export Plug-In . SVG Version: 6.00 Build 0)  -->
<svg version="1.1" id="Capa_1" xmlns="http://www.w3.org/2000/svg" xmlns:xlink="http://www.w3.org/1999/xlink" x="0px" y="0px"
	 viewBox="0 0 512 512" style="enable-background:new 0 0 512 512;" xml:space="preserve">
<g>
	<g>
		<path d="M343.847,266.323c3.955-10.074,5.961-20.672,5.961-31.498v-87.709c0-13.958-5.976-27.29-16.397-36.578L313.59,92.872
			c-3.173-2.828-4.992-6.887-4.992-11.136V50.307v-1.342v-34.48C308.598,6.499,302.099,0,294.112,0h-76.224
			c-7.987,0-14.486,6.499-14.486,14.486v34.48v1.342v31.427c0,4.25-1.819,8.309-4.992,11.136l-19.822,17.667
			c-10.421,9.288-16.397,22.62-16.397,36.578v87.709v0.003c0,10.822,2.005,21.418,5.959,31.492l6.154,15.677
			c2.482,6.322,3.138,13.198,1.899,19.884c-2.282,12.317-5.503,31.87-7.892,55.071c-0.424,4.117,2.569,7.797,6.685,8.221
			c4.11,0.423,7.797-2.569,8.221-6.685c2.339-22.706,5.49-41.831,7.72-53.877c1.749-9.444,0.821-19.156-2.685-28.089l-6.154-15.677
			c-2.349-5.982-3.85-12.19-4.517-18.527h156.833c-0.667,6.339-2.169,12.547-4.519,18.529l-6.153,15.673
			c-3.508,8.934-4.436,18.649-2.686,28.092c3.925,21.188,12.793,76.172,10.428,129.137c-0.093,1.396-1.369,20.528-2.895,38.731
			c-1.154,13.757-12.876,24.536-26.686,24.536h-91.813c-13.809,0-25.532-10.777-26.686-24.536
			c-1.528-18.209-2.805-37.359-2.896-38.733c-0.411-9.189-0.503-18.949-0.279-29.014c0.093-4.137-3.186-7.566-7.323-7.658
			c-4.129-0.1-7.567,3.185-7.659,7.323c-0.234,10.428-0.135,20.556,0.294,30.102c0.002,0.052,0.005,0.104,0.008,0.157
			c0.013,0.199,1.332,20.136,2.921,39.078c1.8,21.459,20.081,38.268,41.618,38.268h91.813c21.537,0,39.817-16.809,41.618-38.268
			c1.589-18.941,2.908-38.879,2.921-39.078c0.004-0.053,0.007-0.105,0.009-0.158c2.446-54.535-6.639-110.909-10.661-132.614
			c-1.238-6.686-0.581-13.564,1.901-19.886L343.847,266.323z M218.387,14.985h75.225v26.488h-75.225V14.985z M334.823,227.332
			H177.177v-72.723h65.835c4.138,0,7.493-3.355,7.493-7.493c0-4.138-3.355-7.493-7.493-7.493h-64.991
			c1.552-6.858,5.202-13.144,10.538-17.899l19.821-17.667c6.36-5.667,10.007-13.804,10.007-22.323V57.8h75.225v23.934
			c0,8.519,3.647,16.655,10.007,22.323l19.821,17.667c5.336,4.756,8.986,11.041,10.538,17.899h-43.013
			c-4.139,0-7.493,3.355-7.493,7.493c0,4.138,3.354,7.493,7.493,7.493h43.857V227.332z"/>
	</g>
</g>
<g>
</g>
<g>
</g>
<g>
</g>
<g>
</g>
<g>
</g>
<g>
</g>
<g>
</g>
<g>
</g>
<g>
</g>
<g>
</g>
<g>
</g>
<g>
</g>
<g>
</g>
<g>
</g>
<g>
</g>
</svg>
