<?xml version="1.0" encoding="iso-8859-1"?>
<!-- Generator: Adobe Illustrator 19.0.0, SVG Export Plug-In . SVG Version: 6.00 Build 0)  -->
<svg version="1.1" id="Capa_1" xmlns="http://www.w3.org/2000/svg" xmlns:xlink="http://www.w3.org/1999/xlink" x="0px" y="0px"
	 viewBox="0 0 512.002 512.002" style="enable-background:new 0 0 512.002 512.002;" xml:space="preserve">
<g>
	<g>
		<path d="M488.906,206.907c-3.934-1.541-8.383-0.834-11.881,1.535c-9.889,6.697-26.63,10.891-28.205,11.276
			c-2.089,0.414-18.985,3.929-38.316,12.931c-26.123,12.165-44.722,28.924-53.997,48.603
			c-14.042-9.677-44.221-23.703-101.153-23.703c-1.143,0-2.307,0.006-3.471,0.017c-0.058,0.001-0.116,0.002-0.174,0.004
			c-25.109,0.832-49.048,7.402-73.836,20.408c1.766-5.54,3.247-12.014,4.072-19.459c2.519-22.715-2.167-46.192-13.553-67.894
			c-5.287-10.079-11.506-19.693-18.483-28.578c-2.716-3.457-2.868-7.737-0.399-11.166c1.559-2.163,3.736-4.385,6.477-6.636
			c15.78,17.312,38.5,28.194,63.715,28.194c15.068,0,29.901-3.947,42.896-11.414c3.587-2.061,4.824-6.64,2.763-10.226
			c-2.061-3.588-6.643-4.825-10.226-2.763c-10.727,6.164-22.98,9.422-35.433,9.422c-39.281,0-71.238-31.957-71.238-71.239
			c0-39.281,31.957-71.238,71.238-71.238c39.282,0,71.239,31.957,71.239,71.238c0,10.543-2.247,20.691-6.68,30.162
			c-1.754,3.746-0.138,8.205,3.61,9.959c3.745,1.757,8.206,0.138,9.959-3.61c5.369-11.472,8.092-23.757,8.092-36.511
			C305.922,38.677,267.244,0,219.703,0c-47.541,0-86.219,38.677-86.219,86.219c0,4.697,0.392,9.302,1.118,13.797
			c-3.85,1.984-6.888,3.621-7.501,3.972c-22.029,12.609-41.529,29.623-57.961,50.571c-2.588,3.3-5.118,6.73-7.52,10.194
			c-2.356,3.4-1.511,8.067,1.888,10.424c3.401,2.355,8.066,1.51,10.424-1.888c2.234-3.224,4.589-6.415,6.996-9.485
			c15.232-19.419,33.271-35.17,53.612-46.813c0.788-0.447,2.165-1.19,3.87-2.085c2.182,6.165,5.049,12.004,8.505,17.438
			c-3.963,3.208-7.178,6.48-9.557,9.78c-6.435,8.934-6.133,20.387,0.771,29.176c6.414,8.169,12.134,17.012,16.998,26.285
			c9.993,19.047,14.118,39.547,11.93,59.282c-2.416,21.774-11.268,33.246-13.191,35.511c-1.86,1.243-6.752,4.513-10.829,7.238
			c-3.439,2.299-4.362,6.949-2.063,10.389c2.299,3.439,6.95,4.363,10.39,2.065l11.547-7.718c0.012-0.008,0.025-0.017,0.037-0.025
			l0.012-0.008c31.344-20.949,58.846-30.751,89.157-31.772c60.634-0.577,88.692,15.546,97.926,22.51
			c3.084,2.324,6.995,3.08,10.727,2.072c3.758-1.013,6.778-3.653,8.287-7.242c17.871-42.54,82.122-55.367,82.763-55.49
			c0.104-0.02,0.208-0.042,0.311-0.066c0.769-0.181,17.247-4.112,29.743-11.277V497.02l-37.201-0.007
			c-49.81,0.615-69.968-29.883-76.338-43.021c-2.82-5.817-9.736-8.522-15.747-6.168c-110.271,43.251-225.031,12.438-269.25-2.818
			c-12.805-4.418-23.744-12.254-30.804-22.064c-25.741-35.777-23.945-89.435-20.355-126.684c1.884-19.558,5.338-38.16,10.264-55.293
			c2.736-9.515,5.983-18.787,9.653-27.559c1.717-4.105-0.495-8.872-4.921-10.114c-3.697-1.037-7.541,1.076-9.019,4.619
			c-3.844,9.22-7.245,18.946-10.111,28.914c-5.18,18.014-8.806,37.525-10.779,57.995c-3.822,39.657-5.585,96.992,23.108,136.871
			c8.979,12.478,22.146,21.979,38.077,27.476c28.378,9.79,84.827,25.756,151.016,25.754c39.946-0.001,83.441-5.816,126.438-22.316
			c7.363,14.006,31.521,49.4,87.233,49.397c0.535,0,1.084-0.003,1.625-0.01L484.366,512c0.002,0,0.003,0,0.005,0
			c3.743,0,7.236-1.637,9.659-4.573c1.895-2.297,2.824-5.242,2.824-8.22v-280.67C496.856,213.419,493.763,208.81,488.906,206.907z"
			/>
	</g>
</g>
<g>
	<g>
		<path d="M219.703,39.364c-25.836,0-46.854,21.019-46.854,46.855c0,25.835,21.019,46.855,46.854,46.855
			c25.835,0,46.855-21.019,46.855-46.855S245.539,39.364,219.703,39.364z M219.703,118.093c-17.575,0-31.874-14.299-31.874-31.874
			s14.299-31.874,31.874-31.874c17.575-0.001,31.874,14.298,31.874,31.874S237.278,118.093,219.703,118.093z"/>
	</g>
</g>
<g>
</g>
<g>
</g>
<g>
</g>
<g>
</g>
<g>
</g>
<g>
</g>
<g>
</g>
<g>
</g>
<g>
</g>
<g>
</g>
<g>
</g>
<g>
</g>
<g>
</g>
<g>
</g>
<g>
</g>
</svg>
