<svg xmlns="http://www.w3.org/2000/svg" viewBox="0 0 512.002 512.002"><path d="M488.906 206.907c-3.934-1.541-8.383-.834-11.881 1.535-9.889 6.697-26.63 10.891-28.205 11.276-2.089.414-18.985 3.929-38.316 12.931-26.123 12.165-44.722 28.924-53.997 48.603-14.042-9.677-44.221-23.703-101.153-23.703a368.54 368.54 0 0 0-3.645.021c-25.109.832-49.048 7.402-73.836 20.408 1.766-5.54 3.247-12.014 4.072-19.459 2.519-22.715-2.167-46.192-13.553-67.894a187.138 187.138 0 0 0-18.483-28.578c-2.716-3.457-2.868-7.737-.399-11.166 1.559-2.163 3.736-4.385 6.477-6.636 15.78 17.312 38.5 28.194 63.715 28.194 15.068 0 29.901-3.947 42.896-11.414a7.49 7.49 0 0 0 2.763-10.226 7.49 7.49 0 0 0-10.226-2.763c-10.727 6.164-22.98 9.422-35.433 9.422-39.281 0-71.238-31.957-71.238-71.239 0-39.281 31.957-71.238 71.238-71.238 39.282 0 71.239 31.957 71.239 71.238 0 10.543-2.247 20.691-6.68 30.162a7.49 7.49 0 0 0 3.61 9.959c3.745 1.757 8.206.138 9.959-3.61 5.369-11.472 8.092-23.757 8.092-36.511C305.922 38.677 267.244 0 219.703 0s-86.219 38.677-86.219 86.219c0 4.697.392 9.302 1.118 13.797-3.85 1.984-6.888 3.621-7.501 3.972-22.029 12.609-41.529 29.623-57.961 50.571a216.57 216.57 0 0 0-7.52 10.194 7.493 7.493 0 0 0 1.888 10.424 7.494 7.494 0 0 0 10.424-1.888 200.804 200.804 0 0 1 6.996-9.485c15.232-19.419 33.271-35.17 53.612-46.813a154.11 154.11 0 0 1 3.87-2.085 85.89 85.89 0 0 0 8.505 17.438c-3.963 3.208-7.178 6.48-9.557 9.78-6.435 8.934-6.133 20.387.771 29.176a172.16 172.16 0 0 1 16.998 26.285c9.993 19.047 14.118 39.547 11.93 59.282-2.416 21.774-11.268 33.246-13.191 35.511l-10.829 7.238a7.492 7.492 0 0 0 8.327 12.454l11.547-7.718.037-.025.012-.008c31.344-20.949 58.846-30.751 89.157-31.772 60.634-.577 88.692 15.546 97.926 22.51a12.358 12.358 0 0 0 10.727 2.072 12.448 12.448 0 0 0 8.287-7.242c17.871-42.54 82.122-55.367 82.763-55.49.104-.02.208-.042.311-.066.769-.181 17.247-4.112 29.743-11.277V497.02l-37.201-.007c-49.81.615-69.968-29.883-76.338-43.021-2.82-5.817-9.736-8.522-15.747-6.168-110.271 43.251-225.031 12.438-269.25-2.818-12.805-4.418-23.744-12.254-30.804-22.064-25.741-35.777-23.945-89.435-20.355-126.684 1.884-19.558 5.338-38.16 10.264-55.293 2.736-9.515 5.983-18.787 9.653-27.559a7.493 7.493 0 0 0-4.921-10.114c-3.697-1.037-7.541 1.076-9.019 4.619-3.844 9.22-7.245 18.946-10.111 28.914-5.18 18.014-8.806 37.525-10.779 57.995-3.822 39.657-5.585 96.992 23.108 136.871 8.979 12.478 22.146 21.979 38.077 27.476 28.378 9.79 84.827 25.756 151.016 25.754 39.946-.001 83.441-5.816 126.438-22.316 7.363 14.006 31.521 49.4 87.233 49.397.535 0 1.084-.003 1.625-.01l39.603.008h.005c3.743 0 7.236-1.637 9.659-4.573 1.895-2.297 2.824-5.242 2.824-8.22v-280.67a12.446 12.446 0 0 0-7.948-11.63z"/><path d="M219.703 39.364c-25.836 0-46.854 21.019-46.854 46.855 0 25.835 21.019 46.855 46.854 46.855s46.855-21.019 46.855-46.855-21.019-46.855-46.855-46.855zm0 78.729c-17.575 0-31.874-14.299-31.874-31.874s14.299-31.874 31.874-31.874c17.575-.001 31.874 14.298 31.874 31.874s-14.299 31.874-31.874 31.874z"/></svg>