<svg xmlns="http://www.w3.org/2000/svg" viewBox="0 0 511.999 511.999"><path d="M451.509 188.703l-25.429-12.484V12.524C426.08 5.618 420.462 0 413.556 0h-29.055c-6.906 0-12.524 5.618-12.524 12.524v27.564h-64.879v-4.007c0-6.906-5.618-12.524-12.524-12.524h-77.147c-6.906 0-12.525 5.618-12.525 12.524v4.007h-64.879V12.524C140.023 5.618 134.404 0 127.498 0H98.443c-6.906 0-12.525 5.618-12.525 12.524v163.694l-25.429 12.484c-8.139 3.995-13.398 12.436-13.398 21.503 0 8.399 4.275 16.035 11.436 20.423 7.16 4.39 15.904 4.735 23.389.924l4.003-2.038v226.379h-2.395c-5.508 0-10.448 3.689-12.01 8.972l-9.184 31.058a12.42 12.42 0 0 0 1.977 11.047 12.419 12.419 0 0 0 10.034 5.029h363.32c3.989 0 7.646-1.832 10.034-5.029a12.419 12.419 0 0 0 1.977-11.048l-9.185-31.057v-.001c-1.563-5.283-6.502-8.971-12.01-8.971h-2.395V309.108a7.514 7.514 0 1 0-15.028 0v146.786h-24.045V209.621l24.045 12.242v39.362a7.514 7.514 0 1 0 15.028 0v-31.71l4.003 2.038a23.949 23.949 0 0 0 10.883 2.631c4.332 0 8.649-1.191 12.506-3.556 7.16-4.39 11.436-12.025 11.436-20.423-.002-9.066-5.262-17.507-13.401-21.502zM387.006 15.029h24.045v153.81l-24.045-11.805V15.029zm-79.909 40.09h64.879v24.045h-64.879V55.119zm0 43.081v-4.007h64.879v55.464l-14.38-7.06c-12.433-6.104-26.327-9.331-40.179-9.331h-53.903v-22.543h31.059c6.906.001 12.524-5.617 12.524-12.523zm-87.166-59.613h72.137v57.108h-72.137V38.587zm-2.504 72.137h31.059v22.543h-53.903c-13.852 0-27.746 3.228-40.179 9.331l-14.38 7.06V94.193h64.878V98.2c0 6.906 5.619 12.524 12.525 12.524zm-77.404-55.605h64.879v24.045h-64.879V55.119zm-39.075-40.09h24.045v142.006l-24.045 11.805V15.029zm317.618 455.894h8.038l7.703 26.047H77.692l7.703-26.047H418.566zm-317.618-15.028V221.864l24.045-12.242v246.273h-24.045zm147.537-116.522h-45.256c-13.875 0-25.162 11.288-25.162 25.161 0 6.828 2.737 13.025 7.167 17.563-4.43 4.538-7.167 10.735-7.167 17.562 0 13.875 11.288 25.162 25.162 25.162h13.403a7.514 7.514 0 1 0 0-15.028h-13.403c-5.588 0-10.133-4.546-10.133-10.133 0-5.081 3.763-9.287 8.645-10.011.492.029.987.048 1.487.048h105.541c.5 0 .995-.019 1.487-.048 4.883.723 8.645 4.93 8.645 10.011 0 5.587-4.546 10.133-10.133 10.133h-46.257a7.514 7.514 0 1 0 0 15.028h46.257c13.875 0 25.162-11.288 25.162-25.162 0-6.827-2.737-13.024-7.167-17.562 4.43-4.538 7.167-10.736 7.167-17.563 0-13.874-11.288-25.161-25.162-25.161h-45.256v-156.21h53.259a76.491 76.491 0 0 1 34.547 8.289l20.655 10.517v253.925h-231.95V201.969l20.655-10.517a76.498 76.498 0 0 1 34.547-8.289h53.259v156.21zm60.283 15.029c5.588 0 10.133 4.545 10.133 10.132.002 5.082-3.761 9.289-8.643 10.012a25.236 25.236 0 0 0-1.487-.048H203.229c-.499 0-.994.019-1.487.048-4.883-.723-8.646-4.931-8.646-10.012 0-5.587 4.546-10.132 10.133-10.132h105.539zm136.849-136.586c-2.708 1.659-5.884 1.786-8.715.344l-78.761-40.1a91.599 91.599 0 0 0-41.367-9.926H195.225a91.602 91.602 0 0 0-41.367 9.926l-78.761 40.1c-2.831 1.442-6.008 1.315-8.715-.344-2.708-1.66-4.261-4.435-4.261-7.61a8.982 8.982 0 0 1 4.992-8.011l93.914-46.105a76.56 76.56 0 0 1 33.555-7.792h122.834a76.55 76.55 0 0 1 33.555 7.792l93.914 46.105a8.985 8.985 0 0 1 4.992 8.011c.002 3.176-1.552 5.949-4.26 7.61z"/></svg>